<svg width="10" height="12" viewBox="0 0 10 12" fill="none" xmlns="http://www.w3.org/2000/svg">
<path d="M5.15111 7.05613C6.41177 7.05613 7.43699 6.03091 7.43699 4.77025C7.43699 3.50959 6.41177 2.48438 5.15111 2.48438C3.89045 2.48438 2.86523 3.50959 2.86523 4.77025C2.86523 6.03091 3.89045 7.05613 5.15111 7.05613ZM5.15111 3.62731C5.78144 3.62731 6.29405 4.13992 6.29405 4.77025C6.29405 5.40058 5.78144 5.91319 5.15111 5.91319C4.52078 5.91319 4.00817 5.40058 4.00817 4.77025C4.00817 4.13992 4.52078 3.62731 5.15111 3.62731Z" fill="white"/>
<path d="M4.66808 11.6082C4.7648 11.6773 4.88068 11.7144 4.99954 11.7144C5.11839 11.7144 5.23427 11.6773 5.33099 11.6082C5.50471 11.4854 9.58786 8.53717 9.57129 4.85691C9.57129 2.33616 7.52028 0.285156 4.99954 0.285156C2.47879 0.285156 0.427785 2.33616 0.427785 4.85405C0.411212 8.53717 4.49436 11.4854 4.66808 11.6082ZM4.99954 0.856625C6.89053 0.856625 8.99977 2.96306 8.99977 4.85691C9.01177 7.39309 5.92074 10.3962 4.99954 11.1431C4.0789 10.3956 0.987202 7.3948 0.999203 4.85691C0.999203 2.96592 3.10854 0.856625 4.99954 0.856625Z" fill="white"/>
<circle cx="5.36523" cy="4.98438" r="1.5" fill="black"/>
</svg>
