<svg width="27" height="27" fill="none" xmlns="http://www.w3.org/2000/svg"><path d="M15.705 9.315 16.83.945C15.75.675 14.67 0 13.5 0s-2.25.675-3.375.99C9 1.26 7.74 1.215 6.75 1.8c-.99.585-1.62 1.71-2.43 2.52S2.385 5.76 1.8 6.75c-.585.99-.54 2.25-.855 3.375C.675 11.25 0 12.33 0 13.5s.675 2.25.99 3.375c.27 1.125.225 2.385.81 3.375.585.99 1.71 1.62 2.52 2.43s1.395 1.935 2.43 2.52c.99.585 2.25.54 3.375.855 1.125.27 2.205.945 3.375.945s2.25-.675 3.375-.99c1.125-.315 2.385-.27 3.375-.855.99-.585 1.62-1.71 2.43-2.52s1.935-1.395 2.52-2.43c.585-.99.54-2.25.855-3.375.27-1.08.945-2.16.945-3.33s-.945-3.645-.945-3.645l-10.35-.54Z" fill="#DDA85F"/><path d="M25.83 9.18c-.45.135-1.08.09-1.755-.18a2.684 2.684 0 0 1-1.71-2.025c-.45.135-1.53 0-2.25-.45-1.08-.675-1.305-2.565-1.305-2.565-1.215-.36-2.115-1.8-1.98-3.015C15.84.675 14.58.72 13.5.72s-2.07.63-3.06.9c-1.035.27-2.205.225-3.105.765-.9.54-1.485 1.575-2.205 2.295-.765.765-1.8 1.305-2.295 2.205-.54.9-.495 2.07-.765 3.105-.27.99-.9 1.98-.9 3.06s.63 2.07.9 3.06c.27 1.035.225 2.205.765 3.105.54.9 1.575 1.485 2.295 2.205.765.765 1.305 1.8 2.205 2.295.9.54 2.07.495 3.105.765.99.27 1.98.9 3.06.9s2.07-.63 3.06-.9c1.035-.27 2.205-.225 3.105-.765.9-.54 1.485-1.575 2.205-2.295.765-.765 1.8-1.305 2.295-2.205.54-.9.495-2.07.765-3.105.27-.99 1.35-1.8 1.485-2.88.36-1.755-.54-3.735-.585-4.05Z" fill="#F2CB7D"/><path d="m21.645 3.96-.63.63-.585-.63.585-.585.63.585Zm2.565 3.15-.27.315-.315-.315.315-.315.27.315Zm-2.25-2.07-.315.315-.315-.315.315-.315.315.315Zm-2.79-2.745-.315.315-.315-.315.315-.315.315.315Zm5.67 5.94-.315.315-.315-.315.315-.315.315.315Zm.27-1.125-.315.315-.315-.315.315-.315.315.315Z" fill="#DDA85F"/><path d="M4.41 8.37c-.45.765.225 2.16 1.125 2.565 1.305.54 2.07.63 2.88-.765.27-.495.63-1.8.495-2.115-.18-.45-.945-1.35-1.44-1.35C6.075 6.75 4.725 7.83 4.41 8.37Z" fill="#6D4934"/><path d="M4.635 8.37c-.315.54.495 2.16 1.575 2.025 1.485-.18 1.35-3.24.72-3.24-1.08 0-2.07.81-2.295 1.215Z" fill="#A37F6A"/><path d="M19.44 16.695c.63-.18 1.08-1.305.81-1.98-.405-1.035-.81-1.485-1.98-1.17-.405.135-1.35.63-1.44.855-.135.36-.225 1.26.045 1.53.765.765 2.115.9 2.565.765Z" fill="#6D4934"/><path d="M18.81 15.615c.495-.135 1.26-1.665.45-1.755-1.395-.225-2.475.45-2.34 1.215.135.765 1.53.63 1.89.54Z" fill="#A37F6A"/><path d="M10.305 19.125c-.135-.54-1.125-.945-1.755-.675-.9.36-1.305.675-.99 1.71.09.36.54 1.17.765 1.215.315.135 1.08.18 1.305-.045.675-.63.765-1.8.675-2.205Z" fill="#6D4934"/><path d="M9.54 18.72c-.09-.405-1.98.18-1.8.9.36 1.215.36 1.395.72 1.35.675-.18 1.125-1.935 1.08-2.25Z" fill="#A37F6A"/><path d="M22.095 10.575c-.54.135-.945 1.125-.675 1.755.36.9 1.215 1.035 2.16.54.81-.405.855-1.845.63-2.115-.675-.675-1.71-.27-2.115-.18Z" fill="#6D4934"/><path d="M21.87 11.07c-.27.315-.495 1.575.18 1.395 1.215-.36 2.07-1.575 1.53-1.755-.675-.225-1.395 0-1.71.36Z" fill="#A37F6A"/><path d="m9.333 6.35.891-.89.891.89-.891.891-.891-.89Z" fill="#6D4934"/><path d="m5.718 14.167.89-.89.891.89-.89.89-.891-.89Zm8.996 5.098.891-.891.891.89-.89.892-.892-.891Zm-1.197-2.485 1.21-1.21 1.208 1.21-1.209 1.21-1.209-1.21ZM10.213 3.522l1.21-1.209 1.209 1.21-1.21 1.208-1.209-1.209Z" fill="#DDA85F"/><path d="m17.605 19.956.89-.89.892.89-.891.891-.891-.89Zm3.58-5.01.89-.89.891.89-.89.892-.892-.891Zm-3.27-4.76.446-.445.445.446-.445.445-.446-.445ZM5.277 16.32l.445-.446.446.446-.446.445-.445-.445Z" fill="#6D4934"/></svg>