<svg  fill="none" viewBox="0 0 20 20" xmlns="http://www.w3.org/2000/svg"><path d="M17.639 10.53V9.466L18.972 8.3a1.389 1.389 0 0 0 .264-1.77L17.597 3.75a1.39 1.39 0 0 0-1.201-.694 1.389 1.389 0 0 0-.445.07l-1.687.569a7.892 7.892 0 0 0-.91-.521L13 1.425A1.389 1.389 0 0 0 11.611.307h-3.25a1.389 1.389 0 0 0-1.389 1.118l-.354 1.75a7.974 7.974 0 0 0-.917.52L4.05 3.1a1.389 1.389 0 0 0-.445-.042 1.389 1.389 0 0 0-1.201.694L.763 6.53a1.389 1.389 0 0 0 .286 1.743L2.36 9.474v1.062L1.05 11.703a1.389 1.389 0 0 0-.285 1.77l1.639 2.778a1.389 1.389 0 0 0 1.201.695c.151 0 .301-.023.445-.07l1.687-.57c.291.194.595.368.91.522L7 18.578a1.389 1.389 0 0 0 1.389 1.118h3.278a1.39 1.39 0 0 0 1.389-1.118l.354-1.75c.316-.154.623-.328.916-.521l1.68.57c.144.047.294.07.445.069a1.39 1.39 0 0 0 1.202-.695l1.583-2.777a1.39 1.39 0 0 0-.285-1.744l-1.312-1.2Zm-1.243 5.027-2.382-.806a6.153 6.153 0 0 1-1.882 1.09l-.493 2.494H8.36l-.493-2.466a6.5 6.5 0 0 1-1.875-1.09l-2.389.778-1.639-2.778 1.89-1.666a6.181 6.181 0 0 1 0-2.174l-1.89-1.715 1.64-2.778 2.381.805a6.153 6.153 0 0 1 1.882-1.09l.493-2.493h3.278l.493 2.465a6.5 6.5 0 0 1 1.875 1.09l2.389-.777 1.639 2.778-1.89 1.666a6.18 6.18 0 0 1 0 2.174l1.89 1.715-1.64 2.778Z" fill="#EDF6FF"/><path d="M10 14.167a4.167 4.167 0 1 1 4.167-4.166 4.124 4.124 0 0 1-4.166 4.166Zm0-6.944A2.715 2.715 0 0 0 7.224 10 2.715 2.715 0 0 0 10 12.778a2.714 2.714 0 0 0 2.777-2.777 2.714 2.714 0 0 0-2.777-2.778Z" fill="#EDF6FF"/></svg>