<svg width="168" height="80" fill="none"
  xmlns="http://www.w3.org/2000/svg">
  <g clip-path="url(#a)">
    <path d="M13 51v-1c-1.045-6.854-3.732-11.842-2-19C14.79 15.342 30.983 4.66 47 8c6.202 1.294 10.774 4.802 16 8C55.325-.919 29.71-1.498 17 9 4.35 19.45 4.773 37.792 13 51Z" fill="url(#b)" />
    <path d="m67.53 21.471-.869-.496c-5.45-4.314-8.376-9.078-15.492-11.145-15.567-4.524-32.97 4.197-38.13 19.685-1.998 5.998-1.275 11.68-1.12 17.782C1.03 32.25 13.472 9.85 29.035 4.105c15.49-5.717 31.121 3.69 38.494 17.366Z" fill="url(#c)" />
    <path d="M9 50v5H8v-1l-2 4c7.31 9.986 15.882 15.033 28 15v-1h-2l1-1v-1l-1-1 2-1c-10.654-1.567-18.149-9.914-24-18H9Z" fill="url(#d)" />
    <path d="M16 75c12.25 2.9 29.28 4.822 41-1-2.03-5.383-9.36-2.12-13-1v1l2 1-22-1v-1l5 1c-3.56-2.978-12.79-5.864-13 1Z" fill="#A3A3A3" />
    <path d="M24 74v1l22 1c-2.58-2.922-4.664-1.162-8-1-4.5.219-9.498-.819-14-1Z" fill="#BBBFB5" />
    <path d="m32 68 1 1v1c-1.262.72-.23 1.737 1 2l-6 1c10.246 1.935 28.446.575 34-10l-15 5H32Z" fill="url(#e)" />
    <path d="M12 38c8.992-.001 17.152-8.855 24-14 2.82-2.119 6.183-4.983 8-8 5.741 3.946 11.154 10.06 16 15 3.528 3.596 5.675 6.996 11 7l-8-8V19h-8v3c-2.581-2.18-6.432-8.915-10-9-2.617-.063-7.024 4.485-9 6-7.655 5.87-18.083 11.456-24 19Z" fill="#611F23" />
    <path d="M46 29c-.392 3.022-.294 6.979 0 10 3.032.242 6.968.292 10 0 .233-3.021.283-6.978 0-10-3.032-.305-6.969-.403-10 0Zm1 1c1.15-.287 2.85-.245 4 0 .114 1.188.223 2.813 0 4-1.15.128-2.85.04-4 0-.172-1.098-.173-2.723 0-4Zm4 0c1.15-.238 2.85-.106 4 0 .26 1.188.056 2.813 0 4-1.07.083-2.758.096-4 0-.15-1.032-.194-2.613 0-4Zm-4 4c1.15-.084 2.85-.093 4 0 .202 1.292.14 2.885 0 4-1.081.143-2.748.211-4 0-.052-1.133-.115-2.694 0-4Zm4 0h4c.162 1.272.182 2.907 0 4-1.15.144-2.85.21-4 0-.122-.97-.217-2.499 0-4Z" fill="#611F23" />
    <path d="M12 11C2.591 20.071-1.873 32.245 1 45c1.019 4.522 3.322 8.743 5 13h1l1-4v1h1l1-5c-3.529-8.163-5.19-16.102-3-25 .994-4.039 5.338-10.229 5-14Z" fill="url(#f)" />
  </g>
  <path d="M66.79 70c-.233 0-.417-.03-.55-.09-.127-.06-.217-.177-.27-.35-.053-.173-.08-.427-.08-.76v-5.4h.9v5.4c0 .3.04.543.12.73.087.18.28.27.58.27h.2v.2h-.9Zm7.872.1-4.3-5.35V70h-.4v-5.4c0-.3-.064-.54-.19-.72-.127-.187-.364-.28-.71-.28h-.1v-.2h.65c.326 0 .593.053.8.16.213.107.396.253.55.44l3.5 4.35V63.4h.4v6.7h-.2Zm5.185 0-2.32-5.53c-.16-.373-.313-.633-.46-.78-.146-.153-.36-.243-.64-.27v-.2c.027 0 .08-.003.16-.01.074-.007.134-.01.18-.01.167 0 .354.027.56.08.207.053.414.17.62.35.214.18.4.46.56.84l1.71 4.03 2.2-5.2h.48l-2.87 6.7h-.18Zm5.337-.1v-5.4c0-.3-.044-.54-.13-.72-.08-.187-.27-.28-.57-.28h-.2v-.2h4.26c.233 0 .41.04.53.12.12.073.203.173.25.3.046.12.07.247.07.38v.75h-.2c0-.4-.11-.69-.33-.87-.214-.187-.52-.28-.92-.28h-1.86v2.6h2.7v.4h-2.7v2.8h1.75c.453 0 .81-.083 1.07-.25.266-.167.476-.45.63-.85l.2.05-.35.95a.758.758 0 0 1-.27.37c-.12.087-.28.13-.48.13h-3.45Zm8.668.17a3.77 3.77 0 0 1-.81-.09 3.206 3.206 0 0 1-.74-.24 1.718 1.718 0 0 1-.53-.38.76.76 0 0 1-.2-.51v-1.07h.18c.114.673.334 1.157.66 1.45.334.293.783.44 1.35.44.227 0 .44-.037.64-.11.2-.08.36-.197.48-.35a.85.85 0 0 0 .19-.56 1.08 1.08 0 0 0-.28-.75c-.18-.207-.453-.417-.82-.63l-1.23-.73c-.427-.253-.73-.51-.91-.77-.173-.26-.26-.577-.26-.95 0-.513.177-.923.53-1.23.36-.313.83-.47 1.41-.47.247 0 .497.027.75.08.254.053.487.133.7.24.213.1.383.223.51.37.134.147.2.317.2.51v1.07h-.18c-.113-.673-.33-1.153-.65-1.44-.32-.287-.763-.43-1.33-.43-.193 0-.38.043-.56.13-.18.08-.326.197-.44.35a.876.876 0 0 0-.16.53c0 .287.093.523.28.71.187.187.463.387.83.6l1.23.73c.427.253.74.5.94.74.2.233.3.537.3.91 0 .56-.186 1.01-.56 1.35-.373.333-.88.5-1.52.5Zm6.082-.17v-6.2h-.9c-.4 0-.71.093-.93.28-.213.18-.32.47-.32.87h-.2v-.75c0-.133.024-.26.07-.38a.579.579 0 0 1 .25-.3c.127-.08.304-.12.53-.12h4.65v.4h-2.25V70h-.9Zm9.58 0c-.233 0-.416-.03-.55-.09-.126-.06-.216-.177-.27-.35-.053-.173-.08-.427-.08-.76v-5.4h.9v5.4c0 .3.04.543.12.73.087.18.28.27.58.27h.2v.2h-.9Zm7.872.1-4.3-5.35V70h-.4v-5.4c0-.3-.063-.54-.19-.72-.127-.187-.363-.28-.71-.28h-.1v-.2h.65c.327 0 .593.053.8.16.213.107.397.253.55.44l3.5 4.35V63.4h.4v6.7h-.2Zm3.116-.1v-5.4c0-.3-.044-.54-.13-.72-.08-.187-.27-.28-.57-.28h-.2v-.2h3.99c.233 0 .41.04.53.12a.58.58 0 0 1 .25.3c.046.12.07.247.07.38v.75h-.2c0-.4-.11-.69-.33-.87-.214-.187-.52-.28-.92-.28h-1.59v2.65h2.26v.4h-2.26V70h-.9Zm8.783.2c-.633 0-1.183-.153-1.65-.46a3.133 3.133 0 0 1-1.07-1.26 4.101 4.101 0 0 1-.38-1.78c0-.653.127-1.243.38-1.77.253-.533.61-.953 1.07-1.26.467-.313 1.017-.47 1.65-.47s1.18.157 1.64.47a3.02 3.02 0 0 1 1.08 1.26c.253.527.38 1.117.38 1.77s-.127 1.247-.38 1.78a3.102 3.102 0 0 1-1.08 1.26c-.46.307-1.007.46-1.64.46Zm0-.4c.44 0 .817-.127 1.13-.38.313-.253.553-.61.72-1.07.167-.467.25-1.017.25-1.65s-.083-1.18-.25-1.64c-.167-.467-.407-.827-.72-1.08-.313-.253-.69-.38-1.13-.38-.433 0-.81.127-1.13.38-.313.253-.553.613-.72 1.08-.167.46-.25 1.007-.25 1.64s.083 1.183.25 1.65c.167.46.407.817.72 1.07.32.253.697.38 1.13.38Zm9.951.3a1.52 1.52 0 0 1-.63-.13 1.939 1.939 0 0 1-.56-.45 6.807 6.807 0 0 1-.6-.87l-1-1.7h-.7V70h-.9v-5.4c0-.3-.044-.54-.13-.72-.08-.187-.27-.28-.57-.28h-.2v-.2h2.6c.166 0 .36.013.58.04.22.02.44.063.66.13.226.067.433.167.62.3.193.133.346.307.46.52.12.213.18.48.18.8 0 .38-.084.687-.25.92-.16.227-.364.4-.61.52a3.7 3.7 0 0 1-.74.27l1.05 1.75c.253.427.48.72.68.88.2.153.423.243.67.27v.2a.984.984 0 0 1-.25.07c-.107.02-.227.03-.36.03Zm-3.49-3.5h.72c.146 0 .31-.027.49-.08.18-.053.353-.133.52-.24.166-.113.303-.26.41-.44.106-.18.16-.4.16-.66s-.054-.48-.16-.66a1.377 1.377 0 0 0-.41-.44 1.87 1.87 0 0 0-1.01-.33 3.196 3.196 0 0 0-.72.1v2.75Zm13.407 3.85c-.48 0-.857-.077-1.13-.23a1.19 1.19 0 0 1-.56-.69c-.107-.32-.16-.73-.16-1.23v-3.85l-2.5 5.55h-.2l-2.6-5.65V70h-.4v-6.6h.95l2.4 5.2 2.35-5.2h.9v4.9c0 .607.077 1.083.23 1.43.153.347.393.52.72.52v.2Zm2.156-.45v-5.4c0-.3-.043-.54-.13-.72-.08-.187-.27-.28-.57-.28h-.2v-.2h4.26c.233 0 .41.04.53.12a.58.58 0 0 1 .25.3c.047.12.07.247.07.38v.75h-.2c0-.4-.11-.69-.33-.87-.213-.187-.52-.28-.92-.28h-1.86v2.6h2.7v.4h-2.7v2.8h1.75c.453 0 .81-.083 1.07-.25.267-.167.477-.45.63-.85l.2.05-.35.95a.753.753 0 0 1-.27.37c-.12.087-.28.13-.48.13h-3.45Zm6.909 0v-5.4c0-.3-.044-.54-.13-.72-.08-.187-.27-.28-.57-.28h-.2v-.2h2.62c1.32 0 2.303.293 2.95.88.653.587.98 1.38.98 2.38 0 .647-.14 1.223-.42 1.73-.274.5-.684.893-1.23 1.18-.54.287-1.214.43-2.02.43h-1.98Zm1.95-.35c.493 0 .936-.12 1.33-.36.393-.24.703-.58.93-1.02.233-.447.35-.97.35-1.57 0-.593-.114-1.11-.34-1.55a2.586 2.586 0 0 0-.93-1.03 2.508 2.508 0 0 0-1.36-.37c-.147 0-.307.013-.48.04a4.13 4.13 0 0 0-.52.12v5.61a8.303 8.303 0 0 0 .71.12c.113.007.216.01.31.01Z" fill="#611F23" />
  <path d="M28.05 58.425a9.424 9.424 0 0 1-2.025-.225 8.02 8.02 0 0 1-1.85-.6c-.55-.267-.992-.583-1.325-.95-.333-.383-.5-.808-.5-1.275V52.7h.45c.283 1.683.833 2.892 1.65 3.625.833.733 1.958 1.1 3.375 1.1.567 0 1.1-.092 1.6-.275.5-.2.9-.492 1.2-.875.317-.383.475-.85.475-1.4 0-.733-.233-1.358-.7-1.875-.45-.517-1.133-1.042-2.05-1.575L25.275 49.6c-1.067-.633-1.825-1.275-2.275-1.925-.433-.65-.65-1.442-.65-2.375 0-1.283.442-2.308 1.325-3.075.9-.783 2.075-1.175 3.525-1.175.617 0 1.242.067 1.875.2a7.219 7.219 0 0 1 1.75.6c.533.25.958.558 1.275.925.333.367.5.792.5 1.275v2.675h-.45c-.283-1.683-.825-2.883-1.625-3.6-.8-.717-1.908-1.075-3.325-1.075-.483 0-.95.108-1.4.325-.45.2-.817.492-1.1.875-.267.367-.4.808-.4 1.325 0 .717.233 1.308.7 1.775.467.467 1.158.967 2.075 1.5l3.075 1.825c1.067.633 1.85 1.25 2.35 1.85.5.583.75 1.342.75 2.275 0 1.4-.467 2.525-1.4 3.375-.933.833-2.2 1.25-3.8 1.25ZM36.98 58V44.5c0-.75-.108-1.35-.325-1.8-.2-.467-.675-.7-1.425-.7h-.5v-.5h2.25c.583 0 1.033.075 1.35.225.333.15.567.442.7.875s.2 1.067.2 1.9V49h7.5v-7.5h2.25V55c0 .75.1 1.358.3 1.825.217.45.7.675 1.45.675h.5v.5h-2.25c-.583 0-1.042-.075-1.375-.225-.317-.15-.542-.442-.675-.875s-.2-1.067-.2-1.9v-5h-7.5v8h-2.25Zm23.413.5c-1.583 0-2.958-.383-4.125-1.15-1.15-.783-2.041-1.833-2.675-3.15-.633-1.333-.95-2.817-.95-4.45s.317-3.108.95-4.425c.633-1.333 1.525-2.383 2.675-3.15C57.435 41.392 58.81 41 60.393 41c1.584 0 2.95.392 4.1 1.175 1.167.767 2.067 1.817 2.7 3.15.633 1.317.95 2.792.95 4.425s-.317 3.117-.95 4.45c-.633 1.317-1.533 2.367-2.7 3.15-1.15.767-2.516 1.15-4.1 1.15Zm0-1c1.1 0 2.042-.317 2.825-.95.783-.633 1.383-1.525 1.8-2.675.417-1.167.625-2.542.625-4.125 0-1.583-.208-2.95-.625-4.1-.416-1.167-1.017-2.067-1.8-2.7-.783-.633-1.725-.95-2.825-.95-1.083 0-2.025.317-2.825.95-.783.633-1.383 1.533-1.8 2.7-.416 1.15-.625 2.517-.625 4.1 0 1.583.209 2.958.625 4.125.417 1.15 1.017 2.042 1.8 2.675.8.633 1.742.95 2.825.95Zm22.352.75a3.806 3.806 0 0 1-1.575-.325c-.466-.233-.933-.608-1.4-1.125-.45-.533-.95-1.258-1.5-2.175l-2.5-4.25h-1.75V58h-2.25V44.5c0-.75-.108-1.35-.325-1.8-.2-.467-.675-.7-1.425-.7h-.5v-.5h6.5c.417 0 .9.033 1.45.1.55.05 1.1.158 1.65.325a5.142 5.142 0 0 1 1.55.75c.483.333.867.767 1.15 1.3.3.533.45 1.2.45 2 0 .95-.208 1.717-.625 2.3-.4.567-.908 1-1.525 1.3-.617.3-1.233.525-1.85.675l2.625 4.375c.633 1.067 1.2 1.8 1.7 2.2.5.383 1.058.608 1.675.675v.5c-.133.067-.341.125-.625.175-.266.05-.566.075-.9.075ZM74.02 49.5h1.8c.367 0 .775-.067 1.225-.2.45-.133.883-.333 1.3-.6.417-.283.758-.65 1.025-1.1.267-.45.4-1 .4-1.65 0-.65-.133-1.2-.4-1.65a3.414 3.414 0 0 0-1.025-1.1 4.66 4.66 0 0 0-1.3-.625c-.45-.133-.858-.2-1.225-.2-.266 0-.575.025-.925.075-.333.05-.625.108-.875.175V49.5ZM90.388 58V42.5h-2.25c-1 0-1.775.233-2.325.7-.533.45-.8 1.175-.8 2.175h-.5V43.5c0-.333.059-.65.175-.95.117-.317.325-.567.625-.75.317-.2.759-.3 1.325-.3h11.625v1h-5.625V58h-2.25Zm28.05.25a3.81 3.81 0 0 1-1.575-.325c-.466-.233-.933-.608-1.4-1.125-.45-.533-.95-1.258-1.5-2.175l-2.5-4.25h-1.75V58h-2.25V44.5c0-.75-.108-1.35-.325-1.8-.2-.467-.675-.7-1.425-.7h-.5v-.5h6.5c.417 0 .9.033 1.45.1.55.05 1.1.158 1.65.325a5.132 5.132 0 0 1 1.55.75 3.6 3.6 0 0 1 1.15 1.3c.3.533.45 1.2.45 2 0 .95-.208 1.717-.625 2.3-.4.567-.908 1-1.525 1.3-.616.3-1.233.525-1.85.675l2.625 4.375c.634 1.067 1.2 1.8 1.7 2.2.5.383 1.059.608 1.675.675v.5c-.133.067-.341.125-.625.175-.266.05-.566.075-.9.075Zm-8.725-8.75h1.8a4.35 4.35 0 0 0 1.225-.2c.45-.133.884-.333 1.3-.6.417-.283.759-.65 1.025-1.1.267-.45.4-1 .4-1.65 0-.65-.133-1.2-.4-1.65a3.404 3.404 0 0 0-1.025-1.1 4.653 4.653 0 0 0-1.3-.625 4.35 4.35 0 0 0-1.225-.2c-.266 0-.575.025-.925.075a8.1 8.1 0 0 0-.875.175V49.5Zm18.623 8.75c-1.616 0-2.891-.275-3.825-.825-.933-.55-1.591-1.367-1.975-2.45-.383-1.1-.575-2.467-.575-4.1V44.5c0-.75-.108-1.35-.325-1.8-.2-.467-.675-.7-1.425-.7h-.5v-.5h2.25c.584 0 1.034.075 1.35.225.334.15.567.442.7.875.134.433.2 1.067.2 1.9v7.125c0 1.75.325 3.125.975 4.125.65 1 1.8 1.5 3.45 1.5 1.284 0 2.292-.225 3.025-.675.734-.45 1.259-1.142 1.575-2.075.317-.95.475-2.158.475-3.625V41.5h1v9.375c0 1.633-.175 3-.525 4.1-.35 1.083-.983 1.9-1.9 2.45-.916.55-2.233.825-3.95.825Zm10.963-.25V44.5c0-.75-.108-1.35-.325-1.8-.2-.467-.675-.7-1.425-.7h-.5v-.5h2.25c.584 0 1.034.075 1.35.225.334.15.567.442.7.875.134.433.2 1.067.2 1.9V57h8.875v1h-11.125Zm13.477 0V44.5c0-.75-.108-1.35-.325-1.8-.2-.467-.675-.7-1.425-.7h-.5v-.5h10.65c.583 0 1.025.1 1.325.3.3.183.508.433.625.75.117.3.175.617.175.95v1.875h-.5c0-1-.275-1.725-.825-2.175-.533-.467-1.3-.7-2.3-.7h-4.65V49h6.75v1h-6.75v7h4.375c1.133 0 2.025-.208 2.675-.625.667-.417 1.192-1.125 1.575-2.125l.5.125-.875 2.375a1.888 1.888 0 0 1-.675.925c-.3.217-.7.325-1.2.325h-8.625Z" fill="#000" />
  <defs>
    <linearGradient id="b" x1="38.43" y1="1.194" x2="13.762" y2="43.001" gradientUnits="userSpaceOnUse">
      <stop stop-color="#005FBB" />
      <stop offset="1" stop-color="#9DCCF9" />
    </linearGradient>
    <linearGradient id="c" x1="11.402" y1="18.73" x2="60.366" y2="18.24" gradientUnits="userSpaceOnUse">
      <stop stop-color="#005FBB" />
      <stop offset="1" stop-color="#9DCCF9" />
    </linearGradient>
    <linearGradient id="d" x1="5.968" y1="53.728" x2="39.875" y2="76.256" gradientUnits="userSpaceOnUse">
      <stop stop-color="#70BF32" />
      <stop offset="1" stop-color="#416A21" />
    </linearGradient>
    <linearGradient id="e" x1="30.159" y1="69.825" x2="63.713" y2="64.148" gradientUnits="userSpaceOnUse">
      <stop stop-color="#568F2A" />
      <stop offset="1" stop-color="#0C3309" stop-opacity=".97" />
    </linearGradient>
    <linearGradient id="f" x1="9.384" y1="14.048" x2="6.175" y2="58.007" gradientUnits="userSpaceOnUse">
      <stop stop-color="#AEFF6F" />
      <stop offset="1" stop-color="#469507" />
    </linearGradient>
    <clipPath id="a">
      <path fill="#fff" d="M0 0h72v80H0z" />
    </clipPath>
  </defs>
</svg>