<svg width="17" height="34" fill="none"
  xmlns="http://www.w3.org/2000/svg">
  <path d="M1.063 28 8.5 34l7.438-6H1.063ZM8.5 5c.805 0 1.556.46 2.125 1 .57.54 1.063 1.238 1.063 2 0 .763-.494 1.46-1.063 2-.57.54-1.32 1-2.125 1-.805 0-1.556-.46-2.125-1-.57-.54-1.063-1.237-1.063-2 0-.762.494-1.46 1.063-2 .57-.54 1.32-1 2.125-1Zm0-5C13.2 0 17 3.55 17 8c0 6.038-8.5 15-8.5 15S0 14.038 0 8c0-4.45 3.8-8 8.5-8Zm0 2C5.149 2 2.125 4.826 2.125 8c0 1.15.304 3.284 6.375 11 6.071-7.716 6.375-9.85 6.375-11 0-3.174-3.024-6-6.375-6Z" fill="#868181"/>
</svg>