<svg width="36" height="35" fill="none"
  xmlns="http://www.w3.org/2000/svg">
  <path d="M24.024 17.146c4.396 0 7.984 2.135 7.984 6.21 0 1.434-.823 2.74-1.597 3.881L36 32.671 33.605 35l-5.589-5.434c-1.213.701-2.462 1.553-3.992 1.553-4.396 0-7.983-3.688-7.983-7.763 0-4.075 3.587-6.21 7.983-6.21Zm0 2.329c-1.166 0-2.369.012-3.193.776-.825.764-1.597 2.024-1.597 3.105 0 1.08.772 2.34 1.597 3.105.824.764 2.027 1.553 3.193 1.553s2.37-.789 3.194-1.553c.824-.764.798-2.024.798-3.105 0-1.08.026-2.34-.798-3.105-.825-.764-2.028-.776-3.194-.776ZM31.21.068c.233 0-.165-.153 0 0s.798.56.798.776V16.37c-1.02-.897-2.673-1.824-3.992-2.33V4.727l-4.79 1.552v6.987c-1.23.114-2.902.352-3.992.776V6.278L12.05 3.95v19.407c0 1.043.5 2.16.798 3.105l-2.395-.776-9.58 3.881c-.234 0-.634-.623-.799-.776-.165-.153 0 .216 0 0V3.95c0-.376.43-.663.799-.777l9.58-3.105 10.379 3.881L30.41.068h.799ZM3.267 5.502v19.407l5.588-2.33V3.95L3.267 5.502Z" fill="url(#a)"/>
  <defs>
    <linearGradient id="a" x1="18.105" y1="0" x2="18.105" y2="35" gradientUnits="userSpaceOnUse">
      <stop stop-color="#5E9EFF"/>
      <stop offset="1" stop-color="#366695"/>
    </linearGradient>
  </defs>
</svg>