<svg width="20" height="20" fill="none" xmlns="http://www.w3.org/2000/svg"><path d="M10.75 8.75c-.5-.125-1-.375-1.375-.75-.375-.125-.5-.5-.5-.75S9 6.625 9.25 6.5c.375-.25.75-.5 1.125-.375.75 0 1.375.375 1.75.875l1.125-1.5c-.375-.375-.75-.625-1.125-.875s-.875-.375-1.375-.375V2.5h-1.5v1.75c-.625.125-1.25.5-1.75 1-.5.625-.875 1.375-.75 2.125 0 .75.25 1.5.75 2 .625.625 1.5 1 2.25 1.375.375.125.875.375 1.25.625.25.25.375.625.375 1s-.125.75-.375 1.125c-.375.375-.875.5-1.25.5-.5 0-1.125-.125-1.5-.5a3.804 3.804 0 0 1-1-1L6 13.875c.375.5.75.875 1.25 1.25.625.375 1.375.75 2.125.75V17.5h1.375v-1.875c.75-.125 1.375-.5 1.875-1 .625-.625 1-1.625 1-2.5 0-.75-.25-1.625-.875-2.125-.625-.625-1.25-1-2-1.25ZM10 0C4.5 0 0 4.5 0 10s4.5 10 10 10 10-4.5 10-10S15.5 0 10 0Zm0 18.625c-4.75 0-8.625-3.875-8.625-8.625S5.25 1.375 10 1.375 18.625 5.25 18.625 10 14.75 18.625 10 18.625Z" fill="#EDF6FF"/></svg>