<svg width="192" height="145" fill="none" xmlns="http://www.w3.org/2000/svg"><path d="M29.735 130.139c36.598 19.148 95.932 19.148 132.53 0 36.599-19.149 36.595-50.197 0-69.346-36.594-19.148-95.932-19.148-132.53 0-36.6 19.149-36.595 50.206 0 69.346Z" fill="#F5F5F5"/><path d="M162.942 115.33c-2.046.84-4.34.84-6.386 0-1.747-.844-1.747-2.187 0-3.062a8.36 8.36 0 0 1 6.386 0c1.765.853 1.765 2.231 0 3.062ZM22.846 112.898a8.537 8.537 0 0 0 6.5 0c1.795-.875 1.795-2.249 0-3.107a8.583 8.583 0 0 0-6.5 0c-1.795.858-1.795 2.249 0 3.107Z" fill="#E0E0E0"/><path d="M133.035 103.124c1.092.14 2.355-.236 2.901-.962.642-.853.358-2.188.668-2.9.31-.714 1.31-.6 1.778-1.204.467-.604-.258-2.047 0-2.813.257-.766 1-1.496 1.336-2.021.337-.525 0-1.313-1.148-.914-1.149.398-1.748 1.776-2.861 1.544-1.114-.232-2.066.437-2.084 1.544.032.433-.053.867-.245 1.256-.209.341-.768.534-1.022 1.063l.677 5.407Z" fill="gold"/><path opacity=".2" d="M133.035 103.124c1.092.14 2.355-.236 2.901-.962.642-.853.358-2.188.668-2.9.31-.714 1.31-.6 1.778-1.204.467-.604-.258-2.047 0-2.813.257-.766 1-1.496 1.336-2.021.337-.525 0-1.313-1.148-.914-1.149.398-1.748 1.776-2.861 1.544-1.114-.232-2.066.437-2.084 1.544.032.433-.053.867-.245 1.256-.209.341-.768.534-1.022 1.063l.677 5.407Z" fill="#000"/><path d="M139.207 92.624c-1.603.876-5.953 5.88-6.311 8.54" stroke="#fff" stroke-width=".5" stroke-miterlimit="10" stroke-linecap="round"/><path d="m33.902 89.763 19.515-11.287V30.254L33.902 41.54v48.223Z" fill="#37474F"/><path d="M33.901 41.54 12.608 29.23v48.218L33.9 89.764V41.54Z" fill="#455A64"/><path d="m53.417 30.253-21.289-12.31-19.52 11.286L33.9 41.54l19.516-11.287Z" fill="#37474F"/><path d="M20.58 82.068v-8.211l5.516 3.176v8.207l-5.517-3.172Z" fill="#E0E0E0"/><path d="m22.986 75.244.537.31v8.207l-.537-.31v-8.207Z" fill="#263238"/><path d="M31.67 76.153v-4.576l-3.652-2.113v4.576l3.651 2.113Z" fill="#E0E0E0"/><path d="m28.018 74.04.913-.525v-3.521l-.913-.53v4.576Z" fill="#263238"/><path d="m31.67 75.1-2.74-1.584-.912.524 3.651 2.113V75.1Z" fill="#37474F"/><path d="M31.67 84.92v-4.576l-3.652-2.108v4.576l3.651 2.109Z" fill="#E0E0E0"/><path d="m28.018 82.812.913-.53v-3.521l-.913-.525v4.576Z" fill="#263238"/><path d="m31.67 83.866-2.74-1.583-.912.529 3.651 2.109v-1.055Z" fill="#37474F"/><path d="M31.67 67.57v-4.576l-3.652-2.109v4.576l3.651 2.11Z" fill="#E0E0E0"/><path d="m28.018 65.461.913-.529V61.41l-.913-.525v4.576Z" fill="#263238"/><path d="m31.67 66.516-2.74-1.584-.912.53 3.651 2.108v-1.054Z" fill="#37474F"/><path d="M31.67 58.987V54.41l-3.652-2.109v4.576l3.651 2.109Z" fill="#E0E0E0"/><path d="m28.018 56.878.913-.53v-3.521l-.913-.525v4.576Z" fill="#263238"/><path d="m31.67 57.932-2.74-1.583-.912.53 3.651 2.108v-1.055Z" fill="#37474F"/><path d="M31.67 50.408v-4.58l-3.652-2.11v4.577l3.651 2.113Z" fill="#E0E0E0"/><path d="m28.018 48.295.913-.53v-3.517l-.913-.53v4.577Z" fill="#263238"/><path d="m31.67 49.35-2.74-1.585-.912.53 3.651 2.113v-1.059Z" fill="#37474F"/><path d="M18.496 68.537v-4.576l-3.652-2.113v4.576l3.652 2.113Z" fill="#E0E0E0"/><path d="m14.844 66.424.913-.525v-3.522l-.913-.53v4.577Z" fill="#263238"/><path d="m18.496 67.483-2.739-1.584-.913.525 3.652 2.113v-1.054Z" fill="#37474F"/><path d="M18.496 77.304v-4.576l-3.652-2.109v4.572l3.652 2.113Z" fill="#E0E0E0"/><path d="m14.844 75.191.913-.525v-3.522l-.913-.525v4.572Z" fill="#263238"/><path d="m18.496 76.25-2.739-1.584-.913.525 3.652 2.113V76.25Z" fill="#37474F"/><path d="M18.496 59.88v-4.577l-3.652-2.108v4.576l3.652 2.108Z" fill="#E0E0E0"/><path d="m14.844 57.77.913-.529V53.72l-.913-.525v4.576Z" fill="#263238"/><path d="m18.496 58.825-2.739-1.584-.913.53 3.652 2.108v-1.054Z" fill="#37474F"/><path d="M18.496 51.226V46.65l-3.652-2.113v4.576l3.652 2.113Z" fill="#E0E0E0"/><path d="m14.844 49.113.913-.525v-3.522l-.913-.53v4.577Z" fill="#263238"/><path d="m18.496 50.172-2.739-1.584-.913.525 3.652 2.113v-1.054Z" fill="#37474F"/><path d="M18.496 42.568v-4.576l-3.652-2.109v4.576l3.652 2.11Z" fill="#FAFAFA"/><path d="m14.844 40.46.913-.53v-3.522l-.913-.525v4.576Z" fill="#263238"/><path d="m18.496 41.514-2.739-1.584-.913.53 3.652 2.108v-1.054Z" fill="#37474F"/><path d="m20.58 38.968 2.127 1.229v30.777l-2.128-1.225V38.968Z" fill="#FAFAFA"/><path d="m20.58 38.968.9.52v29.753l-.9.508V38.968Z" fill="#263238"/><path d="m21.48 69.241 1.226.683v1.05l-2.127-1.225.9-.508Z" fill="#37474F"/><path d="m23.965 40.906 2.131 1.225v30.78l-2.131-1.228V40.906Z" fill="#FAFAFA"/><path d="m23.965 40.906.9.52v29.749l-.9.508V40.906Z" fill="#263238"/><path d="m24.864 71.175 1.232.682v1.055l-2.131-1.23.9-.507Z" fill="#37474F"/><path d="M36.16 76.153v-4.576l3.647-2.113v4.576l-3.647 2.113Z" fill="#E0E0E0"/><path d="m39.807 74.04-.913-.525.004-3.521.909-.53v4.576Z" fill="#455A64"/><path d="m36.16 75.1 2.734-1.584.913.524-3.647 2.113V75.1Z" fill="#263238"/><path d="M41.834 72.885V68.31l3.651-2.108v4.576l-3.651 2.108Z" fill="#E0E0E0"/><path d="m45.485 70.777-.913-.53v-3.521l.913-.525v4.576Z" fill="#455A64"/><path d="m41.834 71.831 2.738-1.583.913.529-3.651 2.109V71.83Z" fill="#263238"/><path d="M47.508 69.622v-4.576l3.651-2.113v4.576l-3.651 2.113Z" fill="#E0E0E0"/><path d="m51.159 67.509-.913-.525v-3.522l.913-.53v4.577Z" fill="#455A64"/><path d="m47.508 68.563 2.738-1.58.913.526-3.651 2.113v-1.059Z" fill="#263238"/><path d="M36.16 84.92v-4.576l3.647-2.108v4.576L36.16 84.92Z" fill="#E0E0E0"/><path d="m39.807 82.812-.913-.53.004-3.521.909-.525v4.576Z" fill="#455A64"/><path d="m36.16 83.866 2.734-1.583.913.529-3.647 2.109v-1.055Z" fill="#263238"/><path d="M41.834 81.657v-4.58l3.651-2.11v4.577l-3.651 2.113Z" fill="#E0E0E0"/><path d="m45.485 79.544-.913-.53v-3.517l.913-.53v4.577Z" fill="#455A64"/><path d="m41.834 80.598 2.738-1.583.913.529-3.651 2.113v-1.059Z" fill="#263238"/><path d="M47.508 78.389v-4.576l3.651-2.113v4.576l-3.651 2.113Z" fill="#E0E0E0"/><path d="m51.159 76.276-.913-.525v-3.522l.913-.529v4.576Z" fill="#455A64"/><path d="m47.508 77.335 2.738-1.584.913.525-3.651 2.113v-1.054Z" fill="#263238"/><path d="M36.16 67.57v-4.576l3.647-2.109v4.576l-3.647 2.11Z" fill="#E0E0E0"/><path d="m39.807 65.461-.913-.529.004-3.522.909-.525v4.576Z" fill="#455A64"/><path d="m36.16 66.516 2.734-1.584.913.53-3.647 2.108v-1.054Z" fill="#263238"/><path d="M41.834 64.267v-4.576l3.651-2.108v4.576l-3.651 2.108Z" fill="#E0E0E0"/><path d="m45.485 62.159-.913-.53v-3.521l.913-.525v4.576Z" fill="#455A64"/><path d="m41.834 63.213 2.738-1.584.913.53-3.651 2.108v-1.054Z" fill="#263238"/><path d="M47.508 60.964v-4.576l3.651-2.108v4.576l-3.651 2.108Z" fill="#E0E0E0"/><path d="m51.159 58.856-.913-.53v-3.522l.913-.525v4.577Z" fill="#455A64"/><path d="m47.508 59.91 2.738-1.584.913.53-3.651 2.108V59.91Z" fill="#263238"/><path d="M36.16 58.987V54.41l3.647-2.109v4.576l-3.647 2.109Z" fill="#E0E0E0"/><path d="m39.807 56.878-.913-.53.004-3.521.909-.525v4.576Z" fill="#455A64"/><path d="m36.16 57.932 2.734-1.583.913.53-3.647 2.108v-1.055Z" fill="#263238"/><path d="M41.834 55.649v-4.576l3.651-2.113v4.58l-3.651 2.109Z" fill="#E0E0E0"/><path d="m45.485 53.54-.913-.53v-3.52l.913-.53v4.58Z" fill="#455A64"/><path d="m41.834 54.594 2.738-1.583.913.53-3.651 2.108v-1.055Z" fill="#263238"/><path d="M47.508 52.31v-4.575l3.651-2.113v4.576l-3.651 2.113Z" fill="#E0E0E0"/><path d="m51.159 50.198-.913-.525V46.15l.913-.53v4.577Z" fill="#455A64"/><path d="m47.508 51.256 2.738-1.583.913.525-3.651 2.113v-1.055Z" fill="#263238"/><path d="M36.16 50.408v-4.58l3.647-2.11v4.577l-3.647 2.113Z" fill="#E0E0E0"/><path d="m39.807 48.295-.913-.53.004-3.517.909-.53v4.577Z" fill="#455A64"/><path d="m36.16 49.35 2.734-1.585.913.53-3.647 2.113v-1.059Z" fill="#263238"/><path d="M41.834 47.03v-4.575l3.651-2.114v4.576l-3.651 2.114Z" fill="#E0E0E0"/><path d="m45.485 44.917-.913-.525v-3.521l.913-.53v4.576Z" fill="#455A64"/><path d="m41.834 45.976 2.738-1.584.913.525-3.651 2.114v-1.055Z" fill="#263238"/><path d="M47.508 43.653v-4.576l3.651-2.109v4.576l-3.651 2.11Z" fill="#E0E0E0"/><path d="m51.159 41.544-.913-.529v-3.522l.913-.525v4.576Z" fill="#455A64"/><path d="m47.508 42.599 2.738-1.584.913.53-3.651 2.108V42.6Z" fill="#263238"/><path d="m16.16 29.23 15.968-9.236 17.738 10.26-15.964 9.234L16.159 29.23Z" fill="#F0F0F0"/><path d="M32.128 19.994v2.052l15.965 9.235 1.773-1.028-17.738-10.259Z" fill="#455A64"/><path d="M32.128 19.994 16.16 29.23l1.774 1.023 14.195-8.207v-2.052Z" fill="#263238"/><path d="M157.046 89.763 137.53 78.476V30.254l19.52 11.287-.004 48.223Z" fill="#455A64"/><path d="m157.05 41.54 21.289-12.31v48.218l-21.293 12.316.004-48.224Z" fill="#37474F"/><path d="m137.53 30.253 21.294-12.31 19.515 11.286L157.05 41.54l-19.52-11.287Z" fill="#37474F"/><path d="M170.372 82.068v-8.211l-5.521 3.176.005 8.207 5.516-3.172Z" fill="#E0E0E0"/><path d="m167.961 75.244-.533.31v8.207l.533-.31v-8.207Z" fill="#263238"/><path d="M159.278 76.153v-4.576l3.651-2.113v4.576l-3.651 2.113Z" fill="#E0E0E0"/><path d="m162.929 74.04-.912-.525v-3.521l.912-.53v4.576Z" fill="#263238"/><path d="m159.278 75.1 2.739-1.584.912.524-3.651 2.113V75.1Z" fill="#455A64"/><path d="M159.278 84.92v-4.576l3.651-2.108v4.576l-3.651 2.109Z" fill="#E0E0E0"/><path d="m162.929 82.812-.912-.53v-3.521l.912-.525v4.576Z" fill="#263238"/><path d="m159.278 83.866 2.739-1.583.912.529-3.651 2.109v-1.055Z" fill="#455A64"/><path d="M159.278 67.57v-4.576l3.651-2.109v4.576l-3.651 2.11Z" fill="#E0E0E0"/><path d="m162.929 65.461-.912-.529V61.41l.912-.525v4.576Z" fill="#263238"/><path d="m159.278 66.516 2.739-1.584.912.53-3.651 2.108v-1.054Z" fill="#455A64"/><path d="M159.278 58.987V54.41l3.651-2.109v4.576l-3.651 2.109Z" fill="#E0E0E0"/><path d="m162.929 56.878-.912-.53v-3.521l.912-.525v4.576Z" fill="#263238"/><path d="m159.278 57.932 2.739-1.583.912.53-3.651 2.108v-1.055Z" fill="#455A64"/><path d="M159.278 50.408v-4.58l3.651-2.11v4.577l-3.651 2.113Z" fill="#E0E0E0"/><path d="m162.929 48.295-.912-.53v-3.517l.912-.53v4.577Z" fill="#263238"/><path d="m159.278 49.35 2.739-1.585.912.53-3.651 2.113v-1.059Z" fill="#455A64"/><path d="M172.456 68.537v-4.576l3.647-2.113v4.576l-3.647 2.113Z" fill="#E0E0E0"/><path d="m176.103 66.424-.908-.525v-3.522l.908-.53v4.577Z" fill="#263238"/><path d="m172.456 67.483 2.738-1.584.909.525-3.647 2.113v-1.054Z" fill="#455A64"/><path d="M172.456 77.304v-4.576l3.647-2.109v4.572l-3.647 2.113Z" fill="#E0E0E0"/><path d="m176.103 75.191-.908-.525v-3.522l.908-.525v4.572Z" fill="#263238"/><path d="m172.456 76.25 2.738-1.584.909.525-3.647 2.113V76.25Z" fill="#455A64"/><path d="M172.456 59.88v-4.577l3.647-2.108v4.576l-3.647 2.108Z" fill="#E0E0E0"/><path d="m176.103 57.77-.908-.529V53.72l.908-.525v4.576Z" fill="#263238"/><path d="m172.456 58.825 2.738-1.584.909.53-3.647 2.108v-1.054Z" fill="#455A64"/><path d="M172.456 51.226V46.65l3.647-2.113v4.576l-3.647 2.113Z" fill="#E0E0E0"/><path d="m176.103 49.113-.908-.525v-3.522l.908-.53v4.577Z" fill="#263238"/><path d="m172.456 50.172 2.738-1.584.909.525-3.647 2.113v-1.054Z" fill="#455A64"/><path d="M172.456 42.568v-4.576l3.647-2.109v4.576l-3.647 2.11Z" fill="#FAFAFA"/><path d="m176.103 40.46-.908-.53v-3.522l.908-.525v4.576Z" fill="#263238"/><path d="m172.456 41.514 2.738-1.584.909.53-3.647 2.108v-1.054Z" fill="#455A64"/><path d="m170.372 38.968-2.131 1.229v30.777l2.131-1.225V38.968Z" fill="#FAFAFA"/><path d="m170.372 38.968-.904.52v29.753l.904.508V38.968Z" fill="#263238"/><path d="m169.468 69.241-1.227.683v1.05l2.131-1.225-.904-.508Z" fill="#455A64"/><path d="m166.983 40.906-2.127 1.225v30.78l2.127-1.228V40.906Z" fill="#FAFAFA"/><path d="m166.983 40.906-.9.52v29.749l.9.508V40.906Z" fill="#263238"/><path d="m166.083 71.175-1.227.682v1.055l2.127-1.23-.9-.507Z" fill="#455A64"/><path d="M154.792 76.153v-4.576l-3.652-2.113v4.576l3.652 2.113Z" fill="#E0E0E0"/><path d="m151.14 74.04.913-.525v-3.521l-.913-.53v4.576Z" fill="#37474F"/><path d="m154.792 75.1-2.739-1.584-.913.524 3.652 2.113V75.1Z" fill="#263238"/><path d="M149.114 72.885V68.31l-3.647-2.108v4.576l3.647 2.108Z" fill="#E0E0E0"/><path d="m145.467 70.777.908-.53v-3.521l-.908-.525v4.576Z" fill="#37474F"/><path d="m149.114 71.831-2.739-1.583-.908.529 3.647 2.109V71.83Z" fill="#263238"/><path d="M143.44 69.622v-4.576l-3.652-2.113v4.576l3.652 2.113Z" fill="#E0E0E0"/><path d="m139.788 67.509.913-.525v-3.522l-.913-.53v4.577Z" fill="#37474F"/><path d="m143.44 68.563-2.739-1.58-.913.526 3.652 2.113v-1.059Z" fill="#263238"/><path d="M154.792 84.92v-4.576l-3.652-2.108v4.576l3.652 2.109Z" fill="#E0E0E0"/><path d="m151.14 82.812.913-.53v-3.521l-.913-.525v4.576Z" fill="#37474F"/><path d="m154.792 83.866-2.739-1.583-.913.529 3.652 2.109v-1.055Z" fill="#263238"/><path d="M149.114 81.657v-4.58l-3.647-2.11v4.577l3.647 2.113Z" fill="#E0E0E0"/><path d="m145.467 79.544.908-.53v-3.517l-.908-.53v4.577Z" fill="#37474F"/><path d="m149.114 80.598-2.739-1.583-.908.529 3.647 2.113v-1.059Z" fill="#263238"/><path d="M143.44 78.389v-4.576l-3.652-2.113v4.576l3.652 2.113Z" fill="#E0E0E0"/><path d="m139.788 76.276.913-.525v-3.522l-.913-.529v4.576Z" fill="#37474F"/><path d="m143.44 77.335-2.739-1.584-.913.525 3.652 2.113v-1.054Z" fill="#263238"/><path d="M154.792 67.57v-4.576l-3.652-2.109v4.576l3.652 2.11Z" fill="#E0E0E0"/><path d="m151.14 65.461.913-.529V61.41l-.913-.525v4.576Z" fill="#37474F"/><path d="m154.792 66.516-2.739-1.584-.913.53 3.652 2.108v-1.054Z" fill="#263238"/><path d="M149.114 64.267v-4.576l-3.647-2.108v4.576l3.647 2.108Z" fill="#E0E0E0"/><path d="m145.467 62.159.908-.53v-3.521l-.908-.525v4.576Z" fill="#37474F"/><path d="m149.114 63.213-2.739-1.584-.908.53 3.647 2.108v-1.054Z" fill="#263238"/><path d="M143.44 60.964v-4.576l-3.652-2.108v4.576l3.652 2.108Z" fill="#E0E0E0"/><path d="m139.788 58.856.913-.53v-3.522l-.913-.525v4.577Z" fill="#37474F"/><path d="m143.44 59.91-2.739-1.584-.913.53 3.652 2.108V59.91Z" fill="#263238"/><path d="M154.792 58.987V54.41l-3.652-2.109v4.576l3.652 2.109Z" fill="#E0E0E0"/><path d="m151.14 56.878.913-.53v-3.521l-.913-.525v4.576Z" fill="#37474F"/><path d="m154.792 57.932-2.739-1.583-.913.53 3.652 2.108v-1.055Z" fill="#263238"/><path d="M149.114 55.649v-4.576l-3.647-2.113v4.58l3.647 2.109Z" fill="#E0E0E0"/><path d="m145.467 53.54.908-.53v-3.52l-.908-.53v4.58Z" fill="#37474F"/><path d="m149.114 54.594-2.739-1.583-.908.53 3.647 2.108v-1.055Z" fill="#263238"/><path d="M143.44 52.31v-4.575l-3.652-2.113v4.576l3.652 2.113Z" fill="#E0E0E0"/><path d="m139.788 50.198.913-.525V46.15l-.913-.53v4.577Z" fill="#37474F"/><path d="m143.44 51.256-2.739-1.583-.913.525 3.652 2.113v-1.055Z" fill="#263238"/><path d="M154.792 50.408v-4.58l-3.652-2.11v4.577l3.652 2.113Z" fill="#E0E0E0"/><path d="m151.14 48.295.913-.53v-3.517l-.913-.53v4.577Z" fill="#37474F"/><path d="m154.792 49.35-2.739-1.585-.913.53 3.652 2.113v-1.059Z" fill="#263238"/><path d="M149.114 47.03v-4.575l-3.647-2.114v4.576l3.647 2.114Z" fill="#E0E0E0"/><path d="m145.467 44.917.908-.525v-3.521l-.908-.53v4.576Z" fill="#37474F"/><path d="m149.114 45.976-2.739-1.584-.908.525 3.647 2.114v-1.055Z" fill="#263238"/><path d="M143.44 43.653v-4.576l-3.652-2.109v4.576l3.652 2.11Z" fill="#E0E0E0"/><path d="m139.788 41.544.913-.529v-3.522l-.913-.525v4.576Z" fill="#37474F"/><path d="m143.44 42.599-2.739-1.584-.913.53 3.652 2.108V42.6Z" fill="#263238"/><path d="m174.793 29.23-15.97-9.236-17.742 10.26 15.969 9.234 17.743-10.258Z" fill="#F0F0F0"/><path d="M158.823 19.994v2.052l-15.969 9.235-1.773-1.028 17.742-10.259Z" fill="#263238"/><path d="m158.823 19.994 15.97 9.236-1.778 1.023-14.192-8.207v-2.052Z" fill="#455A64"/><path d="M128.1 134.828a9.096 9.096 0 0 1-6.932 0c-1.913-.914-1.913-2.393 0-3.307a9.105 9.105 0 0 1 6.932 0c1.917.914 1.917 2.393 0 3.307ZM56.41 131.814a9.106 9.106 0 0 0 6.936 0c1.913-.914 1.913-2.393 0-3.307a9.106 9.106 0 0 0-6.937 0c-1.904.914-1.904 2.393 0 3.307Z" fill="#E0E0E0"/><path d="m96.948 131.28 42.465-24.555a1.787 1.787 0 0 0 .944-1.573 1.788 1.788 0 0 0-.944-1.573l-42.47-24.556a2.089 2.089 0 0 0-1.89 0l-42.466 24.539a1.775 1.775 0 0 0-.944 1.572 1.783 1.783 0 0 0 .944 1.573l42.47 24.556a2.095 2.095 0 0 0 1.89.017Z" fill="gold"/><path d="m96.948 131.28 42.465-24.555a1.787 1.787 0 0 0 .944-1.573 1.788 1.788 0 0 0-.944-1.573l-42.47-24.556a2.089 2.089 0 0 0-1.89 0l-42.466 24.539a1.775 1.775 0 0 0-.944 1.572 1.783 1.783 0 0 0 .944 1.573l42.47 24.556a2.095 2.095 0 0 0 1.89.017Z" fill="gold"/><path d="m96.948 131.28 42.465-24.555a1.787 1.787 0 0 0 .944-1.573 1.788 1.788 0 0 0-.944-1.573l-42.47-24.556a2.089 2.089 0 0 0-1.89 0l-42.466 24.539a1.775 1.775 0 0 0-.944 1.572 1.783 1.783 0 0 0 .944 1.573l42.47 24.556a2.095 2.095 0 0 0 1.89.017Z" fill="gold"/><path opacity=".2" d="m96.948 131.28 42.465-24.555a1.787 1.787 0 0 0 .944-1.573 1.788 1.788 0 0 0-.944-1.573l-42.47-24.556a2.089 2.089 0 0 0-1.89 0l-42.466 24.539a1.775 1.775 0 0 0-.944 1.572 1.783 1.783 0 0 0 .944 1.573l42.47 24.556a2.095 2.095 0 0 0 1.89.017Z" fill="#000"/><path d="m52.587 104.673 42.47 24.556a2.099 2.099 0 0 0 1.89 0l42.466-24.556a.578.578 0 0 0 0-1.094l-42.47-24.556a2.089 2.089 0 0 0-1.89 0l-42.466 24.539a.576.576 0 0 0 0 1.111Z" fill="gold"/><path d="m103.098 120.54 30.16-17.442V30.253l-30.16 17.442v72.845Z" fill="#37474F"/><path d="M96 125.672V51.799L58.742 30.253v73.873L96 125.672Z" fill="#455A64"/><path d="M96 94.89 58.742 73.346v-2.052l-3.551 2.052L96 96.943V94.89Z" fill="gold"/><path opacity=".5" d="M96 94.89 58.742 73.346v-2.052l-3.551 2.052L96 96.943V94.89Z" fill="#fff"/><path d="M55.19 73.345 96 96.943v2.051L55.19 75.397v-2.052ZM96 94.89l7.098-4.103 1.773 1.028L96 96.943V94.89Z" fill="gold"/><path opacity=".5" d="m96 94.89 7.098-4.103 1.773 1.028L96 96.943V94.89Z" fill="#fff"/><path d="m96 98.994 8.871-5.127v-2.052L96 96.943v2.051Z" fill="gold"/><path opacity=".2" d="m96 98.994 8.871-5.127v-2.052L96 96.943v2.051Z" fill="#000"/><path d="m96 51.799 7.098-4.104v43.092L96 94.891V51.799ZM96 98.994l7.098-4.103v26.677L96 125.672V98.994Z" fill="#263238"/><path d="M92.453 88.736v-10.26l-7.097-4.103v10.259l7.097 4.103Z" fill="gold"/><path opacity=".5" d="M92.453 88.736v-10.26l-7.097-4.103v10.259l7.097 4.103Z" fill="#fff"/><path d="m85.356 84.632 1.773-1.024v-8.211l-1.773-1.024v10.259ZM92.453 86.684l-5.324-3.076-1.773 1.024 7.097 4.103v-2.051Z" fill="#263238"/><path d="M81.804 82.58V72.321l-8.87-5.131v10.258l8.87 5.132Z" fill="gold"/><path opacity=".5" d="M81.804 82.58V72.321l-8.87-5.131v10.258l8.87 5.132Z" fill="#fff"/><path d="m74.707 76.425.004-8.207-1.778-1.028v10.258l1.773-1.023ZM81.804 80.528v2.052l-8.87-5.132 1.773-1.023 7.097 4.103Z" fill="#263238"/><path d="M107.531 110.793v-10.259l8.871-5.127v10.259l-8.871 5.127Z" fill="gold"/><path d="M114.629 104.638v-8.207l1.774-1.024v10.259l-1.774-1.028ZM107.531 108.742v2.051l8.871-5.127-1.773-1.028-7.098 4.104Z" fill="#263238"/><path d="M107.531 93.696V83.437l8.871-5.131v10.259l-8.871 5.131Z" fill="gold"/><path d="M114.629 87.541v-8.212l1.774-1.023v10.259l-1.774-1.024ZM107.531 91.645v2.052l8.871-5.132-1.773-1.024-7.098 4.104Z" fill="#263238"/><path d="M107.531 76.595V66.336l8.871-5.131v10.259l-8.871 5.131Z" fill="gold"/><path d="M114.629 70.44v-8.207l1.774-1.028v10.259l-1.774-1.024ZM107.531 74.544v2.051l8.871-5.131-1.773-1.024-7.098 4.104Z" fill="#263238"/><path d="M107.531 59.494V49.235l8.871-5.131v10.263l-8.871 5.127Z" fill="gold"/><path d="M114.629 53.339v-8.207l1.774-1.028v10.263l-1.774-1.028ZM107.531 57.443v2.051l8.871-5.127-1.773-1.028-7.098 4.104Z" fill="#263238"/><path d="M120.146 103.5V93.241l8.875-5.127-.004 10.26-8.871 5.126Z" fill="gold"/><path d="M127.244 97.345v-8.207l1.777-1.024-.004 10.26-1.773-1.029Z" fill="#263238"/><path d="M120.146 101.453v2.047l8.871-5.127-1.773-1.028-7.098 4.108Z" fill="#263238"/><path d="M120.146 86.404V76.14l8.875-5.127-.004 10.259-8.871 5.132Z" fill="gold"/><path d="M127.244 80.248v-8.211l1.777-1.024-.004 10.259-1.773-1.024Z" fill="#263238"/><path d="M120.146 84.352v2.052l8.871-5.132-1.773-1.024-7.098 4.104Z" fill="#263238"/><path d="M120.146 69.303v-10.26l8.875-5.131-.004 10.263-8.871 5.128Z" fill="gold"/><path d="M127.244 63.147V54.94l1.777-1.028-.004 10.263-1.773-1.028ZM120.146 67.25v2.052l8.871-5.127-1.773-1.028-7.098 4.104Z" fill="#263238"/><path d="M120.146 52.201V41.943l8.875-5.128-.004 10.26-8.871 5.126Z" fill="gold"/><path d="M127.244 46.046v-8.207l1.777-1.024-.004 10.26-1.773-1.029Z" fill="#263238"/><path d="M120.146 50.15v2.052l8.871-5.128-1.773-1.028-7.098 4.104Z" fill="#263238"/><path d="M69.386 75.397v-10.26l-7.097-4.103v10.26l7.097 4.103Z" fill="gold"/><path opacity=".5" d="M69.386 75.397v-10.26l-7.097-4.103v10.26l7.097 4.103Z" fill="#fff"/><path d="m64.062 70.27-1.773 1.023V61.034l1.773 1.028v8.207Z" fill="#263238"/><path d="m69.386 73.345-5.324-3.076-1.773 1.024 7.097 4.104v-2.052ZM72.933 94.991c0-2.896 1.987-4.099 4.438-2.681 2.45 1.417 4.433 4.913 4.433 7.813v17.342l-8.87-5.132V94.991Z" fill="#263238"/><path d="M81.804 100.123c0-2.9-1.983-6.4-4.433-7.813a3.796 3.796 0 0 0-2.088-.59 4.06 4.06 0 0 0-.572 2.248v17.342l7.093 4.103v-15.29Z" fill="#455A64"/><path d="M81.804 100.123c0-2.9-1.983-6.4-4.433-7.813a3.796 3.796 0 0 0-2.088-.59 4.06 4.06 0 0 0-.572 2.248v17.342l7.093 4.103v-15.29Z" fill="gold"/><path opacity=".5" d="M81.804 100.123c0-2.9-1.983-6.4-4.433-7.813a3.796 3.796 0 0 0-2.088-.59 4.06 4.06 0 0 0-.572 2.248v17.342l7.093 4.103v-15.29Z" fill="#fff"/><path d="M78.65 93.276a7.173 7.173 0 0 0-.873-.704v4.611l-3.058-1.776v1.063l3.058 1.78v13.296l.874.503v-13.3l3.153 1.825v-.438c0-.21 0-.437-.03-.634l-3.123-1.803v-4.422Z" fill="#455A64"/><path d="M96 51.8v-6.156l-39.036-22.57v6.155L96 51.8Z" fill="gold"/><path opacity=".5" d="M96 51.8v-6.156l-39.036-22.57v6.155L96 51.8Z" fill="#fff"/><path d="M96 51.8v-6.156l39.036-22.57v6.155L96 51.8Z" fill="gold"/><path opacity=".2" d="M96 51.8v-6.156l39.036-22.57v6.155L96 51.8Z" fill="#000"/><path d="M62.289 40.783c0-2.415 1.59-3.456 3.546-2.323 1.957 1.133 3.551 4.012 3.551 6.427v16.147l-7.097-4.103V40.783Z" fill="#263238"/><path d="M65.835 38.456a3.12 3.12 0 0 0-1.389-.438 3.684 3.684 0 0 0-.384 1.75v16.148l5.324 3.062V44.882c0-2.414-1.59-5.293-3.55-6.426Z" fill="gold"/><path opacity=".5" d="M65.835 38.456a3.12 3.12 0 0 0-1.389-.438 3.684 3.684 0 0 0-.384 1.75v16.148l5.324 3.062V44.882c0-2.414-1.59-5.293-3.55-6.426Z" fill="#fff"/><path d="m62.289 56.93 1.773-1.027 5.324 3.075v2.056l-7.097-4.103ZM72.933 47.813c0-2.9 1.987-4.099 4.438-2.681 2.45 1.417 4.433 4.913 4.433 7.813v15.273l-8.87-5.132V47.813Z" fill="#263238"/><path d="M81.804 52.945c0-2.9-1.983-6.4-4.433-7.813a3.795 3.795 0 0 0-2.088-.59 4.059 4.059 0 0 0-.572 2.248v15.268l7.093 4.108v-13.22Z" fill="gold"/><path opacity=".5" d="M81.804 52.945c0-2.9-1.983-6.4-4.433-7.813a3.795 3.795 0 0 0-2.088-.59 4.059 4.059 0 0 0-.572 2.248v15.268l7.093 4.108v-13.22Z" fill="#fff"/><path d="m74.71 62.058-1.777 1.028 8.871 5.132v-2.052l-7.093-4.108ZM85.356 54.126c0-2.414 1.585-3.456 3.546-2.323 1.961 1.133 3.551 4.012 3.551 6.427v16.147l-7.097-4.103V54.126Z" fill="#263238"/><path d="M88.902 51.799a3.136 3.136 0 0 0-1.389-.438 3.666 3.666 0 0 0-.384 1.75V69.26l5.324 3.062V58.225c0-2.414-1.59-5.293-3.551-6.426Z" fill="gold"/><path opacity=".5" d="M88.902 51.799a3.136 3.136 0 0 0-1.389-.438 3.666 3.666 0 0 0-.384 1.75V69.26l5.324 3.062V58.225c0-2.414-1.59-5.293-3.551-6.426Z" fill="#fff"/><path d="m87.129 69.241-1.773 1.028 7.097 4.104v-2.052l-5.324-3.08ZM85.356 101.3c0-2.415 1.585-3.456 3.546-2.323 1.961 1.133 3.551 4.012 3.551 6.427v18.216l-7.097-4.103V101.3Z" fill="#263238"/><path d="M88.902 98.977a3.138 3.138 0 0 0-1.389-.438 3.683 3.683 0 0 0-.384 1.75v18.213l5.324 3.062v-16.187c0-2.388-1.59-5.267-3.55-6.4Z" fill="gold"/><path opacity=".5" d="M88.902 98.977a3.138 3.138 0 0 0-1.389-.438 3.683 3.683 0 0 0-.384 1.75v18.213l5.324 3.062v-16.187c0-2.388-1.59-5.267-3.55-6.4Z" fill="#fff"/><path d="M85.356 119.517v-6.156l7.097 4.104v6.155l-7.097-4.103Z" fill="#37474F"/><path d="m85.356 113.361 1.773-1.028 5.32 3.08.004 2.052-7.097-4.104ZM62.289 87.961c0-2.415 1.59-3.456 3.546-2.323 1.957 1.133 3.551 4.012 3.551 6.427v18.216l-7.097-4.094V87.961Z" fill="#263238"/><path d="M65.835 85.625a3.177 3.177 0 0 0-1.389-.438 3.684 3.684 0 0 0-.384 1.75v18.217l5.324 3.062V92.03c0-2.385-1.59-5.263-3.55-6.405Z" fill="gold"/><path opacity=".5" d="M65.835 85.625a3.177 3.177 0 0 0-1.389-.438 3.684 3.684 0 0 0-.384 1.75v18.217l5.324 3.062V92.03c0-2.385-1.59-5.263-3.55-6.405Z" fill="#fff"/><path d="M69.386 110.281v-6.155l-7.097-4.104v6.156l7.097 4.103Z" fill="#37474F"/><path d="m62.289 100.022 1.773-1.028 5.324 3.08v2.052l-7.097-4.104Z" fill="#263238"/><path d="M72.933 112.333v-2.052l8.871 5.132v2.052l-8.87-5.132Z" fill="#37474F"/><path d="m72.933 110.281 1.778-1.023 7.093 4.103v2.052l-8.87-5.132Z" fill="#263238"/><path d="m96 45.644 39.036-22.57L96 .5 56.964 23.074 96 45.644Z" fill="gold"/><path opacity=".7" d="m96 45.644 39.036-22.57L96 .5 56.964 23.074 96 45.644Z" fill="#fff"/><path d="m96 41.54 31.938-18.466L96 4.604l-31.938 18.47L96 41.54Z" fill="gold"/><path d="M96 4.604v6.16L69.386 26.15l-5.324-3.076L96 4.604Z" fill="gold"/><path opacity=".2" d="M96 4.604v6.16L69.386 26.15l-5.324-3.076L96 4.604Z" fill="#000"/><path d="m96 4.604 31.938 18.47-5.324 3.076L96 10.763v-6.16Z" fill="gold"/><path opacity=".5" d="m96 4.604 31.938 18.47-5.324 3.076L96 10.763v-6.16Z" fill="#fff"/><path d="m90.675 9.735-8.87 5.132 12.421 7.179 8.872-5.127-12.423-7.184Z" fill="#455A64"/><path d="M81.804 14.867v6.155l12.422 7.18v-6.156l-12.422-7.18Z" fill="#37474F"/><path d="M103.098 16.919v6.155L94.227 28.2v-6.155l8.871-5.127Z" fill="#263238"/><path d="M87.762 13.178c-1.612.932-1.612 2.441 0 3.373a6.43 6.43 0 0 0 5.831 0c1.608-.932 1.608-2.44 0-3.373a6.43 6.43 0 0 0-5.831 0Z" fill="#37474F"/><path d="M89.313 14.14c-.756.399-.756 1.05 0 1.449a3.237 3.237 0 0 0 2.73 0c.751-.399.751-1.05 0-1.448a3.237 3.237 0 0 0-2.73 0Z" fill="#263238"/><path d="m96.97 22.51 1.773 1.023v4.108M99.547 21.022l1.773 1.024v4.104" stroke="#455A64" stroke-width="2" stroke-linecap="round" stroke-linejoin="round"/><path d="M44.686 82.86V97a.565.565 0 0 0 .332.468 1.802 1.802 0 0 0 1.625 0 .564.564 0 0 0 .332-.469V82.87l-2.29-.009Z" fill="#37474F"/><path d="M51.343 86.972c0 1.465-.581 2.87-1.615 3.904a5.508 5.508 0 0 1-7.796 0 5.525 5.525 0 0 1-1.614-3.904c0-5.643 2.468-11.811 5.512-11.811 3.045 0 5.513 6.09 5.513 11.811Z" fill="gold"/><path d="M51.343 86.972v-.581a2.82 2.82 0 0 1-.669 1.631c-1.044 1.313-3.346 2.74-5.722 1.75-3.992-1.675-4.101-6.404-3.215-10.32-.93 2.4-1.409 4.95-1.41 7.525 0 1.464.58 2.868 1.614 3.904a5.508 5.508 0 0 0 7.796 0 5.525 5.525 0 0 0 1.614-3.904l-.008-.005Z" fill="gold"/><path opacity=".1" d="M51.343 86.972v-.581a2.82 2.82 0 0 1-.669 1.631c-1.044 1.313-3.346 2.74-5.722 1.75-3.992-1.675-4.101-6.404-3.215-10.32-.93 2.4-1.409 4.95-1.41 7.525 0 1.464.58 2.868 1.614 3.904a5.508 5.508 0 0 0 7.796 0 5.525 5.525 0 0 0 1.614-3.904l-.008-.005Z" fill="#000"/><path d="M4.366 58.064v14.135a.574.574 0 0 0 .345.477 1.793 1.793 0 0 0 1.62 0 .573.573 0 0 0 .337-.468V58.064H4.366Z" fill="#37474F"/><path d="M11.022 62.19a5.527 5.527 0 0 1-3.364 5.24 5.504 5.504 0 0 1-6.098-1.237A5.521 5.521 0 0 1 .002 62.19c0-5.643 2.468-11.812 5.508-11.812s5.512 6.077 5.512 11.812Z" fill="gold"/><path d="M187.634 58.064v14.135a.577.577 0 0 1-.336.468 1.792 1.792 0 0 1-1.621 0 .573.573 0 0 1-.336-.468V58.064h2.293Z" fill="#37474F"/><path d="M180.978 62.19a5.516 5.516 0 0 0 1.557 4.003 5.523 5.523 0 0 0 3.953 1.673 5.503 5.503 0 0 0 3.952-1.673 5.524 5.524 0 0 0 1.558-4.004c0-5.643-2.468-11.812-5.508-11.812s-5.512 6.077-5.512 11.812ZM157.151 98.093h3.83v-4.23a1.908 1.908 0 0 0-.562-1.356 1.906 1.906 0 0 0-1.355-.56 1.912 1.912 0 0 0-1.913 1.916v4.23Z" fill="gold"/><path opacity=".5" d="M157.151 98.093h3.83v-4.23a1.908 1.908 0 0 0-.562-1.356 1.906 1.906 0 0 0-1.355-.56 1.912 1.912 0 0 0-1.913 1.916v4.23Z" fill="#000"/><path d="M157.662 99.502c.257-1.286.742-2.704.716-3.342l-.376.022a.985.985 0 0 0-.908.83c-.136.836-.341 2.114-.437 2.626a10.683 10.683 0 0 1-.437 1.925.402.402 0 0 1-.188.21c-.186.11-.354.249-.498.411-.139.122-.249.149-.235.192a.21.21 0 0 0 .262.114c.112-.035.219-.083.319-.144-.09.192-.211.368-.359.52-.332.35-.362.578.254.63.384.031.707-.184 1.061-1.006.135-.302.249-.614.341-.932.236-.818.384-1.548.485-2.056Z" fill="#FFA8A7"/><path d="M163.331 110.562c.144-.079.241.109.372.258.113.11.202.242.262.389a.831.831 0 0 1-.306.612.976.976 0 0 0-.437.6.82.82 0 0 1-.542.687 1.381 1.381 0 0 1-1.07 0c-.205-.132 0-.28.271-.692.376-.538.668-.923.668-1.426l.782-.428Z" fill="#263238"/><path d="m163.03 110.098.306.437a.44.44 0 0 1-.101.604.46.46 0 0 1-.59-.092l-.48-.529.865-.42Z" fill="#FFA8A7"/><path d="M157.151 101.882c.044 1.159.262 2.305.646 3.399.231.628.524 1.232.874 1.803.126.218 3.739 3.74 3.739 3.74a.79.79 0 0 0 .712-.643s-1.481-2.52-1.804-3.036a7.18 7.18 0 0 0-1.455-1.313l.105-4.523-2.817.573Z" fill="#37474F"/><path d="m158.412 112.443-.763-.174-.253 1.113.763.174.253-1.113Z" fill="#FFA8A7"/><path d="m157.797 101.252 3.25.127c.221.481.316 1.011.275 1.54-.109 1.588-1.612 4.427-1.612 4.427a6.1 6.1 0 0 1-.096 1.925 34.519 34.519 0 0 1-1.205 3.412 1.016 1.016 0 0 1-.442-.029 1.014 1.014 0 0 1-.388-.211s.489-4.353.62-5.469c.144-1.207.511-3.412.511-3.412a5.31 5.31 0 0 1-.655-.788 2.308 2.308 0 0 1-.494-1.522" fill="#37474F"/><path d="M162.287 100.394a26.835 26.835 0 0 0-.541-3.333.835.835 0 0 0-.738-.696c-1.062.573-1.053 1.335-.149 2.253 0 0 .376 1.479.494 2.188.123.647.182 1.305.174 1.964a.374.374 0 0 1-.118.254 2.233 2.233 0 0 0-.358.538c-.096.157-.196.214-.17.254.034.04.082.067.135.073a.208.208 0 0 0 .149-.038c.097-.066.185-.144.262-.232-.03.208-.094.411-.188.599-.218.437-.183.661.437.534.376-.079.624-.381.725-1.273.044-.329.065-.661.061-.993-.07-.836-.122-1.575-.175-2.092Z" fill="#FFA8A7"/><path d="m157.478 113.007.022-.109c-.079 0-.437.586-.764.835-.328.25-.695.438-.874.551-.179.114.101.499.647.53.321.018.641-.056.921-.215.153-.144.262-.385.385-.49.122-.105.366-.192.436-.328a.91.91 0 0 0 .044-.411c0-.144 0-.302-.057-.297v.083a.956.956 0 0 1-.467.1c-.118-.004-.358-.035-.293-.249ZM158.295 106.235s.328-2.315.415-2.673a3.849 3.849 0 0 1-.725-.516c.151.215.316.421.493.616l-.183 2.573ZM160.256 106.156c-.157.408-.339.805-.546 1.19 0 0 .04.744.035.875l.205.179a4.75 4.75 0 0 0-.091-1.002c.177-.398.31-.815.397-1.242Z" fill="#263238"/><path d="M159.863 96.177c.384.044.766.106 1.144.188-1.057.744-.148 2.253-.148 2.253l-.563 1.562c.378.497.685 1.045.912 1.627-.297.342-2.061 1.374-4.075.075 0 0 .118-1.138.284-1.995-.288-1.391-.371-1.881-.284-2.21.236-.918.778-1.504 1.398-1.54l1.332.04Z" fill="#F5F5F5"/><path d="M157.797 92.721c-.201.118-.437.63-.437 1.697.022.906.315 1.13.463 1.195a1.5 1.5 0 0 0 .704-.022v.534s-.38.437-.354.695c.026.258.55.306.904.066a2.89 2.89 0 0 0 .659-.722v-1.247s.166.158.437-.083a.521.521 0 0 0 .127-.717.397.397 0 0 0-.633.126 2.144 2.144 0 0 1-1.022-.306 1.636 1.636 0 0 1-.848-1.216Z" fill="#FFA8A7"/><path d="M158.378 94.19c0 .03.012.06.033.081a.115.115 0 0 0 .161 0 .115.115 0 0 0 .033-.08.141.141 0 0 0-.005-.046.117.117 0 0 0-.104-.08.118.118 0 0 0-.118.126Z" fill="#263238"/><path d="m158.348 94.961-.263.083a.134.134 0 0 0 .117.101c.018.002.036 0 .054-.005a.145.145 0 0 0 .092-.179Z" fill="#F28F8F"/><path d="m157.448 93.84.227-.157a.125.125 0 0 0-.037-.039.13.13 0 0 0-.151 0 .137.137 0 0 0-.061.09.138.138 0 0 0 .022.107ZM157.5 94.108a.119.119 0 0 0 .006.045.106.106 0 0 0 .022.04.118.118 0 0 0 .081.04.118.118 0 0 0 .118-.112.128.128 0 0 0-.008-.044.116.116 0 0 0-.105-.07.117.117 0 0 0-.081.033.109.109 0 0 0-.024.037.109.109 0 0 0-.009.044v-.013Z" fill="#263238"/><path d="m158.037 94.042-.017.687-.363-.11.38-.577ZM158.535 95.59c.293-.035.874-.21.983-.437a.607.607 0 0 1-.209.302 3.216 3.216 0 0 1-.774.327v-.192Z" fill="#F28F8F"/><path d="m160.597 99.349-.795 1.08.489-.249.306-.831Z" fill="#E0E0E0"/><path d="M122.456 118.108c.196-1.088.252-2.196.166-3.299a.124.124 0 0 0-.029-.07.128.128 0 0 0-.065-.039.124.124 0 0 0-.133.057l-.843 1.566s-.1 1.146-.205 1.929a11.044 11.044 0 0 1-.437 2.105.438.438 0 0 1-.201.227 2.4 2.4 0 0 0-.546.438c-.148.135-.271.162-.253.21a.223.223 0 0 0 .117.119.225.225 0 0 0 .167.008c.121-.038.237-.091.345-.158a2.07 2.07 0 0 1-.384.564c-.363.381-.394.626.27.683.415.035.769-.197 1.153-1.094.148-.327.272-.665.372-1.01.257-.893.397-1.689.506-2.236Z" fill="#B16668"/><path d="M126.401 130.532s.052 0 .214.101c.183.115.343.263.471.438a.9.9 0 0 1-.209.713 1.484 1.484 0 0 0-.249.835 1.385 1.385 0 0 1-.524.985c-.271.188-.603.38-.756.332-.153-.048-.162-.236.03-1.067.161-.548.275-1.109.341-1.676l.682-.661Z" fill="#263238"/><path d="m126.283 130.375.179.241a.314.314 0 0 1 .057.262.697.697 0 0 1-.236.416.378.378 0 0 1-.249.074.437.437 0 0 1-.315-.171l-.139-.188.703-.634Z" fill="#B16668"/><path d="m121.937 120.002 2.018 2.021h-.057l-.463 3.658c.366.248.678.568.917.94.385.595 1.913 3.754 1.913 3.754s-.179.704-.703.634c0 0-.812-1.015-1.686-2.126-.956-1.22-2.014-2.542-2.07-2.782-.293-1.313.131-6.099.131-6.099Z" fill="#455A64"/><path d="M124.391 126.621c.385.595 1.914 3.754 1.914 3.754s-.18.704-.704.634c0 0-.812-1.015-1.686-2.126l.476-2.262Z" fill="#37474F"/><path d="M124.23 132.628a3.62 3.62 0 0 0-.756-.569 2.996 2.996 0 0 0-.402 0c-.12 0-.24-.013-.358-.039a4.84 4.84 0 0 1-.699-.319 1.146 1.146 0 0 0-.305-.132c-.188-.035-.337-.039-.402.171a.485.485 0 0 0-.022.197 1.232 1.232 0 0 0 .498 1.002c.144.096.336.17.489.258.233.096.456.213.668.35.315.271.607.538 1.049.363a.547.547 0 0 0 .371-.368c.061-.232-.157-.669-.131-.914Z" fill="#263238"/><path d="m121.958 119.687 4.325.438c.117 1.25.009 2.511-.319 3.723-.35 1.57-.738 3.22-.738 3.22.186.607.2 1.254.039 1.868-.336 1.098-.961 4.016-.961 4.016a1.846 1.846 0 0 0-.978-.923s.157-1.536.253-2.647c.096-1.111.153-2.039.188-2.726.057-1.093.214-4.65.214-4.65h-.057s-1.699-.805-1.979-2.021l.013-.298Z" fill="#455A64"/><path d="M123.955 122.024a5.799 5.799 0 0 1-1.35-.875l1.053.984-.193 3.294.49-3.403Z" fill="#37474F"/><path d="M123.544 114.328c-.642 0-1.411.206-1.717.796-.272.751-.456 1.53-.546 2.323 0 0 .241.521 1.141.46l1.122-3.579Z" fill="#263238"/><path d="M127.715 119.075c-.179-1.851-.847-3.202-.926-3.666l-.541 2.288c.179.604.325 1.217.436 1.837.133.705.198 1.422.193 2.14a.435.435 0 0 1-.127.275c-.16.173-.293.369-.393.582-.105.175-.214.232-.184.276a.23.23 0 0 0 .146.079.223.223 0 0 0 .16-.04c.106-.071.203-.155.288-.249a2.143 2.143 0 0 1-.192.651c-.236.469-.196.718.437.578.411-.088.681-.411.791-1.382.046-.357.068-.717.065-1.077-.026-.932-.1-1.736-.153-2.292Z" fill="#B16668"/><path d="M124.859 114.368c.76.183 1.799.437 2.101 1.251.25.787.458 1.588.624 2.397a1.444 1.444 0 0 1-1.271.381l-.175-.617.145 2.358c-.594.652-3.058.818-4.346-.136 0 0 .222-3.499.222-4.151a1.434 1.434 0 0 1 1.385-1.523l1.315.04Z" fill="#37474F"/><path d="m126.139 117.78-.385-1.207.419 1.806-.034-.599ZM125.143 110.973a.46.46 0 0 1 .375.131c.162.166.127.472 0 1.172l-.498.057.123-1.36ZM122.242 110.772a.79.79 0 0 1-.314-.066c-.153-.088-.192.087-.109.236a.7.7 0 0 0 .581.385l.139-.389-.297-.166Z" fill="#263238"/><path d="M124.911 112.333c.075.044.179-.096.271-.192a.316.316 0 0 1 .293-.107.314.314 0 0 1 .244.194c.149.32-.196.744-.397.875a.346.346 0 0 1-.411.035l-.052 1.221a1.317 1.317 0 0 1-.983.744c-.716.1-.568-.49-.332-.784v-.437a1.64 1.64 0 0 1-.541.026 1.35 1.35 0 0 1-.463-.595 2.7 2.7 0 0 1-.188-1.955c.253-1.094 1.428-1.129 2.127-.687.699.442.432 1.662.432 1.662Z" fill="#B16668"/><path d="M124.911 112.46c.035 0 .175-.236.271-.319.096-.083-.039-1.168-.039-1.168a.72.72 0 0 0-.123-.665c-.253-.263-.738-.219-1.096-.232a3.208 3.208 0 0 1-1.275-.254c-.507-.223-.546-.249-.607-.026-.05.184-.057.376-.019.563.037.187.116.362.233.513l.166.271c.189.113.404.176.624.184a4.849 4.849 0 0 0 1.38-.21c.136 0 .166.114.241.481.074.368.118.858.244.862Z" fill="#263238"/><path d="m125.143 111.055.436-.24a.253.253 0 0 0-.058-.079.261.261 0 0 0-.085-.05.234.234 0 0 0-.098-.012.26.26 0 0 0-.095.027.268.268 0 0 0-.1.354Z" fill="#263238"/><path d="M123.544 113.886c.306-.059.605-.145.895-.258a.752.752 0 0 0 .319-.315 1.035 1.035 0 0 1-.179.372c-.17.219-1.035.376-1.035.376v-.175Z" fill="#9A4A4D"/><path d="M123.518 112.311c0 .036.014.071.04.096.025.025.059.04.095.04a.14.14 0 0 0 .115-.138.14.14 0 0 0-.115-.138.14.14 0 0 0-.053.011.147.147 0 0 0-.044.031.12.12 0 0 0-.029.045.121.121 0 0 0-.009.053ZM123.666 111.808l.284.157a.174.174 0 0 0-.07-.227.156.156 0 0 0-.06-.019.153.153 0 0 0-.154.089Z" fill="#263238"/><path d="m123.605 113.186-.306.114a.165.165 0 0 0 .21.1.17.17 0 0 0 .096-.214Z" fill="#9A4A4D"/><path d="m122.339 111.917.262-.196a.164.164 0 0 0-.046-.045.168.168 0 0 0-.06-.022.172.172 0 0 0-.064.003.171.171 0 0 0-.121.138.17.17 0 0 0 .029.122ZM122.421 112.272c0 .034.014.068.039.092a.13.13 0 0 0 .185 0 .129.129 0 0 0 .039-.092.15.15 0 0 0-.009-.052.131.131 0 0 0-.028-.045.131.131 0 0 0-.094-.043.131.131 0 0 0-.095.043.131.131 0 0 0-.028.045.15.15 0 0 0-.009.052Z" fill="#263238"/><path d="m123.046 112.255.122.791-.436-.052.314-.739Z" fill="#9A4A4D"/><path d="M60.528 110.819a2.083 2.083 0 0 1-2.08-2.082v-.088a1.75 1.75 0 0 1 1.748-1.749h.634a1.746 1.746 0 0 1 1.747 1.749v.088a2.08 2.08 0 0 1-2.048 2.082Z" fill="#263238"/><path d="M62.07 115.089c-.275-1.395-.804-2.935-.778-3.631l.407.026a1.08 1.08 0 0 1 .991.902c.144.91.367 2.296.437 2.865.091.71.247 1.41.467 2.091a.41.41 0 0 0 .206.223c.199.121.381.268.541.438.149.135.271.162.254.21a.23.23 0 0 1-.117.12.23.23 0 0 1-.167.007 1.685 1.685 0 0 1-.345-.158c.096.208.226.399.384.565.363.38.393.625-.27.682-.438.035-.77-.197-1.154-1.094a7.58 7.58 0 0 1-.371-1.01 57.308 57.308 0 0 1-.485-2.236Z" fill="#B16668"/><path d="M61.122 111.436a2.27 2.27 0 0 1 1.127.18.982.982 0 0 1 .49.813c.082.412.218 1.492.218 1.492s-.227.499-1.236.293l-.599-2.778ZM58.244 127.518s-.053 0-.214.101a1.706 1.706 0 0 0-.472.437.913.913 0 0 0 .21.713c.164.248.25.539.249.836a1.378 1.378 0 0 0 .524.984c.27.188.607.381.755.333.149-.049.162-.237-.03-1.068a10.173 10.173 0 0 1-.34-1.675l-.682-.661Z" fill="#263238"/><path d="m58.362 127.36-.18.241a.319.319 0 0 0-.056.263.69.69 0 0 0 .236.415c.071.054.16.08.249.075a.45.45 0 0 0 .314-.171l.14-.188-.703-.635Z" fill="#B16668"/><path d="m62.607 117.058-1.044.393-.873 1.558h.057l.463 3.657a3.265 3.265 0 0 0-.918.941c-.384.595-1.913 3.753-1.913 3.753s.18.705.703.635c0 0 .813-1.015 1.686-2.126a29.087 29.087 0 0 0 2.07-2.783c.403-1.417-.23-6.028-.23-6.028Z" fill="gold"/><path d="M60.275 123.607c-.385.595-1.913 3.754-1.913 3.754s.179.704.703.634c0 0 .812-1.015 1.686-2.126l-.476-2.262Z" fill="gold"/><path opacity=".2" d="M60.275 123.607c-.385.595-1.913 3.754-1.913 3.754s.179.704.703.634c0 0 .812-1.015 1.686-2.126l-.476-2.262Z" fill="#000"/><path d="M60.401 129.627c.252-.191.528-.345.822-.46.134.003.268.015.401.035.12.013.24.013.359 0 .251-.054.498-.129.738-.223.102-.046.211-.076.323-.087.188 0 .336 0 .376.218a.622.622 0 0 1 0 .202 1.223 1.223 0 0 1-.616.936c-.153.074-.354.127-.516.188a4.29 4.29 0 0 0-.711.258c-.346.223-.673.437-1.084.219a.528.528 0 0 1-.319-.411c-.056-.254.223-.644.227-.875Z" fill="#263238"/><path d="m62.48 116.865-4.044.258c-.288.924-.284 1.75.035 3.544.23 1.155.545 2.291.943 3.399a3.393 3.393 0 0 0-.026 1.873c.332 1.098.965 3.876.965 3.876a3.257 3.257 0 0 1 1.01-.643s-.197-1.676-.293-2.787a77.159 77.159 0 0 1-.188-2.726c-.057-1.093-.214-4.65-.214-4.65h.057s1.48-.542 1.747-1.75l.008-.394Z" fill="gold"/><path opacity=".2" d="M60.672 119.009a5.829 5.829 0 0 0 1.35-.875l-1.048.984.187 3.295-.489-3.404Z" fill="#000"/><path d="M57.047 116.056c.15-1.233.375-2.456.672-3.662a.876.876 0 0 1 .721-.708c1.149.621 1.14 1.448.162 2.441 0 0-.41 1.61-.537 2.393a11.07 11.07 0 0 0-.193 2.139.44.44 0 0 0 .127.276c.16.172.293.368.393.581.105.175.214.232.184.276a.225.225 0 0 1-.306.039 1.551 1.551 0 0 1-.288-.249c.034.225.103.444.205.648.236.468.196.713-.437.577-.41-.087-.681-.411-.79-1.382a8.012 8.012 0 0 1-.066-1.077c.026-.927.1-1.732.153-2.292Z" fill="#B16668"/><path d="m59.68 111.48-1.24.206c1.149.809.162 2.441.162 2.441l.611 1.702a7.153 7.153 0 0 0-.773 1.312c.376.328 2.62 1.102 4.167-.066 0 0-.087-.616-.27-1.548.314-1.514.401-2.048.31-2.402-.258-.998-.848-1.632-1.52-1.671l-1.446.026Z" fill="#455A64"/><path d="M61.93 107.726c.219.132.49.683.463 1.842-.022.984-.34 1.229-.502 1.313a1.701 1.701 0 0 1-.764-.022v.577s.41.481.384.753c-.026.271-.594.336-.983.07a3.11 3.11 0 0 1-.716-.779v-1.356s-.175.17-.476-.088a.564.564 0 0 1-.136-.778.438.438 0 0 1 .556-.019.439.439 0 0 1 .126.154c.393-.016.776-.13 1.114-.332a1.795 1.795 0 0 0 .934-1.335Z" fill="#B16668"/><path d="M61.292 109.323a.122.122 0 0 1-.143.12.124.124 0 0 1-.098-.091.123.123 0 0 1 .11-.151.116.116 0 0 1 .05.008.124.124 0 0 1 .082.114Z" fill="#263238"/><path d="m61.327 110.159.284.087a.146.146 0 0 1-.071.093.15.15 0 0 1-.116.012.152.152 0 0 1-.097-.192Z" fill="#9A4A4D"/><path d="m62.306 108.942-.25-.17a.125.125 0 0 1 .04-.044.13.13 0 0 1 .113-.024c.019.004.037.012.053.024a.156.156 0 0 1 .044.214ZM62.249 109.249a.126.126 0 0 1-.125.15.126.126 0 0 1-.122-.095.126.126 0 0 1-.002-.055.123.123 0 0 1 .07-.12.112.112 0 0 1 .048-.011.126.126 0 0 1 .05.008c.017.007.032.016.044.029a.124.124 0 0 1 .037.094Z" fill="#263238"/><path d="m61.664 109.161.022.744.388-.118-.41-.626ZM61.122 110.846c-.319-.044-.965-.232-1.066-.486a.638.638 0 0 0 .227.328c.263.155.545.275.84.355v-.197Z" fill="#9A4A4D"/><path d="m58.886 114.923.865 1.172-.538-.267-.327-.905ZM59.165 106.685a.92.92 0 0 1 .456.952.917.917 0 0 1-.735.757.923.923 0 0 1-.896-1.481.87.87 0 0 1 1.175-.228ZM58.436 111.686c-.18.043-.638 0-.874.91-.235.909-.384 1.784-.384 1.784a1.245 1.245 0 0 0 1.31.372s.297-.91.49-1.509c.192-.599.087-1.339-.542-1.557Z" fill="#263238"/><path d="M28.254 96.79a12.239 12.239 0 0 1-.157-3.09.113.113 0 0 1 .16-.098c.023.01.042.028.054.05l.79 1.466s.092 1.076.193 1.811c.069.668.205 1.328.406 1.969a.41.41 0 0 0 .188.214c.19.112.362.252.51.416.14.127.254.153.24.197a.218.218 0 0 1-.266.118 1.559 1.559 0 0 1-.327-.145c.092.194.214.371.362.526.341.358.372.59-.253.643-.393.035-.72-.184-1.083-1.024a7.792 7.792 0 0 1-.35-.95c-.214-.844-.362-1.588-.467-2.104Z" fill="#FFA8A7"/><path d="M27.236 93.25c.599 0 1.31.193 1.608.744a9.61 9.61 0 0 1 .51 2.187s-.226.49-1.065.438l-1.053-3.369Z" fill="gold"/><path opacity=".2" d="M27.236 93.25c.599 0 1.31.193 1.608.744a9.61 9.61 0 0 1 .51 2.187s-.226.49-1.065.438l-1.053-3.369Z" fill="#000"/><path d="M22.453 108.019c-.148-.074-.244.114-.38.267-.117.11-.207.247-.262.398a.832.832 0 0 0 .306.622.97.97 0 0 1 .437.608.828.828 0 0 0 .555.7 1.4 1.4 0 0 0 1.083 0c.21-.136 0-.285-.275-.705-.38-.546-.677-.94-.677-1.452l-.787-.438Z" fill="#263238"/><path d="m22.76 107.573-.315.46a.438.438 0 0 0 .104.612.469.469 0 0 0 .599-.096l.493-.534-.882-.442Z" fill="#FFA8A7"/><path d="M28.533 98.566c0 .59-.148 2.966-.554 4.016-.406 1.05-.638 1.706-.765 1.925-.126.218-3.804 3.806-3.804 3.806a.807.807 0 0 1-.725-.652s1.507-2.568 1.834-3.093c.43-.511.929-.96 1.481-1.335l-.105-4.597 2.638-.07Z" fill="#37474F"/><path d="m27.726 111.092.775-.175-.257-1.135-.775.176.257 1.134Z" fill="#FFA8A7"/><path d="M28.534 98.566h-3.73c-.08.546-.127 1.097-.14 1.649-.031 1.619 1.476 4.558 1.476 4.558a6.054 6.054 0 0 0 .096 1.96 34.64 34.64 0 0 0 1.227 3.474 1.06 1.06 0 0 0 .843-.245s-.498-4.432-.633-5.569c-.144-1.23-.515-3.474-.515-3.474.246-.246.47-.514.668-.8.345-.46.586-.99.707-1.553Z" fill="#37474F"/><path d="M23.323 97.695c.17-1.728.795-2.997.873-3.434l.511 2.143a15.757 15.757 0 0 0-.437 1.728c-.126.66-.187 1.332-.183 2.004a.4.4 0 0 0 .122.254c.153.161.28.346.376.547.1.161.2.218.175.253a.217.217 0 0 1-.137.077.216.216 0 0 1-.152-.037 1.617 1.617 0 0 1-.27-.237c.03.212.095.418.192.609.223.437.188.673-.437.542-.384-.083-.638-.385-.738-1.312a7.104 7.104 0 0 1-.061-1.011c.048-.844.118-1.601.166-2.126Z" fill="#FFA8A7"/><path d="M26.004 93.285c-.716.175-1.69.398-1.974 1.173-.233.739-.428 1.49-.585 2.248a1.37 1.37 0 0 0 1.192.359l.166-.582v2.082c.56.613 2.507.897 3.73 0v-3.889a1.34 1.34 0 0 0-1.31-1.426l-1.219.035Z" fill="gold"/><path opacity=".2" d="m24.803 96.483.358-1.129-.358 1.637v-.508Z" fill="#000"/><path d="M28.665 90.669a1.122 1.122 0 0 1-.682 1.044 1.117 1.117 0 0 1-1.532-.808 1.121 1.121 0 0 1 1.095-1.343 1.117 1.117 0 0 1 1.119 1.107ZM25.734 90.105a.437.437 0 0 0-.35.122c-.153.158-.118.438 0 1.098l.468.057-.118-1.277Z" fill="#263238"/><path d="M25.952 91.382c-.065.04-.166-.092-.253-.184a.3.3 0 0 0-.503.084c-.14.297.18.695.372.826a.323.323 0 0 0 .384.035l.053 1.142a1.224 1.224 0 0 0 .917.7c.672.092.533-.464.314-.735v-.415c.168.036.34.044.511.026.195-.143.346-.337.437-.56.286-.567.35-1.221.18-1.833-.241-1.024-1.342-1.055-1.997-.643-.655.41-.415 1.557-.415 1.557Z" fill="#FFA8A7"/><path d="M25.952 91.496c-.03 0-.166-.219-.253-.298-.088-.078.035-1.093.035-1.093a.679.679 0 0 1 .118-.621c.235-.25.694-.206 1.026-.22a10.146 10.146 0 0 1 1.503.036.319.319 0 0 1 .227.087.276.276 0 0 1 .026.228 1.042 1.042 0 0 1-.935.822 4.564 4.564 0 0 1-1.31-.197c-.127 0-.153.105-.223.438-.07.332-.096.818-.214.818Z" fill="#263238"/><path d="m25.738 90.178-.437-.222a.231.231 0 0 1 .315-.105.25.25 0 0 1 .122.327Z" fill="#263238"/><path d="M27.232 92.835a4.83 4.83 0 0 1-.834-.241.699.699 0 0 1-.302-.298c.032.127.09.247.17.35.158.206.966.355.966.355v-.166Z" fill="#F28F8F"/><path d="M27.254 91.356a.127.127 0 1 1-.25 0 .127.127 0 1 1 .25 0ZM27.123 90.875l-.267.148a.162.162 0 0 1 .061-.214.15.15 0 0 1 .17.018c.015.013.027.03.036.048Z" fill="#263238"/><path d="m27.18 92.187.283.105a.154.154 0 0 1-.136.105.155.155 0 0 1-.06-.009.155.155 0 0 1-.086-.082.153.153 0 0 1-.002-.119Z" fill="#F28F8F"/><path d="m28.363 90.992-.245-.188a.148.148 0 0 1 .214-.035.17.17 0 0 1 .031.223ZM28.297 91.312a.127.127 0 0 1-.178.138.124.124 0 0 1-.069-.083.127.127 0 0 1-.001-.055.127.127 0 1 1 .248 0Z" fill="#263238"/><path d="m27.704 91.308-.118.739.41-.048-.292-.691Z" fill="#F28F8F"/><path d="m28.411 110.535-.026-.114c.083 0 .437.595.777.849.341.254.708.437.874.564.166.127-.1.508-.66.538-.326.02-.65-.056-.934-.218-.157-.145-.271-.39-.393-.499-.123-.11-.372-.197-.437-.333a.875.875 0 0 1-.048-.437c0-.144 0-.306.057-.302v.083c.146.074.308.11.471.105.14.013.385-.017.32-.236ZM27.577 103.64s-.332-2.353-.437-2.721c.266-.143.512-.319.734-.525a6.179 6.179 0 0 1-.502.63l.205 2.616ZM25.58 103.562c.161.415.348.82.56 1.211 0 0-.044.757-.035.91l-.21.18a4.906 4.906 0 0 1 .092-1.02 6.246 6.246 0 0 1-.406-1.281Z" fill="#263238"/></svg>