<svg width="236" height="214" fill="none" xmlns="http://www.w3.org/2000/svg"><path d="M129.181 190.464v-2.477l64.425-37.166 40.803 23.535v2.478L169.984 214l-40.803-23.536Z" fill="silver"/><path d="m129.181 187.987 40.803 23.535 64.425-37.166-40.803-23.535-64.425 37.166Z" fill="silver"/><path opacity=".15" d="m129.181 187.986 40.803 23.536V214l-40.803-23.536v-2.478Z" fill="#000"/><path opacity=".1" d="m169.984 211.522 64.425-37.166v2.478L169.984 214v-2.478Z" fill="#000"/><path d="m181.79 178.694 7.518 4.337v-29.373l-25.773-14.866.005 29.373 18.25 10.529Z" fill="#EBEBEB"/><path d="m187.161 153.378 27.92 6.762v-1.242l-27.92-6.757v1.237Z" fill="#37474F"/><path d="m161.394 137.265 25.767 14.877 27.92 6.757-25.768-14.872-27.919-6.762Z" fill="#455A64"/><path opacity=".5" d="m161.394 137.265 25.767 14.877 27.92 6.757-25.768-14.872-27.919-6.762Z" fill="#37474F"/><path d="m161.394 137.265 25.767 14.877v1.236l-25.767-14.872v-1.241Z" fill="#263238"/><path d="m189.308 183.031 23.626-13.63v-9.784l-23.626-5.716v29.13Z" fill="#EBEBEB"/><path d="m189.308 155.348 23.626 5.722v-1.453l-23.626-5.716v1.447Z" fill="#E0E0E0"/><path d="M193.601 180.554v-11.153l15.04-8.669v11.147l-15.04 8.675Z" fill="#455A64"/><path opacity=".5" d="M193.601 180.554v-11.153l15.04-8.669v11.147l-15.04 8.675Z" fill="#37474F"/><path d="m208.641 160.732-.206.116v10.915l.206.111v-11.142Z" fill="#263238"/><path d="m208.43 171.768-14.829 8.553v.233l15.04-8.675-.211-.111Z" fill="#37474F"/><path d="M169.985 204.095V159.49l-27.92-16.108v44.605l27.92 16.108Z" fill="#EBEBEB"/><path d="M142.065 143.382v6.197l27.92 16.108v-6.197l-27.92-16.108Z" fill="#E0E0E0"/><path d="m148.51 155.729-4.298-2.473v32.211l4.298 2.477v-32.215Z" fill="#455A64"/><path d="M144.555 185.271v-31.819l3.955 2.277v31.819l-3.955-2.277Z" fill="#FAFAFA"/><path d="m144.555 153.452 3.955 2.277v1.178l-3.955-2.267v-1.188Z" fill="#E0E0E0"/><path d="m144.212 185.467.344-.196 3.954 2.277v.397l-4.298-2.478Z" fill="#37474F"/><path d="m163.54 165.687-8.591-4.961v9.917l8.591 4.955v-9.911Z" fill="#455A64"/><path d="M155.293 170.447v-9.52l8.247 4.76v9.515l-8.247-4.755Z" fill="#FAFAFA"/><path d="M155.293 160.927v1.516l8.247 4.76v-1.516l-8.247-4.76Z" fill="#E0E0E0"/><path d="m154.949 170.643.344-.196 8.247 4.755v.396l-8.591-4.955Z" fill="#37474F"/><path d="m158.898 163.009.344.195v9.916l-.344-.195v-9.916Z" fill="#455A64"/><path d="M159.242 163.204v9.916l.349-.2v-9.515l-.349-.201Z" fill="#37474F"/><path d="m163.54 183.031-8.591-4.955v9.911l8.591 4.955v-9.911Z" fill="#455A64"/><path d="M155.293 187.791v-9.52l8.247 4.76v9.515l-8.247-4.755Z" fill="#FAFAFA"/><path d="M155.293 178.271v1.516l8.247 4.76v-1.516l-8.247-4.76Z" fill="#E0E0E0"/><path d="m154.949 187.987.344-.196 8.247 4.755v.396l-8.591-4.955Z" fill="#37474F"/><path d="m158.898 180.353.344.201v9.91l-.344-.195v-9.916Z" fill="#455A64"/><path d="M159.242 180.554v9.911l.349-.196v-9.52l-.349-.195Z" fill="#37474F"/><path d="m169.985 159.49 21.474-22.299v54.515l-21.474 12.389V159.49Z" fill="#FAFAFA"/><path d="m191.459 174.357-21.474 12.388v-6.192l21.474-12.489v6.293Z" fill="#E0E0E0"/><path d="m169.985 162.681 21.474-22.22v-3.27l-21.474 22.299v3.191Z" fill="#F0F0F0"/><path d="m176.424 161.91 8.591-4.956v13.689l-8.591 4.955V161.91Z" fill="#455A64"/><path d="M184.671 170.447v-13.292l-8.247 4.755v13.292l8.247-4.755Z" fill="#E6E6E6"/><path d="M184.671 157.155v1.516l-8.247 4.755v-1.516l8.247-4.755Z" fill="#E0E0E0"/><path d="m185.015 170.643-.344-.196-8.247 4.755v.396l8.591-4.955Z" fill="#37474F"/><path d="m181.066 159.237-.344.195v13.688l.344-.195v-13.688Z" fill="#455A64"/><path d="M180.722 159.432v13.688l-.349-.2v-13.287l.349-.201ZM177.497 199.763v-13.668l6.445-3.714v13.662l-6.445 3.72Z" fill="#37474F"/><path d="M183.735 195.89v-13.392l-6.238 3.597v13.393l6.238-3.598Z" fill="#455A64"/><path d="m183.942 182.381-.207.117v13.392l.207.153v-13.662Z" fill="#263238"/><path d="m169.985 179.312 21.474-12.389 4.293 2.478-21.475 12.389-4.292-2.478Z" fill="#E0E0E0"/><path d="M169.985 179.312v1.242l4.292 2.477v-1.241l-4.292-2.478Z" fill="#EBEBEB"/><path d="m174.278 181.79 21.474-12.389v1.242l-21.474 12.388v-1.241Z" fill="#F5F5F5"/><path d="M174.431 173.738v7.365a.066.066 0 0 1-.012.038.067.067 0 0 1-.03.025.237.237 0 0 1-.222 0 .064.064 0 0 1-.031-.025.066.066 0 0 1-.012-.038v-7.365h.307ZM176.286 172.666v7.365a.058.058 0 0 1-.01.038.066.066 0 0 1-.032.025.236.236 0 0 1-.111.027.236.236 0 0 1-.111-.027.066.066 0 0 1-.032-.025.064.064 0 0 1-.01-.038v-7.365h.306ZM178.147 171.599v7.364s0 .043-.047.064a.267.267 0 0 1-.222 0 .08.08 0 0 1-.028-.027.085.085 0 0 1-.015-.037v-7.364h.312ZM180.003 170.526v7.365a.084.084 0 0 1-.015.038.08.08 0 0 1-.033.025.237.237 0 0 1-.222 0 .09.09 0 0 1-.029-.026.082.082 0 0 1-.013-.037v-7.365h.312ZM181.859 169.454v7.364a.08.08 0 0 1-.048.064.228.228 0 0 1-.217 0 .08.08 0 0 1-.032-.025.082.082 0 0 1-.015-.039v-7.364h.312ZM183.714 168.381v7.365a.08.08 0 0 1-.014.039.078.078 0 0 1-.033.024.226.226 0 0 1-.217 0 .073.073 0 0 1-.033-.024.082.082 0 0 1-.015-.039v-7.365h.312ZM185.57 167.314v7.365s0 .042-.048.063a.254.254 0 0 1-.216 0c-.032-.021-.048-.042-.048-.063v-7.365h.312ZM187.426 166.242v7.364a.086.086 0 0 1-.013.038.083.083 0 0 1-.03.026.242.242 0 0 1-.222 0 .087.087 0 0 1-.032-.025.082.082 0 0 1-.015-.039v-7.364h.312ZM189.281 165.169v7.365a.077.077 0 0 1-.012.038.072.072 0 0 1-.03.025.237.237 0 0 1-.222 0 .073.073 0 0 1-.048-.063v-7.365h.312ZM191.137 164.102v7.365a.08.08 0 0 1-.012.037.075.075 0 0 1-.03.026.267.267 0 0 1-.222 0c-.032-.021-.048-.042-.048-.063v-7.365h.312ZM192.993 163.03v7.364a.064.064 0 0 1-.012.038.066.066 0 0 1-.031.026.242.242 0 0 1-.222 0 .069.069 0 0 1-.03-.026.064.064 0 0 1-.012-.038v-7.364h.307ZM194.853 161.958v7.364a.08.08 0 0 1-.014.039.078.078 0 0 1-.033.024.237.237 0 0 1-.222 0 .067.067 0 0 1-.03-.025.068.068 0 0 1-.012-.038v-7.364h.311Z" fill="#37474F"/><path d="M174.277 174.003a.249.249 0 0 1-.132-.037l-3.452-1.955a.26.26 0 0 1-.114-.159.262.262 0 0 1 .178-.316.264.264 0 0 1 .195.015l3.325 1.881 20.941-12.082-4.89-2.779a.268.268 0 0 1-.131-.264.268.268 0 0 1 .297-.229.277.277 0 0 1 .098.033l5.287 3.006a.274.274 0 0 1 .132.233.253.253 0 0 1-.036.131.26.26 0 0 1-.096.096l-21.475 12.389a.247.247 0 0 1-.127.037Z" fill="#455A64"/><path d="m168.224 161.228 24.002-24.835v-1.242l-24.002 24.836v1.241Z" fill="#37474F"/><path d="m168.224 161.228-28.686-16.551v-1.242l28.686 16.552v1.241Z" fill="#263238"/><path d="m163.54 118.605 28.686 16.546-24.002 24.836-28.686-16.552 24.002-24.83Z" fill="#455A64"/><path d="m208.641 171.879 15.031 8.674-15.031 8.675-15.04-8.675 15.04-8.674ZM183.942 196.043l-6.445 3.72 6.439 3.714 6.445-3.72-6.439-3.714Z" fill="#F0F0F0"/><path d="m190.936 192.984.914-.528c.252-1.486.287-3 .106-4.496-.46-2.921-2.448-3.925-3.172-3.635-.724.291-.894 1.152.412 2.843a9.743 9.743 0 0 1 1.74 5.816Z" fill="silver"/><path opacity=".2" d="m190.936 192.984.914-.528c.252-1.486.287-3 .106-4.496-.46-2.922-2.448-3.925-3.172-3.635-.724.291-.894 1.152.412 2.842a9.748 9.748 0 0 1 1.74 5.817Z" fill="#000"/><path d="M191.269 191.822a.077.077 0 0 1-.026-.007.079.079 0 0 1-.02-.017.066.066 0 0 1-.011-.024.046.046 0 0 1-.001-.026c.38-2.731-.725-5.727-1.956-6.937a.048.048 0 0 1-.014-.02.052.052 0 0 1-.005-.024c0-.009.001-.017.005-.025a.066.066 0 0 1 .014-.02.07.07 0 0 1 .047-.018c.017 0 .034.006.048.018 1.258 1.231 2.379 4.274 1.993 7.052a.05.05 0 0 1-.009.024.046.046 0 0 1-.017.017.05.05 0 0 1-.024.009.065.065 0 0 1-.024-.002Z" fill="#fff"/><path d="M188.393 194.448c-.143.084-.439-.101-.555-.175a1.386 1.386 0 0 1-.46-.528 1.252 1.252 0 0 1-.111-.771c.021-.142.053-.281.095-.418.037-.132.079-.264.116-.396.046-.13.066-.269.058-.407a1.054 1.054 0 0 0-.497-.628 1.027 1.027 0 0 1-.502-.756c.022-.255.124-.497.291-.692.158-.201.349-.375.492-.586a.83.83 0 0 0 .163-.529.834.834 0 0 0-.111-.317 4.6 4.6 0 0 1-.349-.644.633.633 0 0 1 .112-.682.763.763 0 0 1 .565-.142c.188.022.368.085.529.185.529.29.825.914 1.38 1.135.22.069.444.123.671.164a.845.845 0 0 1 .555.381c.206.406-.174.908-.031 1.341.142.434.496.529.708.872a.827.827 0 0 1 .095.502c-.016.293-.087.58-.211.845a5.931 5.931 0 0 1-.46.766l-2.543 1.48Z" fill="silver"/><path opacity=".1" d="M188.393 194.448c-.143.084-.439-.101-.555-.175a1.386 1.386 0 0 1-.46-.528 1.252 1.252 0 0 1-.111-.771c.021-.142.053-.281.095-.418.037-.132.079-.264.116-.396.046-.13.066-.269.058-.407a1.054 1.054 0 0 0-.497-.628 1.027 1.027 0 0 1-.502-.756c.022-.255.124-.497.291-.692.158-.201.349-.375.492-.586a.83.83 0 0 0 .163-.529.834.834 0 0 0-.111-.317 4.6 4.6 0 0 1-.349-.644.633.633 0 0 1 .112-.682.763.763 0 0 1 .565-.142c.188.022.368.085.529.185.529.29.825.914 1.38 1.135.22.069.444.123.671.164a.845.845 0 0 1 .555.381c.206.406-.174.908-.031 1.341.142.434.496.529.708.872a.827.827 0 0 1 .095.502c-.016.293-.087.58-.211.845a5.931 5.931 0 0 1-.46.766l-2.543 1.48Z" fill="#000"/><path d="M189.878 193.655a.064.064 0 0 1-.063-.063c.106-2.589-1.11-5.447-1.999-6.277a.056.056 0 0 1-.014-.02.057.057 0 0 1-.006-.025.064.064 0 0 1 .018-.047.08.08 0 0 1 .021-.015.064.064 0 0 1 .024-.005.057.057 0 0 1 .026.004.057.057 0 0 1 .021.013c.904.846 2.147 3.751 2.041 6.377a.072.072 0 0 1-.024.042.07.07 0 0 1-.045.016Z" fill="#fff"/><path d="M189.492 190.602a8.897 8.897 0 0 0-1.876-.301.058.058 0 0 1-.026-.006.051.051 0 0 1-.021-.015.064.064 0 0 1-.014-.022.074.074 0 0 1-.003-.026c0-.009.002-.018.005-.026a.065.065 0 0 1 .016-.021.061.061 0 0 1 .022-.013.075.075 0 0 1 .026-.004 8.934 8.934 0 0 1 1.914.312.094.094 0 0 1 .022.012.07.07 0 0 1 .023.043.107.107 0 0 1-.003.025.072.072 0 0 1-.035.036.072.072 0 0 1-.05.006Z" fill="#fff"/><path d="m231.397 167.01-1.629 3.208.264.134 1.629-3.208-.264-.134ZM228.383 166.759l-.252.156 1.589 2.565.252-.156-1.589-2.565Z" fill="#455A64"/><path d="M230.153 166.474v7.735a.146.146 0 0 1-.025.059.15.15 0 0 1-.049.041.408.408 0 0 1-.349 0 .132.132 0 0 1-.069-.1v-7.735h.492Z" fill="#455A64"/><path d="M236 164.065a3.594 3.594 0 1 1-7.188 0 3.594 3.594 0 0 1 7.188 0Z" fill="silver"/><path opacity=".2" d="M233.563 163.146c.46-1.458.957-2.029.645-2.208a3.59 3.59 0 0 0-3.857.2 3.589 3.589 0 0 0-.546 5.373 3.599 3.599 0 0 0 3.738.971 3.598 3.598 0 0 0 1.664-1.129c-1.089.311-2.273-1.316-1.644-3.207Z" fill="#000"/><path d="M229.27 165.085a2.522 2.522 0 0 1-1.561 2.333 2.528 2.528 0 0 1-3.445-1.844 2.522 2.522 0 0 1 1.079-2.592 2.534 2.534 0 0 1 3.19.317 2.517 2.517 0 0 1 .737 1.786Z" fill="silver"/><path opacity=".2" d="M226.748 162.559a2.514 2.514 0 0 0-1.48.476c-.063 1.543 1.242 3.043.878 3.55-.365.507-1.269.196-1.586-.232a2.516 2.516 0 0 0 2.185 1.246 2.516 2.516 0 0 0 2.177-1.263 2.524 2.524 0 0 0-.001-2.515 2.521 2.521 0 0 0-2.178-1.262h.005Z" fill="#000"/><path d="M229.905 166.992a4.635 4.635 0 0 0 4.636-4.633 4.635 4.635 0 0 0-4.636-4.633 4.635 4.635 0 0 0-4.637 4.633 4.635 4.635 0 0 0 4.637 4.633Z" fill="silver"/><path opacity=".1" d="M234.414 163.421a4.626 4.626 0 0 1-2.931 3.286 4.627 4.627 0 0 1-3.857-8.379 4.716 4.716 0 0 0-1.058.85 4.624 4.624 0 0 0 2.321 5.118 4.63 4.63 0 0 0 5.551-.891l-.026.016Z" fill="#000"/><path d="m135.826 180.856-1.629 3.208.264.134 1.629-3.209-.264-.133Z" fill="#455A64"/><path d="m133.534 180.009-.251.157 1.6 2.564.251-.157-1.6-2.564Z" fill="#455A64"/><path d="M134.579 180.31v7.745a.114.114 0 0 1-.074.101.363.363 0 0 1-.343 0 .114.114 0 0 1-.074-.101v-7.745h.491Z" fill="#455A64"/><path d="M140.432 177.901a3.593 3.593 0 0 1-4.282 3.537 3.597 3.597 0 0 1-2.836-2.808 3.597 3.597 0 0 1 1.509-3.694 3.594 3.594 0 0 1 4.544.424 3.604 3.604 0 0 1 1.065 2.541Z" fill="silver"/><path opacity=".2" d="M137.963 176.987c.465-1.458.957-2.028.645-2.208a3.605 3.605 0 0 0-3.859.198 3.588 3.588 0 0 0-.546 5.375 3.59 3.59 0 0 0 3.74.968 3.595 3.595 0 0 0 1.664-1.131c-1.063.312-2.263-1.31-1.644-3.202Z" fill="#000"/><path d="M133.702 178.921a2.53 2.53 0 0 1-1.56 2.333 2.534 2.534 0 0 1-2.754-.547 2.524 2.524 0 0 1 1.787-4.311 2.526 2.526 0 0 1 2.527 2.525Z" fill="silver"/><path opacity=".2" d="M131.175 176.396a2.53 2.53 0 0 0-1.475.475c-.069 1.543 1.242 3.049.872 3.55-.37.502-1.269.196-1.586-.232a2.523 2.523 0 0 0 2.19 1.257 2.533 2.533 0 0 0 2.186-1.266 2.519 2.519 0 0 0-.004-2.524 2.52 2.52 0 0 0-2.189-1.26h.006Z" fill="#000"/><path d="M134.336 180.833a4.634 4.634 0 1 0 0-9.266 4.635 4.635 0 0 0-4.637 4.633 4.635 4.635 0 0 0 4.637 4.633Z" fill="silver"/><path opacity=".1" d="M138.846 177.257a4.638 4.638 0 0 1-8.729.886 4.627 4.627 0 0 1 .857-5.128 4.63 4.63 0 0 0 7.877 4.226l-.005.016Z" fill="#000"/><path d="M0 172.597v-2.478l83.752-48.339L131 149.056v2.478l-83.758 48.35L0 172.597Z" fill="silver"/><path d="m0 170.119 47.242 27.282L131 149.056 83.752 121.78 0 170.119Z" fill="silver"/><path d="m100.929 144.1-19.328 11.153 19.349 11.152 19.307-11.226-19.328-11.079Z" fill="#F0F0F0"/><path opacity=".15" d="m0 170.119 47.242 27.282v2.483L0 172.597v-2.478Z" fill="#000"/><path opacity=".1" d="M47.242 197.401 131 149.056v2.478l-83.758 48.35v-2.483Z" fill="#000"/><path d="m65.582 111.219 30.066-17.344 13.872 26.684-30.065 17.35-13.873-26.69Z" fill="#455A64"/><path opacity=".5" d="m65.582 111.219 30.066-17.344 13.872 26.684-30.065 17.35-13.873-26.69Z" fill="#37474F"/><path d="m79.454 156.489 25.773-14.866v-17.344l-25.773 14.866v17.344Z" fill="#F0F0F0"/><path d="M81.601 155.253v-14.867l19.328-11.152V144.1l-19.328 11.153Z" fill="#455A64"/><path opacity=".5" d="M81.601 155.253v-14.867l19.328-11.152V144.1l-19.328 11.153Z" fill="#37474F"/><path d="m100.929 129.234-.201.116v14.634l.201.111v-14.861Z" fill="#263238"/><path d="m100.723 143.984-19.122 11.042v.227l19.328-11.153-.206-.116Z" fill="#37474F"/><path d="M97.805 119.835v-8.03l-4.626-2.668-4.61 7.978v8.056l9.236-5.336Z" fill="#F0F0F0"/><path d="m93.179 109.137 5.71 3.292.73-.418-6.44-3.719v.845Z" fill="#263238"/><path d="m88.569 125.171-4.615-7.998-2.353-4.089 6.968 4.031v8.056Z" fill="#E0E0E0"/><path opacity=".4" d="M98.889 112.429h-1.084v-.624l1.084.624Z" fill="#000"/><path d="m87.47 119.016 5.709-9.879v-.845l-6.424 11.137.714-.413Z" fill="silver"/><path d="m87.47 119.016 5.709-9.879v-.845l-6.424 11.137.714-.413Z" fill="#37474F"/><path d="m86.755 119.429 6.424-11.137-6.64-3.835-6.424 11.136 6.64 3.836Z" fill="silver"/><path d="m86.755 119.429 6.424-11.137-6.64-3.835-6.424 11.136 6.64 3.836Z" fill="#263238"/><path d="m90.88 115.826 4.615-2.668v5.325l-4.616 2.668v-5.325Z" fill="#455A64"/><path d="M95.024 118.208v-4.776l-4.145 2.394v4.775l4.145-2.393Z" fill="#E0E0E0"/><path d="m95.495 118.483-.47-.275-4.146 2.393v.55l4.616-2.668ZM109.52 120.559l-30.066 17.35v1.236l30.066-17.344v-1.242Z" fill="#37474F"/><path d="m38.651 150.297-12.883-24.782-12.884 9.916v34.688l25.767 14.867v-34.689Z" fill="#F0F0F0"/><path d="m21.475 145.342-4.298-2.478v7.428l4.298 2.483v-7.433Z" fill="#455A64"/><path d="M17.52 150.097v-7.037l3.955 2.282v7.037l-3.955-2.282Z" fill="#FAFAFA"/><path d="m17.52 143.06 3.955 2.298v.734l-3.955-2.282v-.75Z" fill="#E0E0E0"/><path d="m17.177 150.292.343-.196 3.955 2.283v.396l-4.298-2.483Z" fill="#37474F"/><path d="m21.475 149.257-4.298-2.478v-.402l4.298 2.483v.397ZM34.358 152.775l-4.298-2.478v7.433l4.299 2.478v-7.433Z" fill="#455A64"/><path d="M30.404 157.53v-7.037l3.955 2.282v7.037l-3.955-2.282Z" fill="#FAFAFA"/><path d="m30.404 150.493 3.955 2.282v.734l-3.955-2.266v-.75Z" fill="#E0E0E0"/><path d="m30.06 157.73.344-.2 3.954 2.282v.396l-4.298-2.478Z" fill="#37474F"/><path d="m34.358 156.584-4.298-2.462v-.401l4.299 2.461v.402ZM21.475 160.208l-4.298-2.478v7.434l4.298 2.477v-7.433Z" fill="#455A64"/><path d="M17.52 164.963v-7.032l3.955 2.277v7.037l-3.955-2.282Z" fill="#FAFAFA"/><path d="m17.52 157.931 3.955 2.293v.74l-3.955-2.283v-.75Z" fill="#E0E0E0"/><path d="m17.177 165.164.343-.201 3.955 2.282v.396l-4.298-2.477Z" fill="#37474F"/><path d="m21.475 164.128-4.298-2.483v-.396l4.298 2.478v.401ZM34.358 167.641l-4.298-2.477v7.433l4.299 2.477v-7.433Z" fill="#455A64"/><path d="M30.404 172.401v-7.037l3.955 2.277v7.037l-3.955-2.277Z" fill="#FAFAFA"/><path d="m30.404 165.364 3.955 2.277v.735l-3.955-2.261v-.751Z" fill="#E0E0E0"/><path d="m30.06 172.597.344-.196 3.954 2.277v.397l-4.298-2.478Z" fill="#37474F"/><path d="m34.358 171.45-4.298-2.461v-.397l4.299 2.457v.401Z" fill="#455A64"/><path d="m79.454 161.45-40.802 23.535v-34.688l40.802-23.541v34.694Z" fill="#FAFAFA"/><path d="M56.547 173.41v-12.393l6.44-3.714v12.388l-6.44 3.719Z" fill="#37474F"/><path d="M62.785 169.538v-12.119l-6.238 3.598v12.119l6.238-3.598Z" fill="#455A64"/><path d="m62.986 157.303-.2.116v12.119l.2.153v-12.388ZM65.497 154.286l9.665-5.574v10.255l-9.665 5.578v-10.259Z" fill="#263238"/><path d="M74.564 158.623v-9.567l-9.067 5.23v9.573l9.067-5.236Z" fill="#E6E6E6"/><path d="M74.564 149.056v2.229l-9.067 5.236v-2.235l9.067-5.23Z" fill="#E0E0E0"/><path d="m75.162 158.967-.598-.344-9.067 5.236v.687l9.665-5.579ZM75.162 153.842l-.598-.348-9.067 5.235v.687l9.665-5.574Z" fill="#37474F"/><path d="m70.53 161.64-.597.343v-10.259l.598-.344v10.26Z" fill="#37474F"/><path d="m42.95 167.293 9.658-5.574v10.26l-9.658 5.573v-10.259Z" fill="#263238"/><path d="M52.016 171.635v-9.573l-9.066 5.231v9.572l9.066-5.23Z" fill="#E6E6E6"/><path d="M52.016 162.062v2.23l-9.066 5.235v-2.234l9.066-5.231Z" fill="#E0E0E0"/><path d="m52.608 171.979-.592-.344-9.066 5.231v.686l9.658-5.573ZM52.608 166.849l-.592-.344-9.066 5.236v.681l9.658-5.573Z" fill="#37474F"/><path d="m47.977 174.652-.592.343v-10.259l.592-.344v10.26Z" fill="#37474F"/><path d="m54.734 143.16 9.664-5.574v10.26l-9.664 5.574v-10.26Z" fill="#263238"/><path d="M63.806 147.503v-9.573l-9.072 5.23v9.573l9.072-5.23Z" fill="#E6E6E6"/><path d="M63.806 137.93v.982l-9.072 5.231v-.983l9.072-5.23Z" fill="#E0E0E0"/><path d="m64.398 147.846-.592-.344-9.072 5.231v.686l9.664-5.573ZM64.398 142.716l-.592-.343-9.072 5.235v.682l9.664-5.574Z" fill="#37474F"/><path d="m59.767 150.519-.592.344v-10.26l.592-.343v10.259Z" fill="#37474F"/><path d="m45.096 152.21 4.04-2.314v5.943l-4.04 2.314v-5.943Z" fill="#455A64"/><path d="M48.791 155.644v-5.553l-3.695 2.119v5.547l3.696-2.113Z" fill="#E0E0E0"/><path d="m49.135 155.839-.343-.195-3.696 2.113v.396l4.04-2.314Z" fill="#37474F"/><path d="m45.096 155.179 4.04-2.314v-.396l-4.04 2.314v.396ZM68.976 138.416l4.034-2.314v5.948l-4.034 2.314v-5.948Z" fill="#455A64"/><path d="M72.666 141.85v-5.547l-3.69 2.113v5.547l3.69-2.113Z" fill="#E0E0E0"/><path d="m73.01 142.05-.344-.2-3.69 2.113v.401l4.034-2.314Z" fill="#37474F"/><path d="m68.976 141.39 4.034-2.314v-.401l-4.034 2.314v.401ZM23.621 128.241l13.91 26.663 44.07-25.422-13.873-26.69-44.107 25.449Z" fill="#455A64"/><path d="m23.621 126.756 13.91 26.664 44.07-25.428-13.873-26.684-44.107 25.448Z" fill="#455A64"/><path d="M23.621 126.756v1.485l13.91 26.663v-1.485l-13.91-26.663Z" fill="#263238"/><path d="m37.53 153.42 44.07-25.428v1.49l-44.07 25.422v-1.484Z" fill="#37474F"/><path d="m10.737 138.157 12.884-9.916v-1.485l-12.884 9.911v1.49Z" fill="#263238"/><path d="m23.621 128.241-12.884 9.916 2.147-1.321 10.737-8.257.127-.095-.127-.243Z" fill="#000"/><path d="m48.527 148.559 21.475-12.389-10.738-3.719-10.737 16.108Z" fill="#FAFAFA"/><path d="m48.527 147.069-6.44-26.018 17.177 9.916-10.737 16.102Z" fill="#263238"/><path d="M59.264 132.451v-1.484l-10.737 16.102v1.49l10.737-16.108Z" fill="#37474F"/><path d="M70.002 136.171v-1.49l-10.737-3.714v1.484l10.737 3.72Z" fill="#263238"/><path d="m70.002 134.681-27.914-13.63 17.176 9.916 10.738 3.714Z" fill="#37474F"/><path d="m38.651 183.749 8.591 4.956 40.804-23.541-8.592-4.956-40.802 23.541Z" fill="#E6E6E6"/><path d="M38.651 183.749v1.236l8.591 4.961v-1.241l-8.59-4.956Z" fill="#F0F0F0"/><path d="M88.045 165.164v1.241l-40.803 23.541v-1.241l40.803-23.541Z" fill="#FAFAFA"/><path d="M47.834 168.434v18.533a.298.298 0 0 1-.174.243.932.932 0 0 1-.835 0 .3.3 0 0 1-.175-.243v-18.533h1.184ZM85.9 146.483v18.538a.29.29 0 0 1-.175.238.932.932 0 0 1-.836 0 .29.29 0 0 1-.174-.238v-18.538h1.184Z" fill="#37474F"/><path d="m38.651 165.164 8.591 4.955 40.804-23.541-8.592-4.955-40.802 23.541Z" fill="#455A64"/><path d="M38.651 165.164v1.241l8.591 4.956v-1.242l-8.59-4.955Z" fill="#37474F"/><path d="M88.045 146.578v1.242l-40.803 23.541v-1.242l40.803-23.541Z" fill="#263238"/><path d="m125.839 140.461-1.629 3.208.264.134 1.629-3.208-.264-.134ZM122.829 140.206l-.252.156 1.589 2.565.252-.156-1.589-2.565Z" fill="#455A64"/><path d="M124.592 139.916v7.735a.123.123 0 0 1-.023.06.119.119 0 0 1-.051.04.363.363 0 0 1-.348 0 .115.115 0 0 1-.069-.1v-7.735h.491Z" fill="#455A64"/><path d="M130.471 137.512a3.587 3.587 0 0 1-2.219 3.319 3.594 3.594 0 1 1 2.219-3.319Z" fill="silver"/><path opacity=".2" d="M127.976 136.593c.465-1.458.957-2.028.645-2.208a3.593 3.593 0 0 0-3.859.197 3.594 3.594 0 0 0 1.183 6.405c.663.171 1.361.15 2.012-.061a3.587 3.587 0 0 0 1.663-1.131c-1.062.311-2.247-1.31-1.644-3.202Z" fill="#000"/><path d="M123.715 138.527a2.522 2.522 0 0 1-1.56 2.333 2.534 2.534 0 0 1-2.754-.547 2.539 2.539 0 0 1-.692-1.293 2.534 2.534 0 0 1 .144-1.46 2.532 2.532 0 0 1 2.335-1.558 2.525 2.525 0 0 1 2.527 2.525Z" fill="silver"/><path opacity=".2" d="M121.188 136.002c-.529 0-1.045.166-1.475.475-.069 1.543 1.242 3.048.872 3.556-.37.507-1.269.19-1.586-.238a2.535 2.535 0 0 0 3.453.917 2.53 2.53 0 0 0 1.26-2.189 2.526 2.526 0 0 0-2.529-2.521h.005Z" fill="#000"/><path d="M124.344 140.439a4.635 4.635 0 0 0 4.637-4.633 4.635 4.635 0 0 0-4.637-4.633 4.634 4.634 0 1 0 0 9.266Z" fill="silver"/><path opacity=".1" d="M128.885 136.863a4.631 4.631 0 0 1-5.194 3.531 4.637 4.637 0 0 1-3.948-4.883 4.631 4.631 0 0 1 2.349-3.736 4.56 4.56 0 0 0-1.084.851 4.629 4.629 0 0 0 7.877 4.226v.011Z" fill="#000"/><path d="m9.44 161.188-1.63 3.208.264.134 1.63-3.209-.264-.133Z" fill="#455A64"/><path d="m7.098 160.817-.252.157 1.6 2.564.252-.157-1.6-2.564Z" fill="#455A64"/><path d="M8.184 160.641v7.735a.117.117 0 0 1-.023.06.116.116 0 0 1-.051.04.367.367 0 0 1-.349 0 .116.116 0 0 1-.05-.04.117.117 0 0 1-.024-.06v-7.735h.497Z" fill="#455A64"/><path d="M14.031 158.238a3.593 3.593 0 0 1-6.137 2.54 3.592 3.592 0 0 1 2.542-6.133 3.593 3.593 0 0 1 3.595 3.593Z" fill="silver"/><path opacity=".2" d="M11.567 157.319c.46-1.459.957-2.029.64-2.209a3.594 3.594 0 1 0-3.336 6.361c.496.24 1.04.363 1.591.359a3.599 3.599 0 0 0 2.776-1.305c-1.094.307-2.247-1.315-1.67-3.206Z" fill="#000"/><path d="M7.29 159.252a2.522 2.522 0 0 1-1.56 2.333 2.534 2.534 0 0 1-2.754-.547 2.523 2.523 0 0 1 1.787-4.311 2.525 2.525 0 0 1 2.527 2.525Z" fill="silver"/><path opacity=".2" d="M4.774 156.727c-.53 0-1.046.169-1.475.481-.069 1.542 1.242 3.043.878 3.55-.365.507-1.27.195-1.586-.233a2.526 2.526 0 1 0 2.178-3.798h.005Z" fill="#000"/><path d="M7.936 161.164a4.635 4.635 0 0 0 4.636-4.633 4.635 4.635 0 0 0-4.636-4.633 4.635 4.635 0 0 0-4.637 4.633 4.635 4.635 0 0 0 4.637 4.633Z" fill="silver"/><path opacity=".1" d="M12.445 157.588a4.631 4.631 0 0 1-2.928 3.304 4.637 4.637 0 0 1-6.215-4.657 4.629 4.629 0 0 1 1.266-2.884 4.623 4.623 0 0 0 2.32 5.126 4.638 4.638 0 0 0 5.557-.9v.011Z" fill="#000"/><path d="m106.47 141.76.92-.528c.251-1.484.287-2.997.105-4.491-.46-2.921-2.447-3.93-3.172-3.64-.724.291-.893 1.157.413 2.842a9.736 9.736 0 0 1 1.734 5.817Z" fill="silver"/><path opacity=".2" d="m106.47 141.76.92-.528c.251-1.484.287-2.997.105-4.491-.46-2.921-2.447-3.93-3.172-3.64-.724.291-.893 1.157.413 2.842a9.736 9.736 0 0 1 1.734 5.817Z" fill="#000"/><path d="M106.803 140.603a.05.05 0 0 1-.024-.009.07.07 0 0 1-.029-.04.07.07 0 0 1 0-.025c.375-2.737-.724-5.732-1.961-6.937a.072.072 0 0 1-.016-.047c0-.017.005-.034.016-.048a.067.067 0 0 1 .047-.019.07.07 0 0 1 .048.019c1.258 1.231 2.379 4.274 1.993 7.048a.072.072 0 0 1-.007.025.067.067 0 0 1-.041.032.075.075 0 0 1-.026.001Z" fill="#fff"/><path d="M103.932 143.229c-.143.079-.439-.101-.555-.175a1.395 1.395 0 0 1-.46-.528 1.271 1.271 0 0 1-.111-.777c.022-.139.054-.277.095-.412l.117-.401c.045-.129.064-.265.058-.402a1.086 1.086 0 0 0-.497-.634.997.997 0 0 1-.529-.755c.02-.255.122-.496.291-.687.158-.201.349-.375.491-.586a.832.832 0 0 0 .164-.529.864.864 0 0 0-.111-.322 4.82 4.82 0 0 1-.349-.639.64.64 0 0 1 .111-.687.772.772 0 0 1 .269-.126.762.762 0 0 1 .297-.011c.188.022.368.085.529.185.528.29.825.908 1.38 1.135.22.069.444.123.671.164a.849.849 0 0 1 .529.381c.201.406-.175.908-.032 1.341.143.434.497.529.708.872a.835.835 0 0 1 .096.502 2.333 2.333 0 0 1-.212.845 5.63 5.63 0 0 1-.465.761l-2.485 1.485Z" fill="silver"/><path opacity=".1" d="M103.932 143.229c-.143.079-.439-.101-.555-.175a1.387 1.387 0 0 1-.46-.528 1.27 1.27 0 0 1-.111-.777c.022-.139.054-.277.095-.412l.117-.401c.045-.129.064-.265.058-.402a1.086 1.086 0 0 0-.497-.634.988.988 0 0 1-.529-.755 1.18 1.18 0 0 1 .291-.687c.158-.201.349-.375.491-.586a.832.832 0 0 0 .164-.529.864.864 0 0 0-.111-.322 4.82 4.82 0 0 1-.349-.639.64.64 0 0 1 .111-.687.772.772 0 0 1 .269-.126.762.762 0 0 1 .297-.011c.188.022.368.085.529.185.528.29.825.908 1.38 1.136.22.068.444.122.671.163a.849.849 0 0 1 .529.381c.201.406-.175.908-.032 1.342.143.433.497.528.708.871a.835.835 0 0 1 .096.502 2.333 2.333 0 0 1-.212.845 5.63 5.63 0 0 1-.465.761l-2.485 1.485Z" fill="#000"/><path d="M105.418 142.436a.075.075 0 0 1-.026-.005.08.08 0 0 1-.021-.015.068.068 0 0 1-.014-.023.074.074 0 0 1-.003-.026c.106-2.588-1.115-5.441-1.998-6.276a.066.066 0 0 1-.014-.02.07.07 0 0 1-.005-.025c0-.008.002-.016.005-.024a.06.06 0 0 1 .014-.021.074.074 0 0 1 .095 0c.904.851 2.146 3.751 2.041 6.377a.072.072 0 0 1-.026.044.065.065 0 0 1-.048.014Z" fill="#fff"/><path d="M105.032 139.378a9.036 9.036 0 0 0-1.877-.307.069.069 0 0 1-.024-.005.06.06 0 0 1-.021-.014.06.06 0 0 1-.014-.02.067.067 0 0 1-.004-.024.061.061 0 0 1 .003-.027.048.048 0 0 1 .015-.022.062.062 0 0 1 .023-.014 8.934 8.934 0 0 1 1.936.306.068.068 0 0 1 .047.084.066.066 0 0 1-.033.038.07.07 0 0 1-.051.005Z" fill="#fff"/><path d="M124.725 85.602v-2.478l55.828-32.21 45.106 26.018v2.478l-55.839 32.21-45.095-26.018Z" fill="silver"/><path d="m124.725 83.124 45.095 26.019 55.839-32.21-45.106-26.02-55.828 32.21Z" fill="silver"/><path opacity=".15" d="m124.725 83.124 45.095 26.019v2.478l-45.095-26.02v-2.477Z" fill="#000"/><path opacity=".1" d="m169.821 109.143 55.838-32.21v2.477l-55.838 32.211v-2.478Z" fill="#000"/><path d="m163.376 63.302-12.884-24.777-12.883 9.91-.006 34.678 25.773 14.867V63.302Z" fill="#EBEBEB"/><path d="m146.194 58.347-4.293-2.478v7.433l4.293 2.478v-7.433Z" fill="#455A64"/><path d="M142.245 63.101v-7.036l3.949 2.282v7.037l-3.949-2.283Z" fill="#FAFAFA"/><path d="m142.245 56.065 3.949 2.298v.74l-3.949-2.283v-.755Z" fill="#E0E0E0"/><path d="m141.901 63.302.344-.2 3.949 2.282v.396l-4.293-2.478Z" fill="#37474F"/><path d="m146.194 62.267-4.293-2.483v-.402l4.293 2.483v.402ZM159.083 65.78l-4.298-2.478v7.433l4.298 2.478V65.78Z" fill="#455A64"/><path d="M155.129 70.54v-7.037l3.954 2.277v7.037l-3.954-2.277Z" fill="#FAFAFA"/><path d="m155.129 63.503 3.954 2.277v.734l-3.954-2.261v-.75Z" fill="#E0E0E0"/><path d="m154.785 70.735.344-.195 3.954 2.277v.396l-4.298-2.478Z" fill="#37474F"/><path d="m159.083 69.589-4.298-2.462v-.401l4.298 2.461v.402ZM146.194 73.218l-4.293-2.483v7.433l4.293 2.478v-7.428Z" fill="#455A64"/><path d="M142.245 77.968v-7.032l3.949 2.282v7.032l-3.949-2.282Z" fill="#FAFAFA"/><path d="m142.245 70.936 3.949 2.298v.734l-3.949-2.282v-.75Z" fill="#E0E0E0"/><path d="m141.901 78.168.344-.2 3.949 2.282v.396l-4.293-2.478Z" fill="#37474F"/><path d="m146.194 77.133-4.293-2.483v-.396l4.293 2.477v.402ZM159.083 80.646l-4.298-2.478v7.434l4.298 2.477v-7.433Z" fill="#455A64"/><path d="M155.129 85.406V78.37l3.954 2.277v7.037l-3.954-2.277Z" fill="#FAFAFA"/><path d="m155.129 78.37 3.954 2.276v.74l-3.954-2.267v-.75Z" fill="#E0E0E0"/><path d="m154.785 85.602.344-.196 3.954 2.277v.396l-4.298-2.477Z" fill="#37474F"/><path d="m159.083 84.455-4.298-2.462v-.396l4.298 2.462v.396Z" fill="#455A64"/><path d="m204.179 74.439-40.803 23.54V63.303l40.803-23.541v34.678Z" fill="#FAFAFA"/><path d="m163.376 69.589 40.803-23.631V39.76l-40.803 23.541v6.287Z" fill="#F0F0F0"/><path d="m168.742 81.787 9.664-5.579v8.147l-9.664 5.573v-8.14Z" fill="#263238"/><path d="M177.814 84.011v-7.46l-9.072 5.236v7.455l9.072-5.23Z" fill="#E6E6E6"/><path d="M177.814 76.552v1.77l-9.072 5.23v-1.765l9.072-5.235Z" fill="#E0E0E0"/><path d="m178.406 84.355-.592-.344-9.072 5.23v.687l9.664-5.573ZM178.406 80.282l-.592-.344-9.072 5.236v.686l9.664-5.578Z" fill="#37474F"/><path d="m173.775 87.028-.592.343v-8.146l.592-.343v8.146Z" fill="#37474F"/><path d="m168.742 69.372 9.664-5.573v8.14l-9.664 5.58v-8.147Z" fill="#263238"/><path d="M177.814 71.596v-7.454l-9.072 5.23v7.46l9.072-5.236Z" fill="#E6E6E6"/><path d="M177.814 64.142v1.765l-9.072 5.235v-1.77l9.072-5.23Z" fill="#E0E0E0"/><path d="m178.406 71.94-.592-.344-9.072 5.236v.687l9.664-5.58ZM178.406 67.872l-.592-.344-9.072 5.23v.687l9.664-5.573Z" fill="#37474F"/><path d="m173.775 74.613-.592.343V66.81l.592-.338v8.14Z" fill="#37474F"/><path d="m148.346 41.246 13.909 26.668 44.071-25.427-13.873-26.69-44.107 25.449Z" fill="#455A64"/><path d="m148.346 39.761 13.909 26.669 44.071-25.428-13.873-26.69-44.107 25.449Z" fill="#455A64"/><path d="M148.346 39.761v1.484l13.909 26.67V66.43L148.346 39.76Z" fill="#263238"/><path d="m162.255 66.43 44.071-25.427v1.484l-44.071 25.427V66.43Z" fill="#37474F"/><path d="m135.457 51.162 12.889-9.916V39.76l-12.889 9.91v1.49Z" fill="#263238"/><path d="m148.346 41.245-12.889 9.917 2.146-1.321 10.743-8.257.121-.096-.121-.242Z" fill="#000"/><path d="m184.851 85.591 6.444 3.714V66.033l-6.444-3.719v23.277Z" fill="#E0E0E0"/><path d="m191.295 89.305 21.475-12.389v-24.01l-21.475 12.388v24.011Z" fill="#FAFAFA"/><path d="m191.295 66.065 21.475-12.161-10.737-3.714-10.738 15.875Z" fill="#FAFAFA"/><path d="M202.033 50.19V48.7L190.46 65.817v1.479l11.573-17.106Z" fill="#263238"/><path d="m202.033 48.7-5.615-3.239-11.567 17.117 5.609 3.239L202.033 48.7Z" fill="#37474F"/><path d="m190.46 65.817-5.609-3.239v1.485l5.609 3.233v-1.48Z" fill="#263238"/><path d="M214.917 54.648v-1.49L202.033 48.7v1.49l12.884 4.459Z" fill="#37474F"/><path d="m214.917 53.159-9.374-4.48-9.125-3.218 5.615 3.239 12.884 4.459Z" fill="#37474F"/><path d="m214.917 53.159-9.374-4.48-9.125-3.218 5.615 3.239 12.884 4.459Z" fill="#263238"/><path d="M194.822 87.271V73.604l6.444-3.714v13.662l-6.444 3.719Z" fill="#37474F"/><path d="M201.06 83.399V70.006l-6.238 3.598v13.398l6.238-3.603Z" fill="#455A64"/><path d="m201.266 69.89-.206.116v13.392l.206.154V69.89Z" fill="#263238"/><path d="m205.818 68.543 4.034-2.314v5.949l-4.034 2.314v-5.95Z" fill="#455A64"/><path d="M209.508 71.977V66.43l-3.69 2.113v5.552l3.69-2.118Z" fill="#E0E0E0"/><path d="m209.852 72.177-.344-.2-3.69 2.118v.396l4.034-2.314Z" fill="#37474F"/><path d="m205.818 71.517 4.034-2.314v-.396l-4.034 2.314v.396Z" fill="#455A64"/><path d="m197.201 60.423 9.664-5.574v8.141l-9.664 5.574v-8.141Z" fill="#263238"/><path d="M206.267 62.647v-7.46l-9.066 5.236v7.46l9.066-5.236Z" fill="#E6E6E6"/><path d="M206.267 55.188v1.77l-9.066 5.235v-1.77l9.066-5.236Z" fill="#E0E0E0"/><path d="m206.865 62.99-.598-.343-9.066 5.235v.682l9.664-5.574ZM206.865 58.917l-.598-.343-9.066 5.235v.687l9.664-5.579Z" fill="#37474F"/><path d="m202.234 65.664-.598.343v-8.146l.598-.344v8.147Z" fill="#37474F"/><path d="m194.806 87.26 6.444-3.714 6.471 3.714-6.471 3.736-6.444-3.736Z" fill="#F0F0F0"/><path d="m160.23 97.462-.914-.529a15.718 15.718 0 0 1-.111-4.49c.46-2.922 2.448-3.93 3.172-3.64.724.29.893 1.157-.412 2.842a9.727 9.727 0 0 0-1.735 5.817Z" fill="silver"/><path opacity=".2" d="m160.23 97.462-.914-.529a15.717 15.717 0 0 1-.111-4.49c.46-2.922 2.447-3.93 3.172-3.64.724.29.893 1.157-.413 2.842a9.734 9.734 0 0 0-1.734 5.817Z" fill="#000"/><path d="M159.897 96.305a.069.069 0 0 0 .041-.027.065.065 0 0 0 .012-.047c-.375-2.737.725-5.732 1.962-6.937a.082.082 0 0 0 .016-.047.081.081 0 0 0-.016-.048.07.07 0 0 0-.048-.019.065.065 0 0 0-.047.02c-1.259 1.23-2.38 4.273-1.994 7.047a.07.07 0 0 0 .074.058Z" fill="#fff"/><path d="M162.768 98.93c.143.08.439-.1.555-.18.198-.131.356-.314.46-.527.117-.241.158-.512.116-.777a3.643 3.643 0 0 0-.1-.412l-.116-.402a.766.766 0 0 1-.011-.626.784.784 0 0 1 .455-.43 1.015 1.015 0 0 0 .497-.756 1.162 1.162 0 0 0-.291-.686c-.159-.201-.349-.38-.492-.587a.835.835 0 0 1-.164-.528.878.878 0 0 1 .111-.322c.134-.205.251-.42.349-.645a.631.631 0 0 0-.111-.681.75.75 0 0 0-.565-.138 1.293 1.293 0 0 0-.529.185c-.529.29-.82.909-1.38 1.136-.211.084-.449.1-.671.164a.817.817 0 0 0-.529.38c-.201.407.174.909.032 1.337-.143.428-.497.528-.709.877a.812.812 0 0 0-.095.502c.017.292.089.579.212.845.134.265.29.52.465.76 0 0 2.49 1.496 2.511 1.511Z" fill="silver"/><path opacity=".1" d="M162.768 98.93c.143.08.439-.1.555-.18.198-.132.356-.314.46-.528.117-.24.158-.512.116-.776a3.643 3.643 0 0 0-.1-.412l-.116-.402a.766.766 0 0 1-.011-.626.784.784 0 0 1 .455-.43 1.017 1.017 0 0 0 .497-.756 1.162 1.162 0 0 0-.291-.687c-.159-.2-.349-.38-.492-.586a.835.835 0 0 1-.164-.528.88.88 0 0 1 .111-.323c.134-.205.251-.42.349-.644a.632.632 0 0 0-.111-.681.749.749 0 0 0-.565-.138 1.292 1.292 0 0 0-.529.185c-.529.29-.82.908-1.38 1.136-.211.084-.449.1-.671.163a.817.817 0 0 0-.529.38c-.201.408.174.91.032 1.337-.143.428-.497.529-.709.877a.812.812 0 0 0-.095.502c.017.293.089.58.212.846.134.265.29.52.465.76 0 0 2.49 1.495 2.511 1.511Z" fill="#000"/><path d="M161.282 98.138a.063.063 0 0 0 .047-.02.065.065 0 0 0 .014-.023c.003-.008.004-.017.003-.026-.106-2.588 1.115-5.446 1.998-6.276a.059.059 0 0 0 .014-.02.068.068 0 0 0 .005-.025.068.068 0 0 0-.005-.024.06.06 0 0 0-.014-.02.071.071 0 0 0-.02-.014.065.065 0 0 0-.07.013c-.909.85-2.151 3.751-2.046 6.377a.07.07 0 0 0 .074.058Z" fill="#fff"/><path d="M161.663 95.074a8.697 8.697 0 0 1 1.877-.306.063.063 0 0 0 .06-.043c.003-.008.004-.017.003-.026a.044.044 0 0 0-.005-.025.058.058 0 0 0-.015-.02.059.059 0 0 0-.048-.013 8.63 8.63 0 0 0-1.909.306.064.064 0 0 0-.023.01.075.075 0 0 0-.018.02.069.069 0 0 0-.008.024.068.068 0 0 0 .086.073Z" fill="#fff"/><path d="m223.243 69.785-1.629 3.208.264.134 1.629-3.208-.264-.134ZM220.524 68.644l-.252.157 1.6 2.564.252-.157-1.6-2.564Z" fill="#455A64"/><path d="M222.006 69.24v7.735a.13.13 0 0 1-.069.1.4.4 0 0 1-.349 0 .141.141 0 0 1-.049-.041.141.141 0 0 1-.025-.06V69.24h.492Z" fill="#455A64"/><path d="M227.858 66.831a3.59 3.59 0 0 1-4.296 3.524 3.591 3.591 0 0 1 .701-7.116 3.595 3.595 0 0 1 3.595 3.592Z" fill="silver"/><path opacity=".2" d="M225.39 65.912c.465-1.458.956-2.029.644-2.208a3.593 3.593 0 1 0 1.005 5.415c-1.068.306-2.247-1.316-1.649-3.207Z" fill="#000"/><path d="M221.129 67.846a2.526 2.526 0 0 1-3.017 2.482 2.528 2.528 0 0 1-1.846-3.442 2.523 2.523 0 0 1 2.336-1.56 2.529 2.529 0 0 1 2.527 2.52Z" fill="silver"/><path opacity=".2" d="M218.601 65.325a2.51 2.51 0 0 0-1.475.476c-.068 1.543 1.243 3.043.878 3.55-.365.507-1.269.196-1.586-.232a2.526 2.526 0 1 0 2.183-3.794Z" fill="#000"/><path d="M221.763 69.758a4.635 4.635 0 0 0 4.636-4.633 4.635 4.635 0 0 0-4.636-4.633 4.635 4.635 0 0 0-4.637 4.633 4.635 4.635 0 0 0 4.637 4.633Z" fill="silver"/><path opacity=".1" d="M226.272 66.187a4.63 4.63 0 0 1-2.931 3.296 4.638 4.638 0 0 1-6.209-4.655 4.63 4.63 0 0 1 2.347-3.734 4.712 4.712 0 0 0-1.084.85 4.632 4.632 0 0 0 2.327 5.113 4.64 4.64 0 0 0 5.55-.886v.016Z" fill="#000"/><path d="m131.333 76.19-1.63 3.208.264.134 1.63-3.208-.264-.134ZM128.321 75.938l-.252.155 1.589 2.565.252-.156-1.589-2.564Z" fill="#455A64"/><path d="M130.091 75.643v7.734a.12.12 0 0 1-.074.1.373.373 0 0 1-.349 0 .12.12 0 0 1-.074-.1v-7.734h.497Z" fill="#455A64"/><path d="M135.938 73.24a3.591 3.591 0 0 1-4.296 3.523 3.595 3.595 0 0 1-2.825-2.823 3.589 3.589 0 0 1 1.529-3.688 3.596 3.596 0 0 1 3.374-.333 3.596 3.596 0 0 1 1.946 1.945c.18.436.273.903.272 1.375Z" fill="silver"/><path opacity=".2" d="M133.469 72.32c.465-1.458.962-2.028.645-2.208a3.591 3.591 0 0 0-5.092 1.783 3.585 3.585 0 0 0 2.429 4.814 3.592 3.592 0 0 0 3.667-1.187c-1.068.311-2.246-1.31-1.649-3.202Z" fill="#000"/><path d="M129.208 74.254a2.522 2.522 0 0 1-1.56 2.333 2.528 2.528 0 0 1-3.302-3.3 2.522 2.522 0 0 1 2.335-1.559 2.529 2.529 0 0 1 2.527 2.526Z" fill="silver"/><path opacity=".2" d="M126.681 71.728a2.545 2.545 0 0 0-1.475.476c-.069 1.543 1.242 3.048.878 3.55-.365.502-1.269.196-1.586-.232a2.523 2.523 0 0 0 3.452.916 2.52 2.52 0 0 0 .92-3.45 2.52 2.52 0 0 0-2.189-1.26Z" fill="#000"/><path d="M129.842 76.166a4.635 4.635 0 0 0 4.637-4.633 4.635 4.635 0 0 0-4.637-4.633 4.635 4.635 0 0 0-4.636 4.633 4.635 4.635 0 0 0 4.636 4.633Z" fill="silver"/><path opacity=".1" d="M134.352 72.59a4.64 4.64 0 0 1-2.929 3.304 4.636 4.636 0 0 1-5.51-6.823 4.637 4.637 0 0 1 .562-.718 4.624 4.624 0 0 0 2.32 5.125 4.633 4.633 0 0 0 5.557-.899v.01Z" fill="#000"/><path d="m133.77 2.004-3.674 2.113c.021-.161.032-.324.032-.486V2.574c0-1.891-1.333-2.641-2.971-1.712a5.807 5.807 0 0 0-1.771 1.702c-.27-2.383-2.115-3.265-4.41-1.96-2.453 1.42-4.446 4.865-4.446 7.697v1.585a4.144 4.144 0 0 0 .381 1.844l-3.056 1.759a3.652 3.652 0 0 0-1.649 2.853c0 1.056.74 1.479 1.649.95l19.915-11.5a3.648 3.648 0 0 0 1.65-2.853c0-1.03-.719-1.458-1.65-.935ZM149.504 12.707l-2.771 1.585v-1.157c0-1.427-1.004-2.008-2.241-1.29a4.27 4.27 0 0 0-1.332 1.285c-.201-1.797-1.586-2.468-3.326-1.48a7.404 7.404 0 0 0-3.357 5.811v1.2c-.01.48.087.957.286 1.395l-2.305 1.326a2.754 2.754 0 0 0-1.243 2.155c0 .793.555 1.115 1.243.719l15.046-8.68a2.754 2.754 0 0 0 1.247-2.15c-.005-.767-.565-1.115-1.247-.72ZM219.59 111.187l-2.771 1.585v-1.167c0-1.432-1.004-2.008-2.241-1.295a4.406 4.406 0 0 0-1.338 1.284c-.201-1.796-1.612-2.467-3.325-1.479a7.4 7.4 0 0 0-3.357 5.811v1.199c-.011.479.086.954.285 1.39l-2.305 1.331a2.752 2.752 0 0 0-1.242 2.15c0 .793.529 1.115 1.242.719l15.031-8.67a2.758 2.758 0 0 0 1.247-2.155c.021-.782-.539-1.104-1.226-.703Z" fill="#EBEBEB"/></svg>