<svg width="215" height="176" fill="none" xmlns="http://www.w3.org/2000/svg"><path d="M101.082 19.08c-3.102-1.69-4.514-.282-5.642-1.69-1.129-1.408 3.102-5.066-5.349-8.724 0 0-.561-7.876-12.135-8.159-11.574-.282-8.477 7.908-11.584 9.855-3.108 1.946-3.953-1.125-7.055.842-3.102 1.968-1.695 5.909-4.236 6.474-2.54.565-5.925-2.533-9.033-.565-3.107 1.967-3.102 3.663-4.514 3.663-1.412 0-4.236-1.13-5.926 0-1.69 1.13-3.668 2.533-3.668 2.533h71.41s.845-2.533-2.268-4.229Z" fill="#CD7F32"/><path opacity=".5" d="M101.082 19.08c-3.102-1.69-4.514-.282-5.642-1.69-1.129-1.408 3.102-5.066-5.349-8.724 0 0-.561-7.876-12.135-8.159-11.574-.282-8.477 7.908-11.584 9.855-3.108 1.946-3.953-1.125-7.055.842-3.102 1.968-1.695 5.909-4.236 6.474-2.54.565-5.925-2.533-9.033-.565-3.107 1.967-3.102 3.663-4.514 3.663-1.412 0-4.236-1.13-5.926 0-1.69 1.13-3.668 2.533-3.668 2.533h71.41s.845-2.533-2.268-4.229Z" fill="#fff"/><path d="M159.704 30.977c-1.995-1.066-2.904-.181-3.626-1.066s1.995-3.258-3.444-5.605c0 0-.364-5.066-7.798-5.247-7.434-.181-5.439 5.066-7.434 6.33-1.995 1.264-2.541-.726-4.535.533-1.995 1.258-1.07 3.797-2.723 4.16-1.652.362-3.808-1.632-5.797-.363-1.99 1.269-1.995 2.346-2.904 2.346-.91 0-2.723-.72-3.808 0a94.118 94.118 0 0 0-2.359 1.632h45.878s.545-1.637-1.45-2.72ZM179.466 82.762H33.742v45.849h145.724v-45.85Z" fill="#fff"/><path d="M179.466 128.878H33.742a.269.269 0 0 1-.268-.267v-45.86a.266.266 0 0 1 .268-.267h145.724a.267.267 0 0 1 .268.267v45.86a.268.268 0 0 1-.268.267Zm-145.473-.534H179.2V83.018H34.009l-.016 45.326Z" fill="#263238"/><path d="M106.799 40.928 34.127 82.762h145.339l-72.667-41.834Z" fill="#CD7F32"/><path d="M179.466 83.028H34.126a.268.268 0 0 1-.244-.367.267.267 0 0 1 .111-.129L106.665 40.7a.27.27 0 0 1 .268 0L179.6 82.538a.26.26 0 0 1 .03.439.27.27 0 0 1-.164.051Zm-144.34-.533h143.335l-71.667-41.258-71.667 41.258Z" fill="#263238"/><path d="M136.134 79.034h-36.063v49.577h36.063V79.034Z" fill="#fff"/><path d="M136.135 128.877h-36.064a.267.267 0 0 1-.267-.266V79.018a.266.266 0 0 1 .267-.266h36.064a.273.273 0 0 1 .267.266v49.593a.265.265 0 0 1-.267.266Zm-35.796-.533h35.507v-49.06h-35.507v49.06Z" fill="#263238"/><path d="M136.134 79.034h-36.063v2.106h36.063v-2.106Z" fill="#263238"/><path d="M136.135 81.412h-36.064a.268.268 0 0 1-.267-.266v-2.133a.266.266 0 0 1 .267-.267h36.064a.273.273 0 0 1 .267.267v2.133a.273.273 0 0 1-.267.267Zm-35.796-.533h35.507v-1.6h-35.507v1.6ZM127.106 128.611h-18.002V97.623a8.947 8.947 0 0 1 .684-3.436 8.986 8.986 0 0 1 4.871-4.86 9.03 9.03 0 0 1 9.815 1.947 8.967 8.967 0 0 1 2.638 6.35l-.006 30.987Z" fill="#263238"/><path d="M127.106 128.877h-18.002a.267.267 0 0 1-.267-.266V97.624a9.227 9.227 0 0 1 2.635-6.682 9.276 9.276 0 0 1 6.636-2.787 9.297 9.297 0 0 1 6.636 2.787 9.232 9.232 0 0 1 2.635 6.682v30.987a.264.264 0 0 1-.08.19.264.264 0 0 1-.193.076Zm-17.74-.533h17.473v-30.72a8.69 8.69 0 0 0-2.481-6.3 8.74 8.74 0 0 0-6.255-2.63 8.767 8.767 0 0 0-6.256 2.63 8.71 8.71 0 0 0-2.481 6.3v30.72Z" fill="#263238"/><path d="M106.81 90.793H23.28v37.818h83.53V90.793Z" fill="#fff"/><path d="M106.81 128.878H23.28a.268.268 0 0 1-.267-.267V90.793a.266.266 0 0 1 .267-.267h83.53a.267.267 0 0 1 .267.267v37.818a.268.268 0 0 1-.267.267Zm-83.278-.534h83.01V91.07h-83.01v37.274Z" fill="#263238"/><path d="M106.81 90.793H23.28v1.685h83.53v-1.685Z" fill="#263238"/><path d="M106.81 92.744H23.28a.268.268 0 0 1-.267-.266v-1.685a.266.266 0 0 1 .267-.267h83.53a.267.267 0 0 1 .267.267v1.685a.266.266 0 0 1-.267.266Zm-83.278-.533h83.01V91.07h-83.01v1.141Z" fill="#263238"/><path d="M97.616 93.912H32.47v34.699h65.147V93.912Z" fill="#CD7F32"/><path d="M97.616 128.877H32.469a.268.268 0 0 1-.268-.266v-34.7a.266.266 0 0 1 .268-.266h65.147a.268.268 0 0 1 .267.267v34.699a.266.266 0 0 1-.267.266Zm-64.88-.533h64.602V94.179H32.736v34.165Z" fill="#263238"/><path d="M65.045 63.122 20.713 88.644h88.664L65.045 63.122Z" fill="#CD7F32"/><path d="M109.377 88.937H20.713a.268.268 0 0 1-.245-.367.267.267 0 0 1 .112-.13l44.332-25.52a.268.268 0 0 1 .267 0l44.332 25.483a.267.267 0 0 1-.134.496v.038Zm-87.663-.534h86.642L65.035 63.458 21.713 88.403Z" fill="#263238"/><path d="M109.372 88.643H20.713v2.15h88.659v-2.15Z" fill="#fff"/><path d="M109.377 91.07H20.713a.268.268 0 0 1-.267-.267V88.67a.267.267 0 0 1 .267-.267h88.664a.267.267 0 0 1 .267.267v2.133a.266.266 0 0 1-.267.267Zm-88.396-.533h88.123v-1.6H20.981v1.6Z" fill="#263238"/><path d="M118.1 64.647 95.145 77.861h45.915L118.1 64.647Z" fill="#CD7F32"/><path d="M141.06 78.128H95.145a.268.268 0 0 1-.262-.198.26.26 0 0 1 .128-.298l22.955-13.225a.296.296 0 0 1 .268 0l22.96 13.225a.267.267 0 0 1-.134.496Zm-44.925-.534h43.92L118.1 64.94 96.135 77.594Z" fill="#263238"/><path d="M141.06 77.861H95.145v2.122h45.915v-2.122Z" fill="#fff"/><path d="M141.06 80.25H95.145a.268.268 0 0 1-.267-.267V77.85a.267.267 0 0 1 .267-.266h45.915a.267.267 0 0 1 .267.266v2.133a.266.266 0 0 1-.267.267Zm-45.648-.533h45.381v-1.6h-45.38v1.6Z" fill="#263238"/><path d="M40.117 96.7h-5.274v5.259h5.274v-5.258Z" fill="#fff"/><path d="M40.112 102.225h-5.274a.268.268 0 0 1-.267-.266v-5.258a.266.266 0 0 1 .267-.267h5.274a.268.268 0 0 1 .267.267v5.258a.268.268 0 0 1-.267.266Zm-5.006-.533h4.738v-4.724h-4.738v4.724Z" fill="#263238"/><path d="M48.032 96.7H42.76v5.259h5.273v-5.258Z" fill="#fff"/><path d="M48.032 102.225h-5.246a.268.268 0 0 1-.268-.266v-5.258a.266.266 0 0 1 .267-.267h5.274a.268.268 0 0 1 .267.267v5.258a.263.263 0 0 1-.087.198.247.247 0 0 1-.096.056c-.036.012-.074.016-.11.012Zm-5.006-.533h4.739v-4.724h-4.739v4.724Z" fill="#263238"/><path d="M55.942 96.7H50.67v5.259h5.273v-5.258Z" fill="#fff"/><path d="M55.948 102.225h-5.279a.268.268 0 0 1-.267-.266v-5.258a.266.266 0 0 1 .267-.267h5.279a.268.268 0 0 1 .267.267v5.258a.265.265 0 0 1-.267.266Zm-5.012-.533h4.744v-4.724h-4.744v4.724Z" fill="#263238"/><path d="M63.858 96.7h-5.274v5.259h5.274v-5.258Z" fill="#fff"/><path d="M63.863 102.225h-5.278a.268.268 0 0 1-.268-.266v-5.258a.266.266 0 0 1 .268-.267h5.278a.268.268 0 0 1 .268.267v5.258a.265.265 0 0 1-.268.266Zm-5.011-.533h4.744v-4.724H58.83l.021 4.724Z" fill="#263238"/><path d="M71.773 96.7H66.5v5.259h5.273v-5.258Z" fill="#fff"/><path d="M71.773 102.225H66.5a.268.268 0 0 1-.268-.266v-5.258a.266.266 0 0 1 .268-.267h5.273a.268.268 0 0 1 .267.267v5.258a.265.265 0 0 1-.267.266Zm-5.006-.533h4.739v-4.724h-4.739v4.724Z" fill="#263238"/><path d="M79.683 96.7H74.41v5.259h5.273v-5.258Z" fill="#fff"/><path d="M79.689 102.225h-5.28a.267.267 0 0 1-.267-.266v-5.258a.266.266 0 0 1 .268-.267h5.279a.268.268 0 0 1 .267.267v5.258a.265.265 0 0 1-.267.266Zm-5.012-.533h4.744v-4.724h-4.744v4.724Z" fill="#263238"/><path d="M87.599 96.7h-5.274v5.259H87.6v-5.258Z" fill="#fff"/><path d="M87.604 102.225h-5.279a.268.268 0 0 1-.267-.266v-5.258a.266.266 0 0 1 .267-.267h5.279a.268.268 0 0 1 .267.267v5.258a.268.268 0 0 1-.267.266Zm-5.011-.533h4.744v-4.724h-4.744v4.724Z" fill="#263238"/><path d="M95.514 96.7h-5.273v5.259h5.273v-5.258Z" fill="#fff"/><path d="M95.514 102.225h-5.273a.268.268 0 0 1-.268-.266v-5.258a.266.266 0 0 1 .268-.267h5.273a.268.268 0 0 1 .267.267v5.258a.263.263 0 0 1-.165.246.257.257 0 0 1-.102.02Zm-5.006-.533h4.739v-4.724h-4.739v4.724Z" fill="#263238"/><path d="M40.117 104.444h-5.274v5.258h5.274v-5.258Z" fill="#fff"/><path d="M40.112 109.968h-5.274a.268.268 0 0 1-.267-.266v-5.258a.267.267 0 0 1 .267-.267h5.274a.268.268 0 0 1 .267.267v5.258a.266.266 0 0 1-.267.266Zm-5.006-.533h4.738v-4.725h-4.738v4.725Z" fill="#263238"/><path d="M48.032 104.444H42.76v5.258h5.273v-5.258Z" fill="#fff"/><path d="M48.032 109.968h-5.246a.268.268 0 0 1-.268-.266v-5.258a.267.267 0 0 1 .267-.267h5.274a.268.268 0 0 1 .267.267v5.258a.263.263 0 0 1-.087.198.275.275 0 0 1-.096.056c-.036.012-.074.016-.11.012Zm-5.006-.533h4.739v-4.725h-4.739v4.725Z" fill="#263238"/><path d="M55.942 104.444H50.67v5.258h5.273v-5.258Z" fill="#fff"/><path d="M55.948 109.968h-5.279a.268.268 0 0 1-.267-.266v-5.258a.267.267 0 0 1 .267-.267h5.279a.268.268 0 0 1 .267.267v5.258a.266.266 0 0 1-.267.266Zm-5.012-.533h4.744v-4.725h-4.744v4.725Z" fill="#263238"/><path d="M63.858 104.444h-5.274v5.258h5.274v-5.258Z" fill="#fff"/><path d="M63.863 109.968h-5.278a.268.268 0 0 1-.268-.266v-5.258a.267.267 0 0 1 .268-.267h5.278a.268.268 0 0 1 .268.267v5.258a.266.266 0 0 1-.268.266Zm-5.011-.533h4.744v-4.725H58.83l.021 4.725Z" fill="#263238"/><path d="M71.773 104.444H66.5v5.258h5.273v-5.258Z" fill="#fff"/><path d="M71.773 109.968H66.5a.268.268 0 0 1-.268-.266v-5.258a.267.267 0 0 1 .268-.267h5.273a.268.268 0 0 1 .267.267v5.258a.266.266 0 0 1-.267.266Zm-5.006-.533h4.739v-4.725h-4.739v4.725Z" fill="#263238"/><path d="M79.683 104.444H74.41v5.258h5.273v-5.258Z" fill="#fff"/><path d="M79.689 109.968h-5.28a.267.267 0 0 1-.267-.266v-5.258a.267.267 0 0 1 .268-.267h5.279a.268.268 0 0 1 .267.267v5.258a.266.266 0 0 1-.267.266Zm-5.012-.533h4.744v-4.725h-4.744v4.725Z" fill="#263238"/><path d="M87.599 104.444h-5.274v5.258H87.6v-5.258Z" fill="#fff"/><path d="M87.604 109.968h-5.279a.268.268 0 0 1-.267-.266v-5.258a.267.267 0 0 1 .267-.267h5.279a.268.268 0 0 1 .267.267v5.258a.266.266 0 0 1-.267.266Zm-5.011-.533h4.744v-4.725h-4.744v4.725Z" fill="#263238"/><path d="M95.514 104.444h-5.273v5.258h5.273v-5.258Z" fill="#fff"/><path d="M95.514 109.968h-5.273a.268.268 0 0 1-.268-.266v-5.258a.267.267 0 0 1 .268-.267h5.273a.267.267 0 0 1 .267.267v5.258a.267.267 0 0 1-.267.266Zm-5.006-.533h4.739v-4.725h-4.739v4.725Z" fill="#263238"/><path d="M40.117 112.181h-5.274v5.258h5.274v-5.258Z" fill="#fff"/><path d="M40.112 117.732h-5.274a.268.268 0 0 1-.267-.266v-5.263a.267.267 0 0 1 .267-.267h5.274a.268.268 0 0 1 .267.267v5.263a.266.266 0 0 1-.267.266Zm-5.006-.533h4.738v-4.73h-4.738v4.73Z" fill="#263238"/><path d="M48.032 112.181H42.76v5.258h5.273v-5.258Z" fill="#fff"/><path d="M48.032 117.732h-5.246a.268.268 0 0 1-.268-.266v-5.263a.267.267 0 0 1 .267-.267h5.274a.268.268 0 0 1 .267.267v5.263a.263.263 0 0 1-.087.198.247.247 0 0 1-.096.056c-.036.012-.074.016-.11.012Zm-5.006-.533h4.739v-4.73h-4.739v4.73Z" fill="#263238"/><path d="M55.942 112.181H50.67v5.258h5.273v-5.258Z" fill="#fff"/><path d="M55.948 117.732h-5.279a.273.273 0 0 1-.267-.266v-5.263a.267.267 0 0 1 .267-.267h5.279a.268.268 0 0 1 .267.267v5.263a.266.266 0 0 1-.267.266Zm-5.012-.533h4.744v-4.73h-4.744v4.73Z" fill="#263238"/><path d="M63.858 112.181h-5.274v5.258h5.274v-5.258Z" fill="#fff"/><path d="M63.863 117.732h-5.278a.268.268 0 0 1-.268-.266v-5.263a.267.267 0 0 1 .268-.267h5.278a.268.268 0 0 1 .268.267v5.263a.273.273 0 0 1-.268.266Zm-5.032-.533h4.743v-4.73h-4.743v4.73Z" fill="#263238"/><path d="M71.773 112.181H66.5v5.258h5.273v-5.258Z" fill="#fff"/><path d="M71.773 117.732H66.5a.268.268 0 0 1-.268-.266v-5.263a.267.267 0 0 1 .268-.267h5.273a.268.268 0 0 1 .267.267v5.263a.266.266 0 0 1-.267.266Zm-5.006-.533h4.739v-4.73h-4.739v4.73Z" fill="#263238"/><path d="M79.683 112.181H74.41v5.258h5.273v-5.258Z" fill="#fff"/><path d="M79.689 117.732h-5.28a.273.273 0 0 1-.267-.266v-5.263a.267.267 0 0 1 .268-.267h5.279a.268.268 0 0 1 .267.267v5.263a.266.266 0 0 1-.267.266Zm-5.012-.533h4.744v-4.73h-4.744v4.73Z" fill="#263238"/><path d="M87.599 112.181h-5.274v5.258H87.6v-5.258Z" fill="#fff"/><path d="M87.604 117.732h-5.279a.273.273 0 0 1-.267-.266v-5.263a.267.267 0 0 1 .267-.267h5.279a.268.268 0 0 1 .267.267v5.263a.272.272 0 0 1-.267.266Zm-5.011-.533h4.744v-4.73h-4.744v4.73Z" fill="#263238"/><path d="M95.514 112.181h-5.273v5.258h5.273v-5.258Z" fill="#fff"/><path d="M95.514 117.732h-5.273a.268.268 0 0 1-.268-.266v-5.263a.267.267 0 0 1 .268-.267h5.273a.267.267 0 0 1 .267.267v5.263a.267.267 0 0 1-.267.266Zm-5.006-.533h4.739v-4.73h-4.739v4.73Z" fill="#263238"/><path d="M40.117 119.924h-5.274v5.258h5.274v-5.258Z" fill="#fff"/><path d="M40.112 125.449h-5.274a.268.268 0 0 1-.267-.267v-5.258a.269.269 0 0 1 .267-.267h5.274a.269.269 0 0 1 .267.267v5.274a.267.267 0 0 1-.267.251Zm-5.006-.534h4.738v-4.724h-4.738v4.724Z" fill="#263238"/><path d="M48.032 119.924H42.76v5.258h5.273v-5.258Z" fill="#fff"/><path d="M48.032 125.449h-5.246a.268.268 0 0 1-.268-.267v-5.258a.269.269 0 0 1 .267-.267h5.274a.269.269 0 0 1 .267.267v5.274a.272.272 0 0 1-.093.188.28.28 0 0 1-.094.052c-.035.011-.07.014-.107.011Zm-5.006-.534h4.739v-4.724h-4.739v4.724Z" fill="#263238"/><path d="M55.942 119.924H50.67v5.258h5.273v-5.258Z" fill="#fff"/><path d="M55.948 125.449h-5.279a.268.268 0 0 1-.267-.267v-5.258a.269.269 0 0 1 .267-.267h5.279a.269.269 0 0 1 .267.267v5.274a.267.267 0 0 1-.267.251Zm-5.012-.534h4.744v-4.724h-4.744v4.724Z" fill="#263238"/><path d="M63.858 119.924h-5.274v5.258h5.274v-5.258Z" fill="#fff"/><path d="M63.863 125.449h-5.278a.268.268 0 0 1-.268-.267v-5.258a.268.268 0 0 1 .267-.267h5.28a.269.269 0 0 1 .267.267v5.274a.267.267 0 0 1-.267.251Zm-5.011-.534h4.744v-4.724H58.83l.021 4.724Z" fill="#263238"/><path d="M71.773 119.924H66.5v5.258h5.273v-5.258Z" fill="#fff"/><path d="M71.773 125.449H66.5a.268.268 0 0 1-.268-.267v-5.258a.269.269 0 0 1 .267-.267h5.274a.269.269 0 0 1 .267.267v5.274a.267.267 0 0 1-.267.251Zm-5.006-.534h4.739v-4.724h-4.739v4.724Z" fill="#263238"/><path d="M79.683 119.924H74.41v5.258h5.273v-5.258Z" fill="#fff"/><path d="M79.689 125.449h-5.28a.267.267 0 0 1-.267-.267v-5.258a.268.268 0 0 1 .267-.267h5.28a.269.269 0 0 1 .267.267v5.274a.267.267 0 0 1-.267.251Zm-5.012-.534h4.744v-4.724h-4.744v4.724Z" fill="#263238"/><path d="M87.599 119.924h-5.274v5.258H87.6v-5.258Z" fill="#fff"/><path d="M87.604 125.449h-5.279a.268.268 0 0 1-.267-.267v-5.258a.269.269 0 0 1 .267-.267h5.279a.269.269 0 0 1 .267.267v5.274a.267.267 0 0 1-.267.251Zm-5.011-.534h4.744v-4.724h-4.744v4.724Z" fill="#263238"/><path d="M95.514 119.924h-5.273v5.258h5.273v-5.258Z" fill="#fff"/><path d="M95.514 125.449h-5.273a.268.268 0 0 1-.268-.267v-5.258a.268.268 0 0 1 .267-.267h5.274a.268.268 0 0 1 .267.267v5.274a.267.267 0 0 1-.267.251Zm-5.006-.534h4.739v-4.724h-4.739v4.724Z" fill="#263238"/><path d="M112.73 128.878a.268.268 0 0 1-.267-.267v-5.503a.267.267 0 1 1 .535 0v5.503a.268.268 0 0 1-.268.267Z" fill="#fff"/><path d="M122.427 128.611V99.33h-9.697v21.351" fill="#263238"/><path d="M122.427 128.878a.268.268 0 0 1-.268-.267v-29.01h-9.161v21.086a.267.267 0 0 1-.535 0v-21.33a.273.273 0 0 1 .267-.267h9.697a.273.273 0 0 1 .267.267v29.254a.268.268 0 0 1-.267.267ZM183.6 128.611h-53.279V79.034l26.64-14.387L183.6 79.034v49.577Z" fill="#fff"/><path d="M183.6 128.877h-53.279a.267.267 0 0 1-.268-.266V79.018a.282.282 0 0 1 .038-.136.278.278 0 0 1 .102-.099l26.639-14.397a.277.277 0 0 1 .257 0l26.64 14.398a.275.275 0 0 1 .139.234v49.593a.267.267 0 0 1-.268.266Zm-53.012-.533h52.745v-49.15L156.961 64.94l-26.373 14.243v49.161Z" fill="#263238"/><path d="m187.67 81.146-30.709-16.59-30.71 16.59-.958-1.76 31.668-17.107 31.667 17.107-.958 1.76Z" fill="#fff"/><path d="M187.67 81.412a.25.25 0 0 1-.123-.032l-30.586-16.53-30.587 16.53a.295.295 0 0 1-.359-.133l-.957-1.754a.25.25 0 0 1-.031-.1.26.26 0 0 1 .058-.196.263.263 0 0 1 .08-.067l31.667-17.107a.277.277 0 0 1 .257 0l31.667 17.107a.273.273 0 0 1 .128.16.264.264 0 0 1 0 .203l-.957 1.754a.267.267 0 0 1-.257.165ZM156.961 64.29c.044 0 .088.011.128.032l30.485 16.461.701-1.29-31.304-16.91-31.287 16.91.7 1.29 30.486-16.461a.28.28 0 0 1 .091-.032Z" fill="#263238"/><path d="M130.321 79.034v1.205l26.64-14.387L183.6 80.24v-1.205l-26.639-14.387-26.64 14.387Z" fill="#263238"/><path d="M183.6 80.506a.278.278 0 0 1-.128-.032L156.96 66.156l-26.511 14.318a.258.258 0 0 1-.262 0 .26.26 0 0 1-.134-.23V79.04a.275.275 0 0 1 .139-.235l26.64-14.398a.276.276 0 0 1 .257 0l26.64 14.398a.282.282 0 0 1 .101.099.282.282 0 0 1 .038.136v1.205a.268.268 0 0 1-.129.23.254.254 0 0 1-.139.03Zm-26.64-14.931c.045 0 .089.011.129.032l26.244 14.174v-.598L156.96 64.94l-26.372 14.243v.598l26.244-14.174a.286.286 0 0 1 .128-.022v-.01Z" fill="#263238"/><path d="M145.307 91.075V85.85h22.987v26.05" fill="#fff"/><path d="M168.294 112.165a.267.267 0 0 1-.268-.266V86.116h-22.463v4.954a.266.266 0 1 1-.534 0v-5.226a.266.266 0 0 1 .267-.267h22.998a.266.266 0 0 1 .267.267v26.049a.263.263 0 0 1-.076.192.265.265 0 0 1-.191.08Z" fill="#263238"/><path d="M168.294 114.592v5.129h-22.987V93.064" fill="#fff"/><path d="M168.294 119.988h-22.998a.267.267 0 0 1-.267-.267V93.059a.266.266 0 1 1 .534 0v26.39h22.463v-4.863a.267.267 0 0 1 .268-.266.267.267 0 0 1 .267.266v5.13a.274.274 0 0 1-.267.272ZM166.764 96.03h-8.942v6.195h8.942v-6.196Z" fill="#263238"/><path d="M166.759 102.492h-8.937a.267.267 0 0 1-.268-.267v-6.196a.267.267 0 0 1 .268-.267h8.937a.267.267 0 0 1 .267.267v6.196a.267.267 0 0 1-.267.267Zm-8.67-.533h8.402v-5.663h-8.402v5.663ZM166.764 104.262h-8.942v6.197h8.942v-6.197Z" fill="#263238"/><path d="M166.759 110.72h-8.937a.267.267 0 0 1-.268-.267v-6.191a.267.267 0 0 1 .268-.266h8.937a.267.267 0 0 1 .267.266v6.191a.267.267 0 0 1-.267.267Zm-8.67-.533h8.402v-5.658h-8.402v5.658ZM166.764 87.374h-8.942v6.613h8.942v-6.613Z" fill="#263238"/><path d="M166.759 94.27h-8.937a.267.267 0 0 1-.268-.267v-6.629a.267.267 0 0 1 .268-.267h8.937a.266.266 0 0 1 .267.267v6.618a.27.27 0 0 1-.074.195.264.264 0 0 1-.089.061.263.263 0 0 1-.104.021Zm-8.67-.534h8.402v-6.095h-8.402v6.095ZM155.778 87.374h-8.942v6.613h8.942v-6.613Z" fill="#263238"/><path d="M155.779 94.27h-8.943a.267.267 0 0 1-.267-.267v-6.629a.266.266 0 0 1 .267-.266h8.943a.273.273 0 0 1 .267.266v6.618a.267.267 0 0 1-.076.194.278.278 0 0 1-.191.084Zm-8.675-.534h8.407v-6.095h-8.407v6.095ZM155.778 104.262h-8.942v6.197h8.942v-6.197Z" fill="#263238"/><path d="M155.779 110.72h-8.943a.267.267 0 0 1-.267-.267v-6.191a.267.267 0 0 1 .267-.266h8.943a.267.267 0 0 1 .267.266v6.191a.267.267 0 0 1-.267.267Zm-8.675-.533h8.407v-5.658h-8.407v5.658ZM155.778 96.03h-8.942v6.195h8.942v-6.196Z" fill="#263238"/><path d="M155.779 102.492h-8.943a.267.267 0 0 1-.267-.267v-6.196a.267.267 0 0 1 .267-.267h8.943a.267.267 0 0 1 .267.267v6.196a.267.267 0 0 1-.08.187.27.27 0 0 1-.187.08Zm-8.675-.533h8.407v-5.663h-8.407v5.663ZM166.764 112.49h-8.942v5.701h8.942v-5.701Z" fill="#263238"/><path d="M166.759 118.458h-8.937a.267.267 0 0 1-.268-.267v-5.7a.267.267 0 0 1 .268-.267h8.937a.267.267 0 0 1 .267.267v5.7a.267.267 0 0 1-.267.267Zm-8.67-.534h8.402v-5.167h-8.402v5.167ZM155.778 112.49h-8.942v5.701h8.942v-5.701Z" fill="#263238"/><path d="M155.779 118.458h-8.943a.267.267 0 0 1-.267-.267v-5.7a.267.267 0 0 1 .267-.267h8.943a.274.274 0 0 1 .267.267v5.7a.267.267 0 0 1-.267.267Zm-8.675-.534h8.407v-5.167h-8.407v5.167ZM156.795 149.328h-1.07a.269.269 0 0 1-.187-.08.267.267 0 0 1-.08-.187.267.267 0 0 1 .267-.266h1.07a.267.267 0 1 1 0 .533Zm-3.209 0h-1.07a.269.269 0 0 1-.187-.08.267.267 0 0 1-.08-.187.267.267 0 0 1 .267-.266h1.07a.267.267 0 1 1 0 .533Zm-3.209 0h-1.07a.269.269 0 0 1-.187-.08.267.267 0 0 1-.08-.187.267.267 0 0 1 .267-.266h1.07a.267.267 0 1 1 0 .533Zm-3.209 0h-1.07a.269.269 0 0 1-.187-.08.267.267 0 0 1-.08-.187.267.267 0 0 1 .267-.266h1.07a.267.267 0 1 1 0 .533ZM36.48 149.328h-.476a.273.273 0 0 1-.184-.089.273.273 0 0 1-.042-.296.263.263 0 0 1 .258-.148H37.09a.268.268 0 0 1 .267.266.267.267 0 0 1-.267.267h-.61Zm100.088 0h-1.07a.267.267 0 1 1 0-.533h1.07a.267.267 0 1 1 0 .533Zm-3.209 0h-1.07a.267.267 0 1 1 0-.533h1.07a.267.267 0 1 1 0 .533Zm-3.209 0h-1.07a.267.267 0 1 1 0-.533h1.07a.267.267 0 1 1 0 .533Zm-3.209 0h-1.07a.267.267 0 1 1 0-.533h1.07a.267.267 0 1 1 0 .533Zm-3.209 0h-1.07a.267.267 0 1 1 0-.533h1.07a.267.267 0 1 1 0 .533Zm-3.209 0h-1.07a.267.267 0 1 1 0-.533h1.07a.267.267 0 1 1 0 .533Zm-3.209 0h-1.07a.267.267 0 1 1 0-.533h1.07a.267.267 0 1 1 0 .533Zm-3.209 0h-1.07a.267.267 0 1 1 0-.533h1.07a.267.267 0 1 1 0 .533Zm-3.209 0h-1.07a.267.267 0 1 1 0-.533h1.07a.267.267 0 1 1 0 .533Zm-3.209 0h-1.07a.267.267 0 1 1 0-.533h1.07a.267.267 0 1 1 0 .533Zm-3.209 0h-1.07a.267.267 0 1 1 0-.533h1.07a.267.267 0 1 1 0 .533Zm-3.209 0h-1.07a.267.267 0 1 1 0-.533h1.07a.267.267 0 1 1 0 .533Zm-3.209 0h-1.07a.268.268 0 0 1-.267-.267.266.266 0 0 1 .267-.266h1.07a.267.267 0 0 1 .267.266.267.267 0 0 1-.267.267Zm-3.209 0h-1.07a.268.268 0 0 1-.267-.267.266.266 0 0 1 .267-.266h1.07a.268.268 0 0 1 .267.266.267.267 0 0 1-.267.267Zm-3.209 0h-1.07a.268.268 0 0 1-.267-.267.266.266 0 0 1 .267-.266h1.07a.268.268 0 0 1 .267.266.267.267 0 0 1-.267.267Zm-3.209 0h-1.07a.268.268 0 0 1-.267-.267.266.266 0 0 1 .267-.266h1.07a.267.267 0 0 1 .268.266.267.267 0 0 1-.268.267Zm-3.209 0h-1.07a.267.267 0 0 1-.267-.267.266.266 0 0 1 .267-.266h1.07a.268.268 0 0 1 .268.266.267.267 0 0 1-.268.267Zm-3.209 0h-1.07a.268.268 0 0 1-.267-.267.266.266 0 0 1 .268-.266h1.07a.268.268 0 0 1 .267.266.267.267 0 0 1-.268.267Zm-3.209 0h-1.07a.268.268 0 0 1-.267-.267.266.266 0 0 1 .268-.266h1.07a.268.268 0 0 1 .267.266.267.267 0 0 1-.268.267Zm-3.209 0h-1.07a.268.268 0 0 1-.267-.267.266.266 0 0 1 .268-.266h1.07a.268.268 0 0 1 .267.266.267.267 0 0 1-.268.267Zm-3.209 0h-1.07a.268.268 0 0 1-.267-.267.266.266 0 0 1 .268-.266h1.07a.268.268 0 0 1 .267.266.267.267 0 0 1-.268.267Zm-3.209 0h-1.07a.268.268 0 0 1-.267-.267.266.266 0 0 1 .268-.266h1.07a.268.268 0 0 1 .267.266.267.267 0 0 1-.268.267Zm-3.209 0H64.9a.268.268 0 0 1-.267-.267.266.266 0 0 1 .268-.266h1.07a.268.268 0 0 1 .267.266.267.267 0 0 1-.268.267Zm-3.209 0h-1.07a.268.268 0 0 1-.267-.267.266.266 0 0 1 .268-.266h1.07a.267.267 0 0 1 .267.266.267.267 0 0 1-.268.267Zm-3.209 0h-1.07a.268.268 0 0 1-.267-.267.266.266 0 0 1 .268-.266h1.07a.268.268 0 0 1 .267.266.267.267 0 0 1-.267.267Zm-3.209 0h-1.07a.268.268 0 0 1-.267-.267.266.266 0 0 1 .268-.266h1.07a.268.268 0 0 1 .267.266.267.267 0 0 1-.267.267Zm-3.208 0h-1.07a.268.268 0 0 1-.267-.267.266.266 0 0 1 .267-.266h1.07a.268.268 0 0 1 .267.266.267.267 0 0 1-.267.267Zm-3.21 0h-1.07a.267.267 0 0 1-.266-.267.266.266 0 0 1 .267-.266h1.07a.268.268 0 0 1 .267.266.267.267 0 0 1-.267.267Zm-3.208 0h-1.07a.268.268 0 0 1-.267-.267.266.266 0 0 1 .267-.266h1.07a.268.268 0 0 1 .267.266.267.267 0 0 1-.267.267Zm-3.21 0h-1.069a.268.268 0 0 1-.267-.267.266.266 0 0 1 .267-.266h1.07a.268.268 0 0 1 .267.266.267.267 0 0 1-.267.267Zm-3.208 0h-1.07a.268.268 0 0 1-.267-.267.266.266 0 0 1 .267-.266h1.07a.268.268 0 0 1 .267.266.267.267 0 0 1-.267.267Zm-6.375-.411a.181.181 0 0 1-.08 0 8.806 8.806 0 0 1-1.028-.405.271.271 0 0 1-.066-.442.266.266 0 0 1 .297-.043c.312.149.633.277.962.384a.27.27 0 1 1-.085.533v-.027Zm-2.782-1.546a.278.278 0 0 1-.176-.064 8.929 8.929 0 0 1-.792-.757.263.263 0 0 1-.084-.195.272.272 0 0 1 .085-.195.263.263 0 0 1 .093-.056.248.248 0 0 1 .108-.015.291.291 0 0 1 .104.029.275.275 0 0 1 .085.069c.236.252.486.49.749.715a.27.27 0 0 1 .032.378.283.283 0 0 1-.203.091Zm-2-2.474a.277.277 0 0 1-.24-.144 8.402 8.402 0 0 1-.45-1.003.264.264 0 0 1 .155-.341.262.262 0 0 1 .207.005.27.27 0 0 1 .141.149c.12.324.261.639.423.944a.27.27 0 0 1-.009.261.27.27 0 0 1-.227.129Zm-.92-3.045a.275.275 0 0 1-.267-.24c0-.283-.043-.566-.043-.853v-.24a.267.267 0 1 1 .535 0v.24c0 .267.015.534.043.799a.273.273 0 0 1-.241.294h-.027Zm-.043-3.2a.268.268 0 0 1-.267-.266v-1.067a.269.269 0 0 1 .267-.267.269.269 0 0 1 .268.267v1.067a.266.266 0 0 1-.267.266Zm0-3.199a.268.268 0 0 1-.267-.267v-1.066a.267.267 0 1 1 .535 0v1.066a.267.267 0 0 1-.267.267Zm0-3.2a.268.268 0 0 1-.267-.266v-1.067a.267.267 0 1 1 .535 0v1.067a.266.266 0 0 1-.267.266Zm0-3.199a.268.268 0 0 1-.267-.267v-1.067a.266.266 0 0 1 .268-.266.268.268 0 0 1 .267.266v1.067a.267.267 0 0 1-.267.267Zm0-3.2a.268.268 0 0 1-.267-.267v-1.066a.267.267 0 1 1 .535 0v1.066a.267.267 0 0 1-.267.267Zm0-3.199a.269.269 0 0 1-.267-.267v-1.067a.266.266 0 0 1 .268-.266.268.268 0 0 1 .267.266v1.067a.269.269 0 0 1-.267.267Zm0-3.2a.268.268 0 0 1-.267-.267v-1.066a.267.267 0 1 1 .535 0v1.066a.267.267 0 0 1-.267.267Zm0-3.199a.269.269 0 0 1-.267-.267v-1.067a.266.266 0 0 1 .268-.266.268.268 0 0 1 .267.266v1.067a.269.269 0 0 1-.267.267Zm0-3.2a.268.268 0 0 1-.267-.267v-1.066a.267.267 0 1 1 .535 0v1.066a.267.267 0 0 1-.267.267Zm0-3.2a.268.268 0 0 1-.267-.266v-1.067a.266.266 0 0 1 .268-.266.268.268 0 0 1 .267.266v1.067a.268.268 0 0 1-.267.266Zm0-3.199a.268.268 0 0 1-.267-.267v-1.066a.267.267 0 1 1 .535 0v1.066a.267.267 0 0 1-.267.267Zm0-3.2a.268.268 0 0 1-.267-.266v-1.067a.266.266 0 0 1 .268-.266.268.268 0 0 1 .267.266v1.067a.266.266 0 0 1-.267.266Zm0-3.199a.268.268 0 0 1-.267-.267v-1.066a.266.266 0 0 1 .268-.267.268.268 0 0 1 .267.267v1.066a.266.266 0 0 1-.267.267Zm0-3.2a.268.268 0 0 1-.267-.266v-1.067a.266.266 0 0 1 .268-.266.268.268 0 0 1 .267.266v1.067a.266.266 0 0 1-.267.266Zm0-3.2a.268.268 0 0 1-.267-.266v-1.066a.266.266 0 0 1 .268-.267.267.267 0 0 1 .267.267v1.066a.266.266 0 0 1-.267.267Zm0-3.199a.268.268 0 0 1-.267-.266v-1.067a.266.266 0 0 1 .268-.266.268.268 0 0 1 .267.266v1.067a.266.266 0 0 1-.267.266Zm0-3.2a.268.268 0 0 1-.267-.266v-1.066a.266.266 0 0 1 .268-.267.268.268 0 0 1 .267.267v1.066a.266.266 0 0 1-.267.267Zm0-3.199a.268.268 0 0 1-.267-.266v-1.067a.266.266 0 0 1 .268-.267.268.268 0 0 1 .267.267v1.067a.266.266 0 0 1-.267.266Zm0-3.2a.268.268 0 0 1-.267-.266v-1.066a.266.266 0 0 1 .268-.267.267.267 0 0 1 .267.267v1.066a.266.266 0 0 1-.267.267Zm0-3.199a.268.268 0 0 1-.267-.266v-1.067a.266.266 0 0 1 .268-.267.268.268 0 0 1 .267.267v1.067a.266.266 0 0 1-.267.266Zm0-3.2a.268.268 0 0 1-.267-.266v-1.066a.266.266 0 0 1 .268-.267.268.268 0 0 1 .267.267v1.066a.266.266 0 0 1-.267.267Zm0-3.199a.268.268 0 0 1-.267-.267V70.13a.266.266 0 0 1 .268-.267.268.268 0 0 1 .267.267v1.066a.266.266 0 0 1-.267.267Zm0-3.2a.268.268 0 0 1-.267-.266V66.93a.267.267 0 0 1 .535 0v1.066a.266.266 0 0 1-.267.267Zm0-3.199a.268.268 0 0 1-.267-.267V63.73a.266.266 0 0 1 .268-.267.268.268 0 0 1 .267.267v1.066a.266.266 0 0 1-.267.267Zm0-3.2a.268.268 0 0 1-.267-.266V60.53a.266.266 0 0 1 .268-.266.268.268 0 0 1 .267.266v1.067a.266.266 0 0 1-.267.267Zm0-3.199a.268.268 0 0 1-.267-.267v-1.066a.266.266 0 0 1 .268-.267.268.268 0 0 1 .267.267v1.066a.266.266 0 0 1-.267.267Zm0-3.2a.268.268 0 0 1-.267-.266V54.13a.267.267 0 0 1 .457-.188c.05.05.078.118.078.188v1.067a.266.266 0 0 1-.267.267Zm0-3.199a.268.268 0 0 1-.267-.267v-1.066a.266.266 0 0 1 .268-.267.268.268 0 0 1 .267.267v1.066a.266.266 0 0 1-.267.267Zm0-3.2a.268.268 0 0 1-.267-.266v-1.067a.266.266 0 0 1 .268-.266.268.268 0 0 1 .267.266V48.8a.266.266 0 0 1-.267.267Zm0-3.2a.268.268 0 0 1-.267-.266v-1.066a.266.266 0 0 1 .268-.267.268.268 0 0 1 .267.267v1.066a.266.266 0 0 1-.267.267Zm0-3.199a.268.268 0 0 1-.267-.266v-1.067a.267.267 0 0 1 .457-.188c.05.05.078.118.078.188V42.4a.266.266 0 0 1-.267.266Zm0-3.2a.268.268 0 0 1-.267-.266v-1.066a.266.266 0 0 1 .268-.267.268.268 0 0 1 .267.267V39.2a.266.266 0 0 1-.267.267Zm0-3.199a.27.27 0 0 1-.237-.179.267.267 0 0 1-.014-.103 9.25 9.25 0 0 1 .145-1.067.271.271 0 0 1 .32-.213.273.273 0 0 1 .214.32c-.066.336-.11.676-.133 1.018a.267.267 0 0 1-.273.224h-.021Zm.819-3.071a.266.266 0 0 1-.24-.384c.157-.33.335-.648.534-.955a.268.268 0 0 1 .45.294 7.462 7.462 0 0 0-.536.895.266.266 0 0 1-.187.15h-.021Zm1.92-2.538a.253.253 0 0 1-.198-.086.267.267 0 0 1 0-.378c.274-.246.564-.474.866-.683a.267.267 0 1 1 .305.437c-.283.197-.555.41-.813.64a.246.246 0 0 1-.139.07h-.021Zm2.733-1.638a.262.262 0 0 1-.252-.175.266.266 0 0 1 .16-.342 9.21 9.21 0 0 1 1.07-.304.27.27 0 0 1 .28.107.264.264 0 0 1-.162.41c-.337.075-.67.171-.995.288a.272.272 0 0 1-.058.016h-.043Zm4.22-.49H36.8a.273.273 0 0 1-.268-.267.266.266 0 0 1 .268-.266h1.07a.268.268 0 0 1 .196.448.268.268 0 0 1-.175.085h-.021ZM176.621 36.827a.267.267 0 0 1-.268-.266c0-.344-.021-.688-.064-1.03a.267.267 0 0 1 .23-.298.278.278 0 0 1 .3.23c.044.364.068.73.069 1.098a.266.266 0 0 1-.267.266Zm-.61-3.12a.264.264 0 0 1-.246-.165 7.978 7.978 0 0 0-.454-.928.277.277 0 0 1 .101-.368.268.268 0 0 1 .364.102c.182.32.342.651.481.992a.273.273 0 0 1 .022.101c0 .035-.007.07-.02.102a.271.271 0 0 1-.248.165Zm-1.743-2.666a.257.257 0 0 1-.193-.085 7.862 7.862 0 0 0-.791-.677.27.27 0 0 1-.016-.357.272.272 0 0 1 .352-.064c.288.23.562.477.819.74a.28.28 0 0 1 .066.138.275.275 0 0 1-.259.316l.022-.01Zm-2.621-1.818a.271.271 0 0 1-.107 0 7.487 7.487 0 0 0-.968-.352.272.272 0 0 1-.162-.13.267.267 0 0 1 .312-.382c.353.103.7.228 1.037.373a.271.271 0 0 1 .134.352.26.26 0 0 1-.246.128v.011Zm-3.107-.698h-1.07a.267.267 0 1 1 0-.534h1.07a.271.271 0 0 1 .189.084.252.252 0 0 1 .056.09.27.27 0 0 1-.245.365v-.005Zm-3.209 0h-1.07a.267.267 0 1 1 0-.534h1.07a.267.267 0 0 1 .248.37.26.26 0 0 1-.145.148.269.269 0 0 1-.103.02v-.005Zm-3.209 0h-1.07a.267.267 0 1 1 0-.534h1.07a.267.267 0 0 1 .248.37.26.26 0 0 1-.145.148.269.269 0 0 1-.103.02v-.005Zm-3.209 0h-1.07a.267.267 0 1 1 0-.534h1.07a.267.267 0 0 1 .248.37.26.26 0 0 1-.145.148.265.265 0 0 1-.103.02v-.005Zm-3.209 0h-1.07a.267.267 0 1 1 0-.534h1.07a.267.267 0 0 1 .248.37.26.26 0 0 1-.145.148.265.265 0 0 1-.103.02v-.005Zm-3.209 0h-1.07a.267.267 0 1 1 0-.534h1.07a.267.267 0 0 1 .248.37.26.26 0 0 1-.145.148.265.265 0 0 1-.103.02v-.005Zm-3.209 0h-1.07a.267.267 0 1 1 0-.534h1.07a.267.267 0 0 1 .248.37.26.26 0 0 1-.145.148.265.265 0 0 1-.103.02v-.005Zm-3.209 0h-1.07a.267.267 0 1 1 0-.534h1.07a.267.267 0 0 1 .267.267.262.262 0 0 1-.164.251.265.265 0 0 1-.103.02v-.005Zm-3.209 0h-1.07a.267.267 0 1 1 0-.534h1.07a.267.267 0 0 1 .267.267.262.262 0 0 1-.163.251.27.27 0 0 1-.104.02v-.005Zm-3.209 0h-1.07a.267.267 0 1 1 0-.534h1.07a.267.267 0 0 1 .267.267.262.262 0 0 1-.163.251.27.27 0 0 1-.104.02v-.005Zm-3.209 0h-1.07a.267.267 0 1 1 0-.534h1.07a.267.267 0 0 1 .267.267.262.262 0 0 1-.163.251.27.27 0 0 1-.104.02v-.005Zm-3.209 0h-1.07a.267.267 0 1 1 0-.534h1.07a.267.267 0 0 1 .267.267.262.262 0 0 1-.163.251.27.27 0 0 1-.104.02v-.005Zm-3.209 0h-1.07a.267.267 0 1 1 0-.533h1.07a.267.267 0 0 1 .267.266.262.262 0 0 1-.163.251.27.27 0 0 1-.104.02v-.005Zm-3.209 0h-1.07a.267.267 0 1 1 0-.533h1.07a.267.267 0 0 1 .268.266.264.264 0 0 1-.164.251.27.27 0 0 1-.104.02v-.005Zm-3.209 0h-1.07a.267.267 0 1 1 0-.533h1.07a.267.267 0 0 1 .268.266.264.264 0 0 1-.164.251.27.27 0 0 1-.104.02v-.005Zm-3.209 0h-1.069a.267.267 0 1 1 0-.533h1.069a.267.267 0 0 1 .268.266.264.264 0 0 1-.164.251.27.27 0 0 1-.104.02v-.005Zm-3.209 0h-1.069a.267.267 0 1 1 0-.533h1.069a.267.267 0 0 1 .268.266.264.264 0 0 1-.164.251.27.27 0 0 1-.104.02v-.005Zm-3.209 0h-1.069a.267.267 0 1 1 0-.534h1.069a.267.267 0 0 1 .268.267.264.264 0 0 1-.164.251.27.27 0 0 1-.104.02v-.005Zm-3.209 0h-1.069a.267.267 0 1 1 0-.534h1.069a.267.267 0 0 1 .268.267.264.264 0 0 1-.164.251.27.27 0 0 1-.104.02v-.005Zm-3.209 0H106.5a.267.267 0 1 1 0-.534h1.069a.267.267 0 0 1 .268.267.264.264 0 0 1-.164.251.27.27 0 0 1-.104.02v-.005Zm-3.209 0h-1.069a.267.267 0 1 1 0-.534h1.069a.267.267 0 0 1 .268.267.264.264 0 0 1-.164.251.27.27 0 0 1-.104.02v-.005Zm-3.209 0h-1.069a.268.268 0 0 1-.268-.267.266.266 0 0 1 .268-.267h1.069a.267.267 0 0 1 .268.267.263.263 0 0 1-.077.192.27.27 0 0 1-.191.08v-.006Zm-3.209 0h-1.07a.268.268 0 0 1-.267-.267.266.266 0 0 1 .268-.267h1.07a.268.268 0 0 1 .248.37.266.266 0 0 1-.249.169v-.006Zm-3.208 0h-1.07a.268.268 0 0 1-.268-.267.266.266 0 0 1 .268-.267h1.07a.268.268 0 0 1 .248.37.266.266 0 0 1-.248.169v-.006Zm-3.21 0h-1.07a.268.268 0 0 1-.266-.267.266.266 0 0 1 .267-.267h1.07a.268.268 0 0 1 .248.37.266.266 0 0 1-.248.169v-.006Zm-3.208 0h-1.07a.268.268 0 0 1-.267-.267.266.266 0 0 1 .267-.267h1.07a.268.268 0 0 1 .267.267.267.267 0 0 1-.267.272v-.006Zm-3.21 0h-1.07a.268.268 0 0 1-.267-.267.266.266 0 0 1 .268-.267h1.07a.268.268 0 0 1 .248.37.266.266 0 0 1-.248.169v-.006Zm-3.208 0h-1.07a.268.268 0 0 1-.267-.267.266.266 0 0 1 .267-.267h1.07a.268.268 0 0 1 .248.37.266.266 0 0 1-.248.169v-.006Zm-3.21 0H77.62a.268.268 0 0 1-.267-.267.266.266 0 0 1 .267-.267h1.07a.268.268 0 0 1 .248.37.266.266 0 0 1-.248.169v-.006Zm-3.208 0h-1.07a.268.268 0 0 1-.189-.456.268.268 0 0 1 .189-.078h1.07a.268.268 0 0 1 .248.37.266.266 0 0 1-.248.169v-.006Zm-3.21 0h-1.069a.268.268 0 0 1-.267-.267.266.266 0 0 1 .267-.267h1.07a.268.268 0 0 1 .248.37.267.267 0 0 1-.248.169v-.006Zm-3.208 0h-1.07a.268.268 0 0 1-.267-.267.266.266 0 0 1 .267-.267h1.07a.268.268 0 0 1 .248.37.266.266 0 0 1-.248.169v-.006Zm-3.21 0h-1.069a.268.268 0 0 1-.267-.267.266.266 0 0 1 .267-.267h1.07a.268.268 0 0 1 .248.37.266.266 0 0 1-.248.169v-.006Zm-3.208 0h-1.07a.268.268 0 0 1-.267-.267.266.266 0 0 1 .267-.267h1.07a.268.268 0 0 1 .248.37.267.267 0 0 1-.248.169v-.006Zm-3.21 0h-1.069a.268.268 0 0 1-.267-.267.266.266 0 0 1 .267-.267h1.07a.268.268 0 0 1 .248.37.266.266 0 0 1-.248.169v-.006Zm-3.208 0h-1.07a.268.268 0 0 1-.267-.267.266.266 0 0 1 .267-.267h1.07a.268.268 0 0 1 .248.37.266.266 0 0 1-.248.169v-.006Zm-3.209 0h-1.07a.268.268 0 0 1-.267-.267.266.266 0 0 1 .267-.267h1.07a.268.268 0 0 1 .267.267.267.267 0 0 1-.267.272v-.006Zm-3.209 0h-1.07a.268.268 0 0 1-.267-.267.266.266 0 0 1 .267-.267h1.07a.268.268 0 0 1 .249.37.266.266 0 0 1-.249.169v-.006Zm-3.209 0h-1.07a.268.268 0 0 1-.267-.267.266.266 0 0 1 .267-.267h1.07a.268.268 0 0 1 .249.37.266.266 0 0 1-.249.169v-.006Z" fill="#263238"/><path d="M176.402 40.55a34.37 34.37 0 0 0-19.024 5.87 34.22 34.22 0 0 0-12.546 15.421 34.106 34.106 0 0 0-1.837 19.771 34.168 34.168 0 0 0 9.489 17.457 34.34 34.34 0 0 0 17.618 9.257 34.395 34.395 0 0 0 19.807-2.064 34.276 34.276 0 0 0 15.318-12.688 34.128 34.128 0 0 0 5.666-19.035 34.148 34.148 0 0 0-10.188-24.115 34.352 34.352 0 0 0-24.303-9.875Zm.347 61.643a27.583 27.583 0 0 1-15.319-4.54 27.466 27.466 0 0 1-10.208-12.26 27.37 27.37 0 0 1-1.656-15.849 27.42 27.42 0 0 1 7.454-14.095 27.55 27.55 0 0 1 14.052-7.59 27.602 27.602 0 0 1 15.913 1.472 27.508 27.508 0 0 1 12.411 10.04 27.386 27.386 0 0 1 2.69 25.736 27.443 27.443 0 0 1-5.917 8.938 27.532 27.532 0 0 1-8.897 6 27.595 27.595 0 0 1-10.523 2.148Z" fill="#fff"/><path d="M176.589 109.2a34.652 34.652 0 0 1-13.235-2.587 34.564 34.564 0 0 1-11.234-7.44 34.415 34.415 0 0 1-10.191-24.344 34.415 34.415 0 0 1 10.058-24.397 34.618 34.618 0 0 1 24.415-10.16h.198A34.619 34.619 0 0 1 201.069 50.3a34.414 34.414 0 0 1 10.19 24.343 34.41 34.41 0 0 1-10.058 24.397 34.613 34.613 0 0 1-24.414 10.16h-.198Zm0-68.395h-.198a34.123 34.123 0 0 0-13.016 2.62 34.038 34.038 0 0 0-11.019 7.388 33.936 33.936 0 0 0-7.345 11.03 33.848 33.848 0 0 0 .076 25.97 33.926 33.926 0 0 0 7.409 10.986 34.082 34.082 0 0 0 24.093 9.868h.198a34.083 34.083 0 0 0 24.036-10.004 33.881 33.881 0 0 0 9.901-24.02c-.025-9-3.634-17.62-10.033-23.966a34.085 34.085 0 0 0-24.091-9.872h-.011Zm0 61.644a27.844 27.844 0 0 1-19.028-8.412 27.684 27.684 0 0 1-7.843-19.224 27.684 27.684 0 0 1 7.735-19.267 27.848 27.848 0 0 1 18.981-8.518h.155a27.85 27.85 0 0 1 19.028 8.413 27.688 27.688 0 0 1 7.843 19.223 27.688 27.688 0 0 1-7.735 19.267 27.847 27.847 0 0 1-18.981 8.518h-.155Zm.155-.533a27.313 27.313 0 0 0 18.609-8.358 27.155 27.155 0 0 0 7.582-18.894 27.151 27.151 0 0 0-7.69-18.85 27.313 27.313 0 0 0-18.656-8.252h-.155a27.311 27.311 0 0 0-18.609 8.358 27.147 27.147 0 0 0-7.582 18.893 27.155 27.155 0 0 0 7.689 18.85 27.315 27.315 0 0 0 18.657 8.253h.155Z" fill="#263238"/><path d="M176.391 38.592a34.37 34.37 0 0 0-19.023 5.87 34.223 34.223 0 0 0-12.546 15.42 34.11 34.11 0 0 0-1.839 19.77 34.168 34.168 0 0 0 9.487 17.456 34.327 34.327 0 0 0 17.615 9.259 34.387 34.387 0 0 0 19.805-2.059 34.275 34.275 0 0 0 15.321-12.683 34.13 34.13 0 0 0 5.671-19.032 34.152 34.152 0 0 0-10.184-24.122 34.351 34.351 0 0 0-24.307-9.879Zm.347 61.639a27.585 27.585 0 0 1-15.321-4.537 27.467 27.467 0 0 1-10.21-12.26 27.374 27.374 0 0 1-1.657-15.85 27.423 27.423 0 0 1 7.454-14.097 27.55 27.55 0 0 1 14.053-7.59 27.606 27.606 0 0 1 15.915 1.473 27.515 27.515 0 0 1 12.41 10.041 27.392 27.392 0 0 1 4.724 15.224 27.409 27.409 0 0 1-7.953 19.448 27.568 27.568 0 0 1-19.415 8.148Z" fill="#fff"/><path d="M176.578 107.249a34.526 34.526 0 0 1-24.331-10.12 34.324 34.324 0 0 1-10.045-24.303 34.322 34.322 0 0 1 10.115-24.274 34.526 34.526 0 0 1 24.36-10.05 34.526 34.526 0 0 1 24.36 10.05 34.322 34.322 0 0 1 10.115 24.274 34.324 34.324 0 0 1-10.045 24.303 34.524 34.524 0 0 1-24.331 10.12h-.198Zm0-68.39h-.198a34.081 34.081 0 0 0-23.766 10.148 33.88 33.88 0 0 0-9.755 23.872 33.881 33.881 0 0 0 9.887 23.819 34.073 34.073 0 0 0 23.821 10.017h.198a34.076 34.076 0 0 0 23.767-10.148 33.88 33.88 0 0 0 9.754-23.872 33.876 33.876 0 0 0-9.886-23.819 34.082 34.082 0 0 0-23.822-10.017Zm0 61.639a27.853 27.853 0 0 1-19.027-8.414 27.685 27.685 0 0 1-7.841-19.225 27.683 27.683 0 0 1 7.737-19.266 27.847 27.847 0 0 1 18.981-8.516h.161a27.85 27.85 0 0 1 19.027 8.414 27.685 27.685 0 0 1 7.841 19.224 27.683 27.683 0 0 1-7.737 19.266 27.847 27.847 0 0 1-18.981 8.517h-.161Zm0-54.888h-.16a27.314 27.314 0 0 0-18.61 8.356 27.155 27.155 0 0 0-7.584 18.893 27.151 27.151 0 0 0 7.688 18.851 27.314 27.314 0 0 0 18.655 8.255h.161a27.314 27.314 0 0 0 18.61-8.357 27.16 27.16 0 0 0 7.584-18.893 27.16 27.16 0 0 0-7.688-18.85 27.314 27.314 0 0 0-18.656-8.255Z" fill="#263238"/><path d="m180.297 106.827-5.22.053a1.537 1.537 0 0 0-1.525 1.551l.275 27.42a1.537 1.537 0 0 0 1.555 1.52l5.22-.052a1.537 1.537 0 0 0 1.525-1.551l-.275-27.42a1.539 1.539 0 0 0-1.555-1.521Z" fill="#CD7F32"/><path d="M174.556 138.529a1.815 1.815 0 0 1-1.807-1.797l-.155-27.414c.001-.481.194-.941.534-1.28a1.799 1.799 0 0 1 1.279-.533l5.214-.032c.481.007.94.198 1.284.533a1.793 1.793 0 0 1 .535 1.274l.155 27.415a1.815 1.815 0 0 1-1.797 1.818l-5.215.027-.027-.011Zm5.065-30.523-5.22.032a1.266 1.266 0 0 0-1.267 1.274l.155 27.42c.003.337.14.659.38.896a1.253 1.253 0 0 0 .893.368l5.214-.027a1.279 1.279 0 0 0 1.268-1.279l-.155-27.42a1.258 1.258 0 0 0-.375-.896 1.285 1.285 0 0 0-.893-.379v.011Z" fill="#263238"/><path d="m180.498 175.196-7.011.043a3.91 3.91 0 0 1-3.626-2.387 3.892 3.892 0 0 1-.305-1.49v-40.927a3.031 3.031 0 0 1 .883-2.158 3.053 3.053 0 0 1 2.155-.903l8.712-.043a3.053 3.053 0 0 1 2.833 1.864c.155.369.235.765.237 1.165v40.927a3.889 3.889 0 0 1-1.129 2.754 3.91 3.91 0 0 1-2.749 1.155Z" fill="#263238"/><path d="M173.465 175.5a4.185 4.185 0 0 1-2.944-1.21 4.163 4.163 0 0 1-1.233-2.928v-40.927a3.307 3.307 0 0 1 .96-2.345 3.327 3.327 0 0 1 2.34-.983l8.723-.048a3.323 3.323 0 0 1 2.343.961c.622.617.974 1.454.979 2.329v40.933a4.162 4.162 0 0 1-4.151 4.181l-7.011.037h-.006Zm7.841-47.908-8.718.048a2.8 2.8 0 0 0-1.965.825 2.77 2.77 0 0 0-.805 1.97v40.927a3.63 3.63 0 0 0 1.076 2.551 3.649 3.649 0 0 0 2.566 1.054l7.012-.038a3.646 3.646 0 0 0 2.568-1.075 3.61 3.61 0 0 0 1.052-2.572v-40.927a2.772 2.772 0 0 0-.821-1.954 2.79 2.79 0 0 0-1.965-.809Z" fill="#263238"/></svg>