<svg width="380" height="366" fill="none" xmlns="http://www.w3.org/2000/svg"><path d="M56.705 177.747c-73.96 42.887-73.96 112.411 0 155.289 73.96 42.879 193.868 42.879 267.828 0 73.961-42.878 73.953-112.402 0-155.289-73.952-42.887-193.876-42.879-267.828 0Z" fill="#F5F5F5"/><path d="M343.852 249.01c4.039-4.796 6.462-10.474 8.562-16.305 2.762-7.658 5.363-15.406 7.552-23.267.218-.76.404-1.537.614-2.305 1.219-.137 4.636-2.119 5.072-2.426a12.644 12.644 0 0 0 2.956-2.879c2.609-3.599 2.593-9.923 6.357-12.414.234-.17.331-.736-.097-.607-4.305 1.335-9.345 4.731-12.035 8.993a126.118 126.118 0 0 0 1.923-11.395c.25-2.111.557-4.27.807-6.47 3.045-2.321 6.672-3.728 9.168-6.809 1.979-2.426 2.487-5.564 2.802-8.565 0-.259-.242-.453-.452-.251a29.566 29.566 0 0 1-5.694 4.473 17.005 17.005 0 0 0-3.57 2.515 10.317 10.317 0 0 0-1.68 2.264c.064-1.423.081-2.822.048-4.254.703-2.895 2.133-5.143 2.593-8.168.129-.881.226-1.771.275-2.661.048-.889-.049-1.657-.081-2.507a26.156 26.156 0 0 0-1.212-5.871 37.3 37.3 0 0 0-3.957-9.292c-.291-.47-.719.218-.647.525.073.308.122.615.162.914a22.546 22.546 0 0 1 0 6.713c-.066.917-.24 1.824-.517 2.701-.164.32-.286.659-.364 1.011-.08.453-.113.914-.226 1.367a8.819 8.819 0 0 0-.234 1.617c0 .412-.073.809-.121 1.254 0 .169 0 .517-.105.655a2.987 2.987 0 0 1-.557-.68c-.218-.299-.445-.582-.638-.897-.671-1.044-1.519-1.925-2.189-2.968-.76-1.173-1.495-2.37-2.351-3.47-.331-.412-1.09-1.035-1.13-.105.017.846.12 1.689.306 2.515.081.526.17 1.051.259 1.569.145.809.234 1.617.38 2.426a29.728 29.728 0 0 0 3.893 10.126c1.453 2.207 3.02 4.351 4.256 6.696.391.755.736 1.533 1.034 2.329-.178 1.707-.363 3.429-.549 5.136-.041.072-.081.113-.121.178a.228.228 0 0 0 .072.307 155.449 155.449 0 0 1-.662 5.354 160.908 160.908 0 0 1-4.475 20.218c-.153-.655-.347-1.302-.468-1.925a24.621 24.621 0 0 1-.541-5.75c2.584-9.413.557-18.027-4.774-26.171-.242-.372-.678.073-.694.381-.13 5.386-.655 10.829-.057 16.174-1.203-3.299-2.617-6.567-3.941-9.704a31.602 31.602 0 0 0-2.036-4.4.054.054 0 0 1 0-.049 3.634 3.634 0 0 0-.194-.938 19.503 19.503 0 0 1-.129-.986c-.137-1.432-.218-2.904-.331-4.343a73.298 73.298 0 0 0-.234-2.637 21.278 21.278 0 0 0-.299-1.876 11.952 11.952 0 0 0-1.099-3.275c-.605-1.149-1.308-2.233-2.011-3.324-1.058-1.618-2.269-3.146-3.433-4.715a19.643 19.643 0 0 0-1.962-2.507c-.372-.356-.654-.809-1.002-1.149a8.725 8.725 0 0 0-1.05-.857c-.161-.154-.339-.04-.46.121-.42.235-.105.809 0 1.221.114.673.16 1.356.137 2.038v2.192c.025 1.91.277 3.811.751 5.661a23.828 23.828 0 0 0 1.882 4.74 26.52 26.52 0 0 0 2.964 4.601 40.757 40.757 0 0 0 3.716 3.923c4.741 5.523 5.775 13.32 9.191 19.66.582 2.944 1.729 6.025 4.419 7.165-.09 1.436.008 2.877.29 4.287.187 1.447.473 2.879.857 4.286-1.915 6.834-4.104 13.579-6.462 20.267-.759 2.143-1.527 4.286-2.367 6.413-.161-1.48-.412-2.951-.702-4.423a17.227 17.227 0 0 0 2.213-9.754 39.035 39.035 0 0 0-.808-4.852c-.598-2.661-2.181-5.37-2.334-8.088 0-.517-.59-.323-.727 0-3.522 9.527.808 18.836 1.874 28.306a43.317 43.317 0 0 1-6.664 11.63c-.509.768.453 2.095 1.058 1.367Zm20.379-100.518c.21-1.679.21-3.377 0-5.055a48.091 48.091 0 0 1 2.043 4.998 55.03 55.03 0 0 1 1.712 5.443c.186.725.316 1.463.388 2.208.04.493.057.994.113 1.488.035.637.013 1.275-.064 1.908-.093.71-.236 1.413-.429 2.103-.174.76-.387 1.51-.638 2.248a36.43 36.43 0 0 0-1.381 4.416 4.032 4.032 0 0 0-.186-1.569c-.14-.495-.31-.981-.508-1.456a16.58 16.58 0 0 1-.453-1.35 9.638 9.638 0 0 0-.525-1.141 20.63 20.63 0 0 1-.896-2.248 12.996 12.996 0 0 1-.719-3.025 15.385 15.385 0 0 1 .646-4.852c.389-1.351.689-2.726.897-4.116Zm-5.856 12.446-.17-.388a13.715 13.715 0 0 1-.549-1.383c-.299-.954-.662-1.884-.88-2.847-.097-.453-.154-.906-.227-1.359-.202-1.116-.557-2.224-.686-3.364 0-.178-.186-.987.129-.898.315.089.574.744.687.922.807 1.278 1.712 2.499 2.536 3.785.436.68.864 1.367 1.26 2.071a58.47 58.47 0 0 1 3.231 5.782c.32.722.59 1.465.807 2.224.105.429.202.857.275 1.278.417 2.283.512 4.613.283 6.923a4.414 4.414 0 0 0-.63-1.618c-.267-.566-.542-1.1-.857-1.617-.565-.955-1.203-1.893-1.752-2.847a56.32 56.32 0 0 1-3.231-6.057c-.057-.203-.162-.421-.226-.607Zm7.697 14.193c1.05-2.677 3.497-4.399 5.961-5.855a24.068 24.068 0 0 0 2.892-1.844c1.138-.922 1.534-2.669 1.615-.453.161 3.89-3.966 7.279-6.833 9.212a36.366 36.366 0 0 0-4.039 2.604c.186-1.213.307-2.442.404-3.664Zm-21.452-2.693c-.388-.396-.808-.808-1.236-1.229a24.952 24.952 0 0 1-3.522-4.391 21.072 21.072 0 0 1-2.479-5.071 30.365 30.365 0 0 1-1.535-7.465c0-.38-.46-3.574.178-3.494.452.057 1.187 1.084 1.429 1.391 2.973 3.672 6.163 7.546 7.189 12.269.329 1.347.548 2.718.654 4.1 0 .809.065 1.618.121 2.475 0 .404.057.809.097 1.221l.073.615c-.003.189.024.377.081.558a7.155 7.155 0 0 0-1.05-.979Zm9.458 20.639v-.056c-.089-.291-.194-.583-.283-.874-1.413-5.661-.533-12.713-.266-17.938a34.592 34.592 0 0 1 4.797 11.485c.953 4.69-.08 8.613-.751 13.117a12.125 12.125 0 0 1-3.497-5.734Zm6.793 12.94c.476-1.779.904-3.583 1.324-5.37a20.6 20.6 0 0 1 6.736-7.877c.558-.404 3.821-2.151 4.766-2.992a81.478 81.478 0 0 1-1.535 2.022c-.929 1.795-1.365 3.817-2.156 5.661a13.875 13.875 0 0 1-5.065 6.567 39.616 39.616 0 0 1-4.079 1.965l.009.024Zm-13.029 3.47c.283 1.108.752 2.167 1.115 3.235a40.826 40.826 0 0 1 1.615 7.06c.517 3.558-.339 6.47-1.494 9.705-1.333-6.68-3.126-13.353-1.236-20.025v.025ZM26.448 225.807a35.935 35.935 0 0 1-5.183-9.79c1.1-7.816 4.852-15.403 2.216-23.349-.097-.294-.55-.473-.59-.041-.195 2.235-1.553 4.438-2.111 6.616a35.126 35.126 0 0 0-.809 3.965 14.421 14.421 0 0 0 1.618 8.11 49.213 49.213 0 0 0-.68 3.63c-.638-1.778-1.212-3.565-1.778-5.352-1.771-5.58-3.397-11.201-4.804-16.896.348-1.152.619-2.327.809-3.516.26-1.158.371-2.345.332-3.532 2.24-.873 3.234-3.386 3.8-5.809 2.951-5.156 3.986-11.161 8.005-15.607a39.499 39.499 0 0 0 3.453-3.549 18.348 18.348 0 0 0 2.369-3.418 22.796 22.796 0 0 0 1.52-4.177c.423-1.508.675-3.06.752-4.626 0-.612 0-1.199.073-1.803a8.334 8.334 0 0 1 .162-1.68c.08-.319.355-.816 0-1.012-.097-.139-.235-.237-.372-.114a7.16 7.16 0 0 0-.882.685c-.29.294-.541.636-.808.922a15.927 15.927 0 0 0-1.682 2.048c-.995 1.264-2.022 2.447-2.927 3.81-.607.881-1.213 1.762-1.73 2.7a10.173 10.173 0 0 0-1.003 2.668c-.122.522-.21 1.02-.283 1.55-.105.726-.178 1.444-.26 2.17a31.981 31.981 0 0 1-.476 4.014 20.583 20.583 0 0 1-1.569 3.818c-.137.318-.275.628-.42.946-1.157 2.586-2.426 5.254-3.461 7.946.623-4.43.323-8.933.348-13.387 0-.253-.356-.629-.558-.327-4.569 6.6-6.47 13.657-4.545 21.489a20.823 20.823 0 0 1-.582 4.74c-.121.514-.291 1.044-.436 1.575a134.837 134.837 0 0 1-3.178-16.823 167.317 167.317 0 0 1-.413-4.438.179.179 0 0 0 .056-.049.192.192 0 0 0 .035-.142.193.193 0 0 0-.026-.07.62.62 0 0 1-.089-.147 750.108 750.108 0 0 1-.331-4.25c.267-.65.57-1.284.905-1.901 1.068-1.909 2.426-3.639 3.655-5.425.523-.783.993-1.601 1.407-2.448a22.378 22.378 0 0 0 2.021-5.792c.138-.661.235-1.346.372-2.007.081-.424.17-.857.251-1.289.173-.678.279-1.373.315-2.072 0-.767-.654-.269-.93.057-.735.897-1.358 1.86-2.013 2.814-.655.955-1.286 1.551-1.86 2.399-.17.253-.363.481-.55.718-.127.207-.289.392-.476.547a1.318 1.318 0 0 1-.065-.539c0-.351-.057-.693-.073-1.036a7.284 7.284 0 0 0-.146-1.33 10.447 10.447 0 0 1-.153-1.126 3.534 3.534 0 0 0-.283-.815c-.2-.736-.32-1.491-.356-2.252a18.729 18.729 0 0 1 .162-5.54c.048-.244.097-.497.153-.75.057-.253-.266-.816-.509-.449a30.666 30.666 0 0 0-3.469 7.571 21.111 21.111 0 0 0-1.132 4.822c-.048.701-.137 1.362-.13 2.064.009.701.073 1.476.162 2.21.3 2.505 1.415 4.398 1.925 6.804a51.124 51.124 0 0 0-.065 3.517 8.16 8.16 0 0 0-1.326-1.909 13.425 13.425 0 0 0-2.854-2.162 23.924 23.924 0 0 1-4.56-3.835.218.218 0 0 0-.368.05.222.222 0 0 0-.013.146c.186 2.448.526 5.091 2.086 7.139 1.973 2.602 4.917 3.85 7.359 5.849.17 1.795.372 3.59.517 5.336.291 3.181.744 6.33 1.302 9.463a19.115 19.115 0 0 0-9.655-7.775c-.347-.114-.283.359-.097.506 3.024 2.146 2.855 7.343 4.908 10.402.646.941 1.441 1.768 2.354 2.448.355.261 3.104 1.99 4.1 2.129.153.644.282 1.289.444 1.917 1.617 6.527 3.55 13.004 5.66 19.392 1.617 4.895 3.453 9.619 6.622 13.674.445.62 1.286-.457.841-1.02Zm-14.522-79.062c.36 1.327.502 2.705.42 4.079a10.888 10.888 0 0 1-.663 2.447c-.226.629-.51 1.24-.808 1.836-.172.299-.323.61-.453.93-.121.375-.259.742-.404 1.11a9.885 9.885 0 0 0-.453 1.183 3.4 3.4 0 0 0-.194 1.289 32.115 32.115 0 0 0-.962-3.696 15.804 15.804 0 0 1-.47-1.868 12.731 12.731 0 0 1-.307-1.746 9.413 9.413 0 0 1 0-1.583c.057-.408.081-.816.122-1.224.082-.615.209-1.223.38-1.819a45.669 45.669 0 0 1 1.528-4.446 39.636 39.636 0 0 1 1.795-4.079 17.186 17.186 0 0 0-.121 4.177c.13 1.147.328 2.286.59 3.41Zm3.655 7.489a43.937 43.937 0 0 1-2.774 4.895c-.469.775-1.01 1.534-1.496 2.317-.271.43-.52.873-.743 1.33a3.708 3.708 0 0 0-.558 1.338 21.09 21.09 0 0 1 .396-5.711c.072-.343.162-.702.267-1.044a13.88 13.88 0 0 1 .711-1.82 48.586 48.586 0 0 1 2.774-4.715 40.18 40.18 0 0 1 1.083-1.689c.704-1.036 1.472-2.023 2.175-3.059.097-.139.38-.702.582-.743.203-.04.106.596.09.743-.138.938-.462 1.844-.648 2.765-.072.368-.129.743-.218 1.11-.202.816-.517 1.55-.808 2.333-.138.384-.324.759-.486 1.126l-.153.318-.194.506ZM9.355 168.34a31.206 31.206 0 0 0-3.235-2.244c-2.304-1.631-5.603-4.568-5.377-7.775.138-1.819.42-.375 1.334.416.734.599 1.51 1.145 2.32 1.632 1.982 1.265 3.947 2.749 4.74 4.977.08.979.137 1.966.218 2.969v.025Zm16.552-3.949c.064-.073.064-.359.08-.457.017-.098.057-.334.073-.505.049-.335.081-.678.113-1.012.065-.677.106-1.354.162-2.032.122-1.14.333-2.27.63-3.377.955-3.867 3.664-6.992 6.186-9.953.21-.245.81-1.077 1.213-1.118.518 0 .081 2.578.057 2.896a27.856 27.856 0 0 1-1.35 6.454 15.08 15.08 0 0 1-1.981 3.891 21.14 21.14 0 0 1-3.235 3.443l-1.043.987a6.325 6.325 0 0 0-.905.759v.024Zm-10.375 20.698c-.436-3.737-1.197-7.008-.299-10.851a28.669 28.669 0 0 1 4.213-9.365c.089 4.323.647 10.165-.655 14.807l-.25.71v.04a10.088 10.088 0 0 1-3.009 4.659Zm-6.153 4.079a11.416 11.416 0 0 1-3.987-5.54c-.606-1.55-.913-3.222-1.617-4.731 0 0-.808-1.151-1.204-1.705.76.717 3.388 2.235 3.832 2.586a17.104 17.104 0 0 1 5.337 6.665c.291 1.493.606 2.986.946 4.463a33.351 33.351 0 0 1-3.307-1.738Zm12.363 21.415c-.873-2.684-1.504-5.123-.994-8.052a35 35 0 0 1 1.52-5.784c.323-.881.728-1.746.994-2.651 1.391 5.539-.242 10.997-1.52 16.471v.016ZM133.878 0c-6.643.137-12.904 2.123-19.043 4.504-8.069 3.115-16.097 6.457-23.921 10.129-.757.355-1.506.742-2.272 1.114-.96-.872-4.942-2.212-5.495-2.35a13.301 13.301 0 0 0-4.372-.346c-4.706.42-9.77 4.842-14.387 3.551-.301-.064-.814.25-.423.5 4.07 2.494 10.332 4.149 15.632 3.317-3.574 1.986-7.084 4.093-10.479 6.385-1.856 1.267-3.802 2.518-5.699 3.81-3.997-.808-7.661-2.72-11.879-2.567-3.322.104-6.196 1.88-8.817 3.712a.284.284 0 0 0-.146.313.283.283 0 0 0 .268.22c2.57.164 5.11.642 7.563 1.42 1.45.557 2.966.926 4.511 1.098 1.002.059 2.008-.02 2.988-.234a61.087 61.087 0 0 0-3.436 2.913c-2.841 1.445-5.666 1.865-8.386 3.6-.814.508-1.58 1.05-2.32 1.614-.741.565-1.295 1.235-1.946 1.816a27.108 27.108 0 0 0-3.86 5.069 38.932 38.932 0 0 0-4.624 9.556c-.17.548.676.42.871.145.196-.275.416-.517.62-.807a23.957 23.957 0 0 1 5.373-4.65 12.933 12.933 0 0 1 2.524-1.468c.371-.088.73-.223 1.066-.403.416-.259.814-.55 1.254-.767a8.681 8.681 0 0 0 1.433-.928c.358-.267.725-.517 1.091-.807.155-.105.415-.364.594-.372.001.341-.057.68-.17 1.001-.09.371-.155.75-.27 1.122-.366 1.259-.48 2.542-.813 3.801-.408 1.413-.815 2.825-1.132 4.27-.098.549-.065 1.614.708.976a13.597 13.597 0 0 0 1.8-1.993c.366-.42.716-.864 1.074-1.292.546-.677 1.14-1.315 1.686-1.993a28.248 28.248 0 0 0 4.07-6.715 27.29 27.29 0 0 0 1.295-3.398c.75-2.687 1.368-5.423 2.377-8.07.336-.827.717-1.636 1.14-2.422a624.46 624.46 0 0 1 4.503-3.123h.22a.245.245 0 0 0 .203-.275 322.497 322.497 0 0 1 4.747-3.228 170.962 170.962 0 0 1 19.345-10.492c-.416.58-.815 1.178-1.213 1.703a25.702 25.702 0 0 1-4.226 4.423c-9.371 4.52-14.85 12.098-17.603 21.993-.13.444.53.484.814.282.285-.202.742-.605 1.116-.904 2.874-2.324 5.927-4.342 8.671-6.812a31.655 31.655 0 0 0 6.847-7.982 13.223 13.223 0 0 0 1.466-3.373 6.636 6.636 0 0 0 .17-1.744c0-.153-.284-1.541-.284-1.541a18.006 18.006 0 0 0 3.257-3.228 32.993 32.993 0 0 0 2.825-3.665c6.814-3.228 13.743-6.15 20.745-8.878 2.255-.88 4.502-1.767 6.798-2.574-1.074 1.162-2.084 2.421-3.053 3.624a18.46 18.46 0 0 0-9.477 5.004 43.023 43.023 0 0 0-3.257 4.035c-1.709 2.324-2.776 5.456-4.836 7.465-.399.38.147.695.521.557 10.088-3.801 14.509-13.72 21.373-21.137a46.19 46.19 0 0 1 13.979-2.769c.944-.056 1.311-1.759.301-1.735ZM39.14 53.51a21.185 21.185 0 0 0-4.07 3.503 49.048 49.048 0 0 1 2.58-5.093 56.407 56.407 0 0 1 3.151-5.133c.45-.65.947-1.265 1.49-1.84.367-.38.75-.735 1.116-1.122.482-.473 1.008-.9 1.57-1.275.634-.42 1.298-.792 1.988-1.114a21.84 21.84 0 0 1 2.238-1.05 41.253 41.253 0 0 0 4.503-1.968 4.218 4.218 0 0 0-1.124 1.234 12.16 12.16 0 0 0-.814 1.413c-.244.444-.496.88-.765 1.3a8.39 8.39 0 0 0-.546 1.202c-.35.778-.741 1.538-1.172 2.276a13.86 13.86 0 0 1-1.921 2.671 16.24 16.24 0 0 1-4.373 2.873 35.405 35.405 0 0 0-3.85 2.123Zm14.07-3.979c-.066.137-.123.275-.188.404-.236.468-.448.952-.725 1.396-.553.904-1.05 1.832-1.669 2.671-.293.388-.618.751-.92 1.122-.765.936-1.4 1.994-2.214 2.882-.13.137-.66.807-.814.516-.155-.29.195-.968.26-1.178.448-1.542.814-3.1 1.246-4.641.244-.807.496-1.614.814-2.421.667-2.23 1.46-4.42 2.377-6.562a17.41 17.41 0 0 1 1.18-2.203c.261-.38.538-.75.815-1.106a26.895 26.895 0 0 1 5.341-5.028 4.829 4.829 0 0 0-.871 1.614c-.26.605-.497 1.203-.708 1.824-.375 1.114-.676 2.268-1.059 3.366a56.94 56.94 0 0 1-2.605 6.747c-.09.202-.171.404-.26.597Zm5.967-15.956c-2.874 1.017-5.976.266-8.866-.678a26.223 26.223 0 0 0-3.493-1.017c-1.539-.266-3.257.622-1.514-.985 3.004-2.824 8.63-1.928 12.155-.968 1.767.476 3.257 1.178 4.885 1.388-1.05.735-2.14 1.485-3.167 2.26Zm22.797-2.914h-.049c-.17.267-.333.557-.496.808-3.542 5.052-9.77 9.24-14.175 12.655a36.361 36.361 0 0 1 5.83-11.776c3.085-4.035 6.96-5.908 11.032-8.498a12.699 12.699 0 0 1-2.174 6.811h.032Zm5.586-14.358c-1.76.856-3.501 1.768-5.228 2.672a22.17 22.17 0 0 1-11.023.113c-.717-.162-4.397-1.542-5.7-1.711.863-.073 2.663-.194 2.687-.186 2.1-.5 4.014-1.557 6.05-2.211a14.917 14.917 0 0 1 8.8-.533 43.712 43.712 0 0 1 4.381 1.856h.033Zm11.903 7.95c.692-1 1.205-2.098 1.815-3.14a43.923 43.923 0 0 1 4.462-6.23c2.443-2.881 5.431-4.23 8.818-5.537-4.389 5.739-8.46 11.784-15.128 14.907h.033ZM233.048 274.286a.2.2 0 0 0 0-.049.814.814 0 0 0-.439-.334.456.456 0 0 0-.138 0c-.186 0-.308.122-.26.285l-.146.073h-.073l-.105.041-.285.089c-.487.139-1.21.293-2.071.448-1.364.26-3.037.537-4.548.814l-.349.065-.398.065-.422.081-.309.057-.625.122h-.049a18.96 18.96 0 0 0-1.389.326l-.26.073-.527.179a8.442 8.442 0 0 0-3.249 2.278 8.429 8.429 0 0 1-.634.57l-.373.293a27.641 27.641 0 0 1-3.103 1.953 3.107 3.107 0 0 0-2.371-.391l-2.006.594c-.18.047-.352.118-.512.212l-37.359 21.595a2.978 2.978 0 0 0-2.322.203l-3.411 1.97a2.631 2.631 0 0 0-.642.528l-.097.139-44.084 25.493a7.2 7.2 0 0 0-3.444 7.624l-1.169.683a2.262 2.262 0 0 0-.439.334.71.71 0 0 0-.105.114c-.088.097-.17.201-.244.309l-.073.13a2.132 2.132 0 0 0-.187.44v.04a2.52 2.52 0 0 0-.089.537c-.017.434.09.863.309 1.237a2.298 2.298 0 0 0 2.297 1.143c.301-.039.591-.137.854-.288l1.177-.684a7.159 7.159 0 0 0 8.309.814l44.083-25.493a2.57 2.57 0 0 0 .902-.293l3.411-1.969a3.028 3.028 0 0 0 1.34-1.92l37.359-21.596c.16-.095.307-.209.438-.341l1.519-1.441c.442-.438.727-1.01.812-1.627.983-.578 1.787-1.042 2.437-1.416l.471-.26a30.364 30.364 0 0 1 3.248-1.522l.268-.106 1.243-.488a5.53 5.53 0 0 0 .926-.488c.25-.176.474-.387.666-.627l.089-.13c.092-.117.174-.242.244-.374v-.049c.103-.184.195-.374.276-.57.04-.113.081-.211.122-.309.121-.301.219-.569.308-.813a17.856 17.856 0 0 1 2.242-4.541l.365-.561.073-.106c.09-.138.187-.277.276-.399l.049-.073.268-.366.26-.342c.918-1.147 1.275-1.163 1.275-1.163.414.227.707-.31.39-.822ZM231.812 185.648c-21.205 12.291-21.205 32.21 0 44.501 21.206 12.291 55.572 12.25 76.77 0 21.197-12.25 21.197-32.21 0-44.501-21.198-12.291-55.621-12.291-76.77 0ZM24.25 305.409l47.105 27.247a4.315 4.315 0 0 0 3.88 0l143.567-82.975c1.078-.617 1.078-1.623 0-2.248L171.9 220.08a4.235 4.235 0 0 0-3.873 0L24.249 303.16c-1.077.617-1.077 1.624 0 2.249ZM7.047 316.304c9.391-5.547 24.632-5.547 34.023 0 9.392 5.547 9.4 14.523 0 20.062-9.4 5.539-24.632 5.539-34.023 0-9.392-5.539-9.4-14.524 0-20.062ZM291.785 330.65c28.278 0 51.202-13.257 51.202-29.61s-22.924-29.61-51.202-29.61c-28.277 0-51.201 13.257-51.201 29.61s22.924 29.61 51.201 29.61Z" fill="#E0E0E0"/><path d="M175.196 180.131c-.234 16.963 13.818 25.909 30.855 25.909 17.038 0 30.831-8.946 30.831-25.909h-61.686Z" fill="#AFF17B"/><path d="M184.228 192.164c-12.046-6.986-12.046-18.315 0-25.301 12.047-6.985 31.572-6.985 43.619 0 12.046 6.986 12.046 18.315 0 25.301-12.047 6.986-31.572 6.986-43.619 0Z" fill="#3C94CB"/><path opacity=".4" d="M184.228 192.164c-12.046-6.986-12.046-18.315 0-25.301 12.047-6.985 31.572-6.985 43.619 0 12.046 6.986 12.046 18.315 0 25.301-12.047 6.986-31.572 6.986-43.619 0Z" fill="#AFF17B"/><path opacity=".5" d="M186.152 194.194c11.734 5.925 29.271 5.925 41.006 0 4.167-4.91 2.729-11.039-4.356-15.131-8.915-5.156-23.379-5.156-32.295 0-7.085 4.092-8.523 10.205-4.355 15.131Z" fill="#AFF17B"/><path d="M197.912 197.404h-.046a.503.503 0 0 1-.347-.19.527.527 0 0 1-.096-.183c-.02-.067-.027-.138-.02-.208l7.612-86.531a.555.555 0 0 1 .186-.358.51.51 0 0 1 .37-.126.503.503 0 0 1 .348.189.546.546 0 0 1 .115.392l-7.612 86.531a.547.547 0 0 1-.165.346.496.496 0 0 1-.345.138Z" fill="#37474F"/><path d="M236.347 176.43a.516.516 0 0 1-.484-.319l-29.776-65.534a.543.543 0 0 1 .258-.72.533.533 0 0 1 .71.262l29.776 65.543a.556.556 0 0 1 .018.414.54.54 0 0 1-.277.305.53.53 0 0 1-.225.049Z" fill="#37474F"/><path d="M184.389 167.794a.59.59 0 0 1-.199-.041.542.542 0 0 1-.36-.488.528.528 0 0 1 .037-.208l22.343-56.905a.52.52 0 0 1 .29-.3.557.557 0 0 1 .724.277c.059.13.063.278.012.411l-22.343 56.906a.543.543 0 0 1-.198.249.565.565 0 0 1-.306.099Z" fill="#37474F"/><path d="M299.808 108.572c-.234 16.963 13.811 25.909 30.842 25.909s30.843-8.946 30.843-25.909h-61.685Z" fill="#AFF17B"/><path d="M308.838 120.606c-12.045-6.985-12.045-18.315 0-25.3 12.045-6.986 31.577-6.986 43.621 0 12.045 6.985 12.045 18.315 0 25.3-12.044 6.986-31.576 6.986-43.621 0Z" fill="#3C94CB"/><path opacity=".4" d="M308.838 120.606c-12.045-6.985-12.045-18.315 0-25.3 12.045-6.986 31.577-6.986 43.621 0 12.045 6.985 12.045 18.315 0 25.3-12.044 6.986-31.576 6.986-43.621 0Z" fill="#AFF17B"/><path opacity=".5" d="M310.761 121.401c11.735 5.925 29.271 5.925 41.006 0 4.168-4.91 2.729-11.039-4.355-15.131-8.916-5.156-23.38-5.156-32.295 0-7.085 4.092-8.523 10.205-4.356 15.131Z" fill="#AFF17B"/><path d="M322.524 125.845h-.047a.503.503 0 0 1-.347-.189.549.549 0 0 1-.116-.392l7.613-86.53a.544.544 0 0 1 .183-.36.504.504 0 0 1 .373-.124.51.51 0 0 1 .442.373.56.56 0 0 1 .021.208l-7.613 86.53a.533.533 0 0 1-.163.348.484.484 0 0 1-.346.136Z" fill="#37474F"/><path d="M359.726 104.871a.533.533 0 0 1-.492-.319l-29.79-65.576a.546.546 0 0 1 .284-.677.534.534 0 0 1 .692.218l29.79 65.586a.55.55 0 0 1-.258.719.55.55 0 0 1-.226.049Z" fill="#37474F"/><path d="M308.988 96.227a.577.577 0 0 1-.198 0 .547.547 0 0 1-.303-.286.534.534 0 0 1-.012-.411l22.343-56.938a.533.533 0 0 1 .291-.298.557.557 0 0 1 .725.275.538.538 0 0 1 .01.412l-22.343 56.938a.538.538 0 0 1-.209.23.555.555 0 0 1-.304.078Z" fill="#37474F"/><path d="M334.516 29.611c-.059 2.792-1.791 6.079-3.854 7.256a1.826 1.826 0 0 1-1.757.227c-.603-.345-.968-1.303-.968-2.573a9.901 9.901 0 0 1 1.503-4.91h-2.547a11.677 11.677 0 0 0-1.18 4.91c0 2.11.764 3.75 2.097 4.515a3.418 3.418 0 0 0 1.698.445 4.687 4.687 0 0 0 2.326-.68c2.759-1.573 4.923-5.583 4.983-9.19h-2.301Z" fill="#455A64"/><path d="M290.967 186.47c-11.816-6.806-30.977-6.806-42.784 0-5.912 3.408-8.844 7.87-8.835 12.331v4.617c0 4.462 2.923 8.923 8.835 12.323 11.816 6.806 30.968 6.806 42.784 0 5.912-3.4 8.843-7.861 8.835-12.323v-4.617c.008-4.437-2.915-8.923-8.835-12.331Z" fill="#263238"/><path d="M248.202 186.429c-11.806 6.752-11.806 17.681 0 24.424 11.805 6.744 30.941 6.744 42.746 0 11.806-6.743 11.806-17.672 0-24.424-11.805-6.752-30.9-6.752-42.746 0Z" fill="#455A64"/><path d="M286.421 180.666c-9.647-5.649-25.286-5.649-34.925 0-4.852 2.833-7.221 6.569-7.213 10.239v6.823c0 3.711 2.386 7.389 7.213 10.238 9.639 5.657 25.278 5.657 34.925 0 4.852-2.824 7.221-6.527 7.213-10.238v-6.823c.008-3.703-2.394-7.406-7.213-10.239Z" fill="#37474F"/><path d="M251.693 180.597c-9.88 5.537-9.88 14.465 0 20.042 9.879 5.577 25.886 5.536 35.765 0 9.879-5.537 9.879-14.465 0-20.042-9.879-5.577-25.87-5.536-35.765 0ZM212.179 101.17h-2.277c.035.222.052.447.051.671 0 2.586-1.767 5.695-3.865 6.799a1.985 1.985 0 0 1-.854.309 2.032 2.032 0 0 1-.913-.101c-.595-.316-.96-1.196-.96-2.361a7.5 7.5 0 0 1 .603-2.809h-2.395a9.23 9.23 0 0 0-.467 2.809c0 1.929.756 3.442 2.089 4.144.517.269 1.103.41 1.699.409a5.007 5.007 0 0 0 2.328-.625c2.795-1.466 4.986-5.232 4.986-8.574a5.78 5.78 0 0 0-.025-.671Z" fill="#455A64"/><path d="M288.699 186.389c0-2.865-1.932-5.73-5.78-7.915-7.711-4.37-20.209-4.37-27.92 0-3.856 2.185-5.78 5.05-5.78 7.915v2.289c0 2.866 1.924 5.731 5.78 7.916 7.711 4.37 20.209 4.37 27.92 0 3.848-2.185 5.78-5.05 5.78-7.916v-2.289Z" fill="#37474F"/><path d="M282.919 179.142c-1.353-.817-3.44-4.279-4.394-8.901-2.217-10.746-2.192-27.992-.391-34.525h-18.358c1.809 6.533 1.834 23.779-.383 34.525-.954 4.622-3.041 8.043-4.394 8.901-3.856 2.229-5.78 5.153-5.78 8.076 0 2.923 1.924 5.847 5.78 8.076 7.711 4.459 20.209 4.459 27.92 0 3.848-2.229 5.78-5.153 5.78-8.076 0-2.923-1.932-5.847-5.78-8.076Z" fill="#455A64"/><path opacity=".15" d="M264.524 139.417c0 4.149-.241 33.908-2.99 37.684-2.748 3.777-5.871 4.052-7.972 7.294s1.212 7.748 6.204 9.223a5.922 5.922 0 0 1-1.537-3.112s3.322 3.808 10.73 3.112c-6.544-1.086-9.135-5.917-7.748-8.275 1.478-2.488 3.87-3.298 5.223-7.674 1.047-3.38 1.03-37.717 1.03-37.717a18.316 18.316 0 0 1-2.94-.535Z" fill="#fff"/><path opacity=".15" d="M272.222 140.104c.23 7.052.381 35.156 2.378 38.541 1.585 2.641 2.552 4.144 2.877 7.084.325 2.941-2.259 5.477-4.169 6.124a9.405 9.405 0 0 0 4.755-1.802s-1.585 3.312-7.87 4.847c4.233.283 10.985-.937 14.742-5.752 3.17-4.079-.135-6.01-2.814-7.593-2.679-1.583-4.081-2.997-5.373-6.737-2.83-8.184-1.585-35.399-1.585-35.399-.96.314-1.943.544-2.941.687Z" fill="#000"/><path opacity=".25" d="M278.008 139.883c.177-1.408.451-2.801.821-4.167h-18.507c.378 1.364.652 2.757.821 4.167 4.744 2.669 12.097 2.669 16.865 0Z" fill="#000"/><path d="M260.235 138.482c-2.442-1.446-3.614-3.34-3.614-5.234 0-1.894 1.205-3.788 3.614-5.234 4.817-2.891 12.63-2.891 17.448 0 2.442 1.446 3.613 3.34 3.613 5.234 0 1.894-1.204 3.788-3.613 5.234-4.818 2.892-12.631 2.892-17.448 0Z" fill="#37474F"/><path opacity=".25" d="M281.297 130.15a8.232 8.232 0 0 0-2.836-2.32c-4.909-2.646-12.869-2.646-17.778 0a8.277 8.277 0 0 0-2.828 2.32c.316 1.354 1.427 2.661 3.359 3.698 4.618 2.491 12.106 2.491 16.725 0 1.924-1.037 3.035-2.344 3.358-3.698Z" fill="#000"/><path d="M261.29 132.513c-2.292-1.321-3.435-3.063-3.435-4.805 0-1.742 1.143-3.483 3.435-4.804 4.577-2.658 11.996-2.658 16.573 0 2.284 1.321 3.434 3.062 3.434 4.804 0 1.742-1.15 3.484-3.434 4.805-4.577 2.625-11.996 2.625-16.573 0Z" fill="#37474F"/><path opacity=".25" d="M280.064 125.196a7.753 7.753 0 0 0-2.508-2.294c-4.407-2.656-11.551-2.656-15.958 0a7.68 7.68 0 0 0-2.508 2.294 6.064 6.064 0 0 0 1.123 2.197 5.793 5.793 0 0 0 1.883 1.531c4.13 2.475 10.824 2.475 14.953 0a5.785 5.785 0 0 0 1.889-1.529 6.079 6.079 0 0 0 1.126-2.199Z" fill="#000"/><path d="M261.104 127.74c-2.168-1.208-3.249-2.785-3.249-4.369 0-1.585 1.081-3.161 3.249-4.361 4.337-2.401 11.366-2.401 15.702 0 2.169 1.2 3.257 2.784 3.257 4.361 0 1.576-1.088 3.161-3.257 4.369-4.336 2.409-11.365 2.409-15.702 0Z" fill="#37474F"/><path opacity=".25" d="M278.83 120.986a7.239 7.239 0 0 0-2.282-1.957c-4.194-2.427-10.991-2.427-15.184 0a7.297 7.297 0 0 0-2.274 1.957 5.65 5.65 0 0 0 2.788 3.155c3.912 2.273 10.252 2.273 14.164 0a5.65 5.65 0 0 0 2.788-3.155Z" fill="#000"/><path opacity=".15" d="M277.476 132.385c1.496-1.299.494-4.329-.695-5.211 1.301-1.633.59-3.912-.995-5.03a10.98 10.98 0 0 1-3.126 1.306c1.586 1.111 2.363 3.61 1.062 5.235 1.189.89 2.206 4.026.681 5.333 1.069.988 2.243 3.749.456 5.398a11.644 11.644 0 0 0 3.051-1.633c1.757-1.633.643-4.41-.434-5.398Z" fill="#000"/><path opacity=".15" d="M260.438 132.385c-1.495-1.299-.493-4.329.695-5.211-1.293-1.633-.59-3.912 1.002-5.03a10.805 10.805 0 0 0 3.124 1.306c-1.592 1.111-2.362 3.61-1.062 5.235-1.188.89-2.242 4.026-.68 5.333-1.076.988-2.242 3.749-.463 5.398a11.445 11.445 0 0 1-3.042-1.633c-1.764-1.633-.643-4.41.426-5.398Z" fill="#fff"/><path d="M277.16 114.281c-.459-.422-1.741-3.626-2.129-8.591-1.306-16.88-1.298-38.604-1.298-55.104h-9.554c0 16.491 0 38.126-1.298 55.055-.388 4.989-1.678 8.226-2.137 8.648a4.278 4.278 0 0 0-1.179 1.433 4.402 4.402 0 0 0-.475 1.812c0 1.5.965 2.993 2.897 4.128 3.846 2.288 10.099 2.288 13.954 0 1.923-1.135 2.889-2.628 2.889-4.128a4.445 4.445 0 0 0-.483-1.817 4.326 4.326 0 0 0-1.187-1.436Z" fill="#455A64"/><path opacity=".15" d="M276.288 115.405c-1.487-2.293-2.564-3.819-3.05-9.441-.428-5.199-.069-53.77 0-55.378h-.761l-.931.277c0 7.818-.538 57.035.683 61.319 1.222 4.284 4.016 8.568.453 11.196a13.383 13.383 0 0 0 3.571-1.306c2.034-2.301 1.521-4.374.035-6.667Z" fill="#000"/><path opacity=".15" d="M261.646 115.405c1.495-2.293 2.578-3.819 3.068-9.441.43-5.199.06-53.77 0-55.378h.722l.937.277c0 7.818.542 57.035-.696 61.319-1.238 4.284-4.04 8.568-.447 11.196a13.448 13.448 0 0 1-3.593-1.306c-2.003-2.301-1.487-4.374.009-6.667Z" fill="#fff"/><path opacity=".25" d="M264.025 52.931c1.442.882 3.167 1.356 4.935 1.356 1.769 0 3.494-.474 4.936-1.356v-2.345h-9.862c0 .815-.009 1.587-.009 2.345Z" fill="#000"/><path d="M277.595 44.417a8.637 8.637 0 1 1-17.273-.001 8.637 8.637 0 0 1 17.273 0Z" fill="#37474F"/><path opacity=".15" d="M266.957 48.853a6.6 6.6 0 0 1-2.406-1.712 6.693 6.693 0 0 1-1.432-2.6 9.911 9.911 0 0 1-.189-4.045 9.28 9.28 0 0 1 .525-1.932c.114-.315.248-.623.402-.92.096-.227.223-.439.377-.63a8.692 8.692 0 0 0-2.954 3.313 8.801 8.801 0 0 0-.95 4.355c.061 1.511.51 2.98 1.302 4.262A8.67 8.67 0 0 0 264.847 52a8.558 8.558 0 0 0 8.53-.175 8.691 8.691 0 0 0 3.089-3.186 8.811 8.811 0 0 0 1.129-4.312c-.968 2.77-5.594 6.766-10.638 4.527Z" fill="#000"/><path opacity=".15" d="M274.974 43.706c-.765 2.115-1.041-.953-4.647-3.203-2.94-1.83-6.423-1.447-4.532-2.73 1.531-1.035 3.989-1.05 6.308.188 2.32 1.237 3.461 4.155 2.871 5.745Z" fill="#fff"/><path d="M268.943 33.313a76.608 76.608 0 0 0-3.316 1.905c-11.808 6.672-24.436 13.49-28.776 21.078a28.335 28.335 0 0 0-3.38 9.194c-3.17 4.054-6.225 8.107-9.24 12.161-2.292 3.105-4.551 6.202-6.883 9.21l-.163.121c-.154.09-.235.163-.211.22.024.056 0 .162-.163.097a2.68 2.68 0 0 1-.877-1.622 9.13 9.13 0 0 1-.309-2.489 7.648 7.648 0 0 1 .398-2.594.321.321 0 0 0 .009-.163.32.32 0 0 0-.074-.145.3.3 0 0 0-.422 0 7.237 7.237 0 0 0-1.731 2.53 10.837 10.837 0 0 0-.813 3.04 6.367 6.367 0 0 0 .609 3.705c.216.375.491.715.813 1.005a87.822 87.822 0 0 1-4.933 5.52 37.448 37.448 0 0 1-5.688 4.865c-1.999 1.492-3.478 1.687-4.397.981a3.554 3.554 0 0 1-1.04-2.083 10.536 10.536 0 0 1-.081-3.292c.142-1.172.415-2.325.813-3.437a14.618 14.618 0 0 1 1.544-3.162 8.376 8.376 0 0 1 2.234-2.343 3.87 3.87 0 0 1 1.195-.527c.303-.064.618-.033.902.089.295.158.523.417.642.73.198.465.308.962.325 1.467a9.27 9.27 0 0 1-.487 3.43 8.444 8.444 0 0 1-1.683 3.072 3.84 3.84 0 0 1-1.243.932 1.223 1.223 0 0 1-1.105 0l-.073-.048a.855.855 0 0 0-1.089.203.803.803 0 0 0-.187.623.804.804 0 0 0 .333.56c.387.308.85.504 1.341.568.463.058.934.019 1.381-.114a5.733 5.733 0 0 0 2.089-1.224 10.643 10.643 0 0 0 2.552-3.673 11.416 11.416 0 0 0 1.007-4.377 7.172 7.172 0 0 0-.357-2.433 4.781 4.781 0 0 0-.65-1.28 4.01 4.01 0 0 0-1.138-1.079 4.591 4.591 0 0 0-2.958-.697c-.9.095-1.77.37-2.56.81a11.742 11.742 0 0 0-3.535 3.138 18.833 18.833 0 0 0-2.251 3.875 19.724 19.724 0 0 0-1.325 4.265 14.746 14.746 0 0 0-.187 4.686 9.82 9.82 0 0 0 .691 2.529c.395.922.979 1.75 1.715 2.432a7.095 7.095 0 0 0 5.688 1.695 9.463 9.463 0 0 0 2.609-.73c.39-.161.77-.345 1.138-.551l.95-.56c5.023-3.048 8.94-7.102 12.572-11.155a210.352 210.352 0 0 0 3.836-4.475 6.248 6.248 0 0 0 1.324-1.362c.33-.426.624-.88.878-1.354 4.876-5.975 9.467-12.04 14.335-17.836 6.786-8.043 13.929-15.72 22.104-21.938a85.457 85.457 0 0 1 7.314-4.986v-9.008h-.016Zm-32.782 28.772c.17-1.143.853-3.243 3.25-6.307 3.69-4.694 9.272-8.48 12.791-10.54a142.251 142.251 0 0 0-16.041 16.847Z" fill="#455A64"/><path d="M343 9.263a6.454 6.454 0 0 0-1.964-2.197 5.067 5.067 0 0 0-3.246-.883 6.64 6.64 0 0 0-2.743.867c-.733.412-1.412.913-2.021 1.491a14.332 14.332 0 0 0-2.694 3.698 13.447 13.447 0 0 0-1.412 4.323 8.305 8.305 0 0 0 .601 4.813c.226.495.555.939.964 1.302.41.363.891.638 1.413.808a3.605 3.605 0 0 0 1.721.056 4.814 4.814 0 0 0 1.331-.578 5.602 5.602 0 0 0 1.728-1.732c.412-.633.714-1.33.893-2.062a.719.719 0 0 0-.362-.805.735.735 0 0 0-.88.14 8.18 8.18 0 0 1-2.71 2.069c-.17.071-.351.112-.536.12a.567.567 0 0 1-.26-.056 1.787 1.787 0 0 1-.413-.577 5.395 5.395 0 0 1-.082-2.928 9.976 9.976 0 0 1 1.25-3.12 10.468 10.468 0 0 1 2.134-2.591 3.849 3.849 0 0 1 2.281-1.107.751.751 0 0 1 .511.193c.25.223.449.496.584.802.36.902.515 1.871.455 2.84a14.54 14.54 0 0 1-1.907 6.416 16.486 16.486 0 0 1-4.358 5.174 9.048 9.048 0 0 1-1.307.802 15.63 15.63 0 0 1-1.623.746 19.686 19.686 0 0 1-3.286 1.018c-1.07.22-2.155.356-3.246.41.216-.523.397-1.06.544-1.605a12.2 12.2 0 0 0 .349-3.08 9.92 9.92 0 0 0-.504-2.992 5.472 5.472 0 0 0-.697-1.395 1.986 1.986 0 0 0-1.421-.947.266.266 0 0 0-.251.12.269.269 0 0 0-.014.314.276.276 0 0 0 .079.08l.073.056a1.212 1.212 0 0 1 .397.882c.053.383.053.772 0 1.155a8.339 8.339 0 0 1-.584 2.302 9.226 9.226 0 0 1-1.063 2.045 8.11 8.11 0 0 1-1.379 1.645 5.035 5.035 0 0 1-1.761.954 2.916 2.916 0 0 0-.284.12c-3.993-.52-8.196-1.451-12.603-2.013-.219-2.526-1.055-5.71-3.684-7.259-4.723-2.76-19.241 6.545-31.819 13.74l-.235.12v8.992a58.494 58.494 0 0 1 19.679-7.9 53.542 53.542 0 0 1 14.882-.498c5.097.45 10.355 1.516 16.157 1.684 3.009.107 6.016-.24 8.919-1.026a26.423 26.423 0 0 0 4.252-1.604 27.29 27.29 0 0 0 1.972-1.067 14.674 14.674 0 0 0 2.004-1.412 21.673 21.673 0 0 0 5.421-7.219 19.234 19.234 0 0 0 1.972-8.75A10.627 10.627 0 0 0 343 9.262Zm-41.232 15.842c-4.18-.618-13.609 0-18.932 2.366l-.203.056c1.347-.858 10.549-6.585 15.864-5.935 3.798.457 3.271 3.513 3.271 3.513Z" fill="#455A64"/><path d="M268.331 7.255c-5.102 2.882-9.241 10.618-9.241 17.3 0 6.681 4.114 12.075 9.241 9.2 5.126-2.873 9.265-12.992 9.265-19.65 0-6.656-4.139-9.74-9.265-6.85Zm0 3.373c3.694-2.085 6.673.121 6.673 4.935a16.208 16.208 0 0 1-.362 3.292c-.428-3.807-3.102-5.377-6.311-3.566-3.209 1.812-5.843 6.384-6.295 10.658a11.916 11.916 0 0 1-.362-2.85c0-4.813 2.987-10.392 6.657-12.469Z" fill="#455A64"/><path d="m268.355 19.741 3.072 2.987-3.106 6.883-3.063-3.398 3.097-6.472Z" fill="#3C94CB"/><path opacity=".6" d="m269.901 24.113-.832 1.798-.11-4.935.964 1.048a2.078 2.078 0 0 1-.022 2.089Z" fill="#fff"/><path d="M38.292 115.064c.412 3.828-.724 6.621-2.708 7.763a4.942 4.942 0 0 1-4.535 0c-5.597-2.423-10.635-10.68-11.236-18.518-.46-6.022 1.293-10.4 4.346-12.159 1.894-1.092 4.289-1.174 6.972 0 4.371 1.898 8.758 6.146 12.05 11.412l-7.868 4.527s2.411 1.676 2.98 6.975Z" fill="#E0E0E0"/><path opacity=".1" d="M38.292 115.064c.412 3.828-.724 6.621-2.708 7.763a4.942 4.942 0 0 1-4.535 0c-5.597-2.423-10.635-10.68-11.236-18.518-.46-6.022 1.293-10.4 4.346-12.159 1.894-1.092 4.289-1.174 6.972 0 4.371 1.898 8.758 6.146 12.05 11.412l-7.868 4.527s2.411 1.676 2.98 6.975Z" fill="#000"/><path d="M181.283 30.3c-.557-5.218-2.923-6.858-2.923-6.858L34.545 106.426s2.365 1.616 2.922 6.85c.396 3.765-.718 6.511-2.656 7.634L178.62 37.902c1.962-1.14 3.06-3.87 2.664-7.602Z" fill="#E0E0E0"/><path opacity=".3" d="M181.283 30.3c-.557-5.218-2.923-6.858-2.923-6.858L34.545 106.426s2.365 1.616 2.922 6.85c.396 3.765-.718 6.511-2.656 7.634L178.62 37.902c1.962-1.14 3.06-3.87 2.664-7.602Z" fill="#000"/><path d="M47.882 283.651V120.71c0-11.772-8.562-24.834-17.068-28.582-6.81-2.994-11.73 2.385-11.002 12.023.584 7.699 5.473 15.894 10.922 18.287 4.36 1.915 7.69-1.542 7.041-7.691-.552-5.233-2.896-6.88-2.896-6.88l-1.408 2.069-.08-.057c.064.049 1.52 1.298 1.92 5.136.296 2.863-.448 4.518-1.248 5.119a2.253 2.253 0 0 1-1.169.328c-.411 0-.815-.114-1.168-.328-4.609-2.028-8.93-9.436-9.442-16.177-.336-4.454.664-7.975 2.68-9.436 1.273-.917 2.905-.941 4.866-.081 7.345 3.245 15.547 15.155 15.547 26.27v162.941a51.265 51.265 0 0 0 6.696 25.281 50.38 50.38 0 0 0 18.237 18.529l1.248.722v-2.921a47.711 47.711 0 0 1-17.337-17.589 48.55 48.55 0 0 1-6.34-24.022Z" fill="#455A64"/><path d="m71.559 328.183 144.35-83.44v-2.924l-144.35 83.44v2.924Z" fill="#263238"/><path d="M192.079 200.368V36.907c0-11.81-8.607-24.913-17.173-28.673-2.624-1.148-4.967-1.066-6.827 0L24.676 91.869c1.852-1.083 4.194-1.164 6.819 0 8.558 3.76 17.165 16.864 17.165 28.673v163.445a48.598 48.598 0 0 0 6.382 24.09 47.94 47.94 0 0 0 17.44 17.638l143.428-83.619a47.92 47.92 0 0 1-17.445-17.637 48.587 48.587 0 0 1-6.386-24.091Z" fill="#F5F5F5"/><path d="M175.344 8.232c-2.632-1.145-4.982-1.064-6.847 0L24.676 91.7c1.857-1.08 4.207-1.162 6.839 0 3.415 1.494 6.83 4.459 9.69 8.236l143.86-83.468c-2.882-3.777-6.306-6.741-9.721-8.236Z" fill="#FAFAFA"/><path d="M171.275 8.202a8.314 8.314 0 0 1 3.309.765c7.882 3.451 16.69 16.132 16.69 27.926v163.469a49.542 49.542 0 0 0 6.171 23.881 48.895 48.895 0 0 0 16.879 17.833L72.482 324.755a47.276 47.276 0 0 1-16.841-17.317 47.912 47.912 0 0 1-6.176-23.469V120.304c-.097-11.5-8.309-25.101-17.648-29.195-.9-.403-1.851-.677-2.826-.814L168.482 8.951a5.465 5.465 0 0 1 2.793-.732v-.017Zm0-.797a6.256 6.256 0 0 0-3.22.814L24.675 91.858a6.203 6.203 0 0 1 3.221-.814 9.11 9.11 0 0 1 3.631.814c8.558 3.76 17.165 16.864 17.165 28.674v163.453a48.601 48.601 0 0 0 6.383 24.091 47.934 47.934 0 0 0 17.44 17.639l143.395-83.623a47.93 47.93 0 0 1-17.445-17.638 48.594 48.594 0 0 1-6.386-24.092V36.893c0-11.81-8.607-24.914-17.173-28.674a9.075 9.075 0 0 0-3.631-.814Z" fill="#E0E0E0"/><g filter="url(#a)"><path d="M65.389 110.441v-.605l2.829-1.708v.612l-1.306.975-.225.137-1.298.589Zm3.393 5.126c.951-.572 1.477-1.693 1.477-3.828v-4.837l.533-.322v4.997c0 2.741-.935 4.393-2.319 5.239-1.384.847-2.319.395-2.319-2.071v-5.32l1.268-.757v4.981c-.085 2.087.471 2.474 1.36 1.918Zm1.546-7.963-1.005.451v-.613l2.235-1.338v.605l-.998.758-.232.137Z" fill="#455A64"/></g><g filter="url(#b)"><path d="M73.42 114.383v-5.02l-.627.285v-.488l1.473-1.773.147.04.096 1.424V113.667l-1.09.716Zm1.634-1.578v.537l-2.21 1.399v-.529l.907-.813.427-.277.876-.317Zm2.122-4.93v4.1l-1.127.724v-4.011c0-1.025-.184-1.261-.627-.976a4.238 4.238 0 0 0-1.2 1.7l-.25.163v-.724l.53-.334-.361.529c.315-1.093.933-2.05 1.768-2.733.825-.529 1.267-.065 1.267 1.562Zm-.332 3.53.884-.301v.537l-2.21 1.408v-.537l.892-.814.434-.293Z" fill="#455A64"/></g><g filter="url(#c)"><path d="M79.656 110.691V105.916l-.695.279v-.465l1.749-1.767.152.039v6.023l-1.206.666Zm1.772-1.504v.512l-2.395 1.341v-.512l.974-.775.463-.256.959-.31Zm-1.908-6.62c0-.258.066-.513.193-.74.127-.228.31-.421.534-.562.407-.225.726-.046.726.481 0 .258-.066.513-.192.741-.127.227-.311.42-.534.561-.408.225-.727.039-.727-.481Z" fill="#455A64"/></g><g filter="url(#d)"><path d="m82.338 104.128-.91.283v-.505l2.531-1.403v.506l-1.03.766-.59.353Zm.687-1.111 1.381 3.939-.527 1.279 1.533-6.544.6-.329-1.773 6.896-.567.315-1.949-4.874 1.302-.682Zm2.395-.613-.878.291v-.514l1.82-1.011v.513l-.734.606-.207.115Z" fill="#455A64"/></g><g filter="url(#e)"><path d="M90.064 100.523c.004.255-.013.51-.049.762l-3.211 2.193v-.629l1.794-1.225c.168-.101.306-.261.396-.457.09-.197.127-.421.107-.644 0-.827-.335-1.15-.747-.869-.412.282-.915 1.291-.915 3.203 0 1.656.524 2.119 1.257 1.614.494-.382.878-.934 1.103-1.581l.244.174c-.259 1.123-.864 2.089-1.696 2.707-1.18.827-1.983.099-1.983-1.987-.013-.94.167-1.87.524-2.709a5.64 5.64 0 0 1 1.528-2.108c.992-.678 1.648-.016 1.648 1.556Z" fill="#455A64"/></g><g filter="url(#f)"><path d="M91.935 101.644V99.34l-.636.291v-.499l1.496-1.82.15.05.097 1.596v4.782l-1.137.732c.022-.616.03-1.996.03-2.828Zm-.591 2.645.927-.832.576-.366.928-.324v.54l-2.431 1.564v-.582Zm1.167-4.799.59-.382-.171.34c.224-1.588.815-2.752 1.354-3.093.33-.216.62-.15.71.266.022.27-.02.543-.123.79a1.53 1.53 0 0 1-.46.615.436.436 0 0 1-.62-.074l-.255-.25.404-.224a6.746 6.746 0 0 0-.928 2.586l-.501.283v-.857Z" fill="#455A64"/></g><g filter="url(#g)"><path d="M96.234 101.149v-1.486l.658-.365.247 1.469h-.518v-.484a1.434 1.434 0 0 0 1.234-.167c.284-.127.528-.327.705-.577.177-.25.28-.543.298-.845 0-.477-.247-.612-.88-.533l-.502.072c-.748.103-1.2-.223-1.2-1.145a3.536 3.536 0 0 1 .547-1.729c.33-.522.793-.955 1.344-1.258a2.165 2.165 0 0 1 1.48-.31l-.049 1.383-.65.357-.246-1.303h.46v.397a1.121 1.121 0 0 0-1.02.12c-.24.12-.443.301-.588.523a1.443 1.443 0 0 0-.234.74c0 .46.198.588.872.5l.395-.063c.97-.12 1.349.302 1.349 1.176a3.685 3.685 0 0 1-.605 1.859 3.864 3.864 0 0 1-1.484 1.319 2.447 2.447 0 0 1-1.613.35Z" fill="#455A64"/></g><g filter="url(#h)"><path d="M101.777 94.658a30.255 30.255 0 0 1 1.619-1.39v.495c-.481.385-.937.796-1.364 1.232a2.522 2.522 0 0 0-.895 1.751c0 .652.316.786.725.542.273-.149.46-.377.946-1.06l.307-.455.128.157-.367.667a4.144 4.144 0 0 1-1.577 1.916c-.775.408-1.364.173-1.364-.872 0-.808.35-1.601 1.842-2.983Zm.98 1.806v-3.031c0-1.178-.23-1.367-.904-1.013a4.28 4.28 0 0 0-.946.706l.563-.746-.171 1.076c.01.236-.043.47-.154.682a1.475 1.475 0 0 1-.485.535c-.324.173-.528.079-.58-.259.1-.594.349-1.159.728-1.648.379-.49.877-.89 1.454-1.17 1.194-.637 1.705-.276 1.705 1.373v2.757c0 .408.119.502.307.4a.867.867 0 0 0 .358-.463l.239.125c-.07.28-.199.544-.38.778a2.29 2.29 0 0 1-.677.58c-.64.37-1.015.064-1.057-.682Z" fill="#455A64"/></g><g filter="url(#i)"><path d="M106.561 85.13h.147l-.039 1.958v7.964l-1.187.749v-8.773l-.613.332v-.527l1.692-1.702Zm.776 9.003v.562l-2.468 1.54v-.562l.978-.893.45-.281 1.04-.366Z" fill="#455A64"/></g><g filter="url(#j)"><path d="M109.805 85.505v-.624l1.482-.874v.832l-.13.075-1.352.59Zm1.482 6.556v.832l-1.482.874v-.632l1.352-.999.13-.075Zm-.643-3.528v-4.16l1.336-.832v8.953l-1.336.79V88.533Zm.643 3.661 1.214-.715c1.336-.832 2.102-2.604 2.102-4.992s-.766-3.329-2.045-2.546l-1.271.748V84l1.426-.832c1.988-1.165 3.259-.3 3.259 2.496a7.557 7.557 0 0 1-.883 3.71 7.359 7.359 0 0 1-2.571 2.771l-1.239.741.008-.69Z" fill="#455A64"/></g><g filter="url(#k)"><path d="M120.908 83.227c.002.257-.017.514-.056.767l-3.198 2.186v-.627l1.784-1.22c.167-.102.304-.261.394-.457a1.29 1.29 0 0 0 .108-.64c0-.825-.328-1.147-.746-.825-.418.321-.913 1.278-.913 3.192 0 1.65.523 2.103 1.254 1.608.494-.38.878-.93 1.101-1.575l.244.165c-.256 1.117-.858 2.08-1.686 2.697-1.178.825-1.986.107-1.986-1.971a6.648 6.648 0 0 1 .523-2.7 5.619 5.619 0 0 1 1.526-2.101c.989-.718 1.651-.099 1.651 1.501Z" fill="#455A64"/></g><g filter="url(#l)"><path d="M123.223 81.9c0 1.598.525 2.117 1.285 1.606.503-.385.884-.948 1.087-1.606l.249.116a4.667 4.667 0 0 1-.593 1.587 4.002 4.002 0 0 1-1.083 1.188c-1.172.824-2.025.14-2.025-1.985a6.54 6.54 0 0 1 .547-2.717 5.605 5.605 0 0 1 1.584-2.1c.838-.56 1.47-.182 1.556.782a1.322 1.322 0 0 1-.147.524 1.112 1.112 0 0 1-.336.39c-.313.214-.505.05-.561-.552l-.143-.963.512.18a1.2 1.2 0 0 0-.796.223c-.603.412-1.136 1.581-1.136 3.327Z" fill="#455A64"/></g><g filter="url(#m)"><path d="M128.791 72.793h.136l-.038 1.958V82.721l-1.154.75v-8.779l-.657.298v-.537l1.713-1.66Zm.755 9.01v.553l-2.37 1.54v-.561l.951-.852.438-.28.981-.4Z" fill="#455A64"/></g><g filter="url(#n)"><path d="M131.37 77.39c.431-.4 1.116-.997 1.606-1.39v.487a16.21 16.21 0 0 0-1.344 1.232 2.528 2.528 0 0 0-.895 1.751c0 .652.312.785.718.55.279-.15.456-.377.938-1.068l.312-.455.127.157-.363.667a4.063 4.063 0 0 1-1.572 1.915c-.769.416-1.352.173-1.352-.871-.008-.77.347-1.562 1.825-2.975Zm.972 1.797v-3.022c0-1.178-.228-1.374-.845-1.02-.345.195-.66.433-.938.706l.558-.738-.169 1.068a1.42 1.42 0 0 1-.159.683c-.11.212-.273.398-.475.541-.321.165-.524.079-.575-.267.1-.592.346-1.156.72-1.645.374-.489.866-.89 1.435-1.173 1.183-.636 1.69-.267 1.69 1.374v2.755c0 .409.11.51.304.409a.922.922 0 0 0 .355-.471l.237.125c-.069.281-.197.546-.376.78a2.29 2.29 0 0 1-.672.586c-.676.37-1.048.094-1.098-.66l.008-.03Z" fill="#455A64"/></g><g filter="url(#o)"><path d="M135.111 75.754v-2.315l-.631.293v-.501l1.485-1.822h.141l.097 1.604v4.804l-1.136.735c.03-.568.044-1.963.044-2.798Zm-.593 2.656.92-.835.572-.368.92-.326v.552l-2.435 1.529.023-.552Zm1.158-4.82.594-.384-.171.342c.215-1.596.802-2.765 1.336-3.108.327-.208.616-.142.742.268.019.272-.024.546-.125.795a1.58 1.58 0 0 1-.454.625.441.441 0 0 1-.623-.075l-.245-.25.393-.226a6.828 6.828 0 0 0-.92 2.598l-.498.275-.029-.86Z" fill="#455A64"/></g><g filter="url(#p)"><path d="M141.257 71.244c.426-.398 1.117-1 1.62-1.39v.492c-.482.383-.937.793-1.364 1.227a2.5 2.5 0 0 0-.895 1.741c0 .649.315.781.724.54.409-.243.461-.376.946-1.055l.316-.453.119.156-.366.664a4.086 4.086 0 0 1-1.577 1.906c-.776.406-1.364.172-1.364-.867 0-.805.358-1.594 1.841-2.96Zm.98 1.79v-3.016c0-1.171-.23-1.359-.895-1.008-.351.19-.67.427-.946.703l.563-.78-.171 1.07c.007.234-.048.467-.161.678a1.5 1.5 0 0 1-.486.532c-.324.172-.529.078-.58-.258.101-.59.35-1.151.729-1.638a4.104 4.104 0 0 1 1.453-1.166c1.193-.632 1.705-.273 1.705 1.367v2.742c0 .406.11.5.306.398a.862.862 0 0 0 .35-.46l.247.124c-.069.28-.199.543-.382.776a2.263 2.263 0 0 1-.683.576c-.648.374-1.006.101-1.049-.64Z" fill="#455A64"/></g><g filter="url(#q)"><path d="M145.879 71.387c.284-.179.518-.415.682-.69l.257.207c-.248.694-.764 1.285-1.454 1.664-.921.466-1.427.233-1.427-.948v-4.102l-.82.424v-.682l1.344-.916-.543.774.525-2.496.921-.466-.055 2.405v4.235c-.019.616.22.774.57.59Zm.755-6.108v.833l-2.016 1.056v-.832l2.016-1.056Z" fill="#455A64"/></g><g filter="url(#r)"><path d="M147.513 71.21v-4.774l-.695.271v-.457l1.741-1.768h.16v6.023l-1.206.706Zm1.773-1.503v.512l-2.396 1.34v-.511l.982-.775.464-.264.95-.302Zm-1.917-6.62c.001-.26.068-.515.197-.742.128-.228.313-.42.538-.56.399-.225.727-.047.727.48a1.57 1.57 0 0 1-.2.738c-.126.226-.307.42-.527.565-.407.224-.735.038-.735-.481Z" fill="#455A64"/></g><g filter="url(#s)"><path d="M150.521 66.78a5.588 5.588 0 0 1 .618-2.694 5.702 5.702 0 0 1 1.843-2.087c1.311-.747 2.47-.166 2.47 1.984a5.498 5.498 0 0 1-.611 2.705 5.615 5.615 0 0 1-1.859 2.084c-1.387.78-2.461.141-2.461-1.992Zm3.594-2.025c0-1.843-.406-2.49-1.133-2.108-.727.382-1.133 1.544-1.133 3.394 0 1.851.397 2.49 1.133 2.075.736-.415 1.133-1.51 1.133-3.361Z" fill="#455A64"/></g><g filter="url(#t)"><path d="M156.077 66.266V61.254l-.622.276v-.479l1.464-1.779.14.049.095 1.421V65.552l-1.077.714Zm1.626-1.576v.536l-2.197 1.398v-.536l.894-.813.432-.276.871-.309Zm2.138-4.947v4.095l-1.12.714v-4.005c0-1.023-.176-1.25-.615-.966a4.106 4.106 0 0 0-1.201 1.697l-.242.155v-.715l.527-.341-.358.536c.31-1.095.926-2.054 1.757-2.738.82-.487 1.252-.048 1.252 1.568Zm-.322 3.526.871-.3v.535l-2.196 1.398v-.537l.885-.812.44-.284Z" fill="#455A64"/></g><g filter="url(#u)"><path d="M164.094 59.367a5.529 5.529 0 0 1 .611-2.688 5.701 5.701 0 0 1 1.841-2.088c1.319-.738 2.477-.158 2.477 1.99a5.43 5.43 0 0 1-.608 2.698 5.594 5.594 0 0 1-1.869 2.078c-1.371.788-2.452.19-2.452-1.99Zm3.618-2.015c0-1.85-.408-2.488-1.141-2.106-.732.381-1.14 1.542-1.14 3.383 0 1.84.391 2.488 1.14 2.081.75-.406 1.141-1.517 1.141-3.358Z" fill="#455A64"/></g><g filter="url(#v)"><path d="m169.679 52.353-.654.405v-.647l1.029-.78-.375.507a7.685 7.685 0 0 1 .734-3.117 3.764 3.764 0 0 1 1.359-1.637c.455-.28.852-.312.955.203-.009.213-.067.42-.17.604a1.256 1.256 0 0 1-.418.448c-.257.164-.485.101-.734-.187l-.323-.25.807-.779.147.28a.347.347 0 0 0-.323 0c-.335.277-.58.659-.697 1.092a8.114 8.114 0 0 0-.25 3.016V56.935l-1.116.686v-2.65l.029-2.618Zm1.829 3.616v.514l-2.446 1.505v-.515l.94-.826.544-.335.962-.343Zm.315-5.682v.78l-1.608.982v-.78l1.608-.982Z" fill="#455A64"/></g><path d="m179.519 181.216-119.69 69.429a1.226 1.226 0 0 0-.133 2.026c.212.164.472.252.74.252.21.002.417-.054.598-.163l119.69-69.428a1.213 1.213 0 0 0 .445-1.627 1.222 1.222 0 0 0-1.65-.489Zm0 8.225L59.829 258.87a1.226 1.226 0 0 0-.133 2.026c.212.164.472.252.74.252.21.002.417-.054.598-.163l119.69-69.428a1.223 1.223 0 0 0-.292-2.237 1.21 1.21 0 0 0-.921.121h.008Zm0-16.45L59.829 242.42a1.226 1.226 0 0 0-.133 2.026c.212.164.472.252.74.252.21.002.417-.054.598-.163l119.69-69.428a1.213 1.213 0 0 0 .445-1.627 1.222 1.222 0 0 0-1.65-.489ZM60.467 161.935c.211.002.418-.054.599-.162l119.69-69.429a1.216 1.216 0 0 0 .566-.741 1.23 1.23 0 0 0-.433-1.285 1.208 1.208 0 0 0-1.346-.09l-119.69 69.429a1.22 1.22 0 0 0-.567 1.374 1.219 1.219 0 0 0 1.173.904h.008Zm119.052 35.74-119.69 69.42a1.226 1.226 0 0 0-.133 2.026c.212.164.472.252.74.252.21.002.417-.054.598-.163l119.69-69.42a1.224 1.224 0 0 0-.292-2.237 1.206 1.206 0 0 0-.921.122h.008Zm0-40.792-119.69 69.429a1.216 1.216 0 0 0-.567 1.373c.07.26.222.489.434.653a1.207 1.207 0 0 0 1.338.089l119.69-69.429a1.216 1.216 0 0 0 .566-.741 1.227 1.227 0 0 0-.433-1.285 1.217 1.217 0 0 0-1.346-.089h.008Zm0 49.017-119.69 69.42a1.226 1.226 0 0 0-.133 2.026c.212.164.472.252.74.252.21.002.417-.054.598-.163l119.69-69.42a1.224 1.224 0 0 0-.292-2.237 1.206 1.206 0 0 0-.921.122h.008Zm0-99.254-119.69 69.429a1.225 1.225 0 0 0-.133 2.026c.212.163.472.252.74.252.21.002.417-.055.598-.163l119.69-69.428a1.223 1.223 0 0 0-.292-2.237 1.206 1.206 0 0 0-.921.121h.008Zm0 17.305-119.69 69.42a1.217 1.217 0 0 0-.598 1.216 1.23 1.23 0 0 0 .595.902c.185.107.396.162.61.16.21.002.417-.055.598-.163l119.69-69.42a1.224 1.224 0 0 0-.292-2.237 1.206 1.206 0 0 0-.921.122h.008Zm0 24.675-119.69 69.428a1.226 1.226 0 0 0-.133 2.026c.212.164.472.252.74.252.21-.001.417-.06.598-.171l119.69-69.42a1.224 1.224 0 0 0-.292-2.237 1.206 1.206 0 0 0-.921.122h.008Zm0-50.205L59.829 167.85a1.225 1.225 0 0 0-.133 2.026c.212.163.472.252.74.252.21.002.417-.055.598-.163l119.69-69.428a1.224 1.224 0 0 0-.292-2.237 1.207 1.207 0 0 0-.921.121h.008Zm0 33.755-119.69 69.42a1.226 1.226 0 0 0-.445 1.627 1.192 1.192 0 0 0 1.051.61c.21.002.418-.054.599-.163l119.69-69.42a1.221 1.221 0 0 0 .445-1.668 1.206 1.206 0 0 0-1.658-.447l.008.041Zm0 8.225-119.69 69.42a1.217 1.217 0 0 0-.598 1.216 1.23 1.23 0 0 0 .595.902c.185.107.396.162.61.16.21.002.417-.055.598-.163l119.69-69.42a1.216 1.216 0 0 0 .566-.741 1.232 1.232 0 0 0-.121-.927 1.219 1.219 0 0 0-.737-.569 1.198 1.198 0 0 0-.921.122h.008Z" fill="#E0E0E0"/><path d="M169.7 228.125a5.088 5.088 0 0 0-1.206 3.159c-.048.901.114 1.802.073 2.703a26.27 26.27 0 0 1-.599 3.308 9.675 9.675 0 0 0 .124 4.219 9.548 9.548 0 0 0 1.907 3.744 28.251 28.251 0 0 0 2.63 2.323c1.222 1.059 2.241 2.381 3.673 3.15a7.95 7.95 0 0 0 4.491.927c2.508-.232 4.75-1.654 7.112-2.555a25.504 25.504 0 0 0 3.051-1.216 7.736 7.736 0 0 0 2.389-1.942 7.935 7.935 0 0 0 1.462-2.738c.38-1.654-.194-3.308-.275-4.961a48.034 48.034 0 0 0-.356-3.572c-.308-2.365-.809-5.143-2.8-6.615-.728-.546-1.618-.827-2.379-1.332-1.804-1.124-2.977-3.15-4.854-4.093a6.908 6.908 0 0 0-5.421 0c-1.853.695-3.237 2.2-4.96 2.977a11.197 11.197 0 0 0-4.062 2.514Z" fill="#3C94CB"/><path d="M170.435 233.938a10.77 10.77 0 0 0 .613 5.978 11.09 11.09 0 0 0 3.736 4.783c4.923 3.577 12.604 2.443 15.459-3.073 2.257-4.359.41-10.234-3.044-13.531-2.683-2.554-8.641-3.129-11.784-1.046-2.51 1.587-4.294 4.055-4.98 6.889Z" fill="#3C94CB"/><path opacity=".1" d="M170.262 237.77a11.149 11.149 0 0 0 6.843 9.449c5.601 2.286 12.597-.692 13.927-6.777 1.056-4.83-2.176-10.094-6.295-12.468-3.224-1.836-9.01-.942-11.469 1.851a11.381 11.381 0 0 0-3.006 7.945Z" fill="#fff"/><path opacity=".25" d="M190.367 246.869c-1.019.389-2.12.524-3.164.865-.979.348-1.918.798-2.799 1.343a9.492 9.492 0 0 1-2.193.834 7.032 7.032 0 0 1-5.09-.572c-2.137-1.136-3.52-3.058-5.406-4.512-2.492-1.914-4.208-4.607-3.536-7.943-.081.325-.154.651-.211.977a8.938 8.938 0 0 0 .124 4.053A9.029 9.029 0 0 0 170 245.51a27.879 27.879 0 0 0 2.63 2.232c1.221 1.017 2.241 2.288 3.673 3.027a8.215 8.215 0 0 0 4.491.889c2.509-.222 4.751-1.588 7.113-2.454a27.554 27.554 0 0 0 3.051-1.168 7.677 7.677 0 0 0 2.39-1.865 7.527 7.527 0 0 0 1.462-2.631c.11-.492.148-.998.113-1.501-.671 2.915-2.427 4.003-4.556 4.83Z" fill="#000"/><path opacity=".1" d="M192.394 238.629a9.772 9.772 0 0 1-.813 2.82 5.987 5.987 0 0 1-2.974 2.837 9.465 9.465 0 0 0 2.438-4.588c1.056-4.934-2.203-10.303-6.356-12.728-3.25-1.875-9.086-.962-11.564 1.899-.13.156-.268.312-.398.485a6.513 6.513 0 0 1 1.527-2.195 7.3 7.3 0 0 1 1.366-.897 14.662 14.662 0 0 1 3.494-1.521 8.494 8.494 0 0 1 5.023.436 13 13 0 0 1 4.307 2.845 12.546 12.546 0 0 1 3.227 4.826 12.68 12.68 0 0 1 .723 5.781Z" fill="#000"/><path opacity=".4" d="M188.599 237.397c-.829-.454-1.716-.958-2.57-1.445a2.202 2.202 0 0 1-.224-.174c.283.054.56.131.829.232a3.04 3.04 0 0 0 1.435.19c.192-.04.38-.095.564-.166v-.09a11.225 11.225 0 0 1-3.135-.967.511.511 0 0 1 .208-.041h1.127a2.306 2.306 0 0 0 1.882-.826.966.966 0 0 0 .249-.627 5.409 5.409 0 0 1-3.209.239c.448-.14.83-.231 1.244-.388a1.969 1.969 0 0 0 1.02-.685c-.881.232-1.784.368-2.695.404a2.71 2.71 0 0 1 .456-.19 3.32 3.32 0 0 0 1.385-.677 1.69 1.69 0 0 0 .514-1.338 5.6 5.6 0 0 1-2.545.975c.381-.355.729-.669 1.061-.999a1.714 1.714 0 0 0 .555-1.239 4.316 4.316 0 0 1-1.658 1.462c.104-.156.218-.305.34-.446a2.73 2.73 0 0 0 .705-1.85v-.339l-.108-.165c-.083.069-.155.15-.216.24a3.571 3.571 0 0 1-1.484 1.428c-.597.388-1.177.785-1.757 1.189a.687.687 0 0 0-.307.719.562.562 0 0 0 .597.471.437.437 0 0 1 .389.239 1.486 1.486 0 0 1-.389 1.883.709.709 0 0 1-.887.091 3.571 3.571 0 0 1-1.302-1.759c0-.042.041-.165.091-.215.24-.206.489-.388.73-.586.07-.075.133-.155.19-.24-.439.058-.729.471-1.243.446.053-.082.117-.157.19-.223.34-.206.697-.396 1.037-.619.153-.123.287-.268.398-.43 0 0 0-.132-.042-.198-.06.028-.119.061-.174.099-.136.133-.28.257-.431.372-.207.14-.439.239-.663.363a1.777 1.777 0 0 0-.141.099l-.133.099v-.049c.299-.273.605-.537.929-.826a.377.377 0 0 0-.21-.294.387.387 0 0 0-.362.013c-.133.05-.241.149-.374.207-.132.058-.29.181-.431.165-.331 0-.514.165-.704.388l-.772.826-.124.149a1.182 1.182 0 0 1 .779 1.436c.299-.057.357 0 .332.29-.025.289 0 .371.241.412.082 0 .157.149.182.248.025.099.099.446.141.677 0 .042 0 .099-.05.149-.622-.24-.829-.529-.829-.941-.58-.232-.58-.232-.415-.562a1.228 1.228 0 0 1-1.028-1.214l-1.277.537a1.3 1.3 0 0 0-.414.272c-.249.265-.456.562-.68.826a.57.57 0 0 0 0 .735c.34-.206.605-.561 1.086-.594-.315.272-.605.487-.829.743-.224.256-.265.281-.481.272 0 0-.124.066-.124.091 0 .025 0 .149.074.157a.468.468 0 0 0 .282 0c.113-.056.216-.129.307-.215l1.02-.875c0-.041.124 0 .191-.041.066-.042 0 .148-.058.19-.199.206-.407.396-.614.594a1.897 1.897 0 0 0-.149.198h.265c.265-.148.531-.322.829-.495a.263.263 0 0 1 .183-.076c.034 0 .067.007.098.02.032.013.06.032.084.056a3.758 3.758 0 0 1 1.003 1.808.827.827 0 0 1-.157.579 1.25 1.25 0 0 1-1.841.206c-.215-.19-.439-.372-.232-.752a.45.45 0 0 0-.133-.602.663.663 0 0 0-.829-.058c-.371.256-.728.531-1.069.826a6.683 6.683 0 0 1-2.165 1.387c-.199.066-.406.107-.663.165.143.186.332.332.548.424.217.091.454.124.688.096.563-.09 1.111-.239 1.658-.363-.299.215-.589.454-.904.644-.315.19-.647.314-.97.471.945.215 1.658-.372 2.438-.826a4.961 4.961 0 0 1-1.75 2.098 1.447 1.447 0 0 0 1.443 0 4.294 4.294 0 0 0 1.177-1.173c.083-.124.174-.239.257-.355a9.629 9.629 0 0 1-1.335 2.477l.092.075c.323-.253.628-.529.912-.826a9.35 9.35 0 0 0 .729-1.049c0 1.214-.688 2.089-1.318 3.047a1.718 1.718 0 0 0 1.468-.569 4.07 4.07 0 0 0 .829-1.603c.066-.223.141-.445.207-.677h.066a15.02 15.02 0 0 1-.29 3.411c.1-.074.191-.107.224-.174.175-.225.31-.48.398-.751.108-.553.141-1.115.207-1.652v-.338c.07.148.115.307.133.47.116.727.274 1.446.323 2.181a9.25 9.25 0 0 1-.099 1.577 2.46 2.46 0 0 1-.199.537 1.824 1.824 0 0 0 1.36-1.536 6.176 6.176 0 0 0 0-2.37l-.274-1.652a1.101 1.101 0 0 0-.05-.157h.133a5.326 5.326 0 0 1 .953 3.303 1.136 1.136 0 0 0 .349-.941c-.092-.619-.199-1.239-.299-1.908.416.301.71.741.829 1.239.091.527.016 1.07-.215 1.553h.058l.439-.422c0 .347-.05.628-.074.909a.25.25 0 0 1-.208.256c-.241.084-.47.2-.68.347a.498.498 0 0 0-.216.413.498.498 0 0 0 .216.412c.415-.429.415-.429.548-.421-.191.43-.34.826.074 1.206a.518.518 0 0 0 .672 0 5.066 5.066 0 0 1-.282-.446v-.248c.074.003.147.02.216.05.149.082.273.198.431.272a.579.579 0 0 0 .829-.536h-.008a.744.744 0 0 1-.553-.094.733.733 0 0 1-.206-.198.735.735 0 0 1-.112-.262.188.188 0 0 1 0-.115.779.779 0 0 1 1.07-.223 1.31 1.31 0 0 0 0-.331.617.617 0 0 0-.333-.367.607.607 0 0 0-.497.004l-.331.107c.058-.363.099-.685.157-1.048l.606.33c.082-.512-.274-.958-.133-1.478a8.9 8.9 0 0 1 1.385 5.211 2.32 2.32 0 0 0 .431-.397 3.1 3.1 0 0 0 .157-2.775 1.72 1.72 0 0 1 .713 1.652l1.086.058.374-1.123c-.722-.108-1.053-.603-1.319-1.264l.149.091a3.654 3.654 0 0 0 1.99.826c.356.004.699-.126.962-.363a8.161 8.161 0 0 1-4.253-3.139c.564.067.829.579 1.326.653 0-.24-.066-.438-.091-.595l1.012.083a2.429 2.429 0 0 0-.332.512.937.937 0 0 0 0 .545c.058.14.241.215.373.33.05-.074.067-.091.067-.107a.23.23 0 0 0 0-.074.526.526 0 0 1 .232-.612c.423-.346.423-.346.688.116a.51.51 0 0 1 0 .685.243.243 0 0 0-.042.133c.04.034.089.054.141.057a.704.704 0 0 0 .631-.718 4.14 4.14 0 0 0-.158-.545c0-.058-.05-.165 0-.182a.248.248 0 0 1 .199-.049.97.97 0 0 1 .257.198c.066.074.108.165.174.256a.683.683 0 0 0 .216-.686c-.208-.462-.647-.388-1.128-.404.089-.11.192-.207.307-.289a1.14 1.14 0 0 1 .348-.05c-.133-.404-.398-.537-.738-.33-.19.144-.368.304-.531.479-.058.058-.107.149-.165.157a1.849 1.849 0 0 1-.962-.19 7.59 7.59 0 0 0 .456-.306v-.057a2.691 2.691 0 0 1-1.443-.314 2.761 2.761 0 0 1-.771-1.264c.221.091.428.214.614.364.384.324.838.556 1.326.677a.508.508 0 0 0 .597-.157 4.974 4.974 0 0 1-2.728-2.189c.163.053.319.126.465.215.729.43 1.442.909 2.214 1.28a3.017 3.017 0 0 0 2.28.165.829.829 0 0 0 .597-.71c-.45.181-.952.181-1.402 0Z" fill="#3C94CB"/><path opacity=".2" d="M188.599 237.397c-.829-.454-1.716-.958-2.57-1.445a2.202 2.202 0 0 1-.224-.174c.283.054.56.131.829.232a3.04 3.04 0 0 0 1.435.19c.192-.04.38-.095.564-.166v-.09a11.225 11.225 0 0 1-3.135-.967.511.511 0 0 1 .208-.041h1.127a2.306 2.306 0 0 0 1.882-.826.966.966 0 0 0 .249-.627 5.409 5.409 0 0 1-3.209.239c.448-.14.83-.231 1.244-.388a1.969 1.969 0 0 0 1.02-.685c-.881.232-1.784.368-2.695.404a2.71 2.71 0 0 1 .456-.19 3.32 3.32 0 0 0 1.385-.677 1.69 1.69 0 0 0 .514-1.338 5.6 5.6 0 0 1-2.545.975c.381-.355.729-.669 1.061-.999a1.714 1.714 0 0 0 .555-1.239 4.316 4.316 0 0 1-1.658 1.462c.104-.156.218-.305.34-.446a2.73 2.73 0 0 0 .705-1.85v-.339l-.108-.165c-.083.069-.155.15-.216.24a3.571 3.571 0 0 1-1.484 1.428c-.597.388-1.177.785-1.757 1.189a.687.687 0 0 0-.307.719.562.562 0 0 0 .597.471.437.437 0 0 1 .389.239 1.486 1.486 0 0 1-.389 1.883.709.709 0 0 1-.887.091 3.571 3.571 0 0 1-1.302-1.759c0-.042.041-.165.091-.215.24-.206.489-.388.73-.586.07-.075.133-.155.19-.24-.439.058-.729.471-1.243.446.053-.082.117-.157.19-.223.34-.206.697-.396 1.037-.619.153-.123.287-.268.398-.43 0 0 0-.132-.042-.198-.06.028-.119.061-.174.099-.136.133-.28.257-.431.372-.207.14-.439.239-.663.363a1.777 1.777 0 0 0-.141.099l-.133.099v-.049c.299-.273.605-.537.929-.826a.377.377 0 0 0-.21-.294.387.387 0 0 0-.362.013c-.133.05-.241.149-.374.207-.132.058-.29.181-.431.165-.331 0-.514.165-.704.388l-.772.826-.124.149a1.182 1.182 0 0 1 .779 1.436c.299-.057.357 0 .332.29-.025.289 0 .371.241.412.082 0 .157.149.182.248.025.099.099.446.141.677 0 .042 0 .099-.05.149-.622-.24-.829-.529-.829-.941-.58-.232-.58-.232-.415-.562a1.228 1.228 0 0 1-1.028-1.214l-1.277.537a1.3 1.3 0 0 0-.414.272c-.249.265-.456.562-.68.826a.57.57 0 0 0 0 .735c.34-.206.605-.561 1.086-.594-.315.272-.605.487-.829.743-.224.256-.265.281-.481.272 0 0-.124.066-.124.091 0 .025 0 .149.074.157a.468.468 0 0 0 .282 0c.113-.056.216-.129.307-.215l1.02-.875c0-.041.124 0 .191-.041.066-.042 0 .148-.058.19-.199.206-.407.396-.614.594a1.897 1.897 0 0 0-.149.198h.265c.265-.148.531-.322.829-.495a.263.263 0 0 1 .183-.076c.034 0 .067.007.098.02.032.013.06.032.084.056a3.758 3.758 0 0 1 1.003 1.808.827.827 0 0 1-.157.579 1.25 1.25 0 0 1-1.841.206c-.215-.19-.439-.372-.232-.752a.45.45 0 0 0-.133-.602.663.663 0 0 0-.829-.058c-.371.256-.728.531-1.069.826a6.683 6.683 0 0 1-2.165 1.387c-.199.066-.406.107-.663.165.143.186.332.332.548.424.217.091.454.124.688.096.563-.09 1.111-.239 1.658-.363-.299.215-.589.454-.904.644-.315.19-.647.314-.97.471.945.215 1.658-.372 2.438-.826a4.961 4.961 0 0 1-1.75 2.098 1.447 1.447 0 0 0 1.443 0 4.294 4.294 0 0 0 1.177-1.173c.083-.124.174-.239.257-.355a9.629 9.629 0 0 1-1.335 2.477l.092.075c.323-.253.628-.529.912-.826a9.35 9.35 0 0 0 .729-1.049c0 1.214-.688 2.089-1.318 3.047a1.718 1.718 0 0 0 1.468-.569 4.07 4.07 0 0 0 .829-1.603c.066-.223.141-.445.207-.677h.066a15.02 15.02 0 0 1-.29 3.411c.1-.074.191-.107.224-.174.175-.225.31-.48.398-.751.108-.553.141-1.115.207-1.652v-.338c.07.148.115.307.133.47.116.727.274 1.446.323 2.181a9.25 9.25 0 0 1-.099 1.577 2.46 2.46 0 0 1-.199.537 1.824 1.824 0 0 0 1.36-1.536 6.176 6.176 0 0 0 0-2.37l-.274-1.652a1.101 1.101 0 0 0-.05-.157h.133a5.326 5.326 0 0 1 .953 3.303 1.136 1.136 0 0 0 .349-.941c-.092-.619-.199-1.239-.299-1.908.416.301.71.741.829 1.239.091.527.016 1.07-.215 1.553h.058l.439-.422c0 .347-.05.628-.074.909a.25.25 0 0 1-.208.256c-.241.084-.47.2-.68.347a.498.498 0 0 0-.216.413.498.498 0 0 0 .216.412c.415-.429.415-.429.548-.421-.191.43-.34.826.074 1.206a.518.518 0 0 0 .672 0 5.066 5.066 0 0 1-.282-.446v-.248c.074.003.147.02.216.05.149.082.273.198.431.272a.579.579 0 0 0 .829-.536h-.008a.744.744 0 0 1-.553-.094.733.733 0 0 1-.206-.198.735.735 0 0 1-.112-.262.188.188 0 0 1 0-.115.779.779 0 0 1 1.07-.223 1.31 1.31 0 0 0 0-.331.617.617 0 0 0-.333-.367.607.607 0 0 0-.497.004l-.331.107c.058-.363.099-.685.157-1.048l.606.33c.082-.512-.274-.958-.133-1.478a8.9 8.9 0 0 1 1.385 5.211 2.32 2.32 0 0 0 .431-.397 3.1 3.1 0 0 0 .157-2.775 1.72 1.72 0 0 1 .713 1.652l1.086.058.374-1.123c-.722-.108-1.053-.603-1.319-1.264l.149.091a3.654 3.654 0 0 0 1.99.826c.356.004.699-.126.962-.363a8.161 8.161 0 0 1-4.253-3.139c.564.067.829.579 1.326.653 0-.24-.066-.438-.091-.595l1.012.083a2.429 2.429 0 0 0-.332.512.937.937 0 0 0 0 .545c.058.14.241.215.373.33.05-.074.067-.091.067-.107a.23.23 0 0 0 0-.074.526.526 0 0 1 .232-.612c.423-.346.423-.346.688.116a.51.51 0 0 1 0 .685.243.243 0 0 0-.042.133c.04.034.089.054.141.057a.704.704 0 0 0 .631-.718 4.14 4.14 0 0 0-.158-.545c0-.058-.05-.165 0-.182a.248.248 0 0 1 .199-.049.97.97 0 0 1 .257.198c.066.074.108.165.174.256a.683.683 0 0 0 .216-.686c-.208-.462-.647-.388-1.128-.404.089-.11.192-.207.307-.289a1.14 1.14 0 0 1 .348-.05c-.133-.404-.398-.537-.738-.33-.19.144-.368.304-.531.479-.058.058-.107.149-.165.157a1.849 1.849 0 0 1-.962-.19 7.59 7.59 0 0 0 .456-.306v-.057a2.691 2.691 0 0 1-1.443-.314 2.761 2.761 0 0 1-.771-1.264c.221.091.428.214.614.364.384.324.838.556 1.326.677a.508.508 0 0 0 .597-.157 4.974 4.974 0 0 1-2.728-2.189c.163.053.319.126.465.215.729.43 1.442.909 2.214 1.28a3.017 3.017 0 0 0 2.28.165.829.829 0 0 0 .597-.71c-.45.181-.952.181-1.402 0Z" fill="#000"/><path d="M188.578 236.131c-.864-.452-1.703-.954-2.55-1.44a2.424 2.424 0 0 1-.23-.173c.297.05.589.127.871.231.452.177.941.242 1.423.189.191-.04.378-.095.56-.165v-.09a11.138 11.138 0 0 1-3.101-.963.5.5 0 0 1 .205-.041h1.111a2.313 2.313 0 0 0 1.875-.823.97.97 0 0 0 .247-.625 5.34 5.34 0 0 1-3.183.238c.436-.14.822-.23 1.225-.386a1.986 1.986 0 0 0 1.02-.683c-.874.227-1.77.363-2.673.403a2.35 2.35 0 0 1 .452-.189 3.198 3.198 0 0 0 1.366-.675 1.692 1.692 0 0 0 .518-1.333 5.584 5.584 0 0 1-2.525.971c.378-.354.724-.667 1.053-.996a1.76 1.76 0 0 0 .551-1.234 4.292 4.292 0 0 1-1.645 1.456c.099-.164.222-.296.329-.444a2.687 2.687 0 0 0 .699-1.843v-.338l-.107-.164a1.154 1.154 0 0 0-.214.238 3.528 3.528 0 0 1-1.48 1.424c-.584.387-1.168.782-1.744 1.185a.696.696 0 0 0-.296.716.557.557 0 0 0 .584.469.423.423 0 0 1 .386.238 1.475 1.475 0 0 1-.378 1.877.702.702 0 0 1-.88.09 3.626 3.626 0 0 1-1.3-1.753.46.46 0 0 1 .099-.214c.239-.205.485-.386.724-.584.069-.072.13-.152.181-.238-.428.057-.716.469-1.226.444.053-.082.117-.157.189-.222.338-.214.691-.395 1.02-.617.155-.122.291-.267.403-.428 0 0 0-.132-.049-.198l-.173.099c-.13.134-.27.258-.419.37-.214.14-.436.239-.658.362a1.36 1.36 0 0 0-.14.099l-.132.099v-.05l.922-.823a.379.379 0 0 0-.203-.293.364.364 0 0 0-.357.014c-.131.049-.246.148-.37.205-.123.058-.296.181-.427.165-.33 0-.51.165-.7.387-.189.222-.518.543-.773.823a1.105 1.105 0 0 0-.115.148 1.17 1.17 0 0 1 .765 1.432c.304-.058.362 0 .337.288-.024.288 0 .362.239.411.074 0 .148.148.181.247s.098.444.14.675a.645.645 0 0 1-.05.148c-.617-.239-.822-.527-.822-.938-.576-.231-.576-.231-.412-.56a1.212 1.212 0 0 1-1.02-1.21l-1.266.535a1.417 1.417 0 0 0-.42.272c-.238.263-.444.559-.674.823a.582.582 0 0 0 0 .732c.337-.206.6-.568 1.077-.592-.32.271-.6.485-.863.74-.14.14-.255.28-.469.272-.041 0-.123.066-.123.09 0 .025 0 .148.074.157.09.032.189.032.279 0a1.17 1.17 0 0 0 .305-.206c.337-.288.666-.584 1.011-.872.041-.041.124 0 .189-.041.066-.042 0 .148-.057.189-.198.206-.411.395-.609.592a1.888 1.888 0 0 0-.148.198h.263c.264-.148.527-.321.782-.494a.248.248 0 0 1 .181-.075.255.255 0 0 1 .181.075c.493.495.835 1.12.987 1.802a.824.824 0 0 1-.157.576 1.222 1.222 0 0 1-1.429.512 1.222 1.222 0 0 1-.462-.281c-.214-.19-.436-.371-.239-.749a.446.446 0 0 0-.132-.601.641.641 0 0 0-.822-.058c-.368.255-.723.53-1.061.823a6.61 6.61 0 0 1-2.147 1.383c-.197.066-.403.107-.658.164a1.341 1.341 0 0 0 1.226.519c.551-.091 1.102-.239 1.645-.362-.305.214-.593.452-.905.642-.313.172-.634.329-.962.469.945.214 1.645-.371 2.426-.823a4.946 4.946 0 0 1-1.735 2.09 1.41 1.41 0 0 0 1.422 0 4.2 4.2 0 0 0 1.177-1.169 5.57 5.57 0 0 1 .255-.354 9.891 9.891 0 0 1-1.325 2.51l.091.074c.321-.252.623-.527.905-.823.262-.332.504-.681.723-1.045.042 1.21-.69 2.082-1.307 3.037a1.703 1.703 0 0 0 1.455-.568 4.03 4.03 0 0 0 .823-1.596c.074-.223.14-.445.214-.675h.066c.033 1.14-.064 2.28-.288 3.398.098-.074.181-.107.222-.172.168-.229.301-.481.395-.749.107-.552.139-1.111.197-1.646l.049-.337c.067.149.112.307.132.469.107.724.263 1.44.321 2.172a8.533 8.533 0 0 1-.107 1.572 2.365 2.365 0 0 1-.189.535c.109-.031.217-.069.32-.116a1.993 1.993 0 0 0 1.103-1.431 6.019 6.019 0 0 0 0-2.362c-.091-.551-.173-1.103-.264-1.646l-.049-.156h.132a5.33 5.33 0 0 1 .946 3.291 1.15 1.15 0 0 0 .345-.938c-.09-.617-.197-1.234-.304-1.901.419.301.717.742.839 1.243.085.525.01 1.064-.214 1.547h.057l.436-.42c0 .346-.049.626-.074.905a.245.245 0 0 1-.205.256 2.594 2.594 0 0 0-.675.345.496.496 0 0 0-.214.412.497.497 0 0 0 .214.411c.42-.428.42-.428.551-.42-.189.428-.337.823.074 1.202a.51.51 0 0 0 .667 0 3.538 3.538 0 0 1-.28-.445v-.246c.074.003.146.02.214.049.14.082.271.189.419.263a.562.562 0 0 0 .561-.029.57.57 0 0 0 .262-.497h-.066a.718.718 0 0 1-.823-.552.188.188 0 0 1 0-.115.773.773 0 0 1 1.061-.222c.011-.11.011-.22 0-.329a.605.605 0 0 0-.822-.362l-.321.107c.058-.362.099-.683.148-1.045l.601.329c.09-.51-.264-.955-.124-1.473a8.837 8.837 0 0 1 1.366 5.192c.163-.11.309-.243.436-.395a3.105 3.105 0 0 0 .156-2.765c.257.183.459.433.583.724.123.291.163.61.116.922l1.086.058c.131-.395.246-.749.362-1.119-.708-.107-1.037-.601-1.3-1.268l.148.099c.56.467 1.248.754 1.974.823.352.004.693-.125.954-.362a8.093 8.093 0 0 1-4.219-3.127c.559.066.822.576 1.316.65 0-.239-.066-.436-.091-.592l.996.082a2.734 2.734 0 0 0-.321.51.884.884 0 0 0 0 .543c.057.14.238.214.37.329.049-.082.066-.09.066-.107a.117.117 0 0 0 0-.074.53.53 0 0 1 .23-.609c.428-.345.419-.345.691.116a.518.518 0 0 1 0 .683s-.058.115-.041.131a.215.215 0 0 0 .14.058.7.7 0 0 0 .625-.716 4.064 4.064 0 0 0-.157-.543c0-.058-.049-.165 0-.181.05-.017.148-.074.198-.05a.835.835 0 0 1 .255.198c.067.078.125.164.173.255a.692.692 0 0 0 .222-.683c-.206-.461-.65-.387-1.119-.403.132-.132.197-.239.296-.288.115-.034.234-.051.354-.05-.14-.403-.395-.535-.732-.329a4.18 4.18 0 0 0-.527.477c-.057.058-.107.149-.164.157a1.81 1.81 0 0 1-.954-.189l.452-.305v.008a2.639 2.639 0 0 1-1.431-.312 2.756 2.756 0 0 1-.765-1.259c.219.09.424.212.609.362.379.325.83.556 1.316.674a.496.496 0 0 0 .584-.156 4.93 4.93 0 0 1-2.698-2.181c.159.052.311.124.452.214.732.428 1.44.906 2.196 1.276.706.351 1.521.41 2.27.164a.82.82 0 0 0 .593-.707 1.855 1.855 0 0 1-1.423-.132Z" fill="#3C94CB"/><path opacity=".4" d="M188.578 236.131c-.864-.452-1.703-.954-2.55-1.44a2.424 2.424 0 0 1-.23-.173c.297.05.589.127.871.231.452.177.941.242 1.423.189.191-.04.378-.095.56-.165v-.09a11.138 11.138 0 0 1-3.101-.963.5.5 0 0 1 .205-.041h1.111a2.313 2.313 0 0 0 1.875-.823.97.97 0 0 0 .247-.625 5.34 5.34 0 0 1-3.183.238c.436-.14.822-.23 1.225-.386a1.986 1.986 0 0 0 1.02-.683c-.874.227-1.77.363-2.673.403a2.35 2.35 0 0 1 .452-.189 3.198 3.198 0 0 0 1.366-.675 1.692 1.692 0 0 0 .518-1.333 5.584 5.584 0 0 1-2.525.971c.378-.354.724-.667 1.053-.996a1.76 1.76 0 0 0 .551-1.234 4.292 4.292 0 0 1-1.645 1.456c.099-.164.222-.296.329-.444a2.687 2.687 0 0 0 .699-1.843v-.338l-.107-.164a1.154 1.154 0 0 0-.214.238 3.528 3.528 0 0 1-1.48 1.424c-.584.387-1.168.782-1.744 1.185a.696.696 0 0 0-.296.716.557.557 0 0 0 .584.469.423.423 0 0 1 .386.238 1.475 1.475 0 0 1-.378 1.877.702.702 0 0 1-.88.09 3.626 3.626 0 0 1-1.3-1.753.46.46 0 0 1 .099-.214c.239-.205.485-.386.724-.584.069-.072.13-.152.181-.238-.428.057-.716.469-1.226.444.053-.082.117-.157.189-.222.338-.214.691-.395 1.02-.617.155-.122.291-.267.403-.428 0 0 0-.132-.049-.198l-.173.099c-.13.134-.27.258-.419.37-.214.14-.436.239-.658.362a1.36 1.36 0 0 0-.14.099l-.132.099v-.05l.922-.823a.379.379 0 0 0-.203-.293.364.364 0 0 0-.357.014c-.131.049-.246.148-.37.205-.123.058-.296.181-.427.165-.33 0-.51.165-.7.387-.189.222-.518.543-.773.823a1.105 1.105 0 0 0-.115.148 1.17 1.17 0 0 1 .765 1.432c.304-.058.362 0 .337.288-.024.288 0 .362.239.411.074 0 .148.148.181.247s.098.444.14.675a.645.645 0 0 1-.05.148c-.617-.239-.822-.527-.822-.938-.576-.231-.576-.231-.412-.56a1.212 1.212 0 0 1-1.02-1.21l-1.266.535a1.417 1.417 0 0 0-.42.272c-.238.263-.444.559-.674.823a.582.582 0 0 0 0 .732c.337-.206.6-.568 1.077-.592-.32.271-.6.485-.863.74-.14.14-.255.28-.469.272-.041 0-.123.066-.123.09 0 .025 0 .148.074.157.09.032.189.032.279 0a1.17 1.17 0 0 0 .305-.206c.337-.288.666-.584 1.011-.872.041-.041.124 0 .189-.041.066-.042 0 .148-.057.189-.198.206-.411.395-.609.592a1.888 1.888 0 0 0-.148.198h.263c.264-.148.527-.321.782-.494a.248.248 0 0 1 .181-.075.255.255 0 0 1 .181.075c.493.495.835 1.12.987 1.802a.824.824 0 0 1-.157.576 1.222 1.222 0 0 1-1.429.512 1.222 1.222 0 0 1-.462-.281c-.214-.19-.436-.371-.239-.749a.446.446 0 0 0-.132-.601.641.641 0 0 0-.822-.058c-.368.255-.723.53-1.061.823a6.61 6.61 0 0 1-2.147 1.383c-.197.066-.403.107-.658.164a1.341 1.341 0 0 0 1.226.519c.551-.091 1.102-.239 1.645-.362-.305.214-.593.452-.905.642-.313.172-.634.329-.962.469.945.214 1.645-.371 2.426-.823a4.946 4.946 0 0 1-1.735 2.09 1.41 1.41 0 0 0 1.422 0 4.2 4.2 0 0 0 1.177-1.169 5.57 5.57 0 0 1 .255-.354 9.891 9.891 0 0 1-1.325 2.51l.091.074c.321-.252.623-.527.905-.823.262-.332.504-.681.723-1.045.042 1.21-.69 2.082-1.307 3.037a1.703 1.703 0 0 0 1.455-.568 4.03 4.03 0 0 0 .823-1.596c.074-.223.14-.445.214-.675h.066c.033 1.14-.064 2.28-.288 3.398.098-.074.181-.107.222-.172.168-.229.301-.481.395-.749.107-.552.139-1.111.197-1.646l.049-.337c.067.149.112.307.132.469.107.724.263 1.44.321 2.172a8.533 8.533 0 0 1-.107 1.572 2.365 2.365 0 0 1-.189.535c.109-.031.217-.069.32-.116a1.993 1.993 0 0 0 1.103-1.431 6.019 6.019 0 0 0 0-2.362c-.091-.551-.173-1.103-.264-1.646l-.049-.156h.132a5.33 5.33 0 0 1 .946 3.291 1.15 1.15 0 0 0 .345-.938c-.09-.617-.197-1.234-.304-1.901.419.301.717.742.839 1.243.085.525.01 1.064-.214 1.547h.057l.436-.42c0 .346-.049.626-.074.905a.245.245 0 0 1-.205.256 2.594 2.594 0 0 0-.675.345.496.496 0 0 0-.214.412.497.497 0 0 0 .214.411c.42-.428.42-.428.551-.42-.189.428-.337.823.074 1.202a.51.51 0 0 0 .667 0 3.538 3.538 0 0 1-.28-.445v-.246c.074.003.146.02.214.049.14.082.271.189.419.263a.562.562 0 0 0 .561-.029.57.57 0 0 0 .262-.497h-.066a.718.718 0 0 1-.823-.552.188.188 0 0 1 0-.115.773.773 0 0 1 1.061-.222c.011-.11.011-.22 0-.329a.605.605 0 0 0-.822-.362l-.321.107c.058-.362.099-.683.148-1.045l.601.329c.09-.51-.264-.955-.124-1.473a8.837 8.837 0 0 1 1.366 5.192c.163-.11.309-.243.436-.395a3.105 3.105 0 0 0 .156-2.765c.257.183.459.433.583.724.123.291.163.61.116.922l1.086.058c.131-.395.246-.749.362-1.119-.708-.107-1.037-.601-1.3-1.268l.148.099c.56.467 1.248.754 1.974.823.352.004.693-.125.954-.362a8.093 8.093 0 0 1-4.219-3.127c.559.066.822.576 1.316.65 0-.239-.066-.436-.091-.592l.996.082a2.734 2.734 0 0 0-.321.51.884.884 0 0 0 0 .543c.057.14.238.214.37.329.049-.082.066-.09.066-.107a.117.117 0 0 0 0-.074.53.53 0 0 1 .23-.609c.428-.345.419-.345.691.116a.518.518 0 0 1 0 .683s-.058.115-.041.131a.215.215 0 0 0 .14.058.7.7 0 0 0 .625-.716 4.064 4.064 0 0 0-.157-.543c0-.058-.049-.165 0-.181.05-.017.148-.074.198-.05a.835.835 0 0 1 .255.198c.067.078.125.164.173.255a.692.692 0 0 0 .222-.683c-.206-.461-.65-.387-1.119-.403.132-.132.197-.239.296-.288.115-.034.234-.051.354-.05-.14-.403-.395-.535-.732-.329a4.18 4.18 0 0 0-.527.477c-.057.058-.107.149-.164.157a1.81 1.81 0 0 1-.954-.189l.452-.305v.008a2.639 2.639 0 0 1-1.431-.312 2.756 2.756 0 0 1-.765-1.259c.219.09.424.212.609.362.379.325.83.556 1.316.674a.496.496 0 0 0 .584-.156 4.93 4.93 0 0 1-2.698-2.181c.159.052.311.124.452.214.732.428 1.44.906 2.196 1.276.706.351 1.521.41 2.27.164a.82.82 0 0 0 .593-.707 1.855 1.855 0 0 1-1.423-.132Z" fill="#fff"/><path d="M163.436 249.8c-1.489.65-2.85 1.56-4.022 2.688a.545.545 0 0 1-.128-.428c0-.452-.805-.589-.805-.113a7.467 7.467 0 0 1-.804 2.551 5.423 5.423 0 0 1-1.657 2.01 1.525 1.525 0 0 1-1.07.315.58.58 0 0 1-.353-.339c1.439-1.736 2.967-3.907 2.766-6.232-.08-.807-.49-2.422-1.608-2.252-.483.08-.7.508-.885.912a13.515 13.515 0 0 0-.748 2.066 14.245 14.245 0 0 0-.507 4.077c-.002.421.044.841.137 1.251a6.27 6.27 0 0 1-1.021.993 1.404 1.404 0 0 1-1.319.315.907.907 0 0 1-.555-.654c0-.162.056-.323.08-.493 0-.395-.643-.573-.804-.217a1.146 1.146 0 0 0-.105.597 4.03 4.03 0 0 1-.225.751 5.87 5.87 0 0 1-.354-2.333c0-.444-.804-.59-.804-.105a15.772 15.772 0 0 1-2.011 6.038 3.402 3.402 0 0 1-.346.541c-.209.234-.313.185-.442-.065a3.237 3.237 0 0 1-.217-1.38c-.031-.654-.018-1.31.04-1.962.088-.533.169-1.073.217-1.614v-.105c.04-.412-.804-.573-.877-.137a28.603 28.603 0 0 0-.225 1.679 23.828 23.828 0 0 1-2.581 7.483 3.73 3.73 0 0 1-.451-1.615c.462-1.299.733-2.659.804-4.036a.46.46 0 0 0 0-.105c0-.46-.756-.517-.892-.121a11.77 11.77 0 0 0-.805 4.036 13.756 13.756 0 0 1-5.3 6.765 7.016 7.016 0 0 1-3.297 1.332 2.476 2.476 0 0 1-2.582-1.478 5.28 5.28 0 0 1-.153-1.848c0-.711.056-1.421.121-2.123v-.267a25.258 25.258 0 0 0 9.112-6.457c1.649-1.841 3.579-4.198 3.708-6.781.113-2.204-1.609-4.424-4.021-4.036a7.313 7.313 0 0 0-3.346 1.897 13.943 13.943 0 0 0-2.317 2.736 26.458 26.458 0 0 0-3.217 7.572 31.037 31.037 0 0 0-.804 4.19l-.048.403c-.889.376-1.796.705-2.719.985-.362.113 0 .63.266.557.8-.195 1.59-.435 2.364-.719a17.544 17.544 0 0 0-.088 3.108 3.071 3.071 0 0 0 1.882 2.696 4.625 4.625 0 0 0 3.45 0 13.2 13.2 0 0 0 6.105-4.988 15.37 15.37 0 0 0 1.126-1.962c.174.427.425.818.74 1.155.185.201.603.322.804 0a24.586 24.586 0 0 0 2.228-5.11c.241.726.844 1.461 1.673 1.041.461-.35.815-.822 1.021-1.364a15.553 15.553 0 0 0 1.4-3.536c.127.357.283.703.466 1.034.113.201.563.363.716.104a7.1 7.1 0 0 0 .426-.904c.26.227.573.385.909.461 1.062.217 1.946-.525 2.606-1.268.217.26.525.427.86.468 1.207.178 2.228-.807 2.888-1.703a8.085 8.085 0 0 0 1.287-2.72c.101.065.209.119.321.161a.443.443 0 0 0 .475-.097 14.157 14.157 0 0 1 4.021-2.793c.419-.121-.144-.67-.506-.508Zm-33.274 12.851a28.348 28.348 0 0 1 2.542-7.112 12.895 12.895 0 0 1 4.359-5.085c.989-.614 2.228-1.13 3.266-.339a3.34 3.34 0 0 1 1.19 2.68 6.974 6.974 0 0 1-1.287 3.503 23.325 23.325 0 0 1-2.003 2.688 25.18 25.18 0 0 1-8.525 6.361c.121-.904.257-1.808.458-2.696Zm24.386-9.864c.158-.994.428-1.966.805-2.898.096-.259.321-1.098.619-1.09.297.008.515.96.555 1.259.241 1.865-.885 3.689-1.947 5.118l-.128.161a14.205 14.205 0 0 1 .096-2.55ZM123.882 271.148c-1.564 2.341-4.223 3.577-6.639 4.837l-4.435 2.293-1.176.61c-.308.162-.543.227-.681.552-.3.659-.567 1.326-.851 2a7.679 7.679 0 0 1-1.759-1.829c-.146-.211-.641-.227-.657.09-.057.772-.705 6.317-2.197 5.374a2.972 2.972 0 0 1-.811-1.147 9.818 9.818 0 0 1-.64-1.504 9.226 9.226 0 0 1-.43-2.341v-.895c0-.3-.729-.585-.746-.146-.016.439 0 .675 0 1.016a47.471 47.471 0 0 1-.446 7.431 48.387 48.387 0 0 1-.762 4.066 22.446 22.446 0 0 1-1.11 3.845c-.195.439-.495.968-1.014 1.065-.519.098-1.086-.479-1.378-.927a17.319 17.319 0 0 1-1.516-3.292 33.563 33.563 0 0 1-1.386-4.61 3.449 3.449 0 0 0 3.624-.13 5.914 5.914 0 0 0 1.897-2.96c.448-1.396.768-2.83.956-4.284a29.373 29.373 0 0 0-.154-9.31 6.506 6.506 0 0 0-1.443-3.455 3.165 3.165 0 0 0-2.967-.935c-1.305.325-1.621 1.691-2.019 2.829a33.957 33.957 0 0 0-.997 4.122 34.794 34.794 0 0 0-.462 8.61c.107 1.555.315 3.1.624 4.627.058.47.025.948-.097 1.406a1.286 1.286 0 0 1-1.103.983 1.28 1.28 0 0 1-.519-.048 1.872 1.872 0 0 1-1.183-1.073 21.294 21.294 0 0 0 0-3.521c0-.333-.697-.601-.81-.187a6.793 6.793 0 0 0-.09 3.578.491.491 0 0 1 0 .097 20.486 20.486 0 0 1-1.557 6.139 4.652 4.652 0 0 1-1.135 1.772c-.519.472-1.272.772-1.621-.065a8.965 8.965 0 0 1-.405-2.439c-.041-.415-.057-.813-.073-1.252-.017-.439 0-1.033 0-1.545s-.811-.553-.811-.081v1.545a22.204 22.204 0 0 1-4.58 12.797 36.863 36.863 0 0 1-1.622-6.667 24.536 24.536 0 0 0 3.786-11.383 21.941 21.941 0 0 0-.486-6.463.448.448 0 0 0-.39-.293c-1.467-.089-2.294 1.252-2.707 2.488a28.775 28.775 0 0 0-1.111 5.415 37.46 37.46 0 0 0 .073 10.033 22.904 22.904 0 0 1-7.443 7.162c-.283.179.106.618.365.48a21.176 21.176 0 0 0 7.297-6.504l.048.284c.384 2.139.956 4.24 1.711 6.277a.452.452 0 0 0 .746.154 22.743 22.743 0 0 0 4.848-10.203 1.67 1.67 0 0 0 1.522 1.413c.25.018.5-.02.732-.112 1.2-.48 1.792-1.732 2.254-2.854.567-1.392.98-2.843 1.232-4.325.04-.244.073-.48.105-.724.36.356.808.608 1.297.732a1.92 1.92 0 0 0 2.205-.927c.155.561.309 1.13.487 1.691a35.82 35.82 0 0 0 1.54 3.951c.47 1.009 1.062 2.301 2.246 2.61 1.184.309 1.962-.675 2.319-1.683a35.182 35.182 0 0 0 1.183-4.398 47.02 47.02 0 0 0 1.006-7.822c.373.968.956 2.244 1.962 2.578 1.005.333 1.767-.716 2.075-1.626.382-1.123.64-2.285.77-3.464a7.743 7.743 0 0 0 1.743 1.512c.162.106.471.163.568-.073l.494-1.179c.123-.41.292-.806.503-1.178a2.983 2.983 0 0 1 1.046-.618l1.078-.561 4.508-2.342c2.343-1.219 4.759-2.496 6.267-4.756.178-.317-.479-.659-.698-.333Zm-44.59 13.358c.158-.838.405-1.656.739-2.439a2.229 2.229 0 0 1 1.313-1.326 23.066 23.066 0 0 1-2.748 16.123 37.027 37.027 0 0 1 .713-12.358h-.016Zm16.49-14.724c.325-1.041.625-2.521 1.938-2.635a2.617 2.617 0 0 1 2.489 1.773c.451 1.169.725 2.4.811 3.65a28.86 28.86 0 0 1 .186 4.187 29.242 29.242 0 0 1-.486 4.602 15.425 15.425 0 0 1-1.16 4 3.307 3.307 0 0 1-2.577 2.106 1.822 1.822 0 0 1-2.068-1.48.285.285 0 0 0-.08-.162c-.057-.293-.114-.586-.155-.878a34.508 34.508 0 0 1 1.119-15.163h-.016Z" fill="#455A64"/><path d="M206.041 279.126c6.24-3.311 8.838-4.742 10.36-6.29 1.522-1.548 2.295-2.284 5.324-2.905 3.028-.621 8.623-1.44 9.212-1.912-.095-.339.494-.48.861.124.367.605 0 1.068-.359.828 0 0-.653 0-2.542 3.095-1.889 3.095-1.689 3.426-2.622 5.744-.741 1.829-1.53 2.003-3.403 2.772a41.256 41.256 0 0 0-6.933 3.724c-3.411 2.102-5.005 3.162-5.005 3.162l-4.893-8.342Z" fill="#E0E0E0"/><path opacity=".15" d="m228.056 270.161 1.247-.621c.898-.445 1.788-.889 2.646-1.422a.786.786 0 0 0-.24-.271.67.67 0 0 0-.324-.119c-.08.086-.168.163-.262.23a.268.268 0 0 0 0 .08 1.896 1.896 0 0 1-.596.258l-.262.107c-2.686 1.146-5.379 2.291-7.945 3.686-.29.175-.6.304-.922.382-.341.071-.699 0-1.04.08a.805.805 0 0 0-.47.225.973.973 0 0 0-.269.486c-.151 1.394 2.042.08 2.383-.08 1.375-.667 2.717-1.404 4.092-2.088.619-.373 1.311-.648 1.962-.933Z" fill="#000"/><path d="M221.678 270.194c-3.019.629-3.782 1.384-5.308 2.943-1.525 1.56-4.108 3.053-10.329 6.374l.326.554s6.356-3.539 7.214-4.043a13.62 13.62 0 0 0 3.806-2.918 6.377 6.377 0 0 1 3.083-2.306c1.303-.537 6.587-1.602 7.779-1.837-2.026.402-4.76.847-6.571 1.233Z" fill="#EBEBEB"/><path opacity=".15" d="m209.742 280.065 8.637-4.935-5.501 4.276-3.136.659ZM230.716 270.195a44.795 44.795 0 0 1-3.729 3.73c-1.538 1.286-3.386 1.408-5.016 1.456-1.63.049-4.314 2.087-8.528 4.296l.652 5.324 1.673-.971a44.276 44.276 0 0 1 7.273-3.641c1.965-.752 2.793-.922 3.57-2.71.978-2.265.769-2.605 2.751-5.615.415-.646.868-1.27 1.354-1.869Z" fill="#000"/><path opacity=".3" d="M225.781 277.598a5.573 5.573 0 0 0-.123.296 4.576 4.576 0 0 1-.637 1.076c-1.356.64-3.105.78-4.633 1.303a75.306 75.306 0 0 0-6.7 3.493l-.245-2.152c3.506-1.724 5.72-3.252 7.468-3.548.654-.102 1.455-.188 2.255-.344-1.152.492-2.573.624-3.415 1.506a6.133 6.133 0 0 1 1.348-.414c1.634-.327 2.819-.304 4.086-.897.209-.088.408-.195.596-.319Z" fill="#E0E0E0"/><path d="M231.917 267.888a1.059 1.059 0 0 0-.161-.16c-1.287.538-7.692 3.212-10.717 4.762-.057 0-.21-.088-.266-.104a1.099 1.099 0 0 0-.507-.08.775.775 0 0 0-.193.056c-.108.043-.211.1-.306.169a.43.43 0 0 0-.145.425.592.592 0 0 0 .177.265c.251.238.55.418.877.53.148.065.301.114.459.145.185.005.369-.039.531-.129.161-.072.37-.224.37-.409a.576.576 0 0 0-.289-.442c-.057-.04-.266-.265-.346-.225 2.88-1.462 8.907-4.016 10.548-4.698-.016-.033-.008-.065-.032-.105Z" fill="#455A64"/><path d="m207.273 275.779.548.93a4.157 4.157 0 0 0-.177 1.248 8.548 8.548 0 0 0 1.208 3.915 8.951 8.951 0 0 0 2.917 2.967c.38.212.79.371 1.217.473l.555.922 1.507-1.372c.3-.311.531-.677.678-1.077.147-.4.207-.825.176-1.248a8.544 8.544 0 0 0-1.211-3.917 8.942 8.942 0 0 0-2.922-2.965 3.263 3.263 0 0 0-2.506-.442l-1.99.566Z" fill="#3C94CB"/><path opacity=".15" d="m207.273 275.779.548.93a4.157 4.157 0 0 0-.177 1.248 8.548 8.548 0 0 0 1.208 3.915 8.951 8.951 0 0 0 2.917 2.967c.38.212.79.371 1.217.473l.555.922 1.507-1.372c.3-.311.531-.677.678-1.077.147-.4.207-.825.176-1.248a8.544 8.544 0 0 0-1.211-3.917 8.942 8.942 0 0 0-2.922-2.965 3.263 3.263 0 0 0-2.506-.442l-1.99.566Z" fill="#000"/><path d="M165.342 301.285a9.864 9.864 0 0 0 1.333 4.431 9.999 9.999 0 0 0 3.216 3.355 3.225 3.225 0 0 0 3.218.315l40.236-22.953c.817-.469 1.332-1.478 1.332-2.916a9.875 9.875 0 0 0-1.332-4.428 9.996 9.996 0 0 0-3.21-3.357 3.242 3.242 0 0 0-3.218-.315l-40.244 22.977c-.46.323-.825.761-1.059 1.269a3.122 3.122 0 0 0-.272 1.622Z" fill="#3C94CB"/><path opacity=".5" d="M165.342 301.285a9.864 9.864 0 0 0 1.333 4.431 9.999 9.999 0 0 0 3.216 3.355 3.225 3.225 0 0 0 3.218.315l40.236-22.953c.817-.469 1.332-1.478 1.332-2.916a9.875 9.875 0 0 0-1.332-4.428 9.996 9.996 0 0 0-3.21-3.357 3.242 3.242 0 0 0-3.218-.315l-40.244 22.977c-.46.323-.825.761-1.059 1.269a3.122 3.122 0 0 0-.272 1.622Z" fill="#fff"/><path d="M173.911 307.466a11.256 11.256 0 0 0-1.251-4.651 10.07 10.07 0 0 0-3.016-3.522 2.484 2.484 0 0 0-1.459-.707 2.391 2.391 0 0 0-1.559.369 2.796 2.796 0 0 0-1.07 1.307 3.156 3.156 0 0 0-.178 1.753c.081 1.637.509 3.23 1.251 4.65a10.077 10.077 0 0 0 3.015 3.522c.408.399.919.647 1.46.707a2.387 2.387 0 0 0 1.558-.369 2.79 2.79 0 0 0 1.07-1.307 3.154 3.154 0 0 0 .179-1.752Z" fill="#3C94CB"/><path d="M162.859 302.792c.097 1.738.61 3.429 1.5 4.936a11.156 11.156 0 0 0 3.619 3.737c1.408.78 2.69.873 3.613.351l3.343-1.886c.924-.53 1.497-1.652 1.497-3.241a10.89 10.89 0 0 0-1.495-4.936 11.175 11.175 0 0 0-3.615-3.738c-1.417-.779-2.691-.872-3.614-.35l-3.343 1.886c-.932.522-1.505 1.644-1.505 3.241Z" fill="#3C94CB"/><path opacity=".35" d="M162.859 302.792c.097 1.738.61 3.429 1.5 4.936a11.156 11.156 0 0 0 3.619 3.737c1.408.78 2.69.873 3.613.351l3.343-1.886c.924-.53 1.497-1.652 1.497-3.241a10.89 10.89 0 0 0-1.495-4.936 11.175 11.175 0 0 0-3.615-3.738c-1.417-.779-2.691-.872-3.614-.35l-3.343 1.886c-.932.522-1.505 1.644-1.505 3.241Z" fill="#fff"/><path d="M172.73 309.637a12.207 12.207 0 0 0-1.446-5.192 11.338 11.338 0 0 0-3.493-3.928c-1.365-.818-2.593-.916-3.482-.368-.89.549-1.45 1.727-1.45 3.405a12.212 12.212 0 0 0 1.445 5.186 11.33 11.33 0 0 0 3.487 3.925c1.357.819 2.592.917 3.481.369.89-.549 1.458-1.719 1.458-3.397Z" fill="#3C94CB"/><path d="M117.209 328.679a11.018 11.018 0 0 0 1.479 4.945 11.12 11.12 0 0 0 3.576 3.742c1.391.803 2.653.875 3.575.353l44.176-25.322c.914-.522 1.48-1.646 1.48-3.212a11.058 11.058 0 0 0-1.481-4.947 11.16 11.16 0 0 0-3.574-3.748c-1.399-.802-2.661-.875-3.575-.345l-44.176 25.315c-.914.497-1.48 1.621-1.48 3.219Z" fill="#3C94CB"/><path opacity=".35" d="M117.209 328.679a11.018 11.018 0 0 0 1.479 4.945 11.12 11.12 0 0 0 3.576 3.742c1.391.803 2.653.875 3.575.353l44.176-25.322c.914-.522 1.48-1.646 1.48-3.212a11.058 11.058 0 0 0-1.481-4.947 11.16 11.16 0 0 0-3.574-3.748c-1.399-.802-2.661-.875-3.575-.345l-44.176 25.315c-.914.497-1.48 1.621-1.48 3.219Z" fill="#fff"/><path d="M119.786 326.028a7.076 7.076 0 0 0-2.204 1.774 7.009 7.009 0 0 0-1.557 5.302 7.003 7.003 0 0 0 2.781 4.782 7.098 7.098 0 0 0 8.044.29c.903-.516 1.462-1.589 1.462-3.178a10.924 10.924 0 0 0-1.462-4.896 11.01 11.01 0 0 0-3.532-3.708c-1.382-.795-2.629-.866-3.532-.35v-.016Z" fill="#AFF17B"/><path d="M124.611 317.982v1.535l4.438 2.496 29.088-16.362a1.69 1.69 0 0 0 .705-.55c.179-.243.288-.528.315-.825v-1.527a1.452 1.452 0 0 0-.271-.725 1.503 1.503 0 0 0-.61-.491 5.163 5.163 0 0 0-4.585.087l-29.08 16.362Z" fill="#263238"/><path d="M158.128 304.164c1.313-.743 1.378-1.921.146-2.624a5.095 5.095 0 0 0-4.583.089l-29.08 16.615 4.445 2.535 29.072-16.615Z" fill="#37474F"/><path d="M129.546 325.714v-4.93l-4.935-2.472v4.937l4.935 2.465Z" fill="#455A64"/><path d="m129.547 326.948 1.234-.68v-5.489l-1.234.69v5.479Z" fill="#263238"/><path d="M114.703 334.525a2.532 2.532 0 0 0-1.113 1.548 2.7 2.7 0 0 0 .236 1.935 2.41 2.41 0 0 0 1.449 1.19 2.25 2.25 0 0 0 1.811-.253l2.09-1.291c.171-.13.307-.307.394-.511.087-.205.122-.431.101-.654a4.237 4.237 0 0 0-.493-1.777 3.924 3.924 0 0 0-1.186-1.353 1.119 1.119 0 0 0-1.191-.126l-2.081 1.292h-.017Z" fill="#455A64"/><path d="M117.975 333.308a1.327 1.327 0 0 0-.581-.186 1.394 1.394 0 0 0-.612.087l-2.082 1.021c-.353.17-.648.414-.856.709a1.773 1.773 0 0 0-.336.972c.117-.56 1.108-1.043 2.267-1.603 1.158-.56 2.166-.624 3.224.78.772 1.028.269 1.532-.059 1.73l.235-.113c.172-.103.308-.243.395-.404a.873.873 0 0 0 .101-.518 2.837 2.837 0 0 0-.501-1.407 3.493 3.493 0 0 0-1.195-1.068ZM35.876 314.98c-6.525-3.783-17.107-3.783-23.632 0-3.226 1.887-4.88 4.366-4.839 6.845v2.827c0 2.487 1.613 4.966 4.84 6.861 6.524 3.783 17.106 3.783 23.63 0 3.267-1.895 4.888-4.374 4.84-6.861v-2.843c.04-2.431-1.573-4.942-4.84-6.829Z" fill="#37474F"/><path opacity=".2" d="M35.876 314.98c-6.525-3.783-17.107-3.783-23.632 0-3.226 1.887-4.88 4.366-4.839 6.845v2.827c0 2.487 1.613 4.966 4.84 6.861 6.524 3.783 17.106 3.783 23.63 0 3.267-1.895 4.888-4.374 4.84-6.861v-2.843c.04-2.431-1.573-4.942-4.84-6.829Z" fill="#000"/><path opacity=".2" d="M16.04 313.377c-1.38.416-2.708.995-3.959 1.724-3.117 1.86-4.715 4.303-4.676 6.745v2.786c0 2.451 1.559 4.893 4.676 6.761a18.408 18.408 0 0 0 3.96 1.724v-19.74Z" fill="#000"/><path d="M12.282 315.034c6.504-3.855 17.052-3.855 23.556 0 6.504 3.854 6.504 10.103 0 13.958-6.504 3.855-17.052 3.855-23.556 0-6.504-3.855-6.504-10.104 0-13.958Z" fill="#37474F"/><path opacity=".4" d="M12.282 315.034c6.504-3.855 17.052-3.855 23.556 0 6.504 3.854 6.504 10.103 0 13.958-6.504 3.855-17.052 3.855-23.556 0-6.504-3.855-6.504-10.104 0-13.958Z" fill="#000"/><path d="M24.067 308.441c-15.849 0-17.897 6.876-17.897 10.419s2.136 6.497 6.553 9.072a22.938 22.938 0 0 0 11.344 2.711 22.937 22.937 0 0 0 11.33-2.719c4.416-2.575 6.552-5.521 6.552-9.072 0-3.551-2.048-10.411-17.881-10.411Z" fill="#37474F"/><path d="m29.822 323.377-.296.042c-1.173.164-3.336 0-4.294.971-1.597 1.598.614 2.982 2.003 3.427a9.725 9.725 0 0 0 6.977-.659 10.813 10.813 0 0 0 4.574-4.011c.423-.758 1.238-2.974.16-3.484a1.432 1.432 0 0 0-.924-.073 1.47 1.47 0 0 0-.784.509c-.527.452-1.087.859-1.677 1.219-.508.361-1.042.683-1.596.964-1.325.562-2.72.931-4.143 1.095Z" fill="#455A64"/><path opacity=".1" d="M22.31 320.781c9.446.847 16.076-2.913 18.405-6.949-2.078-2.816-6.655-5.391-16.456-5.391-16.019 0-18.09 6.876-18.09 10.419s2.16 6.497 6.624 9.071a23.382 23.382 0 0 0 11.474 2.712 23.384 23.384 0 0 0 11.45-2.72 20.693 20.693 0 0 0 2.726-1.856c-3.364 2.341-8.935 4.076-16.173 3.035-7.237-1.041-9.817-9.209.04-8.321Z" fill="#000"/><path opacity=".1" d="m16.04 318.052-.83-8.377c-7.832 1.926-9.04 6.681-9.04 9.376 0 3.487 2.054 6.38 6.3 8.908.131.08.277.143.416.222-4.685-3.107-1.808-11.611 3.154-10.129Z" fill="#000"/><path d="M33.233 303.308c-5.06-3.025-13.278-3.025-18.338 0-2.534 1.516-3.79 3.505-3.79 5.494v2.975c0 1.989 1.248 3.977 3.79 5.494 5.06 3.033 13.27 3.033 18.338 0 2.534-1.517 3.79-3.505 3.782-5.494v-2.975c.008-1.989-1.248-3.978-3.782-5.494Z" fill="#37474F"/><path opacity=".2" d="M33.233 303.308c-5.06-3.025-13.278-3.025-18.338 0-2.534 1.516-3.79 3.505-3.79 5.494v2.975c0 1.989 1.248 3.977 3.79 5.494 5.06 3.033 13.27 3.033 18.338 0 2.534-1.517 3.79-3.505 3.782-5.494v-2.975c.008-1.989-1.248-3.978-3.782-5.494Z" fill="#000"/><path opacity=".2" d="M14.68 317.076c.822.508 1.692.922 2.594 1.235v-16.039c-.911.315-1.79.729-2.624 1.236-2.37 1.478-3.545 3.416-3.545 5.354v2.9c.023 1.898 1.197 3.836 3.575 5.314Z" fill="#000"/><path d="M14.9 303.203c5.056-2.885 13.267-2.885 18.323 0 5.056 2.884 5.056 7.579 0 10.472-5.056 2.892-13.267 2.892-18.323 0-5.055-2.893-5.063-7.58 0-10.472Z" fill="#455A64"/><path d="M32.615 291.369c1.382-14.355 5.358-30.125 4.184-40.669 0-.162 0-.323-.048-.485-.047-.162 0-.227 0-.332a12.417 12.417 0 0 0-4.107-7.537 12.118 12.118 0 0 0-7.966-2.995c-2.923 0-5.75 1.063-7.965 2.995a12.418 12.418 0 0 0-4.108 7.537v.332c0 .105-.04.323-.056.485-1.166 10.519 2.81 26.314 4.184 40.669.687 7.121-1.597 13.457-1.597 16.418 0 1.432.934 2.865 2.795 3.957 3.729 2.177 9.773 2.177 13.502 0 1.869-1.092 2.795-2.525 2.795-3.957-.016-2.937-2.292-9.265-1.613-16.418Z" fill="#37474F"/><path opacity=".1" d="M13.832 307.791c0 1.433.913 2.865 2.731 3.958 2.864 1.707 7.117 2.071 10.581 1.092-5.883.89-8.279-3.617-6.281-10.334 3.902-13.005.726-20.936-2.567-35.697-1.904-8.546-3.121-15.846-1.249-20.928 1.35-3.698 4.807-6.523 8.31-6.321a11.524 11.524 0 0 0-4.757.079 11.72 11.72 0 0 0-4.35 2 12.204 12.204 0 0 0-3.25 3.605 12.664 12.664 0 0 0-1.633 4.635v.332c0 .105-.04.323-.055.485-1.14 10.521 2.747 26.318 4.089 40.674.655 7.122-1.569 13.458-1.569 16.42Z" fill="#000"/><path opacity=".1" d="M11.38 250.365v.337c0 .106-.041.328-.058.492-1.197 10.663 2.887 26.674 4.298 41.225.705 7.219-1.64 13.641-1.64 16.643 0 1.452.959 2.904 2.87 4.011l.598.304c-2.312-2.969-.96-6.316 1.534-14.699 2.493-8.383-1.698-23.918-4.65-34.45-2.952-10.532-1.312-18.366 2.518-22.41a12.557 12.557 0 0 0-5.47 8.547Z" fill="#000"/><path d="M24.974 241.947a3.862 3.862 0 0 0-1.833 1.061 4.33 4.33 0 0 0-.595 4.355c.533 1.444 1.84 2.403 2.985 3.371l2.11 1.772a9.238 9.238 0 0 0 1.834 1.303c1.206.593 2.745.492 3.441-.819a4.209 4.209 0 0 0 .394-1.928 10.153 10.153 0 0 0-2.366-6.579c-1.353-1.608-3.813-3.121-5.97-2.536ZM31.83 255.594a1.884 1.884 0 0 0-.6.545c-.15.216-.244.457-.274.707-.113.307-.14.632-.079.949.061.317.207.618.428.88.238.198.539.333.865.388.327.055.666.028.975-.077.31-.117.584-.29.805-.506.22-.216.383-.471.474-.747.108-.272.145-.561.11-.847a1.812 1.812 0 0 0-.312-.81 1.812 1.812 0 0 0-1.082-.645 2.065 2.065 0 0 0-1.31.163Z" fill="#455A64"/><path d="M324.353 270.616c-18.326-10.431-48.056-10.431-66.366 0-9.163 5.207-13.716 12.034-13.7 18.87v7.068c0 6.828 4.537 13.64 13.7 18.871 18.326 10.43 48.056 10.43 66.366 0 9.171-5.215 13.716-12.035 13.7-18.871v-7.068c.049-6.836-4.529-13.663-13.7-18.87Z" fill="#37474F"/><path d="M291.17 315.845c25.893 0 46.883-11.876 46.883-26.526s-20.99-26.526-46.883-26.526c-25.893 0-46.883 11.876-46.883 26.526s20.99 26.526 46.883 26.526Z" fill="#455A64"/><path d="M316.492 266.32c-13.988-7.993-36.664-7.993-50.644 0-6.999 3.997-10.474 9.236-10.457 14.468v4.715c0 5.24 3.458 10.496 10.457 14.477 13.98 7.993 36.656 7.993 50.644 0 6.99-4.037 10.465-9.237 10.457-14.477v-4.715c.008-5.232-3.467-10.471-10.457-14.468Z" fill="#37474F"/><path d="M291.17 301.039c19.76 0 35.779-9.114 35.779-20.357 0-11.243-16.019-20.357-35.779-20.357-19.76 0-35.779 9.114-35.779 20.357 0 11.243 16.019 20.357 35.779 20.357Z" fill="#455A64"/><path d="M313.467 229.492c-7.849-4.469-14.565-2.69-17.186 3.678-.51 1.221-2.428 5.865-2.921 7.006a14.28 14.28 0 0 0-.955 5.418c0 9.312 6.635 20.635 14.807 25.287a14.83 14.83 0 0 0 5.252 1.9l7.557.997c6.934.95 11.862-3.886 11.862-12.839 0-11.578-8.245-25.654-18.416-31.447Z" fill="#37474F"/><path d="M307.208 237.67c-8.172-4.719-14.806-.891-14.806 8.555s6.634 20.932 14.806 25.651c8.171 4.718 14.805.89 14.805-8.548s-6.626-20.931-14.805-25.658Z" fill="#263238"/><path d="M288.243 237.909c2.924-1.604 6.941-1.396 11.394 1.107 8.93 5.039 16.208 17.273 16.208 27.357 0 5.038-1.815 8.56-4.74 10.205l-28.12 15.997c-2.925 1.66-6.958 1.428-11.427-1.091-8.93-5.03-16.167-17.281-16.167-27.357 0-5.03 1.815-8.56 4.74-10.205 1.002-.545 27.126-15.459 28.112-16.013Z" fill="#3C94CB"/><path opacity=".3" d="M288.243 237.909c2.924-1.604 6.941-1.396 11.394 1.107 8.93 5.039 16.208 17.273 16.208 27.357 0 5.038-1.815 8.56-4.74 10.205l-28.12 15.997c-2.925 1.66-6.958 1.428-11.427-1.091-8.93-5.03-16.167-17.281-16.167-27.357 0-5.03 1.815-8.56 4.74-10.205 1.002-.545 27.126-15.459 28.112-16.013Z" fill="#fff"/><path opacity=".45" d="m264.025 284.716 49.724-28.093a27.89 27.89 0 0 1 2.095 10.052c0 4.982-1.802 8.465-4.704 10.092l-27.902 15.819c-2.902 1.643-6.904 1.413-11.338-1.079a28.947 28.947 0 0 1-7.875-6.791Z" fill="#3C94CB"/><path d="M271.426 255.077c-8.857-5.03-16.035-.954-16.035 9.098 0 10.051 7.178 22.288 16.035 27.31 8.856 5.022 16.043.953 16.043-9.098s-7.179-22.289-16.043-27.31Z" fill="#263238"/><path d="M281.295 284.797c0-9.304-6.59-20.627-14.725-25.287a14.304 14.304 0 0 0-5.569-1.939c-.064 0-6.26-.702-7.595-.862-6.784-.798-11.588 3.99-11.588 12.871 0 11.579 8.2 25.655 18.314 31.448 7.701 4.413 14.291 2.729 16.995-3.439.547-1.253 2.599-5.953 3.098-7.078a14.052 14.052 0 0 0 1.07-5.714Z" fill="#37474F"/><path d="M260.341 259.103c-10.23-5.792-18.523-1.093-18.523 10.483s8.293 25.648 18.523 31.44c10.23 5.792 18.49 1.093 18.49-10.483 0-11.575-8.268-25.656-18.49-31.44Z" fill="#455A64"/><path d="M241.818 270.194A35.38 35.38 0 0 0 245.703 286a41.664 41.664 0 0 0 9.957 13.057 27.052 27.052 0 0 0 7.022 4.409 12.99 12.99 0 0 0 1.975.693l1.016.274c.341.073.691.113 1.04.17 1.394.219 2.817.175 4.194-.129a9.875 9.875 0 0 0 3.771-1.846c.26-.226.504-.484.756-.726l.374-.37.309-.419.625-.806.488-.911a16.536 16.536 0 0 0 1.577-7.996l-.147 2.039-.325 2.007c-.195.653-.341 1.314-.569 1.951l-.39.935c-.059.157-.127.31-.203.459l-.252.436-.496.878-.625.806-.309.395-.366.347c-.244.225-.48.467-.731.677a9.437 9.437 0 0 1-3.609 1.612 13.557 13.557 0 0 1-7.851-1.064 26.629 26.629 0 0 1-6.811-4.353 42.345 42.345 0 0 1-9.924-12.759 40.873 40.873 0 0 1-3.023-7.544 31.907 31.907 0 0 1-1.358-8.028ZM296.252 279.323a7.92 7.92 0 0 1 1.913-3.212 8.248 8.248 0 0 1 3.203-2.024c.427-.17.892-.228 1.349-.169.457.06.89.235 1.255.508l14.933 13.737c.303.338.508.748.594 1.188.086.44.051.894-.103 1.317a7.917 7.917 0 0 1-1.911 3.217 8.231 8.231 0 0 1-3.205 2.027 2.682 2.682 0 0 1-1.356.167 2.649 2.649 0 0 1-1.257-.523l-14.924-13.736a2.492 2.492 0 0 1-.593-1.184 2.447 2.447 0 0 1 .102-1.313Z" fill="#37474F"/><path d="M296.733 282.728a2.634 2.634 0 0 1-.584-1.226 2.678 2.678 0 0 1 .1-1.364 7.226 7.226 0 0 1 1.215-2.54l18.38 18.153a6.653 6.653 0 0 1-2.384 1.391 2.397 2.397 0 0 1-1.295.171 2.433 2.433 0 0 1-1.2-.536l-14.255-14.066.023.017Z" fill="#263238"/><path d="m359.757 322.882-38.793-33.522h-.041a3.436 3.436 0 0 0-3.287-.418 10.582 10.582 0 0 0-4.114 2.628 10.314 10.314 0 0 0-2.458 4.168c-.353 1.449-.082 2.593.649 3.269l35.968 36.549a8.875 8.875 0 0 0 2.931 1.879 9.003 9.003 0 0 0 6.864-.129 8.828 8.828 0 0 0 2.855-1.986 8.618 8.618 0 0 0 1.845-2.918 8.512 8.512 0 0 0-.298-6.722 8.695 8.695 0 0 0-2.096-2.75l-.025-.048Z" fill="#AFF17B"/><path opacity=".2" d="M359.94 323.009a4.168 4.168 0 0 1 .494 4.99 4.273 4.273 0 0 1-2.026 1.731 4.366 4.366 0 0 1-2.674.211 4.401 4.401 0 0 1-1.807-.921l-40.128-37.851a9.76 9.76 0 0 0-2.735 4.443c-.353 1.455-.082 2.602.649 3.281l35.963 36.671a8.804 8.804 0 0 0 4.066 2.23 8.986 8.986 0 0 0 5.69-.473 8.8 8.8 0 0 0 4.211-3.794 8.578 8.578 0 0 0 .977-5.534 8.656 8.656 0 0 0-2.664-4.968l-.016-.016Z" fill="#000"/><defs><filter id="a" x="61.389" y="102.104" width="14.168" height="19.104" filterUnits="userSpaceOnUse" color-interpolation-filters="sRGB"><feFlood flood-opacity="0" result="BackgroundImageFix"/><feBlend in="SourceGraphic" in2="BackgroundImageFix" result="shape"/><feGaussianBlur stdDeviation="2" result="effect1_foregroundBlur_933_1138"/></filter><filter id="b" x="68.793" y="102.104" width="12.935" height="16.637" filterUnits="userSpaceOnUse" color-interpolation-filters="sRGB"><feFlood flood-opacity="0" result="BackgroundImageFix"/><feBlend in="SourceGraphic" in2="BackgroundImageFix" result="shape"/><feGaussianBlur stdDeviation="2" result="effect1_foregroundBlur_933_1138"/></filter><filter id="c" x="74.961" y="97.17" width="10.467" height="17.87" filterUnits="userSpaceOnUse" color-interpolation-filters="sRGB"><feFlood flood-opacity="0" result="BackgroundImageFix"/><feBlend in="SourceGraphic" in2="BackgroundImageFix" result="shape"/><feGaussianBlur stdDeviation="2" result="effect1_foregroundBlur_933_1138"/></filter><filter id="d" x="77.428" y="97.17" width="12.935" height="15.402" filterUnits="userSpaceOnUse" color-interpolation-filters="sRGB"><feFlood flood-opacity="0" result="BackgroundImageFix"/><feBlend in="SourceGraphic" in2="BackgroundImageFix" result="shape"/><feGaussianBlur stdDeviation="2" result="effect1_foregroundBlur_933_1138"/></filter><filter id="e" x="82.363" y="94.702" width="11.701" height="15.402" filterUnits="userSpaceOnUse" color-interpolation-filters="sRGB"><feFlood flood-opacity="0" result="BackgroundImageFix"/><feBlend in="SourceGraphic" in2="BackgroundImageFix" result="shape"/><feGaussianBlur stdDeviation="2" result="effect1_foregroundBlur_933_1138"/></filter><filter id="f" x="87.299" y="92.234" width="11.701" height="16.637" filterUnits="userSpaceOnUse" color-interpolation-filters="sRGB"><feFlood flood-opacity="0" result="BackgroundImageFix"/><feBlend in="SourceGraphic" in2="BackgroundImageFix" result="shape"/><feGaussianBlur stdDeviation="2" result="effect1_foregroundBlur_933_1138"/></filter><filter id="g" x="92.234" y="89.767" width="11.701" height="15.402" filterUnits="userSpaceOnUse" color-interpolation-filters="sRGB"><feFlood flood-opacity="0" result="BackgroundImageFix"/><feBlend in="SourceGraphic" in2="BackgroundImageFix" result="shape"/><feGaussianBlur stdDeviation="2" result="effect1_foregroundBlur_933_1138"/></filter><filter id="h" x="95.936" y="87.3" width="12.935" height="15.402" filterUnits="userSpaceOnUse" color-interpolation-filters="sRGB"><feFlood flood-opacity="0" result="BackgroundImageFix"/><feBlend in="SourceGraphic" in2="BackgroundImageFix" result="shape"/><feGaussianBlur stdDeviation="2" result="effect1_foregroundBlur_933_1138"/></filter><filter id="i" x="100.869" y="81.131" width="10.467" height="19.104" filterUnits="userSpaceOnUse" color-interpolation-filters="sRGB"><feFlood flood-opacity="0" result="BackgroundImageFix"/><feBlend in="SourceGraphic" in2="BackgroundImageFix" result="shape"/><feGaussianBlur stdDeviation="2" result="effect1_foregroundBlur_933_1138"/></filter><filter id="j" x="105.805" y="78.663" width="14.168" height="19.104" filterUnits="userSpaceOnUse" color-interpolation-filters="sRGB"><feFlood flood-opacity="0" result="BackgroundImageFix"/><feBlend in="SourceGraphic" in2="BackgroundImageFix" result="shape"/><feGaussianBlur stdDeviation="2" result="effect1_foregroundBlur_933_1138"/></filter><filter id="k" x="113.207" y="77.43" width="11.701" height="15.402" filterUnits="userSpaceOnUse" color-interpolation-filters="sRGB"><feFlood flood-opacity="0" result="BackgroundImageFix"/><feBlend in="SourceGraphic" in2="BackgroundImageFix" result="shape"/><feGaussianBlur stdDeviation="2" result="effect1_foregroundBlur_933_1138"/></filter><filter id="l" x="118.143" y="73.728" width="11.701" height="15.402" filterUnits="userSpaceOnUse" color-interpolation-filters="sRGB"><feFlood flood-opacity="0" result="BackgroundImageFix"/><feBlend in="SourceGraphic" in2="BackgroundImageFix" result="shape"/><feGaussianBlur stdDeviation="2" result="effect1_foregroundBlur_933_1138"/></filter><filter id="m" x="123.078" y="68.793" width="10.467" height="19.104" filterUnits="userSpaceOnUse" color-interpolation-filters="sRGB"><feFlood flood-opacity="0" result="BackgroundImageFix"/><feBlend in="SourceGraphic" in2="BackgroundImageFix" result="shape"/><feGaussianBlur stdDeviation="2" result="effect1_foregroundBlur_933_1138"/></filter><filter id="n" x="125.545" y="70.026" width="12.935" height="15.402" filterUnits="userSpaceOnUse" color-interpolation-filters="sRGB"><feFlood flood-opacity="0" result="BackgroundImageFix"/><feBlend in="SourceGraphic" in2="BackgroundImageFix" result="shape"/><feGaussianBlur stdDeviation="2" result="effect1_foregroundBlur_933_1138"/></filter><filter id="o" x="130.48" y="66.325" width="11.701" height="16.637" filterUnits="userSpaceOnUse" color-interpolation-filters="sRGB"><feFlood flood-opacity="0" result="BackgroundImageFix"/><feBlend in="SourceGraphic" in2="BackgroundImageFix" result="shape"/><feGaussianBlur stdDeviation="2" result="effect1_foregroundBlur_933_1138"/></filter><filter id="p" x="135.416" y="63.857" width="12.935" height="15.402" filterUnits="userSpaceOnUse" color-interpolation-filters="sRGB"><feFlood flood-opacity="0" result="BackgroundImageFix"/><feBlend in="SourceGraphic" in2="BackgroundImageFix" result="shape"/><feGaussianBlur stdDeviation="2" result="effect1_foregroundBlur_933_1138"/></filter><filter id="q" x="139.117" y="60.156" width="11.701" height="16.637" filterUnits="userSpaceOnUse" color-interpolation-filters="sRGB"><feFlood flood-opacity="0" result="BackgroundImageFix"/><feBlend in="SourceGraphic" in2="BackgroundImageFix" result="shape"/><feGaussianBlur stdDeviation="2" result="effect1_foregroundBlur_933_1138"/></filter><filter id="r" x="142.818" y="57.69" width="10.467" height="17.87" filterUnits="userSpaceOnUse" color-interpolation-filters="sRGB"><feFlood flood-opacity="0" result="BackgroundImageFix"/><feBlend in="SourceGraphic" in2="BackgroundImageFix" result="shape"/><feGaussianBlur stdDeviation="2" result="effect1_foregroundBlur_933_1138"/></filter><filter id="s" x="146.52" y="57.69" width="12.935" height="15.402" filterUnits="userSpaceOnUse" color-interpolation-filters="sRGB"><feFlood flood-opacity="0" result="BackgroundImageFix"/><feBlend in="SourceGraphic" in2="BackgroundImageFix" result="shape"/><feGaussianBlur stdDeviation="2" result="effect1_foregroundBlur_933_1138"/></filter><filter id="t" x="151.455" y="53.987" width="12.935" height="16.637" filterUnits="userSpaceOnUse" color-interpolation-filters="sRGB"><feFlood flood-opacity="0" result="BackgroundImageFix"/><feBlend in="SourceGraphic" in2="BackgroundImageFix" result="shape"/><feGaussianBlur stdDeviation="2" result="effect1_foregroundBlur_933_1138"/></filter><filter id="u" x="160.092" y="50.286" width="12.935" height="15.402" filterUnits="userSpaceOnUse" color-interpolation-filters="sRGB"><feFlood flood-opacity="0" result="BackgroundImageFix"/><feBlend in="SourceGraphic" in2="BackgroundImageFix" result="shape"/><feGaussianBlur stdDeviation="2" result="effect1_foregroundBlur_933_1138"/></filter><filter id="v" x="165.025" y="42.884" width="11.701" height="19.104" filterUnits="userSpaceOnUse" color-interpolation-filters="sRGB"><feFlood flood-opacity="0" result="BackgroundImageFix"/><feBlend in="SourceGraphic" in2="BackgroundImageFix" result="shape"/><feGaussianBlur stdDeviation="2" result="effect1_foregroundBlur_933_1138"/></filter></defs></svg>