<svg width="469" height="321" fill="none" xmlns="http://www.w3.org/2000/svg"><path d="M69.568 288.034c91.431 43.955 239.033 43.955 330.464 0 91.431-43.955 91.421-115.113 0-159.068-91.421-43.955-239.033-43.955-330.464 0-91.431 43.955-91.421 115.122 0 159.068Z" fill="#F5F5F5"/><path d="m94.92 135-78.934 41v3l72.938 38 78.934-41v-3l-72.939-38Z" fill="#AFF17B"/><path opacity=".15" d="m15.986 176 72.938 38v3l-72.938-38v-3Z" fill="#000"/><path opacity=".1" d="m87.924 214 79.932-42v3l-79.932 42v-3Z" fill="#000"/><path d="M161.308 158.907 157.865 165l.909.415 3.443-6.094-.909-.414ZM155.741 159.514l-.874.486 2.836 4.116.874-.486-2.836-4.116Z" fill="#455A64"/><path d="M158.83 160v12.979c-.002.035.023-.029 0 0-.024.029.038-.014 0 0-.104.047.117 0 0 0-.118 0-.848.047-.952 0-.039-.013.026.029 0 0-.025-.029.003.036 0 0V160h.952Z" fill="#455A64"/><path d="M169.855 154.871c0 1.161-.229 1.97-.995 2.936-.765.965-1.712 2.491-2.985 2.935-1.273.444-2.629.227-3.98 0-1.351-.226-3.006-1.136-3.98-1.957-.975-.821-1.722-1.797-1.991-2.935-.268-1.139.468-1.863.995-2.936.528-1.073.845-2.29 1.991-2.935 1.145-.646 2.602-.979 3.98-.979 1.846.002 3.67.856 4.975 1.957 1.306 1.101 1.988 2.358 1.99 3.914Z" fill="#AFF17B"/><path opacity=".2" d="M164.927 152.925c.856-2.387 1.551-2.646.977-2.94-1.096-.553-2.649-1.038-3.907-.98-1.258.057-1.903.33-2.929.98-1.027.649-2.457 1.902-2.93 2.94-.473 1.037-.229 1.839 0 2.94.228 1.1 1.095 2.12 1.953 2.939.858.82 1.71 1.68 2.93 1.96 1.219.281 2.708.346 3.906 0 1.198-.345 2.129-1.096 2.93-1.96-1.994.511-4.039-2.784-2.93-5.879Z" fill="#000"/><path d="M157.865 156.914c0 .774-.441 1.313-.978 1.957-.537.644-1.062 1.661-1.955 1.957-.894.296-1.985.151-2.933 0-.949-.151-2.25-.431-2.934-.978-.683-.548-.789-1.198-.977-1.957-.189-.76-.37-2.221 0-2.936.37-.715 1.151-.548 1.955-.978.804-.431 1.966-.979 2.933-.979 1.297 0 2.994.244 3.911.979.917.734.978 1.897.978 2.935Z" fill="#AFF17B"/><path opacity=".2" d="M151.87 153c-.9 0-2.271.505-2.998 1-.116 2.435 2.626 4.197 1.999 5-.628.803-2.451.686-2.998 0 .378.607 1.346.65 1.998 1 .653.35 1.247 1.001 1.999 1 .752-.001 1.347-.648 1.998-1s.624-.392.999-1 1-1.298.999-2c-.001-.702-.622-1.393-.999-2s-.347-.65-.999-1-1.246-1.001-1.998-1Z" fill="#000"/><path d="M157.865 160c4.967 0 8.993-3.582 8.993-8s-4.026-8-8.993-8c-4.966 0-8.992 3.582-8.992 8s4.026 8 8.992 8Z" fill="#AFF17B"/><path opacity=".1" d="M166.858 153.851c-.343 1.276-.996 1.969-1.997 2.95-1.001.981-2.576 2.501-3.994 2.95-1.418.448-2.5.192-3.994 0-1.493-.192-2.785-1.181-3.993-1.967-1.208-.786-2.364-1.759-2.996-2.95-.631-1.191-1.096-2.626-.998-3.934.098-1.308.195-1.84.998-2.95.803-1.11 2.68-2.306 3.994-2.95-.767.393-1.391.416-1.997.983-.451 1.686-.821 4.324 0 5.901.821 1.576 2.239 2.131 3.994 2.95 1.755.818 4.024 1.26 5.991.983 1.966-.276 3.624-.709 4.992-1.966Z" fill="#000"/><path d="M29.419 162.907 25.977 169l.909.415 3.442-6.094-.909-.414ZM22.854 163.514l-.873.486 2.836 4.116.873-.486-2.836-4.116Z" fill="#455A64"/><path d="M26.964 162v12.981c-.005.036.025-.029 0 0-.026.029.039-.014 0 0-.106.043-.835 0-.952 0-.117 0 .105.043 0 0-.038-.015.023.029 0 0-.024-.029.002.035 0 0V162h.952Z" fill="#455A64"/><path d="M36.969 157.871c0 1.161-.23 1.97-.995 2.936-.766.965-1.713 2.491-2.986 2.935-1.272.444-2.629.227-3.98 0-1.351-.226-3.006-1.136-3.98-1.957-.974-.821-1.722-1.797-1.99-2.935-.27-1.139.468-1.863.995-2.936.527-1.073.844-2.29 1.99-2.935 1.145-.646 2.602-.979 3.98-.979 1.848 0 3.67.856 4.975 1.957 1.307 1.101 1.99 2.357 1.99 3.914Z" fill="#AFF17B"/><path opacity=".2" d="M31.974 155.935c.876-2.396 1.586-2.665.999-2.951-1.014-.509-1.826-.987-2.996-.984-1.14 0-1.997.505-2.996.984-1 .479-2.385 1.128-2.996 1.967-.61.84-.927 1.959-.998 2.952-.072.993.513 2.051.998 2.951.486.9 1.075 1.384 1.997 1.968.923.584 1.865.86 2.996.984 1.132.124 1.937.367 2.996 0 1.06-.367 2.27-1.201 2.996-1.968-2.01.512-4.14-2.795-2.996-5.903Z" fill="#AFF17B"/><path d="M24.87 159.958c0 .766-.436 1.299-.967 1.936-.532.637-1.051 1.643-1.934 1.936-.884.293-1.964.149-2.902 0-.938-.149-2.225-.427-2.901-.968-.676-.541-.78-1.185-.967-1.936-.187-.751-.366-2.196 0-2.904.366-.707 1.139-.542 1.934-.968.795-.425 1.945-.967 2.901-.967.636-.002 1.347-.195 1.934 0 .588.194 1.485.608 1.935.967.449.36.724.498.967.968.242.471.001 1.427 0 1.936Z" fill="#AFF17B"/><path opacity=".2" d="M18.983 156c-.899-.003-2.27.508-2.998 1-.116 2.444 2.617 4.205 1.999 5-.619.795-2.46.678-2.998 0 .378.607 1.346.65 1.999 1 .652.35 1.246 1.001 1.998 1 .752-.001 1.348-.648 1.998-1 .65-.352.624-.392 1-1 .374-.608 1-1.298.999-2-.002-.702-.623-1.393-1-2-.376-.607-.347-.65-.999-1s-1.246-1.001-1.998-1Z" fill="#AFF17B"/><path d="M24.979 164c4.966 0 8.992-3.582 8.992-8s-4.026-8-8.992-8c-4.967 0-8.993 3.582-8.993 8s4.026 8 8.993 8Z" fill="#AFF17B"/><path opacity=".1" d="M33.971 157.851c-.348 1.275-.99 1.972-1.997 2.95-1.006.978-2.571 2.505-3.994 2.951-1.422.445-2.497.193-3.993 0-1.496-.194-2.784-1.181-3.994-1.967-1.21-.787-2.363-1.761-2.995-2.951-.632-1.19-1.096-2.626-.999-3.933.098-1.307.195-1.841.999-2.951.803-1.109 2.677-2.305 3.993-2.95-.786.393-2.368.415-2.995.983-.45 1.686.174 4.325.999 5.901.824 1.576 2.233 2.131 3.993 2.95 1.76.819 4.018 1.258 5.99.984 1.974-.275 3.618-.712 4.993-1.967Z" fill="#AFF17B"/><path d="m112.904 191 10.991-6 9.992 5-10.991 6-9.992-5ZM35.969 176v-31l52.955 27v31l-52.955-27Z" fill="#F0F0F0"/><path d="m35.969 157 52.955 28v-12l-52.955-28v12Z" fill="#E0E0E0"/><path d="M147.873 172v-29l-19.983-5v-3l-39.966 37v31l59.949-31Z" fill="#FAFAFA"/><path d="M127.891 135v3l23.979 5v-3l-23.979-5Z" fill="#263238"/><path d="m98.916 113 52.955 28-22.98-5-52.955-28 22.98 5Z" fill="#37474F"/><path d="m83.927 177 42.964-43v-3L80.93 179l2.997-2Z" fill="#37474F"/><path d="m76.933 104 52.955 28-46.96 48-52.955-28 46.96-48Z" fill="#455A64"/><path d="m58.95 149 6.993 3v9l-6.994-3v-9Z" fill="#263238"/><path d="m65.943 152 6.994-3v5l-6.994 7v-9Z" fill="#37474F"/><path d="m65.942 143-7.993 4v1l7.993 4 6.995-4v-1l-6.995-4Z" fill="#F5F5F5"/><path d="m57.95 149 6.993 3v-2l-6.994-3v2Z" fill="#E0E0E0"/><path d="m72.937 149-6.994 3v-2l6.994-3v2Z" fill="#EBEBEB"/><path d="m60.947 147 4.996-3 4.996 3-4.996 2-4.996-2Z" fill="#3C94CB"/><path d="M66.942 144v5l-5.995-2 5.995-3Z" fill="#37474F"/><path d="m65.943 144 5.995 3-5.995 2v-5Z" fill="#263238"/><path d="m91.922 181 14.987-8v11l-14.987 8v-11Z" fill="#455A64"/><path d="M105.91 183v-10l-13.988 7v10l13.988-7Z" fill="#E0E0E0"/><path d="M106.909 182h-.999l-13.988 7v1l14.987-8Z" fill="#37474F"/><path d="m91.922 185 14.987-7v-1l-14.987 7v1ZM129.889 161l14.987-8v11l-14.987 8v-11Z" fill="#455A64"/><path d="M143.877 165v-10l-13.988 7v10l13.988-7Z" fill="#E0E0E0"/><path d="M144.876 164h-.999l-13.988 7v1l14.987-8Z" fill="#37474F"/><path d="m129.889 167 14.987-7v-1l-14.987 7v1Z" fill="#455A64"/><path d="M112.904 191v-21l10.991-6v21l-10.991 6Z" fill="#37474F"/><path d="M123.895 184v-20l-10.991 5v20l10.991-5Z" fill="#455A64"/><path d="M124.895 164h-1v20h1v-20Z" fill="#263238"/><path d="m75.936 176-6.995-4v11l6.995 4v-11Z" fill="#455A64"/><path d="M68.941 182v-9l6.995 4v9l-6.995-4Z" fill="#FAFAFA"/><path d="M68.941 182h1l5.995 3v1l-6.995-4Z" fill="#37474F"/><path d="m75.936 181-6.995-3v-1l6.995 3v1Z" fill="#455A64"/><path d="m68.941 173 6.995 3v2l-6.995-3v-2Z" fill="#F5F5F5"/><path d="m51.955 165-6.994-4v11l6.994 4v-11Z" fill="#455A64"/><path d="M46.959 170v-9l6.994 4v9l-6.994-4Z" fill="#FAFAFA"/><path d="M44.96 170h1l5.995 3v1l-6.994-4Z" fill="#37474F"/><path d="m51.955 169-6.994-3v-1l6.994 3v1Z" fill="#455A64"/><path d="m46.959 161 6.994 3v2l-6.994-3v-2Z" fill="#F5F5F5"/><path d="m367.687 132-78.933 41v3l78.933 41 79.932-41v-3l-79.932-41Z" fill="#AFF17B"/><path opacity=".15" d="m288.754 173 79.932 41v3l-79.932-41v-3Z" fill="#000"/><path opacity=".1" d="m367.686 214 79.932-41v3l-79.932 41v-3Z" fill="#000"/><path d="M441.086 159.916 437.627 166l.91.412 3.459-6.084-.91-.412ZM435.502 158.514l-.873.486 2.862 4.098.873-.486-2.862-4.098Z" fill="#455A64"/><path d="M438.591 160v12.979c-.002.035.024-.029 0 0-.023.029.038-.014 0 0-.103.047.118 0 0 0-.117 0-.847.047-.951 0-.039-.014.025.029 0 0s.004.036 0 0V160h.951Z" fill="#455A64"/><path d="M449.617 154.871c0 1.161-.23 1.97-.995 2.936-.765.965-1.712 2.491-2.985 2.935-1.273.444-2.629.227-3.98 0-1.352-.226-3.007-1.136-3.981-1.957-.974-.821-1.721-1.797-1.99-2.935-.269-1.139.468-1.863.995-2.936.527-1.073.845-2.29 1.99-2.935 1.146-.646 2.603-.979 3.981-.979 1.847 0 3.669.856 4.975 1.957 1.306 1.101 1.99 2.357 1.99 3.914Z" fill="#AFF17B"/><path opacity=".2" d="M444.689 152.925c.856-2.387 1.56-2.646.977-2.94-1.096-.552-2.65-1.039-3.907-.98-1.257.058-1.905.33-2.93.98-1.025.65-2.458 1.902-2.93 2.94-.471 1.038-.229 1.839 0 2.94.23 1.1 1.095 2.121 1.954 2.94.859.818 1.71 1.68 2.929 1.959 1.22.28 2.71.347 3.907 0 1.197-.346 2.129-1.095 2.93-1.959-1.965.51-4.029-2.811-2.93-5.88Z" fill="#000"/><path d="M437.626 156.914c0 .774-.44 1.313-.977 1.957-.538.644-1.063 1.661-1.956 1.957-.893.296-1.985.151-2.933 0-.948-.151-2.249-.431-2.933-.978-.683-.548-.789-1.198-.977-1.957-.189-.76-.37-2.221 0-2.936.369-.715 1.151-.548 1.955-.978.804-.431 1.966-.979 2.933-.979 1.296 0 2.994.244 3.911.979.916.734.977 1.897.977 2.935Z" fill="#AFF17B"/><path opacity=".2" d="M431.631 153c-.899.001-2.27.506-2.997 1-.117 2.435 2.617 4.197 1.998 5-.619.803-2.459.686-2.997 0 .377.607 1.346.65 1.998 1 .652.35 1.246 1.001 1.998 1 .752-.001 1.348-.648 1.999-1 .65-.352.624-.392.999-1s1-1.298.999-2c-.001-.702-.622-1.393-.999-2s-.348-.65-.999-1c-.652-.35-1.247-1.001-1.999-1Z" fill="#000"/><path d="M437.627 160c4.966 0 8.993-3.582 8.993-8s-4.027-8-8.993-8-8.992 3.582-8.992 8 4.026 8 8.992 8Z" fill="#AFF17B"/><path opacity=".1" d="M446.62 153.851c-.353 1.273-.989 1.976-1.997 2.951-1.009.975-2.572 2.507-3.994 2.95-1.422.443-2.499.195-3.994 0-1.494-.195-2.786-1.18-3.994-1.967-1.208-.786-2.364-1.761-2.995-2.95-.631-1.189-1.095-2.628-.998-3.934.096-1.306.196-1.841.998-2.951.802-1.109 2.68-2.304 3.994-2.95-.793.387-2.37.41-2.996.983-.452 1.687.175 4.323.999 5.901.824 1.578 2.232 2.132 3.994 2.951 1.761.819 4.016 1.26 5.99.983 1.974-.277 3.619-.708 4.993-1.967Z" fill="#000"/><path d="M302.203 159.916 298.744 166l.91.412 3.459-6.084-.91-.412ZM296.621 158.514l-.873.486 2.862 4.098.873-.486-2.862-4.098Z" fill="#455A64"/><path d="M299.731 159v12.981c-.005.036.025-.029 0 0s.039-.015 0 0c-.105.043-.835 0-.952 0-.117 0 .106.043 0 0-.036-.017.023.029 0 0s.005.034 0 0V159h.952Z" fill="#455A64"/><path d="M309.736 154.871c0 1.161-.229 1.97-.995 2.936-.765.965-1.712 2.491-2.985 2.935-1.273.444-2.629.227-3.98 0-1.352-.226-3.006-1.136-3.981-1.957-.974-.821-1.721-1.797-1.99-2.935-.269-1.139.468-1.863.995-2.936.528-1.073.845-2.29 1.99-2.935 1.146-.646 2.603-.979 3.981-.979 1.846.002 3.669.856 4.975 1.957 1.306 1.101 1.987 2.358 1.99 3.914Z" fill="#AFF17B"/><path opacity=".2" d="M304.808 152.925c.857-2.387 1.551-2.646.977-2.94-1.096-.552-2.649-1.038-3.907-.98-1.258.058-1.904.33-2.93.98-1.026.649-2.457 1.902-2.929 2.94-.473 1.037-.229 1.839 0 2.94.228 1.1 1.095 2.121 1.953 2.94.858.819 1.711 1.678 2.93 1.96 1.219.281 2.708.344 3.906 0 1.198-.345 2.127-1.098 2.93-1.96-1.956.501-4.04-2.785-2.93-5.88Z" fill="#000"/><path d="M297.745 155.914c.002.774-.441 1.312-.977 1.957s-1.063 1.659-1.956 1.957c-.893.297-1.984.15-2.933 0-.948-.15-2.248-.432-2.933-.979-.684-.547-.788-1.197-.977-1.957-.19-.759-.37-2.219 0-2.935.369-.716 1.151-.548 1.955-.979.804-.43 1.966-.978 2.933-.978 1.295 0 2.994.246 3.911.978.916.733.975 1.899.977 2.936Z" fill="#AFF17B"/><path opacity=".2" d="M291.751 152c-.899-.003-2.271.508-2.998 1-.117 2.444 2.626 4.197 1.998 5-.627.803-2.459.678-2.997 0 .378.607 1.346.65 1.998 1 .652.35 1.246 1.001 1.999 1 .752-.001 1.347-.648 1.998-1 .65-.352.624-.392.999-1s1-1.298.999-2c-.001-.702-.622-1.393-.999-2s-.347-.65-.999-1-1.246-1.001-1.998-1Z" fill="#000"/><path d="M297.746 160c4.967 0 8.993-3.582 8.993-8s-4.026-8-8.993-8c-4.966 0-8.992 3.582-8.992 8s4.026 8 8.992 8Z" fill="#AFF17B"/><path opacity=".1" d="M306.739 153.851c-.346 1.275-.992 1.97-1.997 2.95-1.005.979-2.571 2.503-3.994 2.95-1.422.447-2.497.193-3.994 0-1.496-.193-2.783-1.18-3.993-1.967-1.211-.786-2.363-1.759-2.996-2.95-.632-1.19-1.096-2.626-.998-3.934.098-1.307.194-1.84.998-2.95.805-1.109 2.676-2.306 3.994-2.95-.788.389-1.373.413-1.997.983-.443 1.684-.825 4.329 0 5.901.826 1.572 2.237 2.133 3.994 2.95 1.757.817 4.021 1.256 5.991.983 1.969-.272 3.616-.716 4.992-1.966Z" fill="#000"/><path d="m383.672 115 6.994 4v7l-6.994-4v-7Z" fill="#E0E0E0"/><path d="m389.668 118 6.994-3v13l-6.994-3v-7Z" fill="#F0F0F0"/><path d="m390.666 108-6.994 4v1l6.994 4 7.993-4v-1l-7.993-4Z" fill="#455A64"/><path d="m383.672 114 6.994 3v-2l-6.994-3v2Z" fill="#37474F"/><path d="m396.662 114-6.994 3v-2l6.994-3v2Z" fill="#263238"/><path d="m385.672 111 4.996-2 4.995 2-4.995 3-4.996-3Z" fill="#3C94CB"/><path d="M391.667 109v5l-5.995-3 5.995-2Z" fill="#37474F"/><path d="m389.668 109 5.995 2-5.995 3v-5Z" fill="#263238"/><path d="M367.686 183v-31l18.983 10v31l-18.983-10Z" fill="#F0F0F0"/><path d="m367.686 152 18.983 10v13l-18.983-10v-13Z" fill="#E0E0E0"/><path d="M428.634 173v-31l-19.983-10-19.983 30v31l39.966-20Z" fill="#FAFAFA"/><path d="m384.671 167 22.981-36v-3l-25.978 41 2.997-2Z" fill="#37474F"/><path d="m367.686 108 39.966 20-26.977 41-12.989-7v-54Z" fill="#455A64"/><path d="m407.652 131 22.981 12 2.997-2-25.978-13v3Z" fill="#263238"/><path d="m416.645 159 6.994-4v11l-6.994 4v-11Z" fill="#455A64"/><path d="M423.639 165v-9l-6.994 4v9l6.994-4Z" fill="#E0E0E0"/><path d="M423.639 165h-1l-5.994 3v1l6.994-4Z" fill="#37474F"/><path d="m416.645 163 6.994-3v-1l-6.994 3v1ZM391.666 172l6.994-4v11l-6.994 4v-11Z" fill="#455A64"/><path d="M398.66 177v-9l-6.994 4v9l6.994-4Z" fill="#E0E0E0"/><path d="M398.66 177h-.999l-5.995 3v1l6.994-4Z" fill="#37474F"/><path d="m391.666 176 6.994-3v-1l-6.994 3v1ZM402.656 148l9.992-5v8l-9.992 5v-8Z" fill="#455A64"/><path d="M412.648 150v-7l-9.992 5v7l9.992-5Z" fill="#E0E0E0"/><path d="M412.648 149h-.999l-8.993 4v1l9.992-5Z" fill="#37474F"/><path d="M430.632 144h-2.997v-1l2.997 1Z" fill="#000"/><path d="M402.656 187v-21l10.991-6v21l-10.991 6Z" fill="#37474F"/><path d="M413.647 180v-20l-10.991 5v20l10.991-5Z" fill="#455A64"/><path d="M413.648 160h-1v20h1v-20Z" fill="#263238"/><path d="M367.687 183v-31l-18.984 10v31l18.984-10Z" fill="#FAFAFA"/><path d="m367.687 152-18.984 10v13l18.984-10v-13Z" fill="#F5F5F5"/><path d="M308.736 173v-31l19.983-10 19.983 30v31l-39.966-20Z" fill="#EBEBEB"/><path d="m350.701 167-22.98-36v-3l25.978 41-2.998-2Z" fill="#455A64"/><path d="m367.687 108-39.966 20 26.977 41 12.989-7v-54Z" fill="#37474F"/><path d="m328.718 131-22.98 12-2.998-2 25.978-13v3Z" fill="#263238"/><path d="m322.725 160-6.995-4v11l6.995 4v-11Z" fill="#455A64"/><path d="M316.729 165v-9l6.994 4v9l-6.994-4Z" fill="#FAFAFA"/><path d="m316.729 156 6.994 4v1l-6.994-4v-1ZM334.715 166l6.994 4v1l-6.994-4v-1Z" fill="#F5F5F5"/><path d="M315.73 165h1l5.995 3v1l-6.995-4Z" fill="#37474F"/><path d="m322.725 164-6.995-3v-1l6.995 3v1ZM333.714 148l-9.991-5v8l9.991 5v-8Z" fill="#455A64"/><path d="M324.723 150v-7l9.991 5v7l-9.991-5Z" fill="#FAFAFA"/><path d="m324.723 143 9.991 6v1l-9.991-5v-2Z" fill="#F5F5F5"/><path d="M323.723 149h.999l8.992 4v1l-9.991-5Z" fill="#37474F"/><path d="M305.738 144h2.998v-1l-2.998 1Z" fill="#000"/><path d="m340.709 169-6.994-4v11l6.994 4v-11Z" fill="#455A64"/><path d="M334.715 175v-9l6.994 4v9l-6.994-4Z" fill="#FAFAFA"/><path d="M333.715 176h.999l5.995 3v1l-6.994-4Z" fill="#37474F"/><path d="m340.709 173-6.994-3v-1l6.994 3v1Z" fill="#455A64"/><path d="m334.715 166 6.994 4v1l-6.994-4v-1Z" fill="#F5F5F5"/><path d="m380.675 169-9.991-5v10l9.991 5v-10Z" fill="#263238"/><path d="M371.684 173v-8l9.991 5v8l-9.991-5Z" fill="#FAFAFA"/><path d="M371.684 165v2l9.991 5v-2l-9.991-5Z" fill="#F0F0F0"/><path d="M370.684 173h.999l8.992 4v1l-9.991-5ZM370.684 169h.999l8.992 4v1l-9.991-5Z" fill="#37474F"/><path d="M376.678 175h1v-9h-1v9Z" fill="#37474F"/><path d="m361.472 188 1.895-.995c.498-2.376.353-4.57 0-6.964-.908-4.665-5.211-6.434-6.632-5.969-1.421.465-1.633 2.278.947 4.974 2.333 2.729 3.904 5.637 3.79 8.954Z" fill="#AFF17B"/><path opacity=".2" d="m361.472 188 1.895-.995c.498-2.376.353-4.57 0-6.964-.908-4.665-5.211-6.434-6.632-5.969-1.421.465-1.633 2.278.947 4.974 2.333 2.729 3.904 5.637 3.79 8.954Z" fill="#000"/><path d="M361.571 185.996c-.016-.002.014.006 0 0-.014-.007.01.011 0 0 .004.014-.01-.012 0 0-.003.014-.004-.015 0 0 .674-4.599-1.675-9.95-3.868-11.987-.021-.02 0 .029 0 0 0-.028-.021.02 0 0s-.03 0 0 0-.021-.02 0 0c2.23 2.064 4.542 7.308 3.868 11.987.008-.013-.002.014 0 0 .012-.009-.008.012 0 0 .015-.004-.012.008 0 0 .015.002-.015.003 0 0Z" fill="#fff"/><path d="M356.702 190.897c-.315.142-.735.133-.983 0-.414-.223-.762-.632-.983-.987-.249-.399-.088-1.534 0-1.973.049-.233-.085.225 0 0 .091-.23-.078-.767 0-.987.103-.217.021-.757 0-.987-.076-.222.182.18 0 0-.181-.181-.725-.877-.982-.987-.29-.132-.799.219-.983 0-.184-.219.039-.727 0-.987.037-.429.618-.667.983-.987.337-.335.679-.634.982-.987.208-.19-.02-.737 0-.987.021-.25.176-.778 0-.987-.284-.342-.773-.613-.982-.987-.103-.188-.042.201 0 0s-.173-.834 0-.987c.17-.1.776.041.982 0 .207-.041.772-.025.983 0 .4.036.642-.167.983 0 1.126.485 1.766 1.603 2.948 1.974.468.117.499.922.983.987.244.034.779-.11.983 0 .204.109-.128-.166 0 0 .439.679-.304 1.251 0 1.974.304.723 1.527 1.392 1.966 1.974.188.249.05.699 0 .987-.04.49.258.538 0 .987-.295.44-.618.581-.983.987l-5.897 2.96Z" fill="#AFF17B"/><path opacity=".1" d="M356.702 190.897c-.315.142-.735.133-.983 0-.414-.223-.762-.632-.983-.987-.249-.399-.088-1.534 0-1.973.049-.233-.085.225 0 0 .091-.23-.078-.767 0-.987.103-.217.021-.757 0-.987-.076-.222.182.18 0 0-.181-.181-.725-.877-.982-.987-.29-.132-.799.219-.983 0-.184-.219.039-.727 0-.987.037-.429.618-.667.983-.987.337-.335.679-.634.982-.987.208-.19-.02-.737 0-.987.021-.25.176-.778 0-.987-.284-.342-.773-.613-.982-.987-.103-.188-.042.201 0 0s-.173-.834 0-.987c.17-.1.776.041.982 0 .207-.041.772-.025.983 0 .4.036.642-.167.983 0 1.126.485 1.766 1.603 2.948 1.974.468.117.499.922.983.987.244.034.779-.11.983 0 .204.109-.128-.166 0 0 .439.679-.304 1.251 0 1.974.304.723 1.527 1.392 1.966 1.974.188.249.05.699 0 .987-.04.49.258.538 0 .987-.295.44-.618.581-.983.987l-5.897 2.96Z" fill="#AFF17B"/><path d="M359.68 188.991c-.031-.003.021.02 0 0-.021-.019.002.027 0 0 .205-4.003-2.342-8.704-3.98-9.987-.011-.009.007.012 0 0-.006-.012 0 .013 0 0s-.006.012 0 0-.011.01 0 0-.014.005 0 0c.015-.006-.016 0 0 0s-.015-.005 0 0-.011-.009 0 0c1.667 1.307 4.185 5.927 3.98 9.987.024-.018-.002.027 0 0 .032 0-.023.018 0 0ZM357.683 184.988c-1.205-.374-2.728-.9-3.975-.975-.017 0 .016.008 0 0s.012.014 0 0c-.012-.015.006.018 0 0-.005-.019-.001.019 0 0 .003-.039-.025.026 0 0 .025-.027-.034 0 0 0 1.269.075 2.751.586 3.975.975-.012-.012.016.005 0 0-.007-.017.013.012 0 0-.001-.019.008.016 0 0 .005-.018.002.018 0 0 .029-.018-.011.034 0 0 .032.008-.028.017 0 0Z" fill="#fff"/><path d="m402.656 186 10.991-6 9.991 5-10.99 6-9.992-5Z" fill="#F0F0F0"/><path d="m223.809 201-95.918 50v3l99.915 52 95.919-50v-3l-99.916-52Z" fill="#AFF17B"/><path d="m268.771 268 10.991 6 17.985-9-10.991-6-17.985 9Z" fill="#F0F0F0"/><path opacity=".15" d="m127.891 250 98.916 52v4l-98.916-52v-4Z" fill="#000"/><path opacity=".1" d="m227.807 302 96.918-49v4l-96.918 49v-4Z" fill="#000"/><path d="M312.671 237.036 308.736 244l.91.415 3.934-6.964-.909-.415Z" fill="#263238"/><path d="m305.614 235.514-.874.486 4.539 6.586.873-.486-4.538-6.586Z" fill="#263238"/><path d="M309.724 234v18.97c-.005.052.024-.042 0 0-.025.043.038-.021 0 0-.105.067-.835 0-.952 0-.118 0 .104.067 0 0-.038-.021.023.043 0 0-.024-.042.003.052 0 0V234h.952Z" fill="#263238"/><path d="M315.732 237c5.242 0 8.992-3.306 8.992-8s-3.75-9-8.992-9c-5.242 0-9.992 4.306-9.992 9s4.75 8 9.992 8Z" fill="#455A64"/><path d="M318.75 225.891c1.226-3.387 1.832-4.488.994-4.898-1.58-.781-3.156-1.061-4.969-.979-1.814.082-3.491 1.039-4.97 1.959-1.479.92-2.301 1.469-2.982 2.939-.681 1.469-1.324 3.339-.994 4.898.33 1.558 1.744 2.758 2.982 3.918 1.238 1.16 2.218 2.541 3.976 2.939 1.758.397 4.236.489 5.963 0 1.727-.49 2.82-1.716 3.976-2.939-2.819.713-5.569-3.451-3.976-7.837Z" fill="#37474F"/><path d="M301.744 237c3.863 0 6.994-2.686 6.994-6s-3.131-6-6.994-6-6.994 2.686-6.994 6 3.131 6 6.994 6Z" fill="#455A64"/><path d="M300.745 225c-1.352-.002-2.901.261-3.997 1-.166 3.659 2.93 7.793 1.999 9-.932 1.207-3.202.015-3.997-1 .569.908 1.019 1.478 1.998 2 .98.522 2.869 1.004 3.997 1 1.128-.004 2.022-.472 2.997-1 .975-.529 1.437-1.088 1.999-2 .561-.912 1-1.948.999-3-.002-1.052-.435-2.09-.999-3-.565-.91-1.022-1.474-1.999-2-.976-.526-1.869-.999-2.997-1Z" fill="#37474F"/><path d="M322.236 226.576c1.614-6.143-2.187-11.695-8.935-13.126-6.748-1.43-13.888 1.802-15.502 7.945-1.614 6.142 2.91 12.868 9.658 14.299 6.748 1.431 13.165-2.976 14.779-9.118Z" fill="#455A64"/><path d="M320.727 225.964c-.455 1.719-1.707 2.674-2.995 3.989s-2.179 2.393-3.992 2.991c-1.814.597-4.084 1.26-5.989.997-1.905-.263-3.449-.934-4.99-1.994-1.542-1.061-3.183-2.384-3.993-3.988-.809-1.605-1.114-3.221-.998-4.986.116-1.764.982-3.482 1.996-4.985 1.014-1.503 2.323-3.106 3.993-3.988-1.012.53-2.192 1.219-2.995 1.994-.203.803.004 1.17 0 1.994-.02 2.154.687 4.195 1.997 5.982 1.309 1.788 2.809 3.192 4.99 3.989 2.181.796 4.697 1.47 6.987.997 2.29-.474 4.391-1.414 5.989-2.992Z" fill="#37474F"/><path d="M145.813 234.036 141.879 241l.909.415 3.935-6.964-.91-.415Z" fill="#263238"/><path d="m139.754 232.514-.873.486 4.538 6.586.874-.486-4.539-6.586Z" fill="#263238"/><path d="M142.844 232v18.97c-.003.052.023-.042 0 0-.024.043.037-.021 0 0-.105.067.117 0 0 0-.118 0-.848.067-.952 0-.039-.021.024.043 0 0-.025-.042.004.052 0 0V232h.952Z" fill="#263238"/><path d="M150.87 235c5.243 0 8.993-3.306 8.993-8s-3.75-9-8.993-9c-5.242 0-9.991 4.306-9.991 9s4.749 8 9.991 8Z" fill="#455A64"/><path d="M153.889 223.891c1.225-3.387 1.821-4.488.994-4.898-1.58-.781-3.156-1.061-4.97-.979-1.813.082-3.49 1.039-4.969 1.959-1.479.92-2.301 1.469-2.982 2.939-.681 1.469-1.324 3.339-.994 4.898.33 1.558 1.744 2.758 2.982 3.918 1.238 1.16 2.218 2.541 3.975 2.939 1.758.397 4.237.489 5.964 0 1.727-.49 2.82-1.716 3.976-2.939-2.819.722-5.58-3.451-3.976-7.837Z" fill="#37474F"/><path d="M134.885 234c3.862 0 6.994-2.686 6.994-6s-3.132-6-6.994-6c-3.863 0-6.994 2.686-6.994 6s3.131 6 6.994 6Z" fill="#455A64"/><path d="M135.884 222c-1.351-.002-2.899.267-3.997 1-.176 3.659 2.93 7.793 1.998 9-.931 1.207-3.192.015-3.996-1 .567.909 1.02 1.477 1.998 2 .978.523 2.869 1.002 3.997 1 1.127-.002 2.021-.473 2.997-1s1.436-1.089 1.998-2c.563-.911 1-1.948 1-3-.001-1.052-.436-2.089-1-3-.563-.911-1.022-1.473-1.998-2-.976-.527-1.87-.998-2.997-1Z" fill="#37474F"/><path d="M152.916 229.348c4.722-4.243 3.979-11.121-.744-15.363-4.723-4.243-11.636-4.243-16.359 0-4.722 4.242-5.466 11.12-.743 15.363 4.722 4.242 13.123 4.242 17.846 0Z" fill="#455A64"/><path d="M153.869 224.964c-.453 1.719-1.706 2.673-2.994 3.989-1.288 1.315-2.178 2.393-3.992 2.991-1.815.597-4.083 1.26-5.989.997-1.906-.263-3.449-.933-4.991-1.994-1.542-1.061-3.183-2.384-3.992-3.989-.809-1.604-1.116-3.22-.998-4.985.118-1.765.98-3.482 1.996-4.985 1.016-1.502 2.321-3.107 3.993-3.988-1.016.525-2.196 1.215-2.995 1.994-.203.803.004 1.17 0 1.994-.017 2.151.687 4.197 1.996 5.982 1.31 1.785 2.812 3.193 4.991 3.988 2.179.796 4.699 1.469 6.987.998 2.288-.472 4.39-1.417 5.988-2.992Z" fill="#37474F"/><path d="m171.854 239 76.934 40v-62l-76.934-40v62Z" fill="#F0F0F0"/><path d="M226.806 256v34l-76.935-40v-34l76.935 40Z" fill="#F0F0F0"/><path d="m149.871 228 76.935 40v-12l-76.935-40v12ZM171.854 189l76.934 40v-12l-76.934-40v12Z" fill="#E0E0E0"/><path d="m250.787 219 50.957-27v61l-50.957 27v-61ZM227.807 256l21.981-19v42l-21.981 11v-34ZM276.765 177l-25.978 40 50.957-27-24.979-13Z" fill="#FAFAFA"/><path d="m246.789 223 28.976-46v-3l-28.976 46v3Z" fill="#3C94CB"/><path opacity=".1" d="m246.789 223 28.976-46v-3l-28.976 46v3Z" fill="#000"/><path d="M199.585 134.743 169.855 181l78.067 40.488 29.729-46.256-78.066-40.489ZM169.855 181l76.935 41v3l-76.935-41v-3Z" fill="#3C94CB"/><path opacity=".15" d="m169.855 181 76.935 41v3l-76.935-41v-3Z" fill="#000"/><path d="m275.766 174 32.972 18-2.998 1-29.974-16v-3Z" fill="#3C94CB"/><path opacity=".15" d="m275.766 174 32.972 18-2.998 1-29.974-16v-3Z" fill="#000"/><path d="M305.741 193h-3.997v-1l3.997 1Z" fill="#3C94CB"/><path opacity=".3" d="M305.741 193h-3.997v-1l3.997 1Z" fill="#000"/><path d="M184.842 180v-14l8.992-5 8.993 14v14l-17.985-9Z" fill="#F0F0F0"/><path opacity=".2" d="m192.836 162-10.991 6-.999-1 11.99-7v2Z" fill="#000"/><path d="m202.826 189 8.993-14 4.995-7-13.988 7v14Z" fill="#FAFAFA"/><path opacity=".4" d="M182.844 167h1v-1l-1 1Z" fill="#000"/><path d="m203.827 178-10.991-17v-1l11.99 19-.999-1Z" fill="#3C94CB"/><path opacity=".1" d="m203.827 178-10.991-17v-1l11.99 19-.999-1Z" fill="#000"/><path d="m204.826 178-11.99-19 12.989-6 11.99 19-12.989 6Z" fill="#3C94CB"/><path opacity=".3" d="m204.826 178-11.99-19 12.989-6 11.99 19-12.989 6Z" fill="#fff"/><path d="m196.833 172-7.993-4v9l7.993 4v-9Z" fill="#455A64"/><path d="M189.838 177v-8l7.993 4v8l-7.993-4Z" fill="#E0E0E0"/><path d="M188.84 177h.999l6.994 4v1l-7.993-5Z" fill="#37474F"/><path d="M221.811 200v-14l8.992-5 8.992 14v14l-17.984-9Z" fill="#F0F0F0"/><path opacity=".2" d="m229.804 182-10.99 6-1-1 11.99-7v2Z" fill="#000"/><path d="m239.795 209 8.992-14 4.996-7-13.988 7v14Z" fill="#FAFAFA"/><path opacity=".4" d="M218.812 186h1v-1l-1 1Z" fill="#000"/><path d="m240.795 198-10.99-17v-1l11.99 19-1-1Z" fill="#3C94CB"/><path opacity=".1" d="m240.795 198-10.99-17v-1l11.99 19-1-1Z" fill="#000"/><path d="m241.795 198-11.99-19 12.989-6 11.99 19-12.989 6Z" fill="#3C94CB"/><path opacity=".3" d="m241.795 198-11.99-19 12.989-6 11.99 19-12.989 6Z" fill="#fff"/><path d="m233.8 192-7.993-4v9l7.993 4v-9Z" fill="#455A64"/><path d="M225.807 196v-8l7.993 4v8l-7.993-4Z" fill="#E0E0E0"/><path d="M225.807 196h.999l6.994 4v1l-7.993-5Z" fill="#37474F"/><path d="m173.851 194 77.934 40v3l-25.978 25-77.934-40v-3l25.978-25Z" fill="#3C94CB"/><path d="m173.851 194 77.934 40-25.978 25-77.934-40 25.978-25Z" fill="#3C94CB"/><path opacity=".1" d="M224.809 259v3l25.978-25v-3l-25.978 25Z" fill="#000"/><path opacity=".15" d="m224.808 261-76.935-40v-3l76.935 40v3Z" fill="#000"/><path d="m178.848 239-17.985-10v17l17.985 10v-17Z" fill="#263238"/><path d="M162.861 246v-16l17.985 9v16l-17.985-9Z" fill="#FAFAFA"/><path d="M162.861 230v4l17.985 9v-4l-17.985-9Z" fill="#F0F0F0"/><path d="m160.863 247 .999-1 16.986 10v1l-17.985-10ZM160.863 238l.999-1 16.986 10v1l-17.985-10Z" fill="#37474F"/><path d="m169.855 252 1 1v-18l-1-1v18Z" fill="#37474F"/><path d="m212.819 256-17.985-10v17l17.985 10v-17Z" fill="#263238"/><path d="M195.832 264v-16l17.985 9v16l-17.985-9Z" fill="#FAFAFA"/><path d="M195.832 248v4l17.985 9v-4l-17.985-9Z" fill="#F0F0F0"/><path d="m194.834 264 .999-1 16.986 10v1l-17.985-10ZM194.834 255l.999-1 16.986 10v1l-17.985-10Z" fill="#37474F"/><path d="m203.826 270 1 1v-18l-1-1v18Z" fill="#37474F"/><path d="m239.795 259 17.985-10v17l-17.985 10v-17Z" fill="#263238"/><path d="M257.78 265v-16l-17.985 9v16l17.985-9Z" fill="#E6E6E6"/><path d="M257.78 249v2l-17.985 9v-2l17.985-9Z" fill="#E0E0E0"/><path d="m257.78 267-.999-1-16.986 10v1l17.985-10ZM257.78 258l-.999-1-16.986 10v1l17.985-10Z" fill="#37474F"/><path d="m247.789 271-1 1v-18l1-1v18Z" fill="#37474F"/><path d="m268.771 202 17.985-10v17l-17.985 10v-17Z" fill="#263238"/><path d="M286.756 208v-16l-17.985 9v16l17.985-9Z" fill="#E6E6E6"/><path d="M286.756 192v2l-17.985 9v-2l17.985-9Z" fill="#E0E0E0"/><path d="m286.756 210-.999-1-16.986 10v1l17.985-10ZM286.756 201l-.999-1-16.986 10v1l17.985-10Z" fill="#37474F"/><path d="m277.764 214-1 1v-18l1-1v18ZM268.771 269v-30l17.985-10v30l-17.985 10Z" fill="#37474F"/><path d="M286.756 260v-31l-17.985 9v31l17.985-9Z" fill="#455A64"/><path d="M287.755 229h-.999v31h.999v-31Z" fill="#263238"/><path d="m98.916 3.022-6.994 3.95V4.01c0-3.087-2.89-4.481-5.995-2.963-1.34.704-2.127 1.838-2.997 2.963-.511-3.89-3.646-5.102-7.993-2.963-4.648 2.31-8.993 8.209-8.993 12.84v1.975c-.014 1.055.471 2.01 1 2.963l-5.995 2.963c-.91.51-1.456 1.166-1.999 1.975-.543.81-.94 2.03-.999 2.963 0 1.725 1.275 2.838 2.998 1.976L98.916 9.936c.91-.51 1.456-1.167 1.999-1.976.543-.809.94-2.03.999-2.963.02-1.707-1.255-2.829-2.998-1.975ZM128.89 21.928l-5.995 1.989c.015-.213.015.213 0 0v-1.989c0-2.464-1.668-3.22-3.996-1.988-1.002.567-1.341 1.093-1.998 1.988-.379-3.103-3.77-3.695-6.994-1.988-1.842 1.098-2.898 2.232-3.996 3.977-1.099 1.745-1.883 3.952-1.999 5.965v1.988c-.019.83.626 1.232 1 1.988l-4.996 2.983c-.681.409-.593.347-.999.994s-.955 1.243-.999 1.989c0 1.369.704 2.673 1.998 1.988l28.974-14.913c.68-.407.592-1.342.999-1.988.406-.646.955-1.244.999-1.988.049-1.379-.705-1.68-1.998-.994ZM414.648 46.929l-5.995 1.988c.015-.213.015.213 0 0v-1.988c0-2.465-1.668-3.23-3.996-1.989-1.006.562-1.346 1.09-1.998 1.989-.378-3.105-3.721-3.696-6.994-1.989-1.839 1.1-2.9 2.232-3.996 3.977-1.096 1.745-1.884 3.953-1.999 5.965v1.988c-.025.83.627 1.232 1 1.989l-4.996 2.982c-.682.408-.591.347-.999.994-.408.647-.954 1.242-.999 1.988 0 1.37.705 2.674 1.998 1.989l28.974-14.913c.681-.407.593-1.342.999-1.988.406-.645.956-1.244.999-1.988.04-1.351-.705-1.68-1.998-.994Z" fill="#EBEBEB"/><path d="M374.682 14.185c-.057-2.367-.727-4.858-1.996-6.947-1.268-2.088-2.784-3.603-4.99-4.962-2.033-1.135-4.564-1.636-5.987-.992-8.593 3.79-68.997 38.016-72.851 39.696a2.785 2.785 0 0 0-.998.992c-.215.385-.036.566 0 .993.023 1.193.36 2.916.998 3.97.638 1.053 1.88 1.3 2.994 1.984.385.265.513.936.998.993.484.056.547.166.997 0h.998c6.102-2.959 65.659-25.027 77.841-30.765 1.434-.697 1.915-2.799 1.996-4.962Z" fill="#3C94CB"/><path opacity=".1" d="M371.685 7.236c-1.188-1.882-2.959-3.773-4.992-4.964-2.021-1.133-3.577-1.626-4.992-.993-7.791 3.516-52.86 29.542-67.887 37.726H291.817c-1.586.893-2.621 1.798-2.995 1.986-.128.067.107-.093 0 0-.283.257-.85.658-.998.992-.147.335-.012.635 0 .993-.02.253-.02.74 0 .993 0 .098-.05-.098 0 0 .051.098-.04.832 0 .993.041.16-.04-.116 0 0 .041.116-.061.85 0 .993.061.142.958-.107.998 0l82.863-38.72Z" fill="#000"/><path d="M290.753 50.169c-1.014-.72-1.414-.992-1.998-2.099-.584-1.106-.972-2.943-.999-4.197.084-2.303 2.069-2.267 3.996-1.05 1.016.72 1.415.99 1.999 2.099.584 1.108.973 2.941.999 4.198-.075 2.302-2.069 2.285-3.997 1.049Z" fill="#3C94CB"/><path d="M273.849 50.983c.024.989.494 2.092.991 2.965.498.873 1.119 2.396 1.983 2.965.3.217.615-.046.991 0 .377.046.642.138.992 0l14.872-7.907c.315-.196.824.318.991 0 .167-.318.027-.635 0-.988-.022-.99-.494-2.092-.991-2.965-.498-.873-1.118-2.397-1.983-2.965-.299-.22-.615.048-.992 0-.376-.048-.641-.138-.991 0l-14.872 7.907c-.317.196-.824-.32-.991 0-.168.32-.029.633 0 .988Z" fill="#37474F"/><path d="M274.891 49.03c-.308.185-.827.69-.992.993-.164.303-.025.654 0 .992-.005.696-.293 1.344 0 1.985l18.852-8.932c-.417-.575-1.358-1.603-1.984-1.985-.287-.208-.63.045-.992 0s-.656-.13-.992 0l-13.892 6.947Z" fill="#263238"/><path d="M291.752 62.51c0-8.286-5.784-16.695-17.985-23.018-24.382-12.656-64.533-12.656-88.925 0-12.19 6.305-17.985 14.732-17.985 23.018v16.013c0 8.287 5.784 16.687 17.985 23.019 24.382 12.611 64.543 12.611 88.925 0 12.201-6.305 17.985-14.732 17.985-23.019V62.51ZM187.84 44.496c10.887-5.648 25.356-9.008 40.965-9.008 15.609 0 31.107 3.36 41.964 9.008 9.845 5.107 14.988 11.376 14.988 18.014 0 6.639-5.143 13.909-14.988 19.016-10.887 5.648-26.355 8.006-41.964 8.006-15.609 0-30.108-2.358-40.965-8.006-9.855-5.107-14.988-12.386-14.988-19.016 0-6.63 5.163-12.907 14.988-18.014Z" fill="#3C94CB"/><path opacity=".3" d="M185.055 85.483c24.273 12.69 64.219 12.69 88.492 0 24.273-12.69 24.273-32.29 0-44.97s-64.219-12.689-88.492 0c-24.273 12.69-24.253 32.29 0 44.97Zm-11.932-21.985c0-6.656 5.118-13.866 14.915-18.987 10.844-5.663 25.242-8.994 40.766-8.994 15.523 0 30.955 3.331 41.76 8.994 9.797 5.12 14.914 12.33 14.914 18.987 0 6.656-5.117 12.867-14.914 17.988-10.845 5.662-26.237 8.994-41.76 8.994-15.524 0-29.962-3.332-40.766-8.994-9.787-5.121-14.915-11.34-14.915-17.988Z" fill="#fff"/><path d="M173.852 63c.035 2.73.423 5.666 1.998 8 2.501-3.899 6.923-7.857 12.989-11 10.987-5.721 26.197-9 41.964-9s30.998 3.279 41.965 9c6.076 3.143 10.477 7.101 12.989 11 1.567-2.336 1.961-5.272 1.998-8 0-6.705-5.033-12.835-14.987-18-10.988-5.712-26.198-9-41.965-9-15.767 0-31.007 3.288-41.964 9-9.955 5.165-14.987 11.295-14.987 18Z" fill="#3C94CB"/><path opacity=".1" d="M173.852 63c.035 2.73.423 5.666 1.998 8 2.501-3.899 6.923-7.857 12.989-11 10.987-5.721 26.197-9 41.964-9s30.998 3.279 41.965 9c6.076 3.143 10.477 7.101 12.989 11 1.567-2.336 1.961-5.272 1.998-8 0-6.705-5.033-12.835-14.987-18-10.988-5.712-26.198-9-41.965-9-15.767 0-31.007 3.288-41.964 9-9.955 5.165-14.987 11.295-14.987 18Z" fill="#000"/><path opacity=".4" d="M188.839 51c11.011-5.645 25.204-9 40.965-9 15.762 0 30.994 3.355 41.965 9 8.205 4.214 13.427 9.607 14.987 15-1.56 5.402-6.782 9.786-14.987 14-11.011 5.645-26.203 9-41.965 9-15.761 0-29.995-3.355-40.965-9-8.205-4.214-13.427-8.607-14.987-14 1.58-5.393 6.802-10.786 14.987-15Z" fill="#fff"/><path opacity=".1" d="M214.817 94v15c-10.834-1.356-21.557-4.615-29.975-9-12.254-6.33-17.985-14.672-17.985-23V62c.005-1.695.509-3.364 1-5-3.021 9.9 2.274 20.35 16.985 28 8.478 4.403 19.141 7.67 29.975 9Z" fill="#000"/></svg>