<svg width="333" height="372" fill="none" xmlns="http://www.w3.org/2000/svg"><path d="M27 367c0 2.494 63.745 5 143 5s144-2.506 144-5-64.745-4-144-4-143 1.515-143 4Z" fill="#3C94CB"/><path opacity=".6" d="M27 367c0 2.494 63.745 5 143 5s144-2.506 144-5-64.745-4-144-4-143 1.515-143 4Z" fill="#fff"/><path d="M254.998 217c.051 0-.924-3.729-.993-3.966-.735-2.334-3.279-5.949-5.956-5.949-.445.015-.591-.199-.992 0-.402.199-.705.643-.993.992-.288.349-.868.552-.993.991-.124.439-.06 1.53 0 1.983.197 1.93 1.447 3.018 2.978 3.966 1.788 1.149 6.949 1.983 6.949 1.983Z" fill="#3C94CB"/><path d="M259.896 195.092c-2.751.94-4.096 5.508-4.004 7.992 0 .213.955 3.996 1.001 3.996-.211.763-.772 1.093-1.001 1.998-.404 1.668-.662 3.901-1.001 5.994-.394 2.242-.882 4.721-1.001 6.993-.147 2.545-.323 5.462 0 7.992.003.029.003-.03 0 0-.358-.736-.91-2.846-1.001-2.997-1.413-2.076-5.23-5.767-8.009-4.995-.456.135-1.643.696-2.002.999-.36.303-.801.58-1.001.999-.201.418.006.538 0 .999-.007.461-.189 1.574 0 1.998.733 1.836 3.162 2.482 5.005 2.997 2.082.568 6.641.053 7.008 0 .393 2.565 1.259 5.501 2.002 7.992.434 1.455.506 2.547 1.001 3.996-.321-.63.046-.928 0-.999-1.412-2.076-5.239-5.767-8.009-4.995-.456.135-1.642.696-2.002.999-.36.303-.8.58-1.001.999-.201.418.007.538 0 .999-.007.461-.188 1.574 0 1.998.734 1.827 3.162 2.491 5.005 2.997 1.844.506 5.963.124 7.008 0l1.001 1.998c.917 2.661 1.168 4.385 2.003 6.993.302.887.735 2.074 1.001 2.997-.294-.559.045-.937 0-.999-1.404-2.085-6.24-4.768-9.01-3.996-.457.135-.641-.303-1.001 0-.36.303-.8.581-1.002.999-.201.418.009 1.537 0 1.998-.008.461-.186.574 0 .999.734 1.827 3.162 3.49 5.006 3.996 1.843.506 5.76-.83 7.008-.999.247.949.808 2.066 1.001 2.997.119.639-.083 1.342 0 1.998v1.998c.128 1.215.909 2.807 1.001 3.996.073.834-.055 1.209 0 1.998-.294-.887-1.001-2.855-1.001-2.997-1.019-1.95-3.137-3.768-5.006-4.995-.103-.224.147.201 0 0a3.416 3.416 0 0 0-1.001-.999c-.4-.251-.529-.928-1.001-.999-.472-.071-1.541-.121-2.002 0-.461.121-.632.706-1.001.999-2.183 1.818-2.001 6.702-1.001 8.991.055.133 1.525 2.128 2.002 2.997-.394-.47-.588-1.484-1.001-1.998-.798-.949-2.123-2.004-3.004-2.997-.452-.461-.554-.52-1.001-.999-.44-.479-1.516-1.519-2.002-1.998-1.146-1.073-1.701-1.986-3.003-2.997.853-.683 3.142-2.328 4.004-3.996.862-1.668 1.9-4.229 1.001-5.994-.197-.421-.643-.692-1.001-.999-.358-.307-.545-.86-1.001-.999-.456-.139-1.527-.053-2.002 0-.475.053-.59-.236-1.001 0-2.431 1.472-2.635 6.605-2.002 8.991 0 .151.625 2.083 1.001 2.997-.761-.612-1.214-1.439-2.002-1.998-2.275-1.694-4.624-3.336-7.008-4.995l-2.002-.999c.302-.24 4.033-3.123 5.005-4.995.853-1.659.899-4.238 0-5.994-.196-.422-.644-.691-1.001-.999-.357-.308-.545-.859-1.001-.999-.456-.14-.526-.052-1.001 0-.476.052-1.59-.235-2.002 0-2.44 1.481-2.635 6.605-2.003 8.991.046.177 1.737 2.394 2.003 2.997-1.56-1.127-3.529-1.817-5.006-2.997-2.007-1.589-4.227-3.17-6.007-4.995.138-.106 4.015-3.088 5.006-4.995.862-1.659 1.9-4.229 1.001-5.994-.197-.421-.644-.692-1.001-.999-.357-.307-.546-.859-1.001-.999-.455-.14-1.528-.052-2.002 0-.475.052-.59.765-1.001.999-2.44 1.481-2.635 6.614-2.003 8.991.046.16.644 1.138 1.001 1.998-.042.035.05-.024 0 0-1.739-1.884-3.639-3.841-5.005-5.994-.761-1.171-1.379-1.853-2.002-2.997.77-.479 4.915-2.373 6.006-3.996 1.092-1.623 1.689-4.149 1.001-5.994-.148-.434-.684-.66-1.001-.999-.317-.339-.569-.813-1.001-.999-.431-.186-.528.001-1.001 0-.473-.001-1.569-.184-2.002 0-2.596 1.206-3.361 6.534-3.003 8.991 0 .133.735 1.031 1.001 1.998-.266-.515-.754-1.492-1.001-1.998-.918-1.889-1.361-3.407-2.003-4.995-.366-.887-.753-1.253-1.001-1.998.505-.843 1.81-5.077 2.003-6.993.192-1.916.493-3.664-1.002-4.995-.34-.324-.553-.837-1.001-.999-.447-.162-1.525-.028-2.002 0-.477.028-.578-.214-1.001 0-.423.214-.704.637-1.001.999-1.724 2.226-.485 6.969 1.001 8.991.128.177 2.976 2.997 3.003 2.997.257.754-.33 1.12 0 1.998.606 1.606 2.096 4.087 3.004 5.994.959 2.08 1.806 4.032 3.003 5.994 1.335 2.197 3.29 4.06 5.005 5.994-.715-.426-2.829-1.927-3.003-1.998-2.366-.985-8.122-1.094-10.011.999-.304.356.128.554 0 .999-.128.445-.071.542 0 .999.071.457-.257 1.609 0 1.998a3.44 3.44 0 0 0 1.001.999c1.66 1.135 4.173.532 6.007 0 2.063-.63 5.695-3.757 6.006-3.996 1.794 1.928 3.965 4.312 6.007 5.994 1.183.985 1.747 1.049 3.003 1.998-.632-.346-.918.035-1.001 0-2.357-.985-7.12-2.093-9.01 0-.305.356-.872 1.553-1.001 1.998-.128.445-.071.542 0 .999.071.457-.258.61 0 .999s.601.746 1.001.999c1.651 1.135 4.182 1.531 6.007.999 1.825-.532 5.218-3.313 6.007-3.996.486.364.478.644 1.001.999 2.302 1.712 4.76 3.265 7.007 4.995.78.612 1.251 1.368 2.003 1.998l-1.001-.999c-2.358-.976-7.121-1.103-9.01.999-.306.356-.873.554-1.001.999-.129.445-.072.542 0 .999.071.457.743 1.609 1.001 1.998.258.389.601.746 1.001.999 1.66 1.135 4.181.541 6.006 0 1.825-.541 4.089-3.198 5.006-3.996.743.656 1.314 1.324 2.002 1.998.468.47 1.544 1.492 2.002 1.998l1.001.999c.798.94 1.241 2.057 2.003 2.997.532.656 1.507 1.368 2.002 1.998-.761-.612-1.865-1.9-2.002-1.998-2.174-1.322-7.819-2.791-10.011-.999-.356.309-.807.577-1.002.999-.194.422 0 1.536 0 1.998 0 .462-.194.577 0 .999.195.422.646.69 1.002.999 1.467 1.366 4.117 1.283 6.006.999 2.091-.31 5.539-2.669 6.007-2.997.825 1.047 2.269 2.021 3.003 2.997 2.541 3.397 4.649 6.933 6.007 8.991l1.001-.999c-1.422-2.049-3.365-5.611-6.007-8.991-.834-1.073-2.058-1.844-3.003-2.997.983-1.034 2.154-1.857 3.003-2.997 2.027.763 6.458.999 7.008.999.082 1.322-.055 1.791 0 2.997.183 4.196.046 8.55 0 10.989l2.002-.999c0-2.43.257-6.105 0-9.99-.082-1.331-.863-2.532-1.001-3.996.541-.124 5.357-.721 7.008-1.998 1.495-1.153 3.058-3.035 3.003-4.995.005-.462.191-1.574 0-1.998-.191-.424-.648-.687-1.001-.999-.353-.312-.547-.854-1.001-.999-.454-.145-1.527-.048-2.002 0-2.853.355-4.538 5.544-5.006 7.992 0 .142-.946 1.031-1.001 1.998-.064-.594.073-.396 0-.999-.119-1.215.174-2.692 0-3.996-.101-.621-.9-1.359-1.001-1.998-.101-.639.138-1.35 0-1.998-.349-1.517-.533-3.478-1.001-4.995 1.1-.106 4.328-.068 6.006-.999 1.679-.931 3.757-3.044 4.005-4.995.077-.456.122-.552 0-.999-.123-.447-.701-.64-1.001-.999-.301-.359-.575-.79-1.001-.999-.426-.209-.524.023-1.001 0-2.871-.071-6.164 3.643-7.008 5.994-.055.142.211 2.03 0 2.997-.284-.887-.644-2.083-1.001-2.997-.917-2.661-1.995-5.358-3.004-7.992-.311-.807-.689-1.191-1.001-1.998.395 0 5.137-.951 7.008-1.998 1.66-.887 2.747-2.045 3.003-3.996.076-.456.123-1.552 0-1.998-.123-.446.3-.64 0-.999s-.576-.789-1.001-.999c-.425-.21-1.525.024-2.002 0-2.88-.071-6.164 3.652-7.008 5.994-.064.177.12 3.313 0 3.996-.66-1.774-1.479-4.22-2.002-5.994-.775-2.395-1.555-4.521-2.002-6.993.183 0 5.091-.934 7.008-1.998 1.669-.887 3.756-2.045 4.004-3.996.077-.456.123-.552 0-.999-.122-.447-.701-1.639-1.001-1.998-.3-.359-.575-.79-1.001-.999-.426-.209-.524.023-1.001 0-2.871-.071-6.164 3.652-7.008 5.994-.055.151-.809 2.083-1.001 2.997-.379-2.499-1.087-4.469-1.001-6.993 0-1.384.863-2.71 1.001-3.996.917 0 5.173-.236 7.008-.999 1.834-.763 3.527-2.089 4.004-3.996.127-.447.073-.541 0-.999-.073-.458.26-1.609 0-1.998a3.44 3.44 0 0 0-1.001-.999c-.402-.253-1.529.072-2.002 0-2.853-.373-5.898 2.76-7.008 4.995-.055.124-.68 2.039-1.001 2.997.064-.585-.083-1.404 0-1.998.284-2.085.634-4.318 1.001-5.994.22-.949.79-1.173 1.001-1.998.917-.444 4.778-2.515 6.007-3.996 1.229-1.481 1.496-3.088 1.001-4.995-.104-.452.286-1.626 0-1.998-.286-.372-.583-.773-1.001-.999-.418-.226-1.525.041-2.002 0-.478-.041-.549-.151-1.002 0Z" fill="#3C94CB"/><path d="M208.041 237.991c2.359-.102 6.959-3.138 6.959-3.138s-2.8-1.93-2.983-2.093c-2.108-1.764-6.434-3.856-8.947-2.092-.411.303-.737.593-.994 1.046-.258.454-.935.522-.994 1.046-.059.525-.15 1.588 0 2.093.149.504.662.65.994 1.046 1.357 1.734 3.953 2.173 5.965 2.092Z" fill="#3C94CB"/><g opacity=".5" fill="#AFF17B"><path opacity=".5" d="M253.998 217c.051 0-.924-3.729-.993-3.966-.735-2.334-3.279-5.949-5.956-5.949-.445.015-.591-.199-.992 0-.402.199-.705.643-.993.992-.288.349-.868.552-.993.991-.124.439-.06 1.53 0 1.983.197 1.93 1.447 3.018 2.978 3.966 1.788 1.149 6.949 1.983 6.949 1.983Z"/><path opacity=".5" d="M259.893 195.092c-2.713.94-4.096 5.508-4.005 7.992 0 .213.956 3.996 1.001 3.996-.208.763-.775 1.093-1.001 1.998-.398 1.668-.667 3.901-1.001 5.994-.388 2.242-.884 4.721-1.002 6.993-.144 2.545.683 5.462 1.002 7.992.003.029.003-.03 0 0-.353-.736-1.913-2.846-2.003-2.997-1.393-2.076-5.271-5.767-8.011-4.995-.45.135-.647.696-1.002.999-.354.303-.803.58-1.001.999-.198.418.007.538 0 .999-.007.461-.186 1.574 0 1.998.724 1.836 3.189 2.482 5.007 2.997 2.053.568 6.648.053 7.01 0 .387 2.565.269 5.501 1.001 7.992.428 1.455 1.514 2.547 2.003 3.996-.317-.63-.957-.928-1.002-.999-1.392-2.076-5.28-5.767-8.011-4.995-.45.135-.646.696-1.001.999-.355.303-.803.58-1.001.999-.198.418.006.538 0 .999-.007.461-.186 1.574 0 1.998.723 1.827 3.189 2.491 5.006 2.997 1.818.506 4.978.124 6.009 0l1.001 1.998c.904 2.661 2.181 4.385 3.004 6.993.299.887-.262 2.074 0 2.997-.289-.559.045-.937 0-.999-1.383-2.085-5.28-4.768-8.011-3.996-.45.135-.646-.303-1.001 0-.355.303-.803.581-1.002.999-.198.418-.993 1.537-1.001 1.998-.008.461.817.574 1.001.999.724 1.827 2.188 3.49 4.006 3.996 1.818.506 5.78-.83 7.009-.999.245.949.812 2.066 1.002 2.997.117.639-.082 1.342 0 1.998v1.998c.126 1.215.911 2.807 1.001 3.996.073.834-.054 1.209 0 1.998-.289-.887-1.001-2.855-1.001-2.997-1.004-1.95-2.163-3.768-4.006-4.995-.102-.224-.857.201-1.001 0a3.453 3.453 0 0 0-1.001-.999c-.395-.251-.537-.928-1.002-.999-.465-.071-.547-.121-1.001 0-.454.121-1.639.706-2.003.999-2.152 1.818-.986 6.702 0 8.991.054.133.531 2.128 1.002 2.997-.389-.47-.595-1.484-1.002-1.998-.787-.949-2.136-2.004-3.004-2.997-.446-.461-.561-.52-1.001-.999-.434-.479-.522-1.519-1.002-1.998-1.13-1.073-2.721-1.986-4.005-2.997.841-.683 4.157-2.328 5.007-3.996.85-1.668.886-4.229 0-5.994-.195-.421-.649-.692-1.002-.999-.352-.307-.551-.86-1.001-.999-.45-.139-.533-.053-1.001 0-.469.053-.596-.236-1.002 0-2.396 1.472-2.626 6.605-2.003 8.991 0 .151.631 2.083 1.002 2.997-.751-.612-2.227-1.439-3.004-1.998-2.243-1.694-4.659-3.336-7.01-4.995l-2.003-.999c.299-.24 4.049-3.123 5.007-4.995.841-1.659 1.888-4.238 1.002-5.994-.194-.422-.649-.691-1.002-.999-.352-.308-.551-.859-1.001-.999-.45-.14-1.534-.052-2.003 0-.469.052-.595-.235-1.001 0-2.406 1.481-2.627 6.605-2.003 8.991.045.177.739 2.394 1.001 2.997-1.537-1.127-2.549-1.817-4.005-2.997-1.979-1.589-4.253-3.17-6.008-4.995.135-.106 4.03-3.088 5.007-4.995.85-1.659 1.887-4.229 1.001-5.994-.194-.421-.65-.692-1.001-.999-.352-.307-1.555-.859-2.003-.999-.449-.14-.534-.052-1.002 0-.467.052-.595.765-1.001.999-2.405 1.481-2.627 6.614-2.003 8.991.046.16.649 1.138 1.002 1.998-.042.035.048-.024 0 0-1.715-1.884-3.66-3.841-5.007-5.994-.751-1.171-1.388-1.853-2.003-2.997.76-.479 3.931-2.373 5.007-3.996 1.076-1.623 2.681-4.149 2.003-5.994-.146-.434-.689-.66-1.002-.999-.312-.339-.575-.813-1.001-.999-.426-.186-1.537.001-2.003 0-.466-.001-.574-.184-1.001 0-2.559 1.206-3.357 6.534-3.004 8.991 0 .133.739 1.031 1.001 1.998-.262-.515-.757-1.492-1.001-1.998-.904-1.889-1.37-3.407-2.003-4.995-.362-.887-.757-1.253-1.001-1.998.497-.843 1.813-5.077 2.002-6.993.19-1.916.473-3.664-1.001-4.995-.336-.324-.56-.837-1.001-.999-.441-.162-1.533-.028-2.003 0-.47.028-.584-.214-1.001 0-.418.214-.709.637-1.002.999-1.7 2.226-.463 6.969 1.002 8.991.126.177 2.977 2.997 3.004 2.997.253.754-.326 1.12 0 1.998.597 1.606 2.109 4.087 3.004 5.994.946 2.08 1.824 4.032 3.004 5.994 1.317 2.197 2.314 4.06 4.005 5.994-.705-.426-2.832-1.927-3.004-1.998-2.333-.985-7.149-1.094-9.012.999-.3.356.126.554 0 .999-.126.445-1.071.542-1.001.999.07.457.747 1.609 1.001 1.998.254.389.608.745 1.001.999 1.637 1.135 4.2.532 6.009 0 2.034-.63 5.7-3.757 6.008-3.996 1.769 1.928 2.994 4.312 5.007 5.994 1.166.985 2.766 1.049 4.005 1.998-.624-.346-.92.035-1.001 0-2.324-.985-8.151-2.093-10.014 0-.301.356.127 1.553 0 1.998-.127.445-.07.542 0 .999.07.457-.254.61 0 .999s.607.746 1.001.999c1.628 1.135 4.209 1.531 6.009.999 1.799-.532 5.23-3.313 6.008-3.996.479.364.486.644 1.001.999 2.27 1.712 4.794 3.265 7.01 4.995.768.612 1.261 1.368 2.002 1.998l-1.001-.999c-2.324-.976-7.149-1.103-9.012.999-.301.356-.875.554-1.002.999-.126.445-.07.542 0 .999.07.457-.254 1.609 0 1.998.255.389.607.746 1.002.999 1.637 1.135 4.208.541 6.008 0 1.8-.541 5.104-3.198 6.008-3.996.733.656 1.325 1.324 2.003 1.998.461.47.549 1.492 1.001 1.998l1.002.999c.786.94 2.253 2.057 3.004 2.997.524.656.513 1.368 1.001 1.998-.75-.612-1.867-1.9-2.003-1.998-2.143-1.322-6.851-2.791-9.012-.999-.35.309-.809.577-1.001.999-.192.422 0 1.536 0 1.998 0 .462-.192.577 0 .999.192.422.651.69 1.001.999 1.447 1.366 3.144 1.283 5.007.999 2.062-.31 6.548-2.669 7.01-2.997.813 1.047 1.279 2.021 2.002 2.997 2.505 3.397 4.67 6.933 6.008 8.991l2.003-.999h-1.001c-1.402-2.049-3.404-5.611-6.008-8.991-.823-1.073-1.072-1.844-2.003-2.997.969-1.034 1.165-1.857 2.003-2.997 1.998.763 6.467.999 7.009.999.082 1.322-.054 1.791 0 2.997.181 4.196.045 8.55 0 10.989l2.003-.999c0-2.43.253-6.105 0-9.99-.081-1.331.136-2.532 0-3.996.533-.124 4.38-.721 6.008-1.998 1.474-1.153 3.059-3.035 3.004-4.995.005-.462.188-1.574 0-1.998-.188-.424-.653-.687-1.001-.999-.348-.312-.554-.854-1.001-.999-.448-.145-1.534-.048-2.003 0-2.813.355-4.546 5.544-5.007 7.992 0 .142-.947 1.031-1.001 1.998-.064-.594.072-.396 0-.999-.118-1.215.171-2.692 0-3.996-.1-.621.099-1.359 0-1.998-.1-.639-.866-1.35-1.002-1.998-.343-1.517-.54-3.478-1.001-4.995 1.085-.106 4.353-.068 6.008-.999 1.655-.931 3.761-3.044 4.006-4.995.075-.456.12-.552 0-.999-.121-.447.296-.64 0-.999-.297-.359-1.583-.79-2.003-.999-.42-.209-.531.023-1.002 0-2.83-.071-6.177 3.643-7.009 5.994-.054.142.208 2.03 0 2.997-.28-.887-.649-2.083-1.002-2.997-.904-2.661-2.009-5.358-3.004-7.992-.307-.807-.694-1.191-1.001-1.998.389 0 5.165-.951 7.01-1.998 1.636-.887 3.752-2.045 4.005-3.996.074-.456-.88-1.552-1.001-1.998-.122-.446.296-.64 0-.999s-.582-.789-1.002-.999c-.419-.21-1.532.024-2.002 0-2.84-.071-5.177 3.652-6.009 5.994-.063.177-.883 3.313-1.001 3.996-.651-1.774-1.487-4.22-2.003-5.994-.763-2.395-1.562-4.521-2.002-6.993.18 0 5.119-.934 7.009-1.998 1.646-.887 3.761-2.045 4.006-3.996.075-.456.12-.552 0-.999-.121-.447-.706-1.639-1.002-1.998-.296-.359-.581-.79-1.001-.999-.42-.209-.531.023-1.002 0-2.83-.071-6.177 3.652-7.009 5.994-.054.151-.812 2.083-1.001 2.997-.374-2.499-.085-4.469 0-6.993 0-1.384-.136-2.71 0-3.996.904 0 5.201-.236 7.009-.999 1.809-.763 3.535-2.089 4.006-3.996.125-.447.071-.541 0-.999-.072-.458.256-1.609 0-1.998a3.468 3.468 0 0 0-1.002-.999c-.396-.253-1.536.072-2.003 0-2.812-.373-5.915 2.76-7.009 4.995-.054.124-.685 2.039-1.001 2.997.063-.585-.082-1.404 0-1.998.28-2.085.639-4.318 1.001-5.994.217-.949.793-1.173 1.001-1.998.905-.444 4.797-2.515 6.008-3.996 1.212-1.481 2.492-3.088 2.003-4.995-.103-.452-.719-1.626-1.001-1.998-.282-.372-.589-.773-1.002-.999-.412-.226-.53.041-1.001 0-.47-.041-1.556-.151-2.003 0Z"/><path opacity=".5" d="M209.041 237.991c2.359-.102 6.959-3.138 6.959-3.138s-2.8-1.93-2.983-2.093c-2.108-1.764-6.434-3.856-8.947-2.092-.411.303-.737.593-.994 1.046-.258.454-.935.522-.994 1.046-.059.525-.15 1.588 0 2.093.149.504.662.65.994 1.046 1.357 1.734 3.953 2.173 5.965 2.092Z"/></g><path d="M234 291.03s13.418-31.363 21-29.986c7.582 1.377-13 50.976-13 50.976s23.742-43.979 40-43.979-5.404 47.923-26 63.97c0 0 32.035-33.332 51-25.988 18.965 7.344-38 40.981-38 40.981s33.791-9.793 30-1.999c-3.791 7.794-14 8.996-14 8.996L322 356H192l29-2.999s-30.129-14.024-22-19.99c8.129-5.967 26 5.997 26 5.997s-30.96-32.604-25-44.979c5.96-12.375 33 22.989 33 22.989s-22.365-45.173-18-52.975c4.365-7.803 19 26.987 19 26.987Z" fill="#AFF17B"/><path opacity=".4" d="M234 291.03s13.418-31.363 21-29.986c7.582 1.377-13 50.976-13 50.976s23.742-43.979 40-43.979-5.404 47.923-26 63.97c0 0 32.035-33.332 51-25.988 18.965 7.344-38 40.981-38 40.981s33.791-9.793 30-1.999c-3.791 7.794-14 8.996-14 8.996L322 356H192l29-2.999s-30.129-14.024-22-19.99c8.129-5.967 26 5.997 26 5.997s-30.96-32.604-25-44.979c5.96-12.375 33 22.989 33 22.989s-22.365-45.173-18-52.975c4.365-7.803 19 26.987 19 26.987Z" fill="#AFF17B"/><path d="M230 293c12.038 33.961 12 57.997 12 57.997s-14.228.448-29-9.999" stroke="#263238" stroke-linecap="round" stroke-linejoin="round"/><path d="M236 312a197.86 197.86 0 0 1 10-30" stroke="#263238" stroke-linecap="round" stroke-linejoin="round"/><path d="m271 292-30 43s-20.953-16.651-28-26M243 346s31.277-14.639 44-23" stroke="#263238" stroke-linecap="round" stroke-linejoin="round"/><path d="m235 25 7-11h66v206H38V25h197Z" fill="#263238"/><path d="M39 31h267v185H39V31Z" fill="#fff"/><path opacity=".17" d="M38 29h6v188h-6V29Z" fill="#000"/><path opacity=".17" d="M38 142h6v73h-6v-73Z" fill="#000"/><path d="M39 28h268v10H39V28Z" fill="#3C94CB" stroke="#263238" stroke-miterlimit="10"/><path d="M39 31h267v185H39V31Z" stroke="#263238" stroke-linecap="round" stroke-linejoin="round"/><g opacity=".17" fill="#000"><path opacity=".17" d="M168.111 47.885h17.778c.432-.002 1.67.259 1.976 0 .305-.26-.003-.557 0-.923-.003-.367.305-1.587 0-1.847-.306-.259-1.544.002-1.976 0h-17.778c-.432 0-1.669-.26-1.975 0-.306.26 0 1.48 0 1.846 0 .368-.306.664 0 .924s1.543 0 1.975 0ZM130.111 47.885h17.778c.432 0 1.669.26 1.975 0 .306-.26 0-.556 0-.923 0-.368.306-1.587 0-1.847s-1.543 0-1.975 0h-17.778c-.432.002-1.67-.259-1.976 0-.305.26.003 1.48 0 1.846.003.367-.305.664 0 .924.306.259 1.544-.002 1.976 0ZM94.11 47.885h17.779c.432-.002 1.672.26 1.976 0 .304-.26 0-1.48 0-1.847-.003-.365.304-.664 0-.923-.304-.258-1.546.002-1.976 0H94.111c-.432.002-1.67-.26-1.976 0-.305.26.003 1.479 0 1.847.005.367-.307.664 0 .923.308.258 1.544 0 1.976 0ZM56.111 47.885H73.89c.432-.002 1.67.259 1.976 0 .305-.26-.003-.557 0-.923-.003-.367.305-1.587 0-1.847-.306-.259-1.544.002-1.976 0H56.111c-.432 0-1.669-.26-1.975 0-.306.26 0 1.48 0 1.846 0 .368-.306.664 0 .924s1.543 0 1.975 0Z"/></g><path d="M190 116h-11M253 116h-56M297 116h-38M226 123h-46M251 123h-18M297 123h-38M271 130h-92M297 130h-16M203 136h-23M246 136h-35M297 136h-43M259 143h-79M297 143h-31M60 116H49M124 116H67M168 116h-38M95 123H48M122 123h-18M168 123h-39M143 130H49M168 130h-16M72 136H49M117 136H80M168 136h-45M130 143H50M168 143h-31M190 149h-11M253 149h-56M297 149h-38M226 155h-46M251 155h-18M297 155h-38M271 162h-92M297 162h-16M203 168h-23M246 168h-35M297 168h-43M259 175h-79M297 175h-31M60 149H49M124 149H67M168 149h-38M95 155H48M122 155h-18M168 155h-39M143 162H49M168 162h-16M72 168H49M117 168H80M168 168h-45M130 175H50M168 175h-31" stroke="#263238" stroke-linecap="round" stroke-linejoin="round"/><path d="M49 110h248V60H49v50Z" fill="#3C94CB"/><path opacity=".7" d="M49 110h248V60H49v50Z" fill="#AFF17B"/><path d="M179 110h118V60H189l-10 7v43Z" fill="#263238"/><path d="M189 60v8h-9l9-8Z" fill="#fff"/><path d="M203 75h-8M250 75h-41M281 75h-27M229 79h-33M247 79h-13M281 79h-27M262 83h-68M281 83h-11M212 88h-17M244 88h-26M281 88h-32M253 92h-57M281 92h-23" stroke="#fff" stroke-linecap="round" stroke-linejoin="round"/><path d="M170 203.999h54c.607 0 .571-.59 1-1 .429-.41 1-.42 1-1V185c0-.58-.571-.59-1-1-.429-.41-.393-1-1-1h-54c-.607 0-.571.59-1 1-.429.41-1 .42-1 1v16.999c.003.581.57.591 1 1 .431.41.392 1 1 1Z" fill="#AFF17B"/><path d="M185.99 193.98h-2.98l-.993 1.969c-.04.135.122-.084 0 0-.121.085.152.001 0 0-.181 0-.859.113-.993 0-.07-.05.038.074 0 0-.038-.073-.001-.903 0-.984.002-.085-.036.078 0 0l1.986-4.924c.086-.272.76-.798.994-.984.2-.123.751-.009.993 0 .238-.009-.198-.123 0 0 .24.182.909.709.993.984l1.986 4.924c.034.078.002-.084 0 0 .003.08.037.911 0 .984-.036.074.069-.05 0 0-.136.114-.809.001-.993 0-.14-.001.116.073 0 0-.13-.086.044.142 0 0l-.993-1.969Zm-.993-3.939-1.987 2.954h2.98l-.993-2.954ZM191.049 193.992c.135.112-.199-.06 0 0 .198.059.753.006.971 0 .402.013.631.14.971 0 .088-.04.865.001.972 0 .058-.001-.054-.016 0 0 .053.015-.038-.029 0 0 .083.059.001-.08 0 0-.002.058.04.912 0 .964-.041.052.071-.035 0 0-.203.111-.717-.045-.972 0-.346.067-.61.002-.971 0-.382.009-.616.094-.971 0-.355-.093-.706-.784-.972-.964-.271-.185-.833.239-.971 0-.137-.24-.018-.709 0-.965-.005-.334-.236-.667 0-.964.245-.295.52-.804.971-.965.455-.176 1.415-.007 1.943 0 .576-.017 1.466-.212 1.943 0 .076.03-.045-.05 0 0s-.002.907 0 .965c.001.08.083-.059 0 0-.043.029.057-.016 0 0-.057.015-.91 0-.972 0-.093-.002.082.03 0 0-.309-.106-.621.004-.971 0-.22-.008.202-.058 0 0s-.831-.112-.971 0c-.304.256-.028.641 0 .964-.051.325-.279.694 0 .965Z" fill="#263238"/><path d="M196.051 193.992c.135.112-.198-.06 0 0 .198.059.753.006.97 0 .405.012.626.139.971 0 .084-.04.867.001.97 0 .059-.002-.053-.016 0 0 .054.015-.037-.03 0 0 .084.058.001-.08 0 0 0 .058.041.912 0 .964-.04.052.073-.034 0 0-.2.112-.715-.044-.97 0-.346.068-.61.003-.971 0-.382.009-.616.094-.97 0-.354-.093-.705-.784-.97-.964-.271-.185-.833.239-.971 0-.137-.24-.018-.709 0-.965-.007-.336-.244-.669 0-.965.233-.289.541-.797.971-.964.454-.175 1.413-.007 1.94 0 .579-.017 1.461-.212 1.941 0 .077.029-.044-.05 0 0 .045.05-.002.907 0 .964-.003.081.087-.058 0 0-.041.03.057-.015 0 0-.057.016-.908.002-.97 0-.093-.003.082.029 0 0-.309-.106-.621.004-.971 0-.22-.007-.768-.058-.97 0-.202.059.14-.111 0 0-.293.26-.995.643-.97.965-.042.327.681.697.97.965Z" fill="#263238"/><path d="M198.088 192.062c.197-.293.598-.809.973-.98.407-.182 1.471-.006 1.946 0 .359-.005.642-.103.974 0 .284.089-.197.803 0 .98.187.172.884-.212.973 0 .103.228.002.738 0 .979.008.086.069-.069 0 0-.031.032.048-.016 0 0s.053.004 0 0h-3.893c-.017.146-.069.842 0 .979.069.138.832-.102.973 0 .141.103-.186-.047 0 0 .186.048.778.016.973 0 .493-.02.587.229.974 0 .055-.036-.074.001 0 0 .053.002.925-.018.973 0 .048.019-.032-.032 0 0 .075.069-.005-.088 0 0 .001.05.028-.045 0 0-.028.046.051-.032 0 0-.531.335-1.251.99-1.947.98-.702.019-1.43-.625-1.946-.98-.251-.192-.847.251-.973 0-.127-.251-.021-.711 0-.979-.007-.331-.194-.682 0-.979Zm3.893.979c-.014-.256.203-.773 0-.979-.115-.09-.821.048-.974 0-.152-.049.167 0 0 0-.166 0-.82-.049-.973 0-.153.048.115-.09 0 0-.222.2-.955.719-.973.979h2.92ZM204.056 197.974c-.059-.066.029.083 0 0-.029-.084-.005-.893 0-.982v-4.906c-.007-.188-.122-.84 0-.981.054-.062-.074.033 0 0s.893-.002.973 0c.158-.006-.118-.106 0 0 .056.061-.027-.079 0 0 .028.079.006.897 0 .981.159-.281.694-.83.974-.981.281-.151.658-.026.974 0 .399-.01.644-.231.974 0 .317.231.823.613.973.981.167.413.007 1.516 0 1.963.036.664-.563.465-.973.981-.198.223.27.865 0 .981-.271.116-.681.013-.974 0-.299.022-.707.139-.974 0-.266-.139-.815-.721-.974-.981v1.962c.007.089.03.898 0 .982-.029.083.061-.065 0 0-.056.059.076-.03 0 0-.075.03.082.004 0 0-.078.002-.901.031-.973 0 .053.06-.073-.032 0 0Zm2.921-2.944c.135-.055-.094.113 0 0 .094-.112.919.137.974 0 .055-.146-.029-.828 0-.981a3.67 3.67 0 0 0 0-.982c-.022-.154.055.145 0 0-.052-.145-.883-.858-.974-.981-.094-.121.136.066 0 0-.147-.076.165-.004 0 0-.186-.018-.802-.075-.974 0-.172.075.116-.15 0 0-.215.387-1.002 1.518-.974 1.963-.006.283-.083-.27 0 0 .081.239.78.825.974.981.205.16.716.012.974 0-.148.077.165-.008 0 0ZM211.014 195.949c-.224-.338-.023-1.544 0-1.979v-1.98h-.982c-.101.006.077.079 0 0-.063-.088-.004-.873 0-.99-.003-.107-.057.081 0 0 .035-.041-.046.021 0 0s-.049-.003 0 0h.982v-.99c.008-.167-.091-.865 0-.99.045-.057-.061.029 0 0s-.065-.004 0 0c.053-.003.934-.024.983 0 .049.025-.036-.047 0 0 .071.13.006.834 0 .99v.99h.982c.048-.002-.045-.021 0 0s-.034-.041 0 0c.032.043-.016-.055 0 0s.003-.058 0 0c.002.055.016-.052 0 0s.031.95 0 .99c-.035.038.045-.018 0 0s.047.005 0 0h-.982v1.98c-.013.247-.078.761 0 .989.031.078-.062-.042 0 0 .061.042-.07.009 0 0h.982c.051-.002-.046-.024 0 0 .047.025-.033-.046 0 0 .052.074-.011-.096 0 0 .011.097.034.902 0 .99-.022.058.043-.035 0 0-.065.024.068-.007 0 0h-.982c-.164.014.153.072 0 0-.154-.071-.868.144-.983 0Z" fill="#263238"/><path opacity=".25" d="M240.998 203.951h53.953c.3 0 .721.11.999 0 .277-.109-.213-.793 0-.995.212-.202.884.264.999 0 .115-.264 0-.71 0-.995v-16.922c0-.285.115-.731 0-.995s-.787.202-.999 0c-.213-.202.277-.886 0-.995-.278-.11-.699 0-.999 0h-53.953c-.606 0-.57.587-.999.995-.429.408-.999.418-.999.995v16.922c0 .572.576.588.999.995.423.407.397.989.999.995Z" fill="#000"/><path d="M244.028 195.953c-.061-.054.032.076 0 0-.032-.075-.003-.904 0-.986v-4.929c-.006-.111-.036.104 0 0 .037-.104-.073-.904 0-.986.062-.073-.087.038 0 0 .087-.039.889-.004.985 0 .156.004-.133-.084 0 0 .155.078.891-.149.984 0l2.953 4.929v-3.943c-.003-.083-.032-.911 0-.986.033-.076-.061.054 0 0 .119-.116-.164 0 0 0 .165 0 .866-.116.985 0 .061.056-.032-.077 0 0s.003.902 0 .986v4.929c.01.24.141.793 0 .986-.059.084.091-.045 0 0s-.883.004-.985 0c-.154-.006.129.087 0 0-.154-.095-.876-.84-.984-.986l-2.953-3.943v3.943c.003.082.03.911 0 .986-.031.076.059-.055 0 0-.121.105.158.001 0 0-.084.004-.906.029-.985 0 .062.058-.079-.029 0 0ZM252.027 194.948c-.298-.094.211-.781 0-.975-.192-.184-.883.228-.981 0-.098-.227.001-.734 0-.975.001-.198-.063-.783 0-.975.063-.187-.129.165 0 0 .129-.162.796-.851.981-.975.208-.134.725.062.981 0 .285-.071-.298 0 0 0 .298-.001.697-.072.981 0 .252.059.775-.128.982 0 .192.119.848.813.981.975.133.166-.065-.19 0 0 .064.197 0 .772 0 .975-.001.196.064.786 0 .975-.055.187.131-.16 0 0-.13.167-.791.852-.981.975-.208.13-.73-.061-.982 0-.283.076.299.001 0 0-.38 0-1.611.117-1.962 0Zm1.962-.975c.248-.277 1.008-.634.982-.975.024-.342-.735-.694-.982-.975-.113-.113.165.061 0 0-.164-.06.181-.005 0 0-.181-.007-.816-.06-.981 0-.165.061.113-.114 0 0-.245.281-1.01.633-.981.975-.029.34.736.697.981.975.12.108-.163-.058 0 0 .164.059.802 0 .981 0-.163.059.18 0 0 0-.119.108.164-.058 0 0ZM264.99 193.98h-2.98l-.993 1.969c-.044.142.131-.086 0 0-.116.073.141-.001 0 0-.185.001-.856.114-.993 0-.069-.05.037.074 0 0-.037-.073-.003-.904 0-.984-.013-.082-.013.081 0 0l1.986-4.924c.085-.275.752-.802.993-.984.199-.123-.24-.009 0 0 .243-.009.791-.123.993 0 .239.184.911.71.994.984l1.986 4.924c.029.079-.003-.084 0 0 .001.081.038.911 0 .984-.039.074.07-.05 0 0-.134.113-.811 0-.993 0-.144-.002.12.072 0 0-.125-.091.051.139 0 0l-.993-1.969Zm-.994-3.939-1.986 2.954h2.98l-.994-2.954ZM269.051 193.992c.133.113-.198-.059 0 0 .198.06.753.008.971 0 .4.012.63.139.97 0 .084-.039.868.001.971 0 .058-.001-.054-.016 0 0 .053.016-.038-.03 0 0 .083.059.001-.08 0 0 0 .058.039.912 0 .964-.039.052.07-.035 0 0-.205.112-.713-.044-.971 0-.345.068-.61.003-.97 0-.383.009-.616.094-.971 0-.355-.093-.704-.784-.971-.964-.27-.185-.833.24-.97 0s-.018-.709 0-.964c-.007-.336-.244-.67 0-.965.232-.289.542-.797.97-.964.455-.174 1.415-.006 1.942 0 .577-.019 1.463-.213 1.941 0 .076.03-.045-.05 0 0 .044.05-.002.906 0 .964.001.041.024-.037 0 0-.024.038.044-.027 0 0-.04.03.055-.015 0 0-.055.016-.911.002-.971 0-.096-.003.086.03 0 0-.308-.106-.622.004-.97 0-.22-.007-.77-.058-.971 0-.201.058.14-.111 0 0-.293.26-.995.643-.971.965-.035.328.675.698.971.964Z" fill="#fff"/><path d="M273.049 193.992c.134.112-.199-.06 0 0 .198.059.753.007.971 0 .402.013.631.14.971 0 .088-.041.865 0 .972 0 .058-.001-.054-.016 0 0 .053.015-.038-.029 0 0 .083.059.001-.08 0 0-.002.058.04.912 0 .964-.041.052.071-.035 0 0-.203.111-.717-.045-.972 0-.346.067-.61.002-.971 0-.382.009-.616.094-.971 0-.355-.093-.706-.784-.972-.964-.271-.185-.833.239-.971 0-.137-.24-.018-.709 0-.965-.005-.334-.236-.667 0-.964.245-.295.52-.804.971-.965.455-.176 1.415-.007 1.943 0 .576-.017 1.466-.212 1.943 0 .076.03-.045-.05 0 0s-.002.907 0 .965c.001.08.083-.059 0 0-.043.029.057-.016 0 0-.057.015-.91 0-.972 0-.093-.002.082.03 0 0-.313-.107-.618.003-.971 0-.219-.007-.771-.058-.971 0-.2.058.138-.111 0 0-.304.256-.028.641 0 .964-.051.325-.279.694 0 .965Z" fill="#fff"/><path d="M276.09 192.062c.194-.294.595-.811.973-.979.407-.183 1.47-.007 1.946 0 .359-.005.641-.103.973 0 .285.088-.197.802 0 .979.184.174.879-.21.973 0 .099.229.005.739 0 .979.006.085.062-.071 0 0-.033.031.048-.016 0 0s.052.003 0 0h-3.892c-.017.146-.069.842 0 .979.069.138.832-.102.973 0 .141.103-.187-.047 0 0 .186.048.777.017.973 0 .494-.018.587.231.973 0 .034-.021-.044.01 0 0 .043-.009-.045-.004 0 0 .045.005.934-.017.973 0 .038.018-.026-.027 0 0 .079.067-.001-.088 0 0 .002.051.028-.045 0 0-.028.046.053-.031 0 0-.532.335-1.25.99-1.946.98-.703.017-1.428-.626-1.946-.98-.251-.192-.849.252-.973 0-.125-.251-.023-.712 0-.979-.01-.331-.197-.682 0-.979Zm3.892.979c-.017-.256.207-.774 0-.979-.109-.094-.819.048-.973 0-.154-.048.166-.008 0 0-.17-.007-.818-.05-.973 0-.156.051.108-.097 0 0-.216.203-.954.721-.973.979h2.919ZM282.056 197.974c-.116-.134-.006-.803 0-.982v-4.906c-.007-.188-.122-.84 0-.981.056-.061-.076.033 0 0 .075-.033.891-.001.973 0 .158-.006-.118-.106 0 0 .056.061-.027-.079 0 0 .028.079.006.897 0 .981.157-.283.694-.83.974-.981.281-.151.658-.029.974 0 .395-.01.648-.231.974 0 .32.23.82.612.973.981.167.413.008 1.516 0 1.963.038.666-.556.469-.973.981-.195.223.269.865 0 .981-.27.116-.683.014-.974 0-.298.023-.707.139-.974 0-.266-.139-.816-.721-.974-.981v1.962c.007.089.03.898 0 .982-.029.083.06-.065 0 0-.057.058.076-.03 0 0-.075.03.081.003 0 0-.08.001-.899.031-.973 0 .055.059-.074-.032 0 0Zm2.921-2.944c.132-.057-.092.112 0 0 .097-.11.923.138.974 0 .063-.143-.02-.826 0-.981.029-.161-.001.163 0 0 .009-.156.009-.826 0-.982-.022-.154.055.145 0 0s-.88-.859-.974-.981c-.09-.121.133.066 0 0-.15-.075.167-.003 0 0-.185-.017-.804-.075-.974 0-.17.075.115-.15 0 0-.222.384-1.004 1.517-.974 1.963-.003.283-.086-.27 0 0 .078.238.783.824.974.981.209.158.714.01.974 0-.139.059.15-.002 0 0ZM288 195.95c-.224-.338-.023-1.545 0-1.98v-1.98h-.986c-.048.004.046.02 0 0-.045-.019.037.04 0 0-.033-.042.018-.935 0-.99-.017-.055-.002.059 0 0-.002-.053-.015.05 0 0 .016-.05-.03.038 0 0 .036-.041-.045.021 0 0 .046-.021-.048-.003 0 0H288v-.99c.011-.166-.089-.863 0-.99.046-.058-.062.03 0 0 .062-.029-.066-.004 0 0 .051-.002.938-.024.985 0 .048.025-.035-.046 0 0 .074.129.01.833 0 .99v.99c.048-.002.941-.021.985 0 .045.021-.034-.041 0 0 .032.043-.015-.055 0 0 .016.055.003-.058 0 0 .002.055.016-.051 0 0-.015.052.031.95 0 .99-.074.077-.888.011-.985 0v1.98c-.008.247-.074.76 0 .99.033.078-.062-.042 0 0 .063.042-.071.008 0 0h.985c.051-.003-.046-.024 0 0 .047.024-.032-.047 0 0 .066.09.002-.121 0 0 .013.071.013.919 0 .99-.025.058.045-.035 0 0-.064.025.068-.007 0 0h-.985c-.163.012.153.071 0 0s-.87.142-.985 0Z" fill="#fff"/><path d="M62.059 88.921c-.75-.402-.597-.196-.98-.978-.437-.914-1.01-1.916-.98-2.936-.01-.713-.218-2.26 0-2.937.2-.628.563-.479.98-.978.437-.513 1.347-1.709 1.96-1.958.714-.294 1.193-.014 1.96 0 1.017-.022 2.016.543 2.942.979.134.069.903-.133.98 0 .07.117-.003-.138 0 0 0 .207-.854.82-.98.979-.057.08.085-.045 0 0-.086.044.096 0 0 0-.08 0 .071.036 0 0-.773-.276-2.125.03-2.941 0-.483-.011-.532-.186-.98 0-.384.16-.73.636-.98.978-.248.355-.874.556-.981.98-.118.5-.005.462 0 .978 0 2.496.935 3.915 2.94 3.915.602 0 1.377.146 1.962 0v-1.958h-.98c-.09.004-.898.035-.981 0-.084-.035.062-.91 0-.978-.12-.145-.005.19 0 0-.001-.184-.11-.836 0-.98.054-.074-.082.04 0 0 .081-.04.89-.003.98 0h1.96c.502 0 .981.334.981.98v2.936c.026.334.164.69 0 .978-.191.223-.698.927-.98.98-.942.24-1.972-.036-2.941 0-.912.026-2.123-.557-2.941-.98ZM70.127 84.05c.27-.583 1.424-.649 1.947-.978.567-.361 1.288-.993 1.947-.978.5-.012.51-.205.973 0 .4.171.704.617.973.978.259.345.848.555.974.977.135.452-.005 1.48 0 1.955.007.172.093-.14 0 0-.044.062.066-.031 0 0s-.901.007-.974 0h-3.893c-.022.292-.096.703 0 .978.096.274-.196.772 0 .977.196.205.715.882.973.978.259.095.702.031.974 0 .687-.038 1.408-.519 1.946-.978.079-.065-.099.003 0 0 .077 0-.068-.036 0 0 .069.036.926-.064.974 0 .11.132.002-.177 0 0 0 .1.04.888 0 .978-.04.09.071-.063 0 0-.736.67-1.954.997-2.92.977-.492.025-1.485.18-1.947 0-.462-.18-.611-.62-.973-.977-.35-.386-.8-.474-.974-.978-.174-.504-.03-1.419 0-1.955.002-.667-.287-1.363 0-1.955Zm4.867.977c-.015-.521.289-.558 0-.978-.159-.18-.76-.879-.973-.978-.213-.098.231 0 0 0-.232 0-.761-.098-.974 0-.212.099-.814.797-.973.978-.31.4.027.458 0 .978h2.92ZM78.032 89.921c-.09-.106.044-.843 0-.977-.043-.133-.008.141 0 0v-5.861c-.009-.132-.045.123 0 0 .046-.123-.092-.886 0-.977.09-.087.869.044.984 0 .114-.044-.123-.006 0 0 .12-.006-.113-.042 0 0 .113.043.894-.084.983 0 .086.093-.044.856 0 .977.044.12.005-.13 0 0 .207-.404.594-.761.983-.977.462-.232.47-.013.983 0 .34-.004.665-.124.983 0 .309.12.736.752.984.977.26.266.865.618.983.977.152.415.007.532 0 .977v3.907c.014.286.184.764 0 .977-.09.093-.865-.047-.983 0-.118.048.126.006 0 0-.12.005.11.048 0 0-.11-.047-.902.092-.984 0-.183-.213-.014-.69 0-.977v-3.907c.017-.219.068-.77 0-.977-.067-.208.141.163 0 0-.13-.14-.81-.905-.983-.977-.173-.072.187-.008 0 0-.24 0-.764.874-.983.977-.22.103-.825-.189-.983 0-.368.434-.022 1.375 0 1.954v2.93c.014.286.184.764 0 .977-.179.177-.736 0-.983 0s-.805.177-.984 0ZM87.127 84.049c.276-.58 1.424-.646 1.947-.978.566-.36 1.287-.993 1.946-.978.501-.011.51-.204.974 0 .399.174.702.62.973.978.259.346.848.556.974.978.135.451-.005 1.48 0 1.955.007.171.093-.14 0 0-.045.06.066-.032 0 0-.066.03-.902.005-.974 0h-3.893c-.024.292-.096.702 0 .977.095.276-.197.773 0 .978.196.205.714.882.973.977.26.095.701.034.973 0 .688-.038 1.409-.518 1.947-.977.078-.066-.099.001 0 0 .076-.001-.067-.036 0 0 .068.036.93-.065.974 0 .112.131-.001-.179 0 0 0 .1.04.888 0 .977-.04.09.071-.063 0 0-.737.67-1.955.998-2.92.978-.492.026-1.485.18-1.947 0-.463-.18-.612-.62-.974-.978-.349-.385-.799-.474-.973-.977-.175-.504-.03-1.419 0-1.955-.001-.667-.285-1.363 0-1.956Zm4.867.977c-.015-.52.289-.558 0-.977-.16-.18-.76-.88-.974-.978-.213-.098.233 0 0 0-.232 0-.76-.098-.973 0-.213.098-.813.798-.973.978-.304.403.028.46 0 .977h2.92ZM95.036 88.97c-.1-.092.049-.858 0-.977-.05-.119-.01.125 0 0v-4.888c-.008-.113-.053.104 0 0 .052-.104-.102-.906 0-.978.196-.144.721-.003.98 0 .254-.005.786-.14.98 0 .097.067-.05-.098 0 0 .05.099.01.871 0 .978v.977c.142-.41.592-1.685.98-1.955.365-.284.488-.003.98 0 .106-.006.883-.036.98 0 .098.037-.066-.071 0 0 .14.14.007.793 0 .978.003.181.124-.147 0 0-.054.068.086-.037 0 0-.085.037-.884.003-.98 0-.276-.002-.709.93-.98.977-.245.044.216-.107 0 0-.225.117-.873-.206-.98 0-.135.266-.012.689 0 .978v2.933c.01.122.047-.116 0 0s.097.887 0 .977c-.096.08-.855-.04-.98 0s.133.005 0 0c-.136.001.125.047 0 0-.125-.046-.888.086-.98 0ZM102.043 88.904c-.252-.185-.846.277-.98 0s-.015-.673 0-.979c-.006-.27-.07-.718 0-.979.054-.21-.125-.798 0-.978.133-.18.78.105.98 0 .216-.115.744.072.979 0 .297-.087.67-.954.98-.98.359 0 .611.01.979 0 .369-.009.446 0 .98 0 .018-.187.06-.799 0-.978-.06-.18.128.142 0 0-.142-.12-.801-.922-.98-.979-.178-.056.187-.015 0 0h-.979c-.096.012-.889.947-.98.979h-.979c-.074.017.073.017 0 0-.088-.001.078.037 0 0-.079-.037.054.067 0 0-.129-.14-.984-.792-.98-.979-.005-.11.919.094.98 0 .06-.094-.106.044 0 0 .912-.407 1.934-.995 2.938-.979.437-.008.56-.114.98 0 .354.1.693.755.98.98.312.245.848.61.979.978.173.428.013.52 0 .979v3.915c.008.13.047-.121 0 0-.046.121.093.886 0 .979-.18.159-.735.002-.979 0-.122.004.113.042 0 0-.114-.042-.893.081-.98 0-.095-.093.049-.858 0-.98-.048-.12-.006.131 0 0-.167.385-.621.75-.98.98-.442.253-.465.02-.979 0-.694.034-1.396-.586-1.959-.98Zm2.938-.979c.2-.2.877-.718.98-.979.103-.26.009.279 0 0v-.978h-.98c-.271 0-.707.894-.979.978-.217.025-.794-.112-.98 0-.13.096.067-.144 0 0-.084.18-.008.782 0 .98-.011.147-.055-.139 0 0 .056.137-.111-.103 0 0 .234.195.671.992.98.978.257 0 .744.1.979 0 .236-.1-.174-.795 0-.979ZM109.083 88.971c-.173-.199-.017-.736 0-.994v-7.954c-.017-.259-.178-.797 0-.994.085-.082.805.044.917 0 .111-.044-.121 0 0 0 .123-.003-.115-.044 0 0 .114.044.829-.084.916 0 .182.195.014.734 0 .994v7.954c.007.13.046-.122 0 0-.047.122.093.899 0 .994-.087.082-.802-.043-.916 0-.115.043.123.004 0 0-.121.005.111.043 0 0-.112-.043-.833.083-.917 0ZM119.015 88.968c-.098-.098.051-.865 0-.994-.051-.13-.005.14 0 0v-6.959h-1.97c-.104.005-.889.04-.985 0-.096-.04.071-.917 0-.994-.133-.15-.003.202 0 0 .002-.205-.134-.84 0-.994.069-.077-.095.04 0 0s.883-.005.985 0h5.91c.101-.003.892-.04.985 0 .093.04-.068-.075 0 0 .131.155 0 .79 0 .994.003.202.133-.15 0 0-.067.076.094.954 0 .994-.093.04-.883.004-.985 0h-1.97v6.959c.006.14.051-.13 0 0s.099.896 0 .994c-.089.091-.867-.048-.985 0-.117.048.127.002 0 0-.127.003.118.049 0 0-.117-.049-.896.092-.985 0ZM126.127 84.05c.276-.579 1.429-.643 1.947-.978.567-.361 1.288-.993 1.947-.978.501-.012.51-.205.974 0 .4.171.704.617.973.978.258.347.841.556.973.977.133.452-.001 1.481 0 1.955.008.172.094-.14 0 0-.044.062.067-.031 0 0-.066.031-.901.007-.973 0h-3.894c-.024.293-.095.702 0 .978.096.275-.196.772 0 .977.197.205.714.883.974.978.259.095.701.033.973 0 .684-.04 1.411-.52 1.947-.978.078-.065-.099.003 0 0 .076 0-.069-.036 0 0s.926-.064.973 0c.11.132.003-.177 0 0 .003.1.04.888 0 .978-.039.09.074-.062 0 0-.736.67-1.954.997-2.92.977-.491.025-1.484.18-1.947 0-.462-.18-.611-.62-.973-.977-.348-.387-.8-.474-.974-.978-.174-.503-.028-1.419 0-1.955.002-.667-.287-1.363 0-1.955Zm4.868.977c-.016-.521.288-.558 0-.978-.159-.18-.761-.879-.974-.978-.213-.098.232 0 0 0s-.761-.098-.973 0c-.213.099-.815.797-.974.978-.307.402.031.46 0 .978h2.921ZM134.035 88.97c-.098-.093.047-.859 0-.977-.047-.12-.011.125 0 0v-4.887c-.008-.112-.051.104 0 0s-.099-.904 0-.977c.196-.145.722-.004.981 0 .254-.006.786-.141.981 0 .098.066-.052-.099 0 0 .051.098.007.87 0 .977v.977c.145-.41.596-1.683.981-1.954.367-.287.485-.006.981 0 .105-.005.884-.037.981 0 .097.036-.068-.07 0 0 .132.143.006.794 0 .977.002.181.123-.147 0 0-.055.068.085-.037 0 0-.086.037-.886.003-.981 0-.277-.001-.71.932-.981.977-.242.043.212-.107 0 0-.228.117-.871-.207-.981 0-.132.266-.015.689 0 .978v2.932c.008.123.049-.116 0 0s.098.887 0 .977c-.096.08-.857-.04-.981 0-.125.04.133.005 0 0-.138.002.126.046 0 0-.127-.046-.888.087-.981 0ZM140.076 89.967c-.164-.216-.014-.691 0-.977v-5.866c-.012-.28-.161-.767 0-.978.082-.09.882.046.988 0 .106-.046-.113-.006 0 0 .22-.004-.167-.164 0 0 .081.084.946.862.988.978.042.115.005-.125 0 0 .199-.452.603-.73.988-.978.384-.249.547-.04.987 0 .5-.024.571-.316.988 0 .38.292.862 1.451.988 1.955.187-.533.562-1.652.988-1.955.426-.303 1.476-.046 1.976 0 .323-.018-.305-.127 0 0 .304.126.748.726.987.978.238.291.873.6.988.977.115.377.028.58 0 .978v3.91c.01.143.04-.134 0 0-.04.135.083.873 0 .978-.081.092-.882-.047-.988 0-.106.048.114.005 0 0-.111.006.104.048 0 0-.103-.047.077.093 0 0-.164-.216-1.002-.691-.987-.977v-3.911c.028-.442.243-.633 0-.978-.12-.14.159-.906 0-.977-.16-.071-.817-.011-.988 0-.224-.008-.783-.105-.988 0-.205.104.145.781 0 .977-.328.466-1.021 1.358-.988 1.956v2.933c.012.285.162.76 0 .977-.081.092.106-.047 0 0-.106.048-.874.005-.988 0-.111.006.104.048 0 0-.103-.047.077.093 0 0-.082-.106.04-.843 0-.977-.04-.135-.008.142 0 0v-3.911c.03-.45-.743-.623-.988-.978-.12-.142.162-.905 0-.977-.161-.073-.815-.011-.987 0-.221-.012.204-.096 0 0-.205.095-.838.792-.988.977-.311.42-.027.428 0 .978v3.91c.008.143.041-.134 0 0-.042.135-.904.873-.988.978-.082.094.108-.047 0 0-.108.048.115.006 0 0-.109.007.102.045 0 0-.102-.044-.91.088-.988 0ZM154.063 88.998c-.001-.165-.102-.877 0-1 .05-.06-.069.034 0 0 .069-.032.903 0 .979 0 .129.003-.111-.072 0 0 .194.096.772.943.978 1 .51.14 1.448.14 1.957 0 .206-.053-.154-.84 0-1 .075-.076-.039.105 0 0 .039-.103.004.113 0 0 0-.438-.324-.789-.978-.999l-.979-1c-.331-.095.209.077 0 0-.217-.078-.777.12-.978 0-.181-.1-.842-.835-.979-.999-.124-.16.061.199 0 0-.073-.246-.004-.74 0-1-.011-.32-.136-.715 0-1 .136-.283.731.174.979 0 .612-.4 1.244-1.033 1.957-.999.797-.003 1.239.62 1.957 1 .113.049.911-.11.978 0 .067.11.003-.133 0 0 .005.154-.884.884-.978 1-.049.057.066-.03 0 0s.071.003 0 0c-.094-.002.085.042 0 0h-.979c-.09-.035.095-.984 0-1h-.978c-.318-.01-.689.857-.979 1-.111.046.067-.108 0 0-.067.107-.001-.13 0 0-.006.1-.035-.093 0 0 .035.092-.069.933 0 1 .245.156.699-.052.979 0h.978c.608.124.499.573.979.999.178.19.888.746.978 1 .091.252.014.728 0 .999.017.348.139.686 0 1-.138.313-.718-.202-.978 0-.604.444-1.23 1.035-1.957.999-.983.035-2.13-.383-2.936-1 .044.08-.072-.049 0 0 .006.093-.044-.08 0 0Z" fill="#263238"/><path d="M177.821 189.099c-.257-.491-1.985 1.007-1.985 1.007-1.348 1.313-11.097 11.075-12.903 11.075-1.806 0-34.738 11.075-34.738 11.075l-25.806-7.048c-2.245 5.69 5.955 16.109 5.955 16.109s19.99 1.537 23.821 0c3.831-1.536 31.761-16.109 31.761-16.109s3.166-.122 4.962-1.007c1.303-.546 2.07-.951 2.978-2.013.449-.661 1.401-.701 2.977-2.014.188-.105-.119-.831 0-1.007.12-.176-.026.21 0 0s.074-.808 0-1.007c-.073-.199.157-.861 0-1.007l-.992 1.007 2.977-5.034c.398-.457.714-.473.993-1.007.403-.893 0-1.006 0-1.006s.256-1.514 0-2.014Z" fill="#fff"/><path opacity=".15" d="M177.821 189.099c-.257-.491-1.985 1.007-1.985 1.007-1.348 1.313-11.097 11.075-12.903 11.075-1.806 0-34.738 11.075-34.738 11.075l-25.806-7.048c-2.245 5.69 5.955 16.109 5.955 16.109s19.99 1.537 23.821 0c3.831-1.536 31.761-16.109 31.761-16.109s3.166-.122 4.962-1.007c1.303-.546 2.07-.951 2.978-2.013.449-.661 1.401-.701 2.977-2.014.188-.105-.119-.831 0-1.007.12-.176-.026.21 0 0s.074-.808 0-1.007c-.073-.199.157-.861 0-1.007l-.992 1.007 2.977-5.034c.398-.457.714-.473.993-1.007.403-.893 0-1.006 0-1.006s.256-1.514 0-2.014Z" fill="#000"/><path d="M177.821 189.099c-.257-.491-1.985 1.007-1.985 1.007-1.348 1.313-11.097 11.075-12.903 11.075-1.806 0-34.738 11.075-34.738 11.075l-25.806-7.048c-2.245 5.69 5.955 16.109 5.955 16.109s19.99 1.537 23.821 0c3.831-1.536 31.761-16.109 31.761-16.109s3.166-.122 4.962-1.007c1.303-.546 2.07-.951 2.978-2.013.449-.661 1.401-.701 2.977-2.014.188-.105-.119-.831 0-1.007.12-.176-.026.21 0 0s.074-.808 0-1.007c-.073-.199.157-.861 0-1.007l-.992 1.007 2.977-5.034c.398-.457.714-.473.993-1.007.403-.893 0-1.006 0-1.006s.256-1.514 0-2.014Z" stroke="#263238" stroke-linecap="round" stroke-linejoin="round"/><path d="M174.828 200.176c.188-.105-.12-.831 0-1.007.12-.176-.026.21 0 0s.074-.808 0-1.007c-.074-.198.157-.861 0-1.006l-.998 1.006 2.993-5.033c.398-.457.718-.473.997-1.007.404-.893 0-1.007 0-1.007s.258-1.514 0-2.013c-.257-.5-1.995 1.006-1.995 1.006-1.349 1.313-11.159 11.075-12.967 11.075-1.809 0-34.913 11.074-34.913 11.074l-11.97-4.027c-3.048 3.415-6.512 7.05-9.975 10.067 1.129 1.964 1.995 3.021 1.995 3.021s20.103 1.535 23.94 0c3.838-1.536 31.92-16.108 31.92-16.108s3.188-.123 4.988-1.007c1.305-.546 2.083-.952 2.992-2.014.487-.633 1.414-.674 2.993-2.013Z" fill="#73CE2B" stroke="#263238" stroke-linecap="round" stroke-linejoin="round"/><path d="M177 190c-1.85.812-3.416 1.787-5 3-1.409 1.556-2.86 3.26-4 5 0 0 8.205-6.512 9-8Z" fill="#fff"/><path opacity=".15" d="M177 190c-1.85.812-3.416 1.787-5 3-1.409 1.556-2.86 3.26-4 5 0 0 8.205-6.512 9-8Z" fill="#000"/><path d="M177 190c-1.85.812-3.416 1.787-5 3-1.409 1.556-2.86 3.26-4 5 0 0 8.205-6.512 9-8Z" stroke="#263238" stroke-linecap="round" stroke-linejoin="round"/><path d="M177.822 192.087c.4-.876 0-.996 0-.996s.255-1.501 0-1.992c-.255-.49-1.989.996-1.989.996-1.337 1.288-11.138 10.955-12.93 10.955-.91 0-9.607 2.394-17.903 4.979l2.984 6.971c7.86-4.127 15.914-7.967 15.914-7.967s3.19-.128 4.973-.996c1.293-.536 2.082-1.945 2.983-2.987.446-.649 1.42.292 2.984-.996.187-.103-.119-.823 0-.996.119-.173-.025.206 0 0 .026-.206.073-.801 0-.996-.073-.195.156-.853 0-.996h-.994l2.983-3.983c.411-.446.704-.47.995-.996Z" fill="#fff"/><path opacity=".15" d="M177.822 192.087c.4-.876 0-.996 0-.996s.255-1.501 0-1.992c-.255-.49-1.989.996-1.989.996-1.337 1.288-11.138 10.955-12.93 10.955-.91 0-9.607 2.394-17.903 4.979l2.984 6.971c7.86-4.127 15.914-7.967 15.914-7.967s3.19-.128 4.973-.996c1.293-.536 2.082-1.945 2.983-2.987.446-.649 1.42.292 2.984-.996.187-.103-.119-.823 0-.996.119-.173-.025.206 0 0 .026-.206.073-.801 0-.996-.073-.195.156-.853 0-.996h-.994l2.983-3.983c.411-.446.704-.47.995-.996Z" fill="#000"/><path d="M175 197s-2.692 1.668-5 3M178 191c-.913.509-1.428 1.146-2 2-1.376 1.815-3.225 3.542-5 5" stroke="#263238" stroke-linecap="round" stroke-linejoin="round"/><path d="M177.822 192.087c.4-.876 0-.996 0-.996s.255-1.501 0-1.992c-.255-.49-1.989.996-1.989.996-1.337 1.288-11.138 10.955-12.93 10.955-.91 0-9.607 2.394-17.903 4.979l2.984 6.971c7.86-4.127 15.914-7.967 15.914-7.967s3.19-.128 4.973-.996c1.293-.536 2.082-1.945 2.983-2.987.446-.649 1.42.292 2.984-.996.187-.103-.119-.823 0-.996.119-.173-.025.206 0 0 .026-.206.073-.801 0-.996-.073-.195.156-.853 0-.996h-.994l2.983-3.983c.411-.446.704-.47.995-.996v0Z" stroke="#263238" stroke-linecap="round" stroke-linejoin="round"/><path d="M89.755 171.27c-.408-2.611-1.732-4.676-2.948-7.037-1.953-3.695-7.245-4.737-7.863-4.021-.617.715-1.605 1.367-3.93 1.005-2.327-.362-7.98.941-6.88 2.01 1.099 1.07.732 1.057-1.966 2.011-2.698.955-2.7 4.072-.983 5.027 1.717.954 1.345 1.46 0 3.015-1.345 1.556-1.272 2.901 0 3.016 1.272.115 2.21-.013.983 2.011-1.227 2.024-.862 3.765.983 4.021 1.844.256 1.965 1.354 1.965 3.016s.985 3.281 1.966 3.016c.981-.265 1.475-.312 1.966 1.005.49 1.317 1.967 1.606 2.948 1.005.981-.601 1.72-.716 1.966 0 .245.716 1.113.955 2.948 0 1.835-.954 1.967-2.074 2.948-1.005.219.223.674-.065.983 0 .31.065.69.115.983 0 .294-.115.806.256.983 0 .176-.256.002-.697 0-1.005.14-1.719.311-3.431.983-5.027.708-1.564 2.946-8.245 1.965-12.063Z" fill="#263238" stroke="#263238" stroke-linecap="round" stroke-linejoin="round"/><path d="M80 251.012s-8.859 5.827-9.996 11.009c-1.137 5.182-2.767 13.937-2.999 15.012-.23 1.075-9.764 30.951-9.995 32.026-.231 1.075-9.246 8.314-8.996 15.012s-3.777 38.084-3.999 40.032c-.221 1.947 1.992 2.919 3.999 4.003 2.006 1.084 6.243 4.496 10.995 2.002 3.698-1.922-8.996-8.529-8.996-12.01s12.6-34.546 15.993-41.033c3.393-6.486 11.507-22.363 13.994-26.021 1.668-2.544 2.8-5.231 3.998-8.006 0 0 .813 14.668-1 22.018-1.812 7.35-3.477 18.567-1 30.024 2.479 11.456 2.684 23.346 2 27.021-.684 3.675.724 3.36 2.999 4.003 2.274.644 6.278-.109 8.996 1.001 2.718 1.111 8.617.762 8.996-1.001.379-1.762-9.055-4.864-11.995-7.005-2.94-2.142-2.314-6.146-2.999-15.012-.684-8.866 5.092-31.059 5.998-36.029.906-4.971 6.997-23.654 6.997-34.027 0-10.373-1-15.012-1-15.012s-3.19-3.194-9.995-6.005c-3.911-1.678-7.708-2.096-11.995-2.002Z" fill="#fff"/><path opacity=".15" d="M80 251.012s-8.859 5.827-9.996 11.009c-1.137 5.182-2.767 13.937-2.999 15.012-.23 1.075-9.764 30.951-9.995 32.026-.231 1.075-9.246 8.314-8.996 15.012s-3.777 38.084-3.999 40.032c-.221 1.947 1.992 2.919 3.999 4.003 2.006 1.084 6.243 4.496 10.995 2.002 3.698-1.922-8.996-8.529-8.996-12.01s12.6-34.546 15.993-41.033c3.393-6.486 11.507-22.363 13.994-26.021 1.668-2.544 2.8-5.231 3.998-8.006 0 0 .813 14.668-1 22.018-1.812 7.35-3.477 18.567-1 30.024 2.479 11.456 2.684 23.346 2 27.021-.684 3.675.724 3.36 2.999 4.003 2.274.644 6.278-.109 8.996 1.001 2.718 1.111 8.617.762 8.996-1.001.379-1.762-9.055-4.864-11.995-7.005-2.94-2.142-2.314-6.146-2.999-15.012-.684-8.866 5.092-31.059 5.998-36.029.906-4.971 6.997-23.654 6.997-34.027 0-10.373-1-15.012-1-15.012s-3.19-3.194-9.995-6.005c-3.911-1.678-7.708-2.096-11.995-2.002Z" fill="#000"/><path d="M80 251.012s-8.859 5.827-9.996 11.009c-1.137 5.182-2.767 13.937-2.999 15.012-.23 1.075-9.764 30.951-9.995 32.026-.231 1.075-9.246 8.314-8.996 15.012s-3.777 38.084-3.999 40.032c-.221 1.947 1.992 2.919 3.999 4.003 2.006 1.084 6.243 4.496 10.995 2.002 3.698-1.922-8.996-8.529-8.996-12.01s12.6-34.546 15.993-41.033c3.393-6.486 11.507-22.363 13.994-26.021 1.668-2.544 2.8-5.231 3.998-8.006 0 0 .813 14.668-1 22.018-1.812 7.35-3.477 18.567-1 30.024 2.479 11.456 2.684 23.346 2 27.021-.684 3.675.724 3.36 2.999 4.003 2.274.644 6.278-.109 8.996 1.001 2.718 1.111 8.617.762 8.996-1.001.379-1.762-9.055-4.864-11.995-7.005-2.94-2.142-2.314-6.146-2.999-15.012-.684-8.866 5.092-31.059 5.998-36.029.906-4.971 6.997-23.654 6.997-34.027 0-10.373-1-15.012-1-15.012s-3.19-3.194-9.995-6.005c-3.911-1.678-7.708-2.096-11.995-2.002v0Z" stroke="#263238" stroke-linecap="round" stroke-linejoin="round"/><path d="M90 338c1.01-10.483 5.265-25.923 6-29.995.919-4.96 6-23.642 6-33.994s-1-14.998-1-14.998-3.236-3.193-10-5.999c-3.895-1.668-7.734-2.104-12-1.999 0 0-7.87 5.826-9 10.998-1.13 5.171-3.77 13.924-4 14.997-.23 1.073-9.77 30.922-10 31.995-.23 1.073-8.248 8.313-8 14.997.074 2.182-.421 6.484-1 11.999 2.756 1.434 5.896 2.566 9 2.999 3.474-9.261 7.272-18.681 9-21.996 3.382-6.465 11.528-22.329 14-25.996 1.658-2.54 2.808-5.23 4-7.999 0 0 .801 14.662-1 21.997-1.801 7.335-3.463 18.561-1 29.995.193.879.825 2.12 1 2.999 1.434.501 3.745.625 8 0Z" fill="#263238" stroke="#263238" stroke-linecap="round" stroke-linejoin="round"/><path d="m84 283 7-9" stroke="#fff" stroke-linecap="round" stroke-linejoin="round"/><path d="m79 248.272-1 3.064s9.608 10.171 17.998 11.231c8.39 1.06 7.999.096 7.999-2.042s-8.186-5.783-14.998-9.189c-6.813-3.407-8.018-3.707-10-3.064Z" fill="#3C94CB" stroke="#263238" stroke-linecap="round" stroke-linejoin="round"/><path d="M113.992 178.009c0-1.643 2.394-7.118-1.999-10.945-4.393-3.828-11.998-2.985-11.998-2.985-9.152.594-14.846 10.849-12.997 17.91 1.848 7.061 7.15 7.678 8.998 9.95 1.007 1.206-.149 4.343-1 6.965-7.87.341-6.543 6.768-7.998 10.945-1.83 5.139-4.331 21.231-5 24.876-.667 3.644-5.998 9.799-5.998 11.94s9.476 5.904 17.996 9.95c8.521 4.046 8.424 4.14 9.998 1.99 1.574-2.15 3.999-24.296 3.999-26.865 0-2.57 7.793-8.297 5.999-11.941-1.446-2.936-8.508-14.745-10.997-18.905h.999c1.015-2.624 1.632-5.486 3-7.96 0 0 4.644.122 5.998 0 1.355-.122 2.753.176 3-.995.101-.918-.658-2.122-1-2.985 0 0 .753-.287 1-.995s-1-.995-1-.995c.613-.236 1-.995 1-.995l-1-.995s1.807-.531 2-1.99c.192-1.459-3-3.341-3-4.975Z" fill="#fff"/><path opacity=".15" d="M113.992 178.093c0-1.661 2.392-7.138-1.999-11.008-4.391-3.869-11.998-3.002-11.998-3.002-9.148.601-14.845 10.875-12.997 18.013 1.848 7.139 7.15 7.71 8.998 10.007 1.006 1.22-.15 4.355-1 7.006-7.867.344-6.544 6.784-7.998 11.007-1.83 5.195-4.331 21.334-5 25.019-.667 3.684-5.998 9.844-5.998 12.008 0 2.165 9.48 5.917 17.996 10.008 8.517 4.09 11.406 3.174 12.998 1 1.591-2.173.999-22.429.999-25.018 0-2.589 7.792-9.325 5.999-13.009-1.445-2.969-8.509-13.808-10.997-18.013l.999-1.001c1.015-2.653 1.632-4.504 3-7.005 0 0 4.645.124 5.998 0 1.354-.124 2.753-.818 3-2.002.101-.928-.658-2.129-1-3.002 0 0 .753.716 1 0 .247-.715-1-2.001-1-2.001.613-.239 1-1.001 1-1.001l-1-1.001s1.808-.526 2-2.001c.192-1.476-3-3.352-3-5.004Z" fill="#000"/><path d="M113.992 178.009c0-1.643 2.394-7.118-1.999-10.945-4.393-3.828-11.998-2.985-11.998-2.985-9.152.594-14.846 10.849-12.997 17.91 1.848 7.061 7.15 7.678 8.998 9.95 1.007 1.206-.149 4.343-1 6.965-7.87.341-6.543 6.768-7.998 10.945-1.83 5.139-4.331 21.231-5 24.876-.667 3.644-5.998 9.799-5.998 11.94s9.476 5.904 17.996 9.95c8.521 4.046 8.424 4.14 9.998 1.99 1.574-2.15 3.999-24.296 3.999-26.865 0-2.57 7.793-8.297 5.999-11.941-1.446-2.936-8.508-14.745-10.997-18.905h.999c1.015-2.624 1.632-5.486 3-7.96 0 0 4.644.122 5.998 0 1.355-.122 2.753.176 3-.995.101-.918-.658-2.122-1-2.985 0 0 .753-.287 1-.995s-1-.995-1-.995c.613-.236 1-.995 1-.995l-1-.995s1.807-.531 2-1.99c.192-1.459-3-3.341-3-4.975Z" stroke="#263238" stroke-linecap="round" stroke-linejoin="round"/><path d="M112.888 179.999c.084.546.203.941 0 .997-.203.055-.692-.443-.776-.997-.084-.553-.203-.949 0-.996.203-.047.692.483.776.996Z" fill="#263238"/><path d="M111 176s.258-1.256 2-.953M115 188s-1.528.714-2 0" stroke="#263238" stroke-linecap="round" stroke-linejoin="round"/><path d="M113.762 221.017c-.578-1.22-2.347-4.103-3.975-7.017-7.443 4.272-16.515 6.138-24.843 4.01-1.357 6.94-2.556 15.442-2.981 18.043-.67 3.739-5.963 9.832-5.963 12.029 0 2.196 5.483 6.856 13.912 11.026 8.43 4.17 12.357 3.208 13.913 1.002 1.556-2.205 2.981-23.426 2.981-26.062 0-2.636 8.729-9.292 6.956-13.031Z" fill="#73CE2B" stroke="#263238" stroke-linecap="round" stroke-linejoin="round"/><path d="M89 222s7.55-.163 11-1M85 224s6.997 1.397 9 .888" stroke="#263238" stroke-linecap="round" stroke-linejoin="round"/><path d="M105.61 164.204c-2.06-.357-3.994-.172-6.08 0-9.6.613-16.127 10.594-14.188 17.869 1.66 6.23 6.692 8.171 9.12 9.927 1.92-.738 3.401-1.709 4.054-2.978.69-1.27 1.691-2.58 2.027-3.971 0 0 .62 1.069 1.013-.993.394-2.061 3.705-3.408 5.068-5.956 1.363-2.548-1.284-5.754-3.041-7.941-1.353-1.702-1.851-4.939 2.027-5.957Z" fill="#263238" stroke="#263238" stroke-linecap="round" stroke-linejoin="round"/><path d="M104.855 163.02c.87-.681 1.825-.891 2.913-1.006 1.087-.116 2.896.523 3.883 1.006 3.922 1.83-1.742 3.562-3.883 7.041-2.142 3.479-3.788 9.152-4.855 6.036-1.066-3.116-1.36-6.969 0-10.059.526-1.242.888-2.206 1.942-3.018Z" fill="#263238" stroke="#263238" stroke-linecap="round" stroke-linejoin="round"/><path d="M102 185.491s-3.078-5.778-5.946-4.226c-2.867 1.552.788 7.189 2.973 8.452 2.185 1.263 2.973-2.113 2.973-2.113" fill="#fff"/><path opacity=".15" d="M102 185.491s-3.078-5.778-5.946-4.226c-2.867 1.552.788 7.189 2.973 8.452 2.185 1.263 2.973-2.113 2.973-2.113" fill="#000"/><path d="M102 185.491s-3.078-5.778-5.946-4.226c-2.867 1.552.788 7.189 2.973 8.452 2.185 1.263 2.973-2.113 2.973-2.113" stroke="#263238" stroke-linecap="round" stroke-linejoin="round"/><path d="M101 209.346s-5.045-8.127-11.079-5.987c-6.034 2.14-25.495 26.3-26.185 29.934-.69 3.634-6.043 32.927-6.043 32.927s-1.154 3.409 0 5.986c1.154 2.578 1.163 3.838 0 5.987s-.884 2.247 1.007.998c1.892-1.249 1.938-1.163 4.029-4.989 2.09-3.826-2.015-9.978-2.015-9.978s12.62-24.581 13.093-26.94c.246-1.346.332-2.778 1.007-3.991 0 0 21.074-15.962 23.165-18.958" fill="#fff"/><path opacity=".15" d="M101 209.346s-5.045-8.127-11.079-5.987c-6.034 2.14-25.495 26.3-26.185 29.934-.69 3.634-6.043 32.927-6.043 32.927s-1.154 3.409 0 5.986c1.154 2.578 1.163 3.838 0 5.987s-.884 2.247 1.007.998c1.892-1.249 1.938-1.163 4.029-4.989 2.09-3.826-2.015-9.978-2.015-9.978s12.62-24.581 13.093-26.94c.246-1.346.332-2.778 1.007-3.991 0 0 21.074-15.962 23.165-18.958" fill="#000"/><path d="M101 209.346s-5.045-8.127-11.079-5.987c-6.034 2.14-25.495 26.3-26.185 29.934-.69 3.634-6.043 32.927-6.043 32.927s-1.154 3.409 0 5.986c1.154 2.578 1.163 3.838 0 5.987s-.884 2.247 1.007.998c1.892-1.249 1.938-1.163 4.029-4.989 2.09-3.826-2.015-9.978-2.015-9.978s12.62-24.581 13.093-26.94c.246-1.346.332-2.778 1.007-3.991 0 0 21.074-15.962 23.165-18.958" stroke="#263238" stroke-linecap="round" stroke-linejoin="round"/><path d="M76.86 215c-6.576 7.26-12.727 16.004-13.115 18.052-.7 3.665-6.052 33.096-6.052 33.096s-1.154 3.424 0 6.017c1.154 2.593 1.163 3.856 0 6.018-1.164 2.162-.884 2.26 1.009 1.003 1.892-1.257 1.944-1.165 4.035-5.015 2.09-3.85-2.018-10.029-2.018-10.029s12.641-24.705 13.114-27.078c.246-1.354.333-2.791 1.009-4.012 0 0 11.195-8.151 18.158-14.04-5.635-.027-11.086-1.696-16.14-4.012Z" fill="#73CE2B" stroke="#263238" stroke-linecap="round" stroke-linejoin="round"/><path d="M64.781 236c-1.508 8.538-5.11 31.123-5.11 31.123s-1.135 3.406 0 6.024c1.136 2.618 1.145 3.84 0 6.024-1.144 2.183-.84 2.273 1.023 1.003 1.861-1.269 2.03-1.132 4.087-5.019 2.057-3.888-2.044-10.04-2.044-10.04S73.65 242.17 75 238.008L64.781 236Z" fill="#fff"/><path opacity=".15" d="M64.781 236c-1.508 8.538-5.11 31.123-5.11 31.123s-1.135 3.406 0 6.024c1.136 2.618 1.145 3.84 0 6.024-1.144 2.183-.84 2.273 1.023 1.003 1.861-1.269 2.03-1.132 4.087-5.019 2.057-3.888-2.044-10.04-2.044-10.04S73.65 242.17 75 238.008L64.781 236Z" fill="#000"/><path d="M64.781 236c-1.508 8.538-5.11 31.123-5.11 31.123s-1.135 3.406 0 6.024c1.136 2.618 1.145 3.84 0 6.024-1.144 2.183-.84 2.273 1.023 1.003 1.861-1.269 2.03-1.132 4.087-5.019 2.057-3.888-2.044-10.04-2.044-10.04S73.65 242.17 75 238.008L64.781 236Z" stroke="#263238" stroke-linecap="round" stroke-linejoin="round"/><path d="M50.142 359.057c-.287.039-.779-.146-1.021 0-.242.147.154.782 0 1.009-.574.756-1.81 1.12-2.042 2.018l-2.042-2.018c-.294 2.18-.975 3.663-1.021 4.036-.23 1.875 2.093 2.992 4.084 4.036 1.99 1.043 5.495 4.418 10.21 2.018 3.44-1.782-7.049-7.638-8.168-11.099ZM93.094 359.033c-.243-.199-.785-.795-.992-1.033-.55.188-.595.597-.991 1.033-.316.467-.855.482-.991 1.033v1.033c-1.95.309-4.057.578-5.948 0 0 .162.028.9 0 1.034-.675 3.964.7 3.438 2.974 4.132 2.274.694 6.204-.165 8.921 1.033 2.718 1.198 8.543.868 8.922-1.033.379-1.901-8.956-4.903-11.895-7.232Z" fill="#3C94CB" stroke="#263238" stroke-linecap="round" stroke-linejoin="round"/></svg>