<?xml version="1.0" standalone="no"?>
<!DOCTYPE svg PUBLIC "-//W3C//DTD SVG 20010904//EN"
 "http://www.w3.org/TR/2001/REC-SVG-20010904/DTD/svg10.dtd">
<svg version="1.0" xmlns="http://www.w3.org/2000/svg"
 width="544.000000pt" height="544.000000pt" viewBox="0 0 544.000000 544.000000"
 preserveAspectRatio="xMidYMid meet">
<metadata>
Created by potrace 1.14, written by Peter Selinger 2001-2017
</metadata>
<g transform="translate(0.000000,544.000000) scale(0.100000,-0.100000)"
fill="#000000" stroke="none">
<path d="M2218 5155 c-2 -1 -32 -5 -68 -8 -36 -4 -78 -9 -95 -12 -16 -3 -43
-7 -60 -10 -16 -3 -41 -7 -55 -10 -14 -3 -36 -7 -50 -10 -38 -7 -215 -60 -285
-85 -280 -101 -574 -306 -745 -520 -19 -24 -41 -49 -47 -56 -7 -7 -13 -17 -13
-22 0 -6 -4 -12 -8 -14 -12 -4 -72 -95 -72 -107 0 -6 -4 -11 -8 -11 -12 0
-135 -249 -148 -300 -2 -8 -13 -42 -25 -75 -12 -33 -25 -76 -29 -95 -5 -19
-11 -46 -14 -60 -14 -56 -34 -171 -45 -260 -8 -65 -7 -438 2 -475 3 -11 8 -45
13 -75 4 -30 8 -57 9 -60 1 -3 5 -25 9 -50 5 -25 10 -54 13 -65 3 -11 8 -36
13 -55 5 -19 11 -46 14 -59 12 -52 90 -270 127 -353 42 -95 115 -237 131 -253
12 -12 4 47 -27 199 -25 126 -28 173 -29 476 -1 225 9 375 28 437 3 10 8 36
12 58 3 22 8 43 11 47 2 5 6 16 8 26 16 84 140 368 199 458 15 21 32 47 39 58
92 139 302 370 405 446 19 14 46 35 60 46 23 18 136 92 217 141 131 80 439
196 576 217 20 3 42 8 50 10 43 15 219 30 344 30 190 -1 330 -20 503 -70 97
-28 235 -83 240 -96 2 -4 9 -8 16 -8 8 0 25 -9 40 -21 14 -11 26 -18 26 -15 0
6 141 -91 150 -104 3 -3 23 -19 45 -36 22 -16 45 -33 51 -39 85 -76 193 -175
213 -195 25 -24 170 -153 220 -195 23 -19 24 -19 17 -1 -21 60 -192 316 -261
392 -62 69 -125 146 -187 229 -141 187 -312 326 -528 431 -95 46 -257 106
-317 119 -10 2 -40 9 -68 15 -71 17 -76 18 -131 24 -27 4 -65 9 -84 12 -36 6
-397 14 -402 9z"/>
<path d="M663 4512 c-29 -32 -84 -98 -123 -147 -39 -50 -75 -95 -80 -102 -23
-28 -150 -234 -184 -298 -107 -199 -212 -500 -242 -689 -3 -21 -7 -47 -9 -58
-16 -79 -20 -161 -19 -358 1 -124 4 -247 8 -275 9 -65 42 -225 58 -278 6 -23
12 -46 14 -52 19 -84 248 -633 271 -652 8 -6 24 -29 35 -50 11 -21 23 -40 27
-43 3 -3 28 -34 56 -70 118 -154 254 -289 438 -436 134 -107 475 -270 623
-298 16 -3 47 -10 69 -16 22 -5 63 -13 90 -16 28 -3 52 -8 56 -9 9 -6 151 -18
221 -19 38 -1 68 -4 68 -8 0 -5 -12 -8 -27 -9 -76 -2 -238 -20 -245 -27 -26
-25 32 -39 247 -58 100 -9 307 -10 445 -2 l105 6 -65 -15 c-96 -23 -438 -21
-570 2 -8 1 -44 6 -80 10 -47 5 -77 16 -107 37 -147 101 -412 159 -549 120
-92 -27 -167 -111 -179 -204 -8 -55 -20 -49 150 -83 39 -8 80 -16 91 -19 12
-2 37 -7 55 -10 19 -3 75 -12 124 -20 115 -19 158 -25 220 -32 28 -3 61 -7 75
-10 14 -2 54 -6 90 -9 36 -3 81 -8 100 -10 224 -28 702 -22 927 10 18 3 57 8
85 11 29 4 57 8 61 11 4 3 24 7 45 9 96 12 351 87 457 135 28 13 54 22 59 21
13 -4 -3 49 -25 80 -25 34 -93 82 -134 93 -44 13 -64 15 -130 16 l-60 2 35 14
c88 36 176 78 191 90 8 7 19 13 24 13 7 0 89 49 120 72 101 74 255 219 255
240 0 3 6 13 13 20 23 22 68 98 59 98 -18 0 -155 -50 -170 -62 -8 -7 -17 -12
-19 -10 -8 8 -63 -10 -63 -20 0 -6 -3 -9 -6 -5 -5 5 -55 -9 -104 -30 -30 -12
-176 -64 -233 -83 -32 -11 -64 -23 -70 -27 -7 -4 -16 -8 -22 -9 -5 -1 -62 -21
-125 -44 l-115 -42 -300 -4 c-165 -2 -373 -5 -462 -7 -151 -2 -204 5 -134 19
17 4 31 14 34 25 3 10 2 19 -1 19 -44 1 -279 66 -296 82 -6 4 -16 8 -24 8 -25
0 -212 99 -311 164 -165 108 -360 283 -502 451 -19 22 -43 49 -54 60 -11 12
-31 36 -45 54 -71 93 -121 157 -130 168 -6 7 -20 27 -33 45 -12 18 -37 53 -54
76 -31 43 -80 157 -149 350 -18 50 -30 92 -27 92 3 0 1 6 -4 13 -9 11 -66 208
-77 267 -3 14 -7 36 -10 50 -53 244 -62 469 -31 710 24 184 42 235 190 535
120 243 128 261 149 335 18 63 29 150 18 149 -4 0 -30 -26 -59 -57z m1391
-3818 c23 -9 20 -24 -4 -24 -11 0 -20 7 -20 15 0 17 2 18 24 9z m722 -141 c1
-19 -1 -20 -30 -9 -17 7 -46 12 -63 11 -38 -1 -35 7 5 13 15 2 28 5 29 6 2 2
16 2 31 1 20 -1 27 -6 28 -22z m-181 -3 c-3 -5 -12 -10 -18 -10 -7 0 -6 4 3
10 19 12 23 12 15 0z"/>
<path d="M2790 4443 c-42 -6 -82 -24 -155 -71 -71 -45 -86 -57 -234 -191 -135
-123 -138 -125 -161 -141 -12 -8 -28 -20 -34 -26 -6 -5 -67 -51 -136 -102 -69
-50 -130 -96 -137 -102 -7 -5 -17 -10 -23 -10 -5 0 -10 -4 -10 -8 0 -5 -24
-24 -52 -42 -29 -19 -55 -37 -58 -40 -3 -4 -34 -26 -70 -50 -36 -24 -67 -46
-70 -50 -3 -3 -27 -22 -55 -41 -27 -18 -52 -36 -55 -39 -3 -3 -39 -30 -80 -60
-67 -49 -206 -158 -236 -185 -7 -5 -29 -24 -50 -42 -158 -130 -404 -386 -404
-419 0 -9 9 -12 28 -9 15 2 59 9 97 15 130 21 287 83 425 167 134 83 408 298
546 428 6 5 44 39 85 75 40 36 94 83 119 106 25 22 68 58 95 80 28 21 55 44
60 50 6 6 60 46 120 90 61 43 115 83 121 89 7 5 24 19 40 30 39 28 166 139
184 162 13 15 78 100 87 112 4 7 114 -80 213 -168 124 -111 323 -314 465 -475
34 -39 183 -204 200 -222 11 -12 72 -76 135 -144 175 -187 208 -218 315 -298
45 -33 167 -78 240 -87 28 -4 60 -8 73 -10 37 -6 37 -6 -76 124 -26 30 -55 63
-65 75 -10 11 -42 48 -70 80 -50 57 -60 69 -110 126 -108 124 -122 144 -123
179 -1 20 -5 106 -8 191 -7 166 -14 318 -19 415 l-4 60 -224 1 c-123 0 -230
-2 -236 -4 -9 -3 -13 -34 -13 -108 0 -57 -4 -104 -8 -104 -5 0 -17 10 -29 23
-49 57 -240 282 -263 310 -121 151 -298 271 -380 260z"/>
<path d="M3007 3444 c-1 -1 -35 -5 -76 -8 -40 -3 -75 -7 -77 -9 -8 -8 -17
-169 -17 -292 0 -157 10 -286 22 -298 11 -11 444 -17 536 -8 l60 6 4 40 c4 35
5 409 2 518 -1 36 -2 37 -39 39 -20 0 -50 3 -67 4 -37 4 -344 11 -348 8z m119
-53 c11 -1 12 -11 15 -132 3 -113 6 -110 -127 -108 l-114 2 -1 26 c-5 118 1
196 17 208 14 10 134 13 210 4z m283 -6 c8 -8 6 -197 -2 -219 -5 -13 -24 -16
-117 -16 -60 0 -111 3 -111 8 -5 28 -6 182 -2 204 3 18 13 28 27 30 33 6 198
-1 205 -7z m-280 -270 c11 -12 16 -89 10 -177 -3 -57 -8 -59 -117 -60 -124 -2
-120 -7 -118 125 l1 112 29 5 c36 6 187 2 195 -5z m283 -27 c8 -51 1 -189 -9
-199 -12 -12 -172 -18 -179 -7 -2 4 -13 5 -23 3 -12 -2 -21 3 -24 14 -6 23 -6
192 0 208 3 8 40 11 118 11 l113 -1 4 -29z"/>
<path d="M2315 2679 c-57 -11 -126 -37 -147 -56 -10 -9 -18 -13 -18 -10 0 19
-77 -77 -98 -123 -37 -79 -37 -192 1 -270 29 -61 53 -90 112 -136 38 -29 172
-114 180 -114 2 0 53 -30 114 -67 172 -106 226 -167 234 -263 11 -123 -94
-212 -247 -211 -197 2 -297 71 -358 246 -13 39 -24 76 -24 83 -2 28 -5 32 -22
32 -17 0 -19 -10 -17 -123 1 -109 4 -128 23 -160 29 -45 96 -90 176 -117 92
-30 101 -32 221 -35 93 -3 120 1 175 19 86 30 129 59 174 119 49 67 70 141 64
233 -8 126 -67 196 -265 313 -389 232 -413 253 -417 376 -6 164 223 247 414
150 73 -37 142 -130 164 -222 23 -92 27 -102 41 -97 22 9 21 228 -1 272 -17
34 -81 92 -101 92 -7 0 -13 5 -13 10 0 6 -9 10 -19 10 -11 0 -22 4 -25 9 -3 5
-23 12 -43 17 -21 4 -40 8 -43 9 -53 16 -179 24 -235 14z"/>
<path d="M3058 2634 c-52 -22 -75 -82 -74 -194 1 -72 4 -85 19 -88 9 -2 17 0
18 5 1 4 2 22 4 38 7 81 61 143 142 164 36 10 179 17 248 12 20 -1 20 -7 20
-593 l0 -593 85 0 85 0 2 588 c1 324 4 591 7 595 4 3 99 6 214 6 l207 1 3 38
3 37 -473 -1 c-399 0 -479 -2 -510 -15z"/>
<path d="M4093 2630 c1 -16 8 -20 42 -20 56 0 87 -19 110 -65 19 -38 20 -63
22 -590 1 -302 2 -556 2 -563 1 -9 23 -12 86 -10 l85 3 0 290 0 291 65 1 c37
1 68 -4 74 -10 5 -7 48 -79 96 -162 205 -351 272 -420 414 -429 85 -5 143 10
139 37 -2 14 -12 22 -33 24 -59 8 -151 84 -192 161 -10 17 -21 32 -25 32 -5 0
-8 4 -8 10 0 5 -36 69 -80 141 -44 73 -80 135 -80 139 0 4 -6 13 -14 19 -8 6
-16 20 -19 31 -4 15 3 22 32 31 131 42 217 111 246 199 18 53 21 166 6 216
-21 73 -86 146 -160 183 -101 49 -186 60 -513 61 -292 1 -297 0 -295 -20z
m603 -73 c126 -46 194 -151 180 -279 -9 -94 -48 -151 -134 -196 -70 -36 -112
-45 -220 -46 l-82 -1 2 265 3 264 25 7 c54 14 169 7 226 -14z"/>
</g>
</svg>
